# Blender 4.5.3 LTS
# www.blender.org
mtllib Carroceria.mtl
o Car
v 8.483013 -3.192713 -8.439262
v 6.683013 -3.192713 -8.439262
v 8.483013 -3.895037 -8.508436
v 6.683013 -3.895037 -8.508436
v 8.483013 -3.895036 -15.570088
v 6.683013 -3.895036 -15.570088
v 8.483013 -3.192712 -15.639262
v 6.683013 -3.192712 -15.639262
v 8.483013 -2.490388 -15.570088
v 6.683013 -2.490388 -15.570088
v 8.483013 -1.815055 -15.365221
v 6.683013 -1.815055 -15.365221
v 8.483013 -1.192660 -15.032545
v 6.683013 -1.192660 -15.032545
v 8.483013 -0.647125 -14.584841
v 6.683013 -0.647125 -14.584841
v 8.483013 -0.199420 -14.039314
v 6.683013 -0.199420 -14.039314
v 8.483013 0.133256 -13.416919
v 6.683013 0.133256 -13.416919
v 8.483013 0.338114 -12.741577
v 6.683013 0.338114 -12.741577
v 8.483013 0.407287 -12.039254
v 6.683013 0.407287 -12.039254
v 8.483013 0.338114 -11.336929
v 6.683013 0.338114 -11.336929
v 8.483013 0.133247 -10.661596
v 6.683013 0.133247 -10.661596
v 8.483013 -0.199430 -10.039202
v 6.683013 -0.199430 -10.039202
v 8.483013 -0.647135 -9.493675
v 6.683013 -0.647135 -9.493675
v 8.483013 -1.192670 -9.045970
v 6.683013 -1.192670 -9.045970
v 8.483013 -1.815055 -8.713294
v 6.683013 -1.815055 -8.713294
v 8.483013 -2.490398 -8.508428
v 6.683013 -2.490398 -8.508428
v 8.865513 -3.192713 -8.619263
v 8.865513 -3.859928 -8.684971
v 6.300513 -3.859928 -8.684971
v 6.300513 -3.192713 -8.619263
v 6.300513 -3.859927 -15.393544
v 8.865513 -3.192712 -15.459263
v 6.300513 -3.192712 -15.459263
v 8.865513 -2.525506 -15.393544
v 6.300513 -2.525506 -15.393544
v 8.865513 -1.883932 -15.198929
v 6.300513 -1.883932 -15.198929
v 8.865513 -1.292659 -14.882885
v 6.300513 -1.292659 -14.882885
v 8.865513 -0.774412 -14.457562
v 6.300513 -0.774412 -14.457562
v 8.865513 -0.349090 -13.939306
v 6.300513 -0.349090 -13.939306
v 8.865513 -0.033046 -13.348034
v 6.300513 -0.033046 -13.348034
v 8.865513 0.161570 -12.706469
v 6.300513 0.161570 -12.706469
v 8.865513 0.227288 -12.039254
v 6.300513 0.227288 -12.039254
v 8.865513 0.161570 -11.372047
v 6.300513 0.161570 -11.372047
v 8.865513 -0.033047 -10.730474
v 6.300513 -0.033047 -10.730474
v 8.865513 -0.349090 -10.139210
v 6.300513 -0.349090 -10.139210
v 8.865513 -0.774413 -9.620954
v 6.300513 -0.774413 -9.620954
v 8.865513 -1.292668 -9.195631
v 6.300513 -1.292668 -9.195631
v 8.865513 -1.883942 -8.879587
v 6.300513 -1.883942 -8.879587
v 8.865513 -2.525507 -8.684971
v 6.300513 -2.525516 -8.684971
v 6.300513 -3.693122 -9.523547
v 6.300513 -3.192713 -9.474263
v 6.300513 -4.174297 -9.669508
v 6.300513 -4.174297 -14.409007
v 6.300513 -3.693121 -14.554970
v 6.300513 -3.192712 -14.604262
v 6.300513 -2.692303 -14.554970
v 6.300513 -2.211127 -14.409007
v 6.300513 -1.767679 -14.171984
v 6.300513 -1.378987 -13.852987
v 6.300513 -1.059991 -13.464295
v 6.300513 -0.822967 -13.020839
v 6.300513 -0.677005 -12.539661
v 6.300513 -0.627712 -12.039254
v 6.300513 -0.677005 -11.538854
v 6.300513 -0.822967 -11.057669
v 6.300513 -1.060001 -10.614220
v 6.300513 -1.378987 -10.225528
v 6.300513 -1.767680 -9.906542
v 6.300513 -2.211137 -9.669508
v 6.300513 -2.692312 -9.523547
v 6.428763 -3.643081 -9.775114
v 6.428763 -3.192713 -9.730762
v 6.428763 -4.076143 -9.906488
v 6.428763 -4.076143 -14.172037
v 6.428763 -3.643081 -14.303401
v 6.428763 -3.192712 -14.347763
v 6.428763 -2.742343 -14.303401
v 6.428763 -2.309290 -14.172037
v 6.428763 -1.910176 -13.958711
v 6.428763 -1.560355 -13.671611
v 6.428763 -1.273265 -13.321790
v 6.428763 -1.059937 -12.922685
v 6.428763 -0.928573 -12.489622
v 6.428763 -0.884212 -12.039254
v 6.428763 -0.928573 -11.588894
v 6.428763 -1.059937 -11.155832
v 6.428763 -1.273273 -10.756727
v 6.428763 -1.560365 -10.406897
v 6.428763 -1.910185 -10.119805
v 6.428763 -2.309291 -9.906478
v 6.428763 -2.742352 -9.775114
v 8.483013 -3.192714 14.600738
v 6.683013 -3.192714 14.600738
v 8.483013 -3.895039 14.531564
v 6.683013 -3.895039 14.531564
v 8.483013 -3.895038 7.469911
v 6.683013 -3.895038 7.469911
v 8.483013 -3.192714 7.400737
v 6.683013 -3.192714 7.400737
v 8.483013 -2.490390 7.469912
v 6.683013 -2.490390 7.469912
v 8.483013 -1.815057 7.674778
v 6.683013 -1.815057 7.674778
v 8.483013 -1.192662 8.007455
v 6.683013 -1.192662 8.007455
v 8.483013 -0.647127 8.455160
v 6.683013 -0.647127 8.455160
v 8.483013 -0.199422 9.000686
v 6.683013 -0.199422 9.000686
v 8.483013 0.133254 9.623080
v 6.683013 0.133254 9.623080
v 8.483013 0.338112 10.298423
v 6.683013 0.338112 10.298423
v 8.483013 0.407286 11.000747
v 6.683013 0.407286 11.000747
v 8.483013 0.338112 11.703070
v 6.683013 0.338112 11.703070
v 8.483013 0.133245 12.378403
v 6.683013 0.133245 12.378403
v 8.483013 -0.199431 13.000799
v 6.683013 -0.199431 13.000799
v 8.483013 -0.647137 13.546325
v 6.683013 -0.647137 13.546325
v 8.483013 -1.192672 13.994030
v 6.683013 -1.192672 13.994030
v 8.483013 -1.815057 14.326705
v 6.683013 -1.815057 14.326705
v 8.483013 -2.490400 14.531564
v 6.683013 -2.490400 14.531564
v 8.865513 -3.192714 14.420738
v 6.300513 -3.859930 14.355028
v 6.300513 -3.192714 14.420738
v 6.300513 -3.859929 7.646455
v 8.865513 -3.192714 7.580737
v 6.300513 -3.192714 7.580737
v 8.865513 -2.525508 7.646455
v 6.300513 -2.525508 7.646455
v 8.865513 -1.883934 7.841072
v 6.300513 -1.883934 7.841072
v 8.865513 -1.292661 8.157116
v 6.300513 -1.292661 8.157116
v 8.865513 -0.774414 8.582438
v 6.300513 -0.774414 8.582438
v 8.865513 -0.349092 9.100694
v 6.300513 -0.349092 9.100694
v 8.865513 -0.033048 9.691967
v 6.300513 -0.033048 9.691967
v 8.865513 0.161568 10.333532
v 6.300513 0.161568 10.333532
v 8.865513 0.227286 11.000747
v 6.300513 0.227286 11.000747
v 8.865513 0.161568 11.667953
v 6.300513 0.161568 11.667953
v 8.865513 -0.033048 12.309518
v 6.300513 -0.033048 12.309518
v 8.865513 -0.349092 12.900790
v 6.300513 -0.349092 12.900790
v 8.865513 -0.774414 13.419046
v 6.300513 -0.774414 13.419046
v 8.865513 -1.292670 13.844369
v 6.300513 -1.292670 13.844369
v 8.865513 -1.883943 14.160413
v 6.300513 -1.883943 14.160413
v 8.865513 -2.525509 14.355028
v 6.300513 -2.525517 14.355028
v 6.300513 -3.693123 13.516454
v 6.300513 -3.192714 13.565738
v 6.300513 -4.174299 8.630993
v 6.300513 -3.693123 8.485022
v 6.300513 -3.192714 8.435738
v 6.300513 -2.692305 8.485030
v 6.300513 -2.211129 8.630993
v 6.300513 -1.767681 8.868017
v 6.300513 -1.378989 9.187012
v 6.300513 -1.059993 9.575705
v 6.300513 -0.822969 10.019161
v 6.300513 -0.677007 10.500338
v 6.300513 -0.627714 11.000747
v 6.300513 -0.677007 11.501147
v 6.300513 -0.822969 11.982323
v 6.300513 -1.060002 12.425779
v 6.300513 -1.378989 12.814471
v 6.300513 -1.767681 13.133459
v 6.300513 -2.211138 13.370491
v 6.300513 -2.692314 13.516454
v 6.428763 -3.643083 13.264885
v 6.428763 -3.192714 13.309238
v 6.428763 -4.076145 8.867962
v 6.428763 -3.643083 8.736599
v 6.428763 -3.192714 8.692238
v 6.428763 -2.742345 8.736599
v 6.428763 -2.309292 8.867962
v 6.428763 -1.910178 9.081289
v 6.428763 -1.560357 9.368389
v 6.428763 -1.273266 9.718211
v 6.428763 -1.059939 10.117316
v 6.428763 -0.928575 10.550378
v 6.428763 -0.884214 11.000747
v 6.428763 -0.928575 11.451107
v 6.428763 -1.059939 11.884169
v 6.428763 -1.273275 12.283274
v 6.428763 -1.560366 12.633103
v 6.428763 -1.910187 12.920195
v 6.428763 -2.309292 13.133521
v 6.428763 -2.742354 13.264885
v -6.816987 -3.192714 14.600738
v -8.616987 -3.192714 14.600738
v -6.816987 -3.895039 14.531564
v -8.616987 -3.895039 14.531564
v -6.816987 -3.895038 7.469911
v -8.616987 -3.895038 7.469911
v -6.816987 -3.192714 7.400737
v -8.616987 -3.192714 7.400737
v -6.816987 -2.490390 7.469912
v -8.616987 -2.490390 7.469912
v -6.816987 -1.815057 7.674778
v -8.616987 -1.815057 7.674778
v -6.816987 -1.192662 8.007455
v -8.616987 -1.192662 8.007455
v -6.816987 -0.647127 8.455160
v -8.616987 -0.647127 8.455160
v -6.816987 -0.199422 9.000686
v -8.616987 -0.199422 9.000686
v -6.816987 0.133254 9.623080
v -8.616987 0.133254 9.623080
v -6.816987 0.338112 10.298423
v -8.616987 0.338112 10.298423
v -6.816987 0.407286 11.000747
v -8.616987 0.407286 11.000747
v -6.816987 0.338112 11.703070
v -8.616987 0.338112 11.703070
v -6.816987 0.133245 12.378403
v -8.616987 0.133245 12.378403
v -6.816987 -0.199431 13.000799
v -8.616987 -0.199431 13.000799
v -6.816987 -0.647137 13.546325
v -8.616987 -0.647137 13.546325
v -6.816987 -1.192672 13.994030
v -8.616987 -1.192672 13.994030
v -6.816987 -1.815057 14.326705
v -8.616987 -1.815057 14.326705
v -6.816987 -2.490400 14.531564
v -8.616987 -2.490400 14.531564
v -6.434487 -3.192714 14.420738
v -6.434487 -3.859930 14.355028
v -8.999487 -3.192714 14.420738
v -6.434487 -3.859920 7.646455
v -6.434487 -3.192714 7.580737
v -8.999487 -3.192714 7.580737
v -6.434487 -2.525508 7.646455
v -8.999487 -2.525508 7.646455
v -6.434487 -1.883934 7.841072
v -8.999487 -1.883934 7.841072
v -6.434487 -1.292661 8.157116
v -8.999487 -1.292661 8.157116
v -6.434487 -0.774414 8.582438
v -8.999487 -0.774414 8.582438
v -6.434487 -0.349092 9.100694
v -8.999487 -0.349092 9.100694
v -6.434487 -0.033048 9.691967
v -8.999487 -0.033048 9.691967
v -6.434487 0.161568 10.333532
v -8.999487 0.161568 10.333532
v -6.434487 0.227286 11.000747
v -8.999487 0.227286 11.000747
v -6.434487 0.161568 11.667953
v -8.999487 0.161568 11.667953
v -6.434487 -0.033048 12.309518
v -8.999487 -0.033048 12.309518
v -6.434487 -0.349092 12.900790
v -8.999487 -0.349092 12.900790
v -6.434487 -0.774414 13.419046
v -8.999487 -0.774414 13.419046
v -6.434487 -1.292670 13.844369
v -8.999487 -1.292670 13.844369
v -6.434487 -1.883943 14.160413
v -8.999487 -1.883943 14.160413
v -6.434487 -2.525509 14.355028
v -8.999487 -2.525517 14.355028
v -6.434487 -3.192714 13.565738
v -6.434487 -3.693123 13.516454
v -6.434487 -4.174299 8.630993
v -6.434487 -3.693123 8.485022
v -6.434487 -3.192714 8.435738
v -6.434487 -2.692305 8.485030
v -6.434487 -2.211129 8.630993
v -6.434487 -1.767681 8.868017
v -6.434487 -1.378989 9.187012
v -6.434487 -1.059993 9.575705
v -6.434487 -0.822960 10.019161
v -6.434487 -0.676998 10.500338
v -6.434487 -0.627714 11.000747
v -6.434487 -0.677007 11.501147
v -6.434487 -0.822969 11.982323
v -6.434487 -1.060002 12.425779
v -6.434487 -1.378989 12.814471
v -6.434487 -1.767681 13.133459
v -6.434487 -2.211138 13.370491
v -6.434487 -2.692314 13.516454
v -6.562737 -3.192714 13.309238
v -6.562737 -3.643083 13.264885
v -6.562737 -4.076136 8.867962
v -6.562737 -3.643083 8.736599
v -6.562737 -3.192714 8.692238
v -6.562737 -2.742345 8.736599
v -6.562737 -2.309292 8.867962
v -6.562737 -1.910178 9.081289
v -6.562737 -1.560357 9.368389
v -6.562737 -1.273266 9.718211
v -6.562737 -1.059939 10.117316
v -6.562737 -0.928575 10.550378
v -6.562737 -0.884214 11.000747
v -6.562737 -0.928575 11.451107
v -6.562737 -1.059939 11.884169
v -6.562737 -1.273275 12.283274
v -6.562737 -1.560366 12.633103
v -6.562737 -1.910187 12.920195
v -6.562737 -2.309292 13.133521
v -6.562737 -2.742354 13.264885
v -6.816987 -3.192713 -8.439262
v -8.616987 -3.192713 -8.439262
v -6.816987 -3.895037 -8.508436
v -8.616987 -3.895037 -8.508436
v -6.816987 -3.895036 -15.570088
v -8.616987 -3.895036 -15.570088
v -6.816987 -3.192712 -15.639262
v -8.616987 -3.192712 -15.639262
v -6.816987 -2.490388 -15.570088
v -8.616987 -2.490388 -15.570088
v -6.816987 -1.815055 -15.365221
v -8.616987 -1.815055 -15.365221
v -6.816987 -1.192660 -15.032545
v -8.616987 -1.192660 -15.032545
v -6.816987 -0.647125 -14.584841
v -8.616987 -0.647125 -14.584841
v -6.816987 -0.199420 -14.039314
v -8.616987 -0.199420 -14.039314
v -6.816987 0.133256 -13.416919
v -8.616987 0.133256 -13.416919
v -6.816987 0.338114 -12.741577
v -8.616987 0.338114 -12.741577
v -6.816987 0.407287 -12.039254
v -8.616987 0.407287 -12.039254
v -6.816987 0.338114 -11.336929
v -8.616987 0.338114 -11.336929
v -6.816987 0.133247 -10.661596
v -8.616987 0.133247 -10.661596
v -6.816987 -0.199430 -10.039202
v -8.616987 -0.199430 -10.039202
v -6.816987 -0.647135 -9.493675
v -8.616987 -0.647135 -9.493675
v -6.816987 -1.192670 -9.045970
v -8.616987 -1.192670 -9.045970
v -6.816987 -1.815055 -8.713294
v -8.616987 -1.815055 -8.713294
v -6.816987 -2.490398 -8.508428
v -8.616987 -2.490398 -8.508428
v -6.434487 -3.192713 -8.619263
v -6.434487 -3.859928 -8.684971
v -8.999487 -3.859928 -8.684971
v -8.999487 -3.192713 -8.619263
v -6.434487 -3.859918 -15.393544
v -6.434487 -3.192712 -15.459263
v -8.999487 -3.192712 -15.459263
v -6.434487 -2.525506 -15.393544
v -8.999487 -2.525506 -15.393544
v -6.434487 -1.883932 -15.198929
v -8.999487 -1.883932 -15.198929
v -6.434487 -1.292659 -14.882885
v -8.999487 -1.292659 -14.882885
v -6.434487 -0.774412 -14.457562
v -8.999487 -0.774412 -14.457562
v -6.434487 -0.349090 -13.939306
v -8.999487 -0.349090 -13.939306
v -6.434487 -0.033046 -13.348034
v -8.999487 -0.033046 -13.348034
v -6.434487 0.161570 -12.706469
v -8.999487 0.161570 -12.706469
v -6.434487 0.227288 -12.039254
v -8.999487 0.227288 -12.039254
v -6.434487 0.161570 -11.372047
v -8.999487 0.161570 -11.372047
v -6.434487 -0.033047 -10.730474
v -8.999487 -0.033047 -10.730474
v -6.434487 -0.349090 -10.139210
v -8.999487 -0.349090 -10.139210
v -6.434487 -0.774413 -9.620954
v -8.999487 -0.774413 -9.620954
v -6.434487 -1.292668 -9.195631
v -8.999487 -1.292668 -9.195631
v -6.434487 -1.883942 -8.879587
v -8.999487 -1.883942 -8.879587
v -6.434487 -2.525507 -8.684971
v -8.999487 -2.525516 -8.684971
v -6.434487 -3.192713 -9.474263
v -6.434487 -3.693122 -9.523547
v -6.434487 -4.174297 -9.669508
v -6.434487 -4.174297 -14.409007
v -6.434487 -3.693121 -14.554970
v -6.434487 -3.192712 -14.604262
v -6.434487 -2.692303 -14.554970
v -6.434487 -2.211127 -14.409007
v -6.434487 -1.767679 -14.171984
v -6.434487 -1.378987 -13.852987
v -6.434487 -1.059991 -13.464295
v -6.434487 -0.822958 -13.020839
v -6.434487 -0.676996 -12.539661
v -6.434487 -0.627712 -12.039254
v -6.434487 -0.677005 -11.538854
v -6.434487 -0.822967 -11.057669
v -6.434487 -1.060001 -10.614220
v -6.434487 -1.378987 -10.225528
v -6.434487 -1.767680 -9.906542
v -6.434487 -2.211137 -9.669508
v -6.434487 -2.692312 -9.523547
v -6.562737 -3.192713 -9.730762
v -6.562737 -3.643081 -9.775114
v -6.562737 -4.076143 -9.906488
v -6.562737 -4.076134 -14.172037
v -6.562737 -3.643081 -14.303401
v -6.562737 -3.192712 -14.347763
v -6.562737 -2.742343 -14.303401
v -6.562737 -2.309290 -14.172037
v -6.562737 -1.910176 -13.958711
v -6.562737 -1.560355 -13.671611
v -6.562737 -1.273265 -13.321790
v -6.562737 -1.059937 -12.922685
v -6.562737 -0.928573 -12.489622
v -6.562737 -0.884212 -12.039254
v -6.562737 -0.928573 -11.588894
v -6.562737 -1.059937 -11.155832
v -6.562737 -1.273273 -10.756727
v -6.562737 -1.560365 -10.406897
v -6.562737 -1.910185 -10.119805
v -6.562737 -2.309291 -9.906478
v -6.562737 -2.742352 -9.775114
v 8.708014 -4.092712 -19.599262
v 8.933013 1.532288 -18.699263
v 8.708014 -4.092715 19.100739
v 8.933013 1.982285 18.531237
v -8.841987 -4.092712 -19.599262
v -9.066986 1.532288 -18.699263
v -8.841987 -4.092715 19.100739
v -9.066986 1.982285 18.531237
v 8.651763 2.207287 -7.561762
v 8.651763 2.207286 13.363237
v -8.785737 2.207286 13.363237
v -8.785737 2.207287 -7.561762
v 6.036138 6.707287 -2.173012
v 6.036138 6.707286 10.224488
v -6.170112 6.707286 10.224488
v -6.170112 6.707287 -2.173012
v -0.066987 2.792285 18.650738
v -0.066987 -4.092715 19.100739
v -0.066987 -4.092712 -20.499264
v -0.066987 2.792285 14.263238
v -0.066987 2.792287 -8.011763
v -0.066987 7.292285 11.124489
v -0.066987 7.292286 -2.623012
v -8.796124 1.757288 -19.149261
v 8.660655 1.757288 -19.149261
v 8.641737 2.207285 18.650738
v -8.782893 2.207285 18.650738
v 8.933013 1.982286 2.900738
v 8.708014 -4.092713 2.900738
v -9.066986 1.982286 2.900738
v -8.841987 -4.092713 2.900738
v -0.066987 -4.092713 2.900738
v 8.651763 2.207287 2.900738
v -8.785737 2.207287 2.900738
v 6.036138 6.932286 4.025738
v -6.170112 6.932286 4.025738
v -0.066987 7.517287 4.025738
v -4.426362 2.657285 14.038238
v -3.118554 7.157286 10.899488
v -4.431555 2.207288 -19.599262
v -4.426362 2.657287 -8.011763
v -3.118554 7.157287 -2.623012
v -4.424940 2.657285 18.650738
v -3.118554 7.382286 4.025738
v 4.292388 2.657287 -8.011763
v 4.287375 2.657285 18.650738
v 2.984571 7.157287 -2.623012
v 4.292388 2.657285 14.038238
v 2.984571 7.157286 10.899488
v 4.296834 2.207288 -19.599262
v 2.984571 7.382286 4.025738
v -9.066986 -0.830215 19.100739
v -9.066986 -0.830212 -19.599262
v -9.066986 -0.830214 2.900738
v 8.933013 -0.830212 -19.599262
v 8.933013 -0.830215 19.100739
v 8.933013 -0.830214 2.900738
v -0.066987 -0.830215 19.100739
v -0.066987 -0.830239 -20.634262
v -4.454487 -4.092712 -20.499264
v -7.964487 -4.092715 19.100739
v -4.454487 -4.092713 2.900738
v -8.166986 -0.830215 19.100739
v -4.566987 -0.830230 -20.499264
v 7.830513 -4.092715 19.100739
v 4.320513 -4.092712 -20.499264
v 4.320513 -4.092713 2.900738
v 8.033013 -0.830215 19.100739
v 4.433013 -0.830230 -20.499264
v -8.167284 -0.970837 -20.814262
v -8.167284 -3.502086 -20.814262
v -4.117140 -3.502086 -21.714264
v 3.983157 -3.502086 -21.714264
v -0.066987 -3.502086 -21.849262
v 8.033310 -3.502086 -20.814262
v 8.033310 -0.970837 -20.814262
v -0.066987 -0.970864 -21.849262
v -4.117140 -0.970854 -21.714264
v 3.983157 -0.970854 -21.714264
v 8.933013 -1.298961 19.100739
v 8.933013 -2.723968 19.100739
v -9.066986 -1.298961 19.100739
v -9.066986 -2.723968 19.100739
v -9.066986 -1.298959 -19.599262
v -9.066986 -3.173965 -19.599262
v -0.066987 -1.117090 20.000736
v -0.066987 -3.581803 20.000736
v -9.066986 -1.298960 2.900738
v -9.066986 -2.723966 2.900738
v 8.933013 -1.298960 2.900738
v 8.933013 -2.723966 2.900738
v 8.933013 -3.173965 -19.599262
v 8.933013 -1.298959 -19.599262
v -8.571987 -1.117090 20.000736
v -8.571987 -3.581803 20.000736
v 8.438013 -1.117090 20.000736
v 8.438013 -3.581803 20.000736
v -8.167284 -1.392712 -20.949263
v -8.167284 -3.080211 -20.949263
v 8.033310 -3.080211 -20.949263
v 8.033310 -1.392712 -20.949263
v -0.066987 -3.080230 -21.984262
v -0.066987 -1.392748 -21.984262
v -4.117140 -1.392730 -21.849262
v -4.117140 -3.080221 -21.849262
v 3.983157 -1.392730 -21.849262
v 3.983157 -3.080221 -21.849262
v 4.639437 1.592624 -19.397949
v 8.348680 1.525124 -19.015450
v -8.484013 1.525124 -19.015450
v -4.774140 1.592624 -19.397949
v 4.755186 -0.674260 -20.162951
v 8.580186 -0.674251 -19.397949
v -8.714259 -0.674251 -19.397949
v -4.889259 -0.674260 -20.162951
v 4.074417 2.760787 -7.877041
v 8.215820 2.333287 -7.427042
v 2.831994 7.035787 -2.757733
v 5.730975 6.608286 -2.307733
v -8.349804 2.333287 -7.427042
v -5.864958 6.608286 -2.307733
v -4.208400 2.760787 -7.877041
v -0.066987 2.895787 -7.877041
v -2.965977 7.035787 -2.757733
v -0.066987 7.170786 -2.757733
v 8.933013 1.982286 2.900738
v 8.520975 2.437912 -6.875792
v 6.166917 6.487912 -2.025916
v 8.520975 2.437912 2.540459
v 6.166917 6.690411 3.552959
v 8.520975 2.437912 3.373517
v 8.520975 2.437911 12.789766
v 6.166917 6.690411 4.386018
v 6.166917 6.487911 9.964892
v 8.520975 2.437912 3.373517
v 8.520975 2.437911 12.789766
v 6.166917 6.690411 4.386018
v 6.166917 6.487911 9.964892
v 8.509212 2.458665 3.416069
v 8.509212 2.458665 12.738152
v 6.178689 6.668640 4.418445
v 6.178689 6.468165 9.941528
v 8.509212 2.458666 -6.814051
v 6.178689 6.468166 -2.012677
v 8.509212 2.458665 2.508032
v 6.178689 6.668640 3.510407
v -8.654958 2.437912 2.540459
v -8.654958 2.437912 -6.875792
v -6.300900 6.690411 3.552959
v -6.300900 6.487912 -2.025916
v -6.300900 6.487911 9.964892
v -8.654958 2.437911 12.789766
v -8.654958 2.437912 3.373517
v -6.300900 6.690411 4.386018
v -6.341796 6.419303 9.883704
v -8.614053 2.510036 12.610415
v -8.614053 2.510037 3.521387
v -6.341796 6.614766 4.498697
v -8.614053 2.510037 2.427779
v -8.614053 2.510038 -6.661259
v -6.341796 6.614766 3.405098
v -6.341796 6.419304 -1.979917
v 8.708014 -4.092712 -15.746138
v -9.066986 1.644788 -13.299262
v -0.066987 -4.092712 -14.649262
v 8.933013 1.644788 -13.299262
v -8.841987 -4.092712 -15.746138
v -9.066986 0.069788 -13.900435
v 8.933013 0.069788 -13.900435
v -4.454487 -4.092712 -14.649262
v 4.320513 -4.092712 -14.649262
v 8.933013 -2.723965 -15.746138
v -9.066986 -2.723965 -15.746138
v 8.933013 1.729162 -9.249262
v -8.841987 -4.092713 -8.363320
v -9.066986 0.069788 -10.209023
v -9.066986 -2.723965 -8.363320
v 8.708014 -4.092713 -8.363320
v -9.066986 1.729162 -9.249262
v -0.066987 -4.092713 -9.249262
v 8.933013 0.069788 -10.209023
v -4.454487 -4.092713 -9.249262
v 4.320513 -4.092713 -9.249262
v 8.933013 -2.723965 -8.363320
v 8.933013 1.982285 13.813238
v -8.841987 -4.092714 14.713237
v 8.708014 -4.092714 14.713237
v -9.066986 1.982285 13.813238
v -0.066987 -4.092714 14.713237
v -9.066986 0.069786 13.247930
v 8.933013 0.069786 13.247930
v -7.086987 -4.092714 14.713237
v 6.953013 -4.092714 14.713237
v -9.066986 -2.723967 14.713237
v 8.933013 -2.723967 14.713237
v 8.520975 2.437911 10.435708
v 6.166917 6.538536 8.570171
v 8.520975 2.437911 10.435708
v 6.166917 6.538536 8.570171
v 8.708014 -4.092714 7.260112
v -9.066986 1.982286 8.160112
v -0.066987 -4.092714 7.260112
v 8.933013 0.069786 8.725430
v -6.428862 -4.092714 7.260112
v 6.294888 -4.092714 7.260112
v 8.933013 -2.723967 7.260113
v 8.933013 1.982286 8.160112
v -8.841987 -4.092714 7.260112
v -9.066986 0.069786 8.725430
v -9.066986 -2.723967 7.260113
v 8.520975 2.437911 8.670160
v 6.166917 6.576507 7.524137
v 8.520975 2.437911 8.670160
v 6.166917 6.576507 7.524137
v 6.178689 6.555871 7.525181
v -4.208400 2.762136 13.959767
v -8.349804 2.334636 13.284767
v -2.965977 7.037136 10.977960
v -5.864958 6.609635 10.302959
v 5.730975 6.609635 10.302959
v 8.215820 2.334636 13.284767
v 4.074417 2.762136 13.959767
v -0.066987 2.890386 14.184767
v 2.831994 7.037136 10.977960
v -0.066987 7.165386 11.202959
v -4.001328 2.861738 13.885228
v -7.935660 2.455613 13.210228
v -2.821023 6.922989 11.052506
v -5.575059 6.516864 10.377498
v 5.441076 6.516864 10.377498
v 7.801686 2.455613 13.210228
v 3.867345 2.861738 13.885228
v -0.066987 2.983581 14.110220
v 2.687049 6.922989 11.052506
v -0.066987 7.044831 11.277507
v -0.066987 2.207288 -19.734262
v -4.431555 2.207288 -19.599262
v 4.296834 2.207288 -19.599262
v -0.066987 -0.830239 -20.634262
v -4.566987 -0.830230 -20.499264
v 4.433013 -0.830230 -20.499264
v -0.066987 1.993445 18.630470
v -9.516987 -0.155212 -13.900435
v 9.383013 -0.155212 -13.900435
v 9.383013 -2.948965 -15.746138
v -9.516987 -2.948965 -15.746138
v -9.516987 -0.155213 -10.209023
v -9.516987 -2.948966 -8.363320
v 9.383013 -0.155213 -10.209023
v 9.383013 -2.948966 -8.363320
v -9.516987 -0.155215 13.247930
v 9.383013 -0.155215 13.247930
v -9.516987 -2.948967 14.713237
v 9.383013 -2.948967 14.713237
v 9.383013 -0.155214 8.725430
v 9.383013 -2.948967 7.260113
v -9.516987 -0.155214 8.725430
v -9.516987 -2.948967 7.260113
v 9.383013 -0.364741 -13.623578
v 9.383013 -2.739427 -15.192430
v 9.383013 -0.364742 -10.485881
v 9.383013 -2.739428 -8.917037
v -9.516987 -0.364741 -13.623578
v -9.516987 -2.739427 -15.192421
v -9.516987 -0.364742 -10.485881
v -9.516987 -2.739428 -8.917037
v -9.516987 -0.294957 12.908737
v -9.516987 -2.809224 14.154256
v -9.516987 -0.294957 9.064612
v -9.516987 -2.809224 7.819094
v 9.383013 -0.364743 12.908737
v 9.383013 -2.739429 14.154256
v 9.383013 -0.364743 9.064612
v 9.383013 -2.739429 7.819094
v 3.867345 2.860462 -7.740061
v 7.801686 2.454337 -7.312561
v 2.687049 6.921711 -2.876713
v 5.441076 6.515586 -2.449213
v -7.935660 2.454337 -7.312561
v -5.575059 6.515586 -2.449213
v -4.001328 2.860462 -7.740061
v -0.066987 2.988713 -7.740061
v -2.821023 6.921711 -2.876713
v -0.066987 7.049962 -2.876713
vn -0.0009 -0.1173 0.9931
vn 0.8742 0.4855 -0.0066
vn 0.1763 0.7979 0.5764
vn -0.0233 0.5810 0.8136
vn -0.8755 0.4831 0.0065
vn 0.8784 0.1701 -0.4466
vn 0.7707 0.6371 -0.0129
vn -0.8609 0.5087 -0.0069
vn 0.8755 0.4831 0.0065
vn 0.0617 0.6235 0.7794
vn -1.0000 -0.0000 -0.0000
vn 1.0000 -0.0000 -0.0000
vn -0.4572 0.1054 -0.8831
vn -0.8795 0.1694 -0.4447
vn 0.0990 0.8631 -0.4951
vn -0.0000 -0.0000 1.0000
vn 0.7057 0.2425 -0.6657
vn -0.0723 -0.3648 -0.9283
vn -0.0990 0.8631 -0.4952
vn 0.0723 -0.3648 -0.9283
vn 0.4572 0.1057 -0.8830
vn -0.7056 0.2423 -0.6659
vn -0.6247 0.7809 -0.0000
vn -0.6209 0.7839 0.0003
vn -0.7711 0.6366 -0.0129
vn 0.6225 0.7827 0.0002
vn 0.8641 0.5029 -0.0183
vn 0.8610 0.5086 -0.0069
vn 0.8699 0.4933 -0.0000
vn 0.8625 0.5061 0.0068
vn -0.8641 0.5029 -0.0183
vn -0.8742 0.4855 -0.0066
vn -0.8699 0.4933 -0.0000
vn -0.8625 0.5061 0.0068
vn -0.8680 0.4962 0.0180
vn 0.8680 0.4962 0.0180
vn -0.1696 0.8332 0.5263
vn 0.0233 0.5810 0.8136
vn -0.0602 0.6503 0.7573
vn 0.0009 -0.1174 0.9931
vn 0.0055 0.1814 0.9834
vn -0.0055 0.1814 0.9834
vn -0.1863 0.7699 0.6104
vn -0.0000 1.0000 -0.0007
vn -0.0969 0.9953 -0.0006
vn -0.0000 0.9260 -0.3776
vn 0.1213 0.6496 -0.7505
vn -0.0000 0.7179 -0.6961
vn 0.1386 0.8799 -0.4545
vn 0.1246 0.6765 -0.7258
vn -0.0515 0.6720 0.7388
vn -0.0000 0.9124 0.4093
vn -0.1147 0.9493 0.2927
vn 0.0515 0.6719 0.7389
vn 0.0002 0.6724 0.7401
vn 0.0963 0.9954 -0.0004
vn 0.4799 0.8342 -0.2718
vn -0.1386 0.8799 -0.4545
vn -0.4799 0.8342 -0.2718
vn -0.2703 0.6466 0.7133
vn -0.5082 0.8498 0.1397
vn -0.1213 0.6496 -0.7506
vn 0.2707 0.6449 0.7147
vn 0.1147 0.9493 0.2927
vn -0.0869 0.8406 -0.5346
vn -0.5065 0.5151 -0.6914
vn 0.0004 0.8548 0.5190
vn -0.1718 0.3354 0.9263
vn 0.0008 0.5107 0.8598
vn 0.0869 0.8406 -0.5346
vn 0.0050 0.7965 -0.6047
vn -0.0823 0.8532 -0.5150
vn -0.0000 0.8155 -0.5787
vn 0.0823 0.8533 -0.5149
vn 0.1135 0.8745 -0.4716
vn -0.1135 0.8744 -0.4717
vn 0.5064 0.5155 -0.6912
vn -0.1246 0.6765 -0.7258
vn 0.4694 0.7936 0.3871
vn 0.5635 0.8261 0.0005
vn -0.4685 0.7982 0.3787
vn -0.5635 0.8261 0.0005
vn 0.1874 0.7900 0.5837
vn -0.1376 0.3895 0.9107
vn 0.1263 0.2945 0.9473
vn 0.1766 0.3699 0.9121
vn -0.0000 0.2852 -0.9585
vn -0.0291 0.2847 -0.9582
vn -0.0000 0.2846 -0.9587
vn 0.0291 0.2847 -0.9582
vn -0.0000 -0.0000 -0.0000
vn 0.8700 0.4930 -0.0000
vn 0.8700 0.4931 -0.0000
vn 0.1805 0.8017 0.5698
vn -0.1731 0.8376 0.5181
vn -0.0623 0.6516 0.7560
vn 0.0639 0.6234 0.7793
vn 0.0873 0.7266 -0.6815
vn -0.0000 0.7356 -0.6774
vn -0.0805 0.8140 -0.5752
vn -0.0000 0.7992 -0.6010
vn -0.1154 0.8338 -0.5399
vn 0.1154 0.8338 -0.5399
vn 0.1499 0.5067 0.8490
vn -0.1377 0.5109 0.8486
vn 0.0065 0.5530 0.8331
vn -0.1943 0.4245 0.8843
vn 0.1956 0.3641 0.9106
vn 0.1561 0.7011 -0.6958
vn -0.1561 0.7011 -0.6958
vn -0.0873 0.7266 -0.6815
vn 0.0805 0.8140 -0.5752
vn -0.0000 -0.0000 -1.0000
vn 0.8755 0.4831 0.0064
vn 0.8625 0.5060 0.0068
vn 0.8642 0.5029 -0.0183
vn 0.8609 0.5088 -0.0070
vn -0.8755 0.4831 0.0066
vn -0.8642 0.5029 -0.0183
vn -0.8610 0.5086 -0.0068
vn -0.8681 0.4961 0.0180
vn 0.8681 0.4961 0.0180
vn 0.8707 0.4918 -0.0040
vn 0.8647 0.5022 -0.0105
vn 0.8686 0.4953 -0.0115
vn -0.8707 0.4918 -0.0040
vn -0.8647 0.5022 -0.0105
vn -0.8658 0.5005 -0.0038
vn 0.8718 0.4898 0.0039
vn 0.8708 0.4915 0.0112
vn 0.8686 0.4953 0.0123
vn -0.8718 0.4898 0.0038
vn -0.8669 0.4984 0.0109
vn -0.8708 0.4915 0.0111
vn -0.0012 0.6176 0.7865
vn -0.1231 0.6500 0.7499
vn 0.1134 0.6540 0.7480
vn -0.1294 0.7164 0.6856
vn 0.2657 0.5314 0.8044
vn 0.4472 0.8944 -0.0000
vn -0.2262 0.4524 -0.8626
vn -0.2262 0.4524 0.8626
vn -0.4472 0.8944 -0.0000
vn -0.2657 0.5314 0.8044
vn 0.8457 -0.4991 -0.1889
vn -0.8457 -0.4991 -0.1889
vn -0.8543 -0.5042 -0.1260
vn -0.8543 -0.5042 0.1260
vn 0.8460 -0.4993 0.1872
vn 0.9712 -0.0625 0.2298
vn 0.4592 -0.8852 0.0749
vn 0.7994 0.1263 0.5874
vn -0.9540 -0.1046 -0.2808
vn -0.4524 -0.8891 -0.0698
vn -0.8218 0.1475 -0.5503
vn -0.9967 -0.0814 -0.0000
vn -0.4606 -0.8840 -0.0798
vn -0.7994 0.1263 -0.5873
vn 0.9967 -0.0814 -0.0000
vn 0.4588 -0.8854 0.0750
vn 0.8201 0.1520 0.5517
vn -0.0000 0.9933 -0.1152
vn -0.0818 0.7543 -0.6514
vn -0.1995 0.9232 -0.3284
vn -0.4459 -0.4201 0.7904
vn -0.9712 -0.0625 0.2298
vn -0.6153 -0.7471 0.2514
vn -0.0000 -0.5032 0.8642
vn -0.0000 -0.9669 0.2553
vn 0.4459 -0.4201 0.7904
vn -0.4231 0.6620 -0.6187
vn -0.7952 0.3543 -0.4920
vn -0.0000 -0.9767 -0.2145
vn -0.0907 -0.6413 -0.7619
vn -0.0000 -0.6582 -0.7528
vn 0.0342 -0.9689 -0.2449
vn 0.4521 -0.5445 -0.7065
vn 0.6271 -0.7330 -0.2635
vn 0.6153 -0.7471 0.2514
vn -0.5444 -0.1298 -0.8287
vn -0.4521 -0.5445 -0.7065
vn -0.1232 -0.1518 -0.9807
vn 0.5444 -0.1298 -0.8287
vn 0.0908 -0.6414 -0.7618
vn 0.1232 -0.1518 -0.9807
vn -0.0000 -0.1537 -0.9881
vn -0.0342 -0.9689 -0.2449
vn -0.9546 0.0238 -0.2968
vn -0.5430 0.1063 -0.8330
vn 0.1995 0.9232 -0.3284
vn 0.4230 0.6620 -0.6187
vn 0.0818 0.7543 -0.6514
vn 0.9541 -0.1046 -0.2808
vn -0.0000 0.7668 -0.6419
vn 0.9546 0.0238 -0.2968
vn 0.7952 0.3542 -0.4921
vn 0.5430 0.1063 -0.8330
vn -0.6271 -0.7330 -0.2635
vn 0.1232 0.1518 -0.9807
vn -0.0000 0.1537 -0.9881
vn -0.1232 0.1518 -0.9807
vn 0.4515 0.5372 0.7124
vn 0.9189 0.1649 0.3584
vn -0.0935 0.6220 0.7774
vn -0.0000 0.5901 0.8074
vn -0.0000 0.6611 0.7503
vn -0.4515 0.5373 0.7124
vn 0.0935 0.6220 0.7774
vn -0.9189 0.1649 0.3584
vn 0.4524 -0.8891 -0.0698
vn -0.8201 0.1520 0.5517
vn -0.6472 -0.7623 -0.0000
vn 0.9163 0.3625 -0.1702
vn -0.7994 0.1263 0.5873
vn 0.7994 0.1263 -0.5874
vn 0.6472 -0.7623 -0.0000
vn -0.9163 0.3625 -0.1702
vn 0.7456 0.5352 -0.3971
vn 0.7622 -0.1214 -0.6359
vn 0.9223 0.3429 0.1782
vn 0.9223 0.3429 -0.1782
vn -0.7580 0.5485 -0.3528
vn 0.8218 0.1474 -0.5503
vn 0.5033 0.5793 -0.6412
vn 0.7660 -0.0929 -0.6361
vn 0.7456 0.5352 0.3971
vn 0.9886 -0.1410 0.0534
vn 0.7660 -0.0929 0.6361
vn -0.9894 -0.1360 0.0515
vn -0.7660 -0.0929 -0.6361
vn -0.7660 -0.0929 0.6361
vn -0.4588 -0.8854 0.0749
vn -0.7510 -0.1062 0.6517
vn -0.4606 -0.8840 0.0797
vn -0.7510 -0.1062 -0.6517
vn 0.7621 -0.1214 0.6359
vn 0.9887 -0.1403 -0.0526
vn 0.9887 -0.1403 0.0526
vn 0.4592 -0.8852 -0.0749
vn -0.1477 0.2568 -0.9551
vn 0.1478 0.2569 -0.9551
vn -0.0000 -1.0000 -0.0000
vn -0.2153 -0.0000 0.9765
vn 0.2143 -0.0957 0.9721
vn 0.2153 -0.0000 0.9765
vn -0.2143 -0.0957 -0.9721
vn 0.2153 -0.0000 -0.9765
vn 0.1121 -0.0974 -0.9889
vn -0.2153 -0.0000 -0.9765
vn 0.2153 0.1905 -0.9578
vn -0.2153 0.1905 -0.9578
vn 0.2153 0.3737 -0.9022
vn -0.2153 0.3737 -0.9022
vn 0.2153 0.5425 -0.8120
vn -0.2153 0.5425 -0.8120
vn 0.2153 0.6905 -0.6905
vn -0.2153 0.6905 -0.6905
vn 0.2153 0.8120 -0.5425
vn -0.2153 0.8120 -0.5425
vn 0.2153 0.9022 -0.3737
vn -0.2153 0.9022 -0.3737
vn 0.2153 0.9578 -0.1905
vn -0.2153 0.9578 -0.1905
vn 0.2153 0.9765 -0.0000
vn -0.2153 0.9765 -0.0000
vn 0.2153 0.9578 0.1905
vn -0.2153 0.9578 0.1905
vn 0.2153 0.9022 0.3737
vn -0.2153 0.9022 0.3737
vn 0.2153 0.8120 0.5425
vn -0.2153 0.8120 0.5425
vn 0.2153 0.6905 0.6905
vn -0.2153 0.6905 0.6905
vn 0.2153 0.5425 0.8120
vn -0.2153 0.5425 0.8120
vn 0.2153 0.3737 0.9022
vn -0.8293 0.5481 -0.1090
vn -0.2153 0.3737 0.9022
vn 0.2153 0.1905 0.9578
vn -0.2153 0.1905 0.9578
vn 0.4258 -0.0000 0.9048
vn 0.4258 0.1765 0.8874
vn -0.8293 0.1090 0.5481
vn -0.8293 -0.0000 0.5588
vn 0.4258 0.9048 -0.0000
vn 0.4258 0.8874 -0.1765
vn -0.8293 0.5588 -0.0000
vn -0.8293 -0.0000 -0.5588
vn -0.8293 0.5481 0.1090
vn 0.4257 0.0183 -0.9047
vn 0.4258 0.8874 0.1765
vn -0.8293 0.1090 -0.5481
vn -0.8293 0.5163 0.2139
vn 0.4258 0.1765 -0.8874
vn 0.4258 0.7523 0.5027
vn 0.4258 0.8359 0.3463
vn -0.8293 0.2139 -0.5163
vn -0.2143 -0.0957 0.9721
vn -0.8280 -0.0550 0.5580
vn -0.8293 0.4647 0.3105
vn 0.4258 0.3463 -0.8360
vn 0.4258 0.6398 0.6398
vn -0.8293 0.3105 -0.4647
vn -0.8293 0.3952 0.3952
vn 0.4258 0.6398 -0.6398
vn 0.4258 0.5027 -0.7523
vn 0.4258 0.5027 0.7523
vn -0.8293 0.3952 -0.3952
vn -0.8293 0.3105 0.4647
vn 0.4258 0.7523 -0.5027
vn -0.8293 0.4647 -0.3105
vn -0.8293 0.2139 0.5163
vn 0.4258 0.3463 0.8359
vn -0.8293 0.5163 -0.2139
vn 0.4258 0.8359 -0.3463
vn -0.9764 -0.0422 0.2119
vn -0.8944 -0.0000 0.4472
vn -0.8944 -0.0872 0.4386
vn -0.9764 -0.1200 0.1797
vn -0.9764 -0.1528 0.1528
vn -0.9764 -0.1996 -0.0827
vn -0.9764 -0.1797 -0.1200
vn -0.9764 -0.1797 0.1200
vn -0.9560 0.0572 -0.2877
vn -0.9764 -0.1528 -0.1528
vn -0.9764 -0.1996 0.0827
vn -0.9764 -0.1200 -0.1797
vn -0.8280 -0.0550 -0.5580
vn -0.9764 -0.0000 0.2161
vn -0.9764 -0.2119 0.0422
vn -0.9764 -0.0827 -0.1996
vn -0.9764 -0.2161 -0.0000
vn -0.9764 -0.0422 -0.2119
vn -0.9764 -0.0827 0.1996
vn -0.9764 -0.2119 -0.0422
vn -0.9764 -0.0000 -0.2161
vn -0.8944 -0.1711 0.4132
vn -0.8944 -0.2485 0.3718
vn -0.8944 -0.3162 0.3162
vn -0.8944 -0.3718 0.2485
vn -0.8944 -0.4132 0.1711
vn -0.8944 -0.4386 0.0872
vn -0.8944 -0.4472 -0.0000
vn -0.8944 -0.4386 -0.0872
vn -0.8944 -0.4132 -0.1711
vn -0.8944 -0.3718 -0.2485
vn -0.8944 0.0872 -0.4386
vn -0.8944 -0.3162 -0.3162
vn -0.8936 0.1303 -0.4296
vn -0.8944 -0.2485 -0.3719
vn -0.8944 -0.1711 -0.4132
vn -0.8944 -0.0872 -0.4386
vn -0.8944 -0.0000 -0.4472
vn -0.9560 0.0572 0.2877
vn -0.8936 0.1303 0.4296
vn -0.8944 0.0872 0.4386
vn -0.0000 -0.0980 0.9952
vn 0.1424 0.0298 0.9894
vn 0.1424 0.0298 -0.9894
vn -0.0000 -0.0980 -0.9952
vn 0.4241 0.0888 0.9013
vn 0.4241 0.0888 -0.9012
vn 0.4258 0.3463 -0.8359
vn -0.9762 0.0213 -0.2160
vn -0.8936 0.0440 -0.4468
vn -0.1424 0.0298 0.9894
vn 0.2143 -0.0957 -0.9721
vn -0.1424 0.0298 -0.9894
vn -0.4258 0.8874 -0.1765
vn 0.8293 -0.0000 0.5588
vn 0.8293 0.1090 0.5481
vn 0.8293 0.4647 0.3105
vn 0.9764 -0.1996 -0.0827
vn 0.8293 0.5163 0.2139
vn -0.4258 0.1765 0.8874
vn -0.4241 0.0888 0.9012
vn 0.8293 0.5588 -0.0000
vn 0.8293 0.5481 -0.1090
vn -0.4258 0.9048 -0.0000
vn 0.8280 -0.0550 -0.5580
vn -0.4258 0.8874 0.1765
vn 0.8293 0.1090 -0.5481
vn 0.8293 -0.0000 -0.5588
vn 0.8293 0.5481 0.1090
vn -0.4258 0.1765 -0.8874
vn -0.4258 0.8359 0.3463
vn -0.4258 0.3463 -0.8359
vn -0.4258 0.7523 0.5027
vn 0.8293 0.2139 -0.5163
vn 0.8293 0.3952 0.3952
vn -0.4258 0.5027 -0.7523
vn -0.4258 0.6398 0.6398
vn 0.8293 0.3952 -0.3952
vn 0.8293 0.3105 -0.4647
vn -0.4258 0.6398 -0.6398
vn -0.4258 0.5027 0.7523
vn 0.8293 0.4647 -0.3105
vn 0.8293 0.3105 0.4647
vn -0.4258 0.7523 -0.5027
vn -0.4258 0.3463 0.8359
vn 0.8293 0.2139 0.5163
vn -0.4258 0.8359 -0.3463
vn 0.8293 0.5163 -0.2139
vn 0.9764 -0.1796 0.1200
vn 0.9764 -0.1528 0.1528
vn 0.9762 0.0213 -0.2160
vn 0.9764 -0.0000 -0.2161
vn 0.9764 -0.1528 -0.1528
vn 0.9764 -0.1797 -0.1200
vn 0.9764 -0.0000 0.2161
vn 0.9560 0.0572 0.2877
vn 0.9764 -0.1996 0.0827
vn 0.9764 -0.0827 -0.1996
vn 0.9764 -0.1200 -0.1797
vn 0.9764 -0.2119 0.0422
vn 0.9764 -0.0422 0.2119
vn 0.9764 -0.2161 -0.0000
vn 0.9764 -0.0422 -0.2119
vn 0.9764 -0.1200 0.1797
vn 0.9764 -0.0827 0.1996
vn 0.9764 -0.2119 -0.0422
vn 0.8944 -0.3162 -0.3162
vn 0.8944 -0.2485 -0.3719
vn 0.8944 -0.1711 -0.4132
vn 0.8944 -0.0872 -0.4386
vn 0.8936 0.1303 0.4296
vn 0.8944 -0.0000 0.4472
vn 0.8944 0.0872 0.4386
vn 0.8944 -0.1711 0.4132
vn 0.8944 -0.0872 0.4386
vn 0.8944 -0.2485 0.3718
vn 0.8944 -0.3162 0.3162
vn 0.8944 -0.4132 0.1711
vn 0.8944 -0.3718 0.2485
vn 0.8944 -0.4386 0.0872
vn 0.8944 -0.4472 -0.0000
vn 0.8944 -0.4132 -0.1711
vn 0.8944 -0.4386 -0.0872
vn 0.8936 0.0440 -0.4468
vn 0.8944 -0.0000 -0.4472
vn 0.8944 -0.3718 -0.2485
vn -0.4258 -0.0000 0.9048
vn -0.4258 0.3463 -0.8360
vn -0.4241 -0.0888 0.9013
vn 0.9560 0.0572 -0.2877
vn 0.8936 0.1303 -0.4296
vn 0.8944 0.0872 -0.4386
vn 0.0990 0.8631 -0.4952
vn 0.6225 0.7826 0.0002
vn 0.5070 0.8505 0.1399
vn -0.0291 0.2846 -0.9582
vn 0.0287 0.2852 -0.9581
vn 0.8698 0.4934 -0.0000
vn 0.8697 0.4935 -0.0000
vn 0.8742 0.4855 -0.0064
vn 0.8624 0.5061 0.0070
vn 0.8624 0.5061 0.0066
vn 0.8609 0.5087 -0.0069
vn 0.8658 0.5004 -0.0038
vn 0.8669 0.4984 0.0109
vn 0.8668 0.4986 0.0038
vn -0.1478 0.2568 -0.9551
vn -0.7711 0.6365 -0.0129
vn 0.4241 -0.0888 0.9013
vn -0.8742 0.4855 -0.0065
vn -0.8698 0.4933 -0.0000
vn -0.8686 0.4953 -0.0115
vn -0.8668 0.4986 0.0038
vn 0.8280 -0.0550 0.5580
vn -0.1696 0.8333 0.5262
vn -0.0009 -0.1174 0.9931
vn 0.0009 -0.1173 0.9931
vn 0.1637 0.8592 0.4847
vn 0.0589 0.6737 0.7366
vn 0.1667 0.8637 0.4757
vn 0.0608 0.6760 0.7344
vn 0.0976 0.7247 0.6821
vn -0.4241 0.0888 -0.9012
s 0
g off
usemtl Body
f 505//1 470//1 704//1
f 495//2 592//2 497//2
f 510//3 683//3 684//3
f 477//4 679//4 681//4
f 498//5 615//5 616//5
f 464//6 517//6 487//6
f 471//7 495//7 588//7
f 478//8 610//8 612//8
f 497//9 593//9 495//9
f 482//10 684//10 685//10
f 663//11 516//11 671//11
f 468//11 630//11 626//11
f 636//12 519//12 643//12
f 466//12 653//12 647//12
f 487//13 575//13 571//13
f 486//14 515//14 468//14
f 517//15 574//15 575//15
f 518//16 530//16 542//16
f 550//11 672//11 516//11
f 639//11 550//11 516//11
f 531//17 570//17 574//17
f 502//18 572//18 486//18
f 515//19 577//19 526//19
f 512//20 571//20 570//20
f 486//21 576//21 515//21
f 526//22 573//22 502//22
f 663//23 650//23 473//23
f 473//24 470//24 489//24
f 626//25 641//25 474//25
f 472//26 488//26 466//26
f 475//27 592//27 590//27
f 475//28 589//28 471//28
f 495//29 589//29 591//29
f 476//30 594//30 596//30
f 495//29 593//29 673//29
f 478//31 611//31 498//31
f 496//32 611//32 609//32
f 496//33 610//33 474//33
f 477//34 614//34 473//34
f 477//35 616//35 613//35
f 544//16 525//16 514//16
f 552//12 646//12 519//12
f 464//12 631//12 517//12
f 626//11 638//11 641//11
f 641//11 516//11 492//11
f 628//12 643//12 631//12
f 647//12 665//12 669//12
f 470//11 652//11 514//11
f 674//36 595//36 497//36
f 669//12 519//12 490//12
f 496//33 614//33 615//33
f 650//11 671//11 652//11
f 500//37 679//37 473//37
f 476//38 683//38 472//38
f 482//39 678//39 500//39
f 466//40 488//40 508//40
f 704//41 520//41 530//41
f 525//42 520//42 704//42
f 668//12 552//12 519//12
f 656//11 544//11 514//11
f 518//12 542//12 657//12
s 1
f 501//43 499//44 506//45
f 485//46 580//47 587//48
f 509//49 581//50 580//47
f 505//51 482//52 500//53
f 508//54 482//52 479//55
f 513//56 475//57 509//49
f 506//45 485//46 504//58
f 478//59 506//45 504//58
f 489//60 500//53 473//61
f 485//46 586//62 504//58
f 485//46 513//56 509//49
f 488//63 510//64 508//54
f 478//59 582//65 474//66
f 484//67 680//68 687//69
f 475//57 579//70 581//50
f 483//71 584//72 585//73
f 483//71 578//74 507//75
f 503//76 582//65 584//72
f 507//75 579//70 471//77
f 504//58 583//78 478//59
f 513//56 476//79 497//80
f 477//81 506//45 498//82
f 499//44 511//83 513//56
f 501//43 681//84 680//68
f 511//83 682//85 476//79
f 484//67 686//86 511//83
f 701//87 699//88 698//89
f 700//90 701//87 698//89
s 0
f 495//2 591//2 592//2
f 588//7 464//7 471//7
f 464//7 487//7 471//7
f 497//9 595//9 593//9
f 636//12 490//12 519//12
f 466//12 518//12 653//12
f 517//448 531//448 574//448
f 531//17 512//17 570//17
f 515//19 576//19 577//19
f 512//20 487//20 571//20
f 486//21 572//21 576//21
f 466//449 588//449 472//449
f 588//449 495//449 472//449
f 475//27 497//27 592//27
f 475//28 590//28 589//28
f 495//29 471//29 589//29
f 476//30 472//30 594//30
f 594//29 472//29 658//29
f 472//29 495//29 673//29
f 658//29 472//29 673//29
f 552//12 553//12 646//12
f 646//12 643//12 519//12
f 464//12 628//12 631//12
f 628//12 636//12 643//12
f 647//12 653//12 665//12
f 497//36 476//36 674//36
f 476//36 596//36 659//36
f 674//36 476//36 659//36
f 669//12 665//12 519//12
f 476//38 682//38 683//38
f 530//41 518//41 466//41
f 466//41 704//41 530//41
f 519//12 665//12 668//12
f 668//12 553//12 552//12
f 657//12 653//12 518//12
f 542//12 543//12 657//12
s 1
f 501//43 484//67 499//44
f 485//46 509//49 580//47
f 509//49 475//57 581//50
f 505//51 479//55 482//52
f 508//54 510//64 482//52
f 513//56 497//80 475//57
f 506//45 499//44 485//46
f 478//59 498//82 506//45
f 489//60 505//51 500//53
f 485//46 587//48 586//62
f 485//46 499//44 513//56
f 488//63 472//450 510//64
f 478//59 583//78 582//65
f 484//67 501//43 680//68
f 475//57 471//77 579//70
f 483//71 503//76 584//72
f 483//71 585//73 578//74
f 503//76 474//66 582//65
f 507//75 578//74 579//70
f 504//58 586//62 583//78
f 513//56 511//83 476//79
f 477//81 501//43 506//45
f 499//44 484//67 511//83
f 701//87 702//451 699//88
f 700//90 703//452 701//87
s 0
f 663//11 492//11 516//11
f 468//11 515//11 630//11
f 487//13 517//13 575//13
f 550//11 551//11 672//11
f 672//11 671//11 516//11
f 516//11 638//11 639//11
f 639//11 551//11 550//11
f 502//18 573//18 572//18
f 526//22 577//22 573//22
f 641//25 492//25 474//25
f 492//463 496//463 474//463
f 474//463 486//463 626//463
f 486//25 468//25 626//25
f 626//11 630//11 638//11
f 641//11 638//11 516//11
f 470//11 650//11 652//11
f 650//11 663//11 671//11
f 704//42 470//42 525//42
f 470//42 514//42 525//42
f 498//5 496//5 615//5
f 478//8 474//8 610//8
f 650//23 470//23 473//23
f 473//23 496//23 663//23
f 496//23 492//23 663//23
f 478//31 612//31 611//31
f 496//465 498//465 611//465
f 496//33 609//33 610//33
f 477//34 613//34 614//34
f 477//35 498//35 616//35
f 496//33 473//33 614//33
f 514//11 652//11 656//11
f 656//11 545//11 544//11
f 477//4 473//4 679//4
f 500//470 678//470 679//470
f 482//39 685//39 678//39
s 1
f 501//43 477//81 681//84
s 0
f 704//471 479//471 505//471
f 505//471 489//471 470//471
f 479//40 704//40 508//40
f 704//472 466//472 508//472
f 510//473 472//473 683//473
f 482//474 510//474 684//474
s 1
f 511//83 686//86 682//85
f 484//67 687//69 686//86
s 0
usemtl Black
f 673//91 597//91 675//91
f 591//92 605//92 607//92
f 609//33 622//33 610//33
f 594//91 660//91 598//91
f 675//93 601//93 602//93
f 658//91 675//91 660//91
f 615//33 618//33 619//33
f 682//38 693//38 683//38
f 681//4 689//4 691//4
f 684//94 693//94 694//94
f 678//95 689//95 679//95
f 685//96 688//96 678//96
f 685//97 694//97 695//97
s 1
f 587//48 739//98 746//99
f 585//73 743//100 744//101
f 584//72 741//102 743//100
f 578//74 738//103 579//70
f 687//69 696//104 686//86
f 687//69 690//105 697//106
f 680//68 691//107 690//105
f 686//86 692//108 682//85
f 580//47 740//109 739//98
f 586//62 742//110 583//78
f 587//48 745//111 586//62
f 581//50 738//103 740//109
f 583//78 741//102 582//65
f 585//73 737//112 578//74
s 0
f 591//93 589//93 605//93
f 602//93 598//93 660//93
f 675//453 597//454 601//453
f 602//93 660//93 675//93
s 1
f 587//48 580//47 739//98
f 585//73 584//72 743//100
f 584//72 582//65 741//102
f 578//74 737//112 738//103
f 580//47 581//50 740//109
f 586//62 745//111 742//110
f 587//48 746//99 745//111
f 581//50 579//70 738//103
f 583//78 742//110 741//102
f 585//73 744//101 737//112
s 0
f 609//466 621//466 622//466
f 615//33 614//33 618//33
f 681//4 679//4 689//4
f 678//95 688//95 689//95
f 685//96 695//96 688//96
s 1
f 687//69 680//68 690//105
f 680//68 681//84 691//107
s 0
f 673//91 593//91 597//91
f 594//91 658//91 660//91
f 658//91 673//91 675//91
f 682//38 692//38 693//38
f 684//475 683//475 693//475
f 685//476 684//476 694//476
s 1
f 687//69 697//106 696//104
f 686//86 696//104 692//108
s 0
usemtl Window
f 591//2 608//2 592//2
f 596//113 598//113 600//113
f 593//113 599//113 597//113
f 659//113 600//113 661//113
f 599//114 601//114 597//114
f 600//115 602//115 604//115
f 590//116 608//116 606//116
f 590//117 605//117 589//117
f 609//32 623//32 621//32
f 613//34 618//34 614//34
f 616//118 619//118 620//118
f 612//119 623//119 611//119
f 612//120 622//120 624//120
f 674//113 661//113 676//113
f 613//121 620//121 617//121
f 595//113 676//113 599//113
f 676//36 603//36 599//36
f 661//122 604//122 677//122
s 1
f 607//123 606//124 608//125
f 621//126 624//127 622//128
f 601//129 603//130 677//131
f 619//132 617//133 620//134
f 695//135 690//105 688//136
f 694//137 692//108 696//104
f 688//136 691//107 689//138
f 695//135 696//104 697//106
f 743//100 742//110 745//111
f 744//101 739//98 737//112
f 744//101 745//111 746//99
f 737//112 740//109 738//103
s 0
f 591//455 607//455 608//455
f 599//9 603//9 601//9
f 600//456 598//457 602//456
f 590//27 592//27 608//27
f 590//458 606//458 605//458
f 676//122 677//122 603//122
f 677//122 676//122 661//122
f 661//36 600//36 604//36
s 1
f 607//123 605//459 606//124
f 604//460 602//461 677//131
f 602//461 601//129 677//131
f 743//100 741//102 742//110
f 744//101 746//99 739//98
f 744//101 743//100 745//111
f 737//112 739//98 740//109
s 0
f 609//32 611//32 623//32
f 613//34 617//34 618//34
f 616//118 615//118 619//118
f 612//119 624//119 623//119
f 612//120 610//120 622//120
f 613//121 616//121 620//121
s 1
f 621//126 623//467 624//127
f 619//132 618//468 617//133
f 695//135 697//106 690//105
f 688//136 690//105 691//107
s 0
f 596//113 594//113 598//113
f 593//113 595//113 599//113
f 659//113 596//113 600//113
f 674//113 659//113 661//113
f 595//113 674//113 676//113
s 1
f 694//137 693//477 692//108
f 695//135 694//137 696//104
s 0
usemtl Bumpers
f 646//139 711//139 643//139
f 643//140 706//140 631//140
f 672//141 719//141 671//141
f 656//142 713//142 715//142
f 671//143 713//143 652//143
f 639//144 709//144 710//144
f 630//143 709//143 638//143
f 711//12 724//12 723//12
f 711//12 721//12 706//12
f 712//145 640//145 724//145
f 709//11 728//11 710//11
f 705//11 727//11 709//11
f 710//146 728//146 637//146
f 713//11 730//11 715//11
f 719//11 732//11 731//11
f 719//11 729//11 713//11
f 715//147 730//147 648//147
f 720//148 670//148 732//148
f 718//149 736//149 662//149
s 1
f 543//150 649//151 657//152
f 547//153 629//154 635//155
f 551//156 670//157 672//158
f 553//159 640//160 646//161
f 521//162 540//163 526//164
f 557//165 545//166 469//167
f 549//168 527//169 559//170
f 526//164 532//171 515//172
f 481//173 534//174 536//175
f 549//168 523//169 480//169
f 528//176 537//177 463//178
f 465//179 559//170 527//169
f 561//180 534//174 533//181
f 567//182 536//175 534//174
f 562//183 535//184 569//185
f 569//185 536//175 564//186
f 522//187 533//181 534//174
f 546//188 532//171 560//189
f 531//190 538//191 541//192
f 481//173 535//184 528//176
f 554//193 537//177 562//183
f 521//162 541//192 539//194
f 555//195 538//191 517//196
f 554//193 563//197 555//195
f 547//153 533//181 467//198
f 547//153 560//189 561//180
f 539//194 568//199 565//200
f 565//200 569//185 564//186
f 541//192 563//197 568//199
f 568//199 562//183 569//185
f 539//194 566//201 540//163
f 565//200 567//182 566//201
f 540//163 560//189 532//171
f 566//201 561//180 560//189
f 558//202 543//150 542//203
f 525//204 548//205 520//206
f 556//207 549//168 548//205
f 530//208 548//205 558//202
f 548//205 559//170 558//202
f 525//204 544//209 556//207
f 556//207 545//166 557//165
f 542//203 530//208 558//202
f 469//167 523//169 557//165
f 554//193 625//210 463//178
f 639//211 493//212 551//156
f 517//196 631//213 555//195
f 656//214 469//167 545//166
f 668//215 491//216 553//159
f 559//170 465//179 543//150
f 546//188 635//155 630//217
f 668//215 717//218 718//219
f 653//220 717//218 665//221
f 635//155 705//222 630//217
f 634//223 706//224 707//225
f 657//152 714//226 653//220
f 706//224 722//227 707//225
f 640//160 712//228 646//161
f 634//223 707//225 625//210
f 707//225 722//227 625//210
f 705//222 726//229 725//11
f 629//154 708//230 635//155
f 708//230 629//154 726//229
f 630//217 515//172 546//188
f 555//195 634//223 554//193
f 639//211 710//231 637//232
f 656//214 715//233 648//234
f 670//157 720//235 672//158
f 649//151 716//236 657//152
f 714//226 734//237 733//12
f 717//218 733//12 735//12
f 717//218 736//238 718//219
f 716//236 649//151 734//237
f 668//215 718//219 662//239
s 0
f 646//139 712//139 711//139
f 643//140 711//140 706//140
f 711//12 712//12 724//12
f 711//12 723//12 721//12
s 1
f 543//150 465//179 649//151
f 553//159 491//216 640//160
f 521//162 539//194 540//163
f 526//164 540//163 532//171
f 562//183 537//177 535//184
f 569//185 535//184 536//175
f 531//190 517//196 538//191
f 554//193 463//178 537//177
f 521//162 531//190 541//192
f 555//195 563//197 538//191
f 554//193 562//183 563//197
f 539//194 541//192 568//199
f 565//200 568//199 569//185
f 541//192 538//191 563//197
f 568//199 563//197 562//183
f 539//194 565//200 566//201
f 565//200 564//186 567//182
f 540//163 566//201 560//189
f 558//202 559//170 543//150
f 530//208 520//206 548//205
f 554//193 634//223 625//210
f 668//215 662//239 491//216
f 668//215 665//221 717//218
f 653//220 714//226 717//218
f 634//223 631//213 706//224
f 555//195 631//213 634//223
f 714//226 716//236 734//237
f 717//218 714//226 733//12
f 717//218 735//12 736//238
s 0
f 671//143 719//143 713//143
f 719//11 731//11 729//11
s 1
f 549//168 480//169 527//169
f 481//173 522//187 534//174
f 549//168 557//165 523//169
f 528//176 535//184 537//177
f 561//180 567//182 534//174
f 567//182 564//186 536//175
f 522//187 467//198 533//181
f 546//188 515//172 532//171
f 481//173 536//175 535//184
f 547//153 561//180 533//181
f 547//153 546//188 560//189
f 566//201 567//182 561//180
f 525//204 556//207 548//205
f 556//207 557//165 549//168
f 548//205 549//168 559//170
f 657//152 716//236 714//226
s 0
f 672//141 720//141 719//141
f 656//142 652//142 713//142
f 639//144 638//144 709//144
f 630//143 705//143 709//143
f 709//11 727//11 728//11
f 705//11 725//11 727//11
f 713//11 729//11 730//11
f 719//11 720//11 732//11
s 1
f 547//153 467//198 629//154
f 551//156 493//212 670//157
f 556//207 544//209 545//166
f 639//211 637//232 493//212
f 656//214 648//234 469//167
f 546//188 547//153 635//155
f 635//155 708//230 705//222
f 705//222 708//230 726//229
s 0
usemtl Lights
f 577//240 572//240 573//240
f 571//241 574//241 570//241
f 577//462 576//462 572//462
f 571//241 575//241 574//241
usemtl Bottom
f 523//242 648//242 654//242
f 655//242 480//242 651//242
f 529//242 642//242 645//242
f 524//242 637//242 644//242
f 494//242 644//242 642//242
f 480//242 654//242 651//242
f 640//242 529//242 645//242
f 649//242 527//242 655//242
f 625//242 528//242 463//242
f 627//242 522//242 481//242
f 522//242 629//242 467//242
f 633//242 481//242 528//242
f 640//242 633//242 625//242
f 642//242 632//242 627//242
f 632//242 637//242 629//242
f 645//242 627//242 633//242
f 662//242 655//242 667//242
f 651//242 666//242 664//242
f 667//242 651//242 664//242
f 654//242 670//242 666//242
f 666//242 493//242 524//242
f 529//242 664//242 494//242
f 664//242 524//242 494//242
f 491//242 667//242 529//242
f 655//242 527//242 480//242
f 640//242 491//242 529//242
f 649//242 465//242 527//242
f 640//242 645//242 633//242
f 662//242 649//242 655//242
f 625//242 633//242 528//242
f 491//242 662//242 667//242
f 523//242 469//242 648//242
f 529//242 494//242 642//242
f 524//242 493//242 637//242
f 494//242 524//242 644//242
f 480//242 523//242 654//242
f 627//242 632//242 522//242
f 522//242 632//242 629//242
f 633//242 627//242 481//242
f 642//242 644//242 632//242
f 632//242 644//242 637//242
f 645//242 642//242 627//242
f 651//242 654//242 666//242
f 667//242 655//242 651//242
f 654//242 648//242 670//242
f 666//242 670//242 493//242
f 529//242 667//242 664//242
f 664//242 666//242 524//242
s 1
usemtl Tires
f 2//243 3//244 1//245
f 6//246 7//247 5//248
f 8//249 9//250 7//247
f 10//251 11//252 9//250
f 12//253 13//254 11//252
f 14//255 15//256 13//254
f 16//257 17//258 15//256
f 18//259 19//260 17//258
f 20//261 21//262 19//260
f 22//263 23//264 21//262
f 24//265 25//266 23//264
f 26//267 27//268 25//266
f 28//269 29//270 27//268
f 30//271 31//272 29//270
f 32//273 33//274 31//272
f 34//275 35//276 33//274
f 20//261 59//277 22//263
f 36//278 37//279 35//276
f 38//280 1//245 37//279
f 37//279 39//281 74//282
f 2//243 75//283 42//284
f 21//262 60//285 58//286
f 22//263 61//287 24//265
f 25//266 60//285 23//264
f 6//246 45//288 8//249
f 26//267 61//287 63//289
f 9//250 44//290 7//247
f 27//268 62//291 25//266
f 8//249 47//292 10//251
f 28//269 63//289 65//293
f 11//252 46//294 9//250
f 3//244 39//281 1//245
f 27//268 66//295 64//296
f 12//253 47//292 49//297
f 4//298 42//284 41//299
f 28//269 67//300 30//271
f 13//254 48//301 11//252
f 29//270 68//302 66//295
f 14//255 49//297 51//303
f 30//271 69//304 32//273
f 13//254 52//305 50//306
f 31//272 70//307 68//302
f 14//255 53//308 16//257
f 32//273 71//309 34//275
f 15//256 54//310 52//305
f 35//276 70//307 33//274
f 16//257 55//311 18//259
f 36//278 71//309 73//312
f 19//260 54//310 17//258
f 35//276 74//282 72//313
f 20//261 55//311 57//314
f 38//280 73//312 75//283
f 19//260 58//286 56//315
f 82//316 102//317 103//318
f 53//308 84//319 85//320
f 67//300 91//321 92//322
f 53//308 86//323 55//311
f 42//284 76//324 41//299
f 67//300 93//325 69//304
f 57//314 86//323 87//326
f 71//309 93//325 94//327
f 43//328 81//329 45//288
f 59//277 87//326 88//330
f 71//309 95//331 73//312
f 47//292 81//329 82//316
f 59//277 89//332 61//287
f 73//312 96//333 75//283
f 49//297 82//316 83//334
f 63//289 89//332 90//335
f 42//284 96//333 77//336
f 49//297 84//319 51//303
f 63//289 91//321 65//293
f 82//316 104//337 83//334
f 83//334 105//338 84//319
f 85//320 105//338 106//339
f 86//323 106//339 107//340
f 87//326 107//340 108//341
f 88//330 108//341 109//342
f 88//330 110//343 89//332
f 90//335 110//343 111//344
f 90//335 112//345 91//321
f 91//321 113//346 92//322
f 77//336 97//347 76//324
f 92//322 114//348 93//325
f 78//349 97//347 99//349
f 94//327 114//348 115//350
f 95//331 115//350 116//351
f 96//333 116//351 117//352
f 77//336 117//352 98//353
f 80//354 100//355 101//356
f 80//354 102//317 81//329
f 119//243 120//357 118//358
f 123//246 124//359 122//360
f 125//249 126//250 124//359
f 127//251 128//252 126//250
f 129//253 130//254 128//252
f 131//255 132//256 130//254
f 133//257 134//258 132//256
f 135//259 136//260 134//258
f 137//261 138//262 136//260
f 139//263 140//264 138//262
f 141//265 142//266 140//264
f 143//267 144//268 142//266
f 145//269 146//270 144//268
f 147//271 148//272 146//270
f 149//273 150//274 148//272
f 151//275 152//276 150//274
f 137//261 175//277 139//263
f 153//278 154//279 152//276
f 155//280 118//358 154//279
f 154//279 156//361 190//282
f 119//243 191//283 158//284
f 138//262 176//285 174//286
f 139//263 177//287 141//265
f 140//264 178//291 176//285
f 123//246 161//288 125//249
f 141//265 179//289 143//267
f 124//359 162//294 160//362
f 142//266 180//296 178//291
f 125//249 163//292 127//251
f 143//267 181//293 145//269
f 128//252 162//294 126//250
f 144//268 182//295 180//296
f 129//253 163//292 165//297
f 121//298 158//284 157//299
f 145//269 183//300 147//271
f 130//254 164//363 128//252
f 146//270 184//302 182//295
f 131//255 165//297 167//303
f 147//271 185//304 149//273
f 130//254 168//305 166//306
f 150//274 184//302 148//272
f 131//255 169//308 133//257
f 149//273 187//309 151//275
f 132//256 170//310 168//305
f 152//276 186//307 150//274
f 133//257 171//311 135//259
f 153//278 187//309 189//312
f 136//260 170//310 134//258
f 154//279 188//313 152//276
f 137//261 171//311 173//314
f 155//280 189//312 191//283
f 136//260 174//286 172//315
f 197//316 216//317 217//318
f 169//308 199//319 200//320
f 183//300 206//321 207//322
f 169//308 201//323 171//311
f 158//284 192//364 157//299
f 183//300 208//325 185//304
f 173//314 201//323 202//326
f 187//309 208//325 209//327
f 161//288 195//354 196//329
f 175//277 202//326 203//330
f 187//309 210//331 189//312
f 163//292 196//329 197//316
f 175//277 204//332 177//287
f 189//312 211//333 191//283
f 165//297 197//316 198//334
f 179//289 204//332 205//335
f 158//284 211//333 193//336
f 165//297 199//319 167//303
f 179//289 206//321 181//293
f 197//316 218//337 198//334
f 198//334 219//338 199//319
f 200//320 219//338 220//339
f 201//323 220//339 221//340
f 202//326 221//340 222//341
f 203//330 222//341 223//342
f 203//330 224//343 204//332
f 205//335 224//343 225//344
f 205//335 226//345 206//321
f 207//322 226//345 227//346
f 193//336 212//365 192//364
f 208//325 227//346 228//348
f 209//327 228//348 229//350
f 210//331 229//350 230//351
f 211//333 230//351 231//352
f 193//336 231//352 213//353
f 194//355 215//356 195//354
f 195//354 216//317 196//329
f 233//366 234//244 232//245
f 237//360 238//247 236//367
f 239//368 240//250 238//247
f 241//251 242//252 240//250
f 243//253 244//254 242//252
f 245//255 246//256 244//254
f 247//257 248//258 246//256
f 249//259 250//260 248//258
f 251//261 252//262 250//260
f 253//263 254//264 252//262
f 255//265 256//266 254//264
f 257//267 258//268 256//266
f 259//269 260//270 258//268
f 261//271 262//272 260//270
f 263//273 264//274 262//272
f 265//275 266//276 264//274
f 251//261 289//369 253//263
f 267//278 268//279 266//276
f 269//280 232//245 268//279
f 268//279 270//370 304//371
f 296//372 320//373 294//374
f 233//366 305//375 272//376
f 252//262 290//377 288//378
f 253//263 291//379 255//265
f 238//247 273//380 236//367
f 256//266 290//377 254//264
f 255//265 293//381 257//267
f 238//247 276//382 274//383
f 256//266 294//374 292//384
f 239//368 277//385 241//251
f 257//267 295//386 259//269
f 242//252 276//382 240//250
f 234//244 270//370 232//245
f 258//268 296//372 294//374
f 243//253 277//385 279//387
f 259//269 297//388 261//271
f 244//254 278//389 242//252
f 260//270 298//390 296//372
f 245//255 279//387 281//391
f 261//271 299//392 263//273
f 244//254 282//393 280//394
f 264//274 298//390 262//272
f 245//255 283//395 247//257
f 265//275 299//392 301//396
f 246//256 284//397 282//393
f 266//276 300//398 264//274
f 247//257 285//399 249//259
f 267//278 301//396 303//400
f 250//260 284//397 248//258
f 268//279 302//401 266//276
f 251//261 285//399 287//402
f 269//280 303//400 305//375
f 250//260 288//378 286//403
f 282//393 315//404 314//405
f 270//370 307//406 306//407
f 296//372 322//408 321//409
f 286//403 315//404 284//397
f 300//398 322//408 298//390
f 273//380 310//410 309//411
f 288//378 316//412 286//403
f 300//398 324//413 323//414
f 276//382 310//410 274//383
f 290//377 317//415 288//378
f 304//371 324//413 302//401
f 278//389 311//416 276//382
f 292//384 318//417 290//377
f 270//370 325//418 304//371
f 278//389 313//419 312//420
f 292//384 320//373 319//421
f 282//393 313//419 280//394
f 323//414 342//422 322//408
f 324//413 343//423 323//414
f 325//418 344//424 324//413
f 306//407 345//425 325//418
f 309//411 328//426 308//426
f 309//411 330//427 329//428
f 311//416 330//427 310//410
f 311//416 332//429 331//430
f 312//420 333//431 332//429
f 314//405 333//431 313//419
f 315//404 334//432 314//405
f 315//404 336//433 335//434
f 316//412 337//435 336//433
f 317//415 338//436 337//435
f 319//421 338//436 318//417
f 319//421 340//437 339//438
f 321//409 340//437 320//373
f 306//407 327//439 326//440
f 321//409 342//422 341//441
f 347//243 348//244 346//245
f 351//360 352//247 350//367
f 353//368 354//250 352//247
f 355//251 356//252 354//250
f 357//253 358//254 356//252
f 359//255 360//256 358//254
f 361//257 362//258 360//256
f 363//259 364//260 362//258
f 365//261 366//262 364//260
f 367//263 368//264 366//262
f 369//265 370//266 368//264
f 371//267 372//268 370//266
f 373//269 374//270 372//268
f 375//271 376//272 374//270
f 377//273 378//274 376//272
f 379//275 380//276 378//274
f 365//261 404//369 367//263
f 381//278 382//279 380//276
f 383//280 346//245 382//279
f 382//279 384//370 419//371
f 411//372 436//373 409//374
f 347//243 420//375 387//442
f 366//262 405//377 403//378
f 367//263 406//379 369//265
f 350//367 389//383 388//380
f 368//264 407//384 405//377
f 369//265 408//381 371//267
f 352//247 391//382 389//383
f 372//268 407//384 370//266
f 353//368 392//385 355//251
f 373//269 408//381 410//386
f 356//252 391//382 354//250
f 348//244 384//370 346//245
f 372//268 411//372 409//374
f 357//253 392//385 394//443
f 349//298 387//442 386//444
f 373//269 412//388 375//271
f 358//254 393//389 356//252
f 374//270 413//390 411//372
f 359//255 394//443 396//391
f 375//271 414//392 377//273
f 358//254 397//393 395//394
f 376//272 415//398 413//390
f 359//255 398//395 361//257
f 379//275 414//392 416//396
f 360//256 399//397 397//393
f 380//276 415//398 378//274
f 361//257 400//399 363//259
f 381//278 416//396 418//400
f 364//260 399//397 362//258
f 380//276 419//371 417//401
f 365//261 400//399 402//402
f 383//280 418//400 420//375
f 364//260 403//378 401//403
f 397//393 431//404 430//405
f 384//370 422//445 421//407
f 411//372 438//408 437//409
f 401//403 431//404 399//397
f 415//398 438//408 413//390
f 388//380 426//410 425//411
f 403//378 432//412 401//403
f 415//398 440//413 439//414
f 391//382 426//410 389//383
f 405//377 433//415 403//378
f 419//371 440//413 417//401
f 393//389 427//416 391//382
f 407//384 434//417 405//377
f 384//370 441//418 419//371
f 393//389 429//419 428//420
f 407//384 436//373 435//421
f 397//393 429//419 395//394
f 423//446 443//447 422//445
f 439//414 459//422 438//408
f 440//413 460//423 439//414
f 441//418 461//424 440//413
f 421//407 462//425 441//418
f 425//411 445//426 424//426
f 425//411 447//427 446//428
f 427//416 447//427 426//410
f 427//416 449//429 448//430
f 428//420 450//431 449//429
f 430//405 450//431 429//419
f 431//404 451//432 430//405
f 431//404 453//433 452//434
f 432//412 454//435 453//433
f 433//415 455//436 454//435
f 435//421 455//436 434//417
f 435//421 457//437 456//438
f 436//373 458//441 457//437
f 421//407 443//447 442//440
f 438//408 458//441 437//409
f 5//248 7//247 44//290
f 37//279 1//245 39//281
f 3//244 40//464 39//281
f 35//276 37//279 74//282
f 135//259 137//261 136//260
f 137//261 139//263 138//262
f 137//261 173//314 175//277
f 139//263 175//277 177//287
f 133//257 169//308 171//311
f 137//261 135//259 171//311
f 243//253 245//255 244//254
f 245//255 247//257 246//256
f 247//257 249//259 248//258
f 249//259 251//261 250//260
f 251//261 253//263 252//262
f 253//263 255//265 254//264
f 265//275 267//278 266//276
f 251//261 287//402 289//369
f 267//278 269//280 268//279
f 269//280 233//366 232//245
f 296//372 321//409 320//373
f 252//262 254//264 290//377
f 253//263 289//369 291//379
f 256//266 292//384 290//377
f 244//254 280//394 278//389
f 245//255 243//253 279//387
f 244//254 246//256 282//393
f 245//255 281//391 283//395
f 246//256 248//258 284//397
f 247//257 283//395 285//399
f 250//260 286//403 284//397
f 251//261 249//259 285//399
f 250//260 252//262 288//378
f 282//393 284//397 315//404
f 296//372 298//390 322//408
f 286//403 316//412 315//404
f 300//398 323//414 322//408
f 288//378 317//415 316//412
f 300//398 302//401 324//413
f 290//377 318//417 317//415
f 304//371 325//418 324//413
f 292//384 319//421 318//417
f 278//389 280//394 313//419
f 292//384 294//374 320//373
f 282//393 314//405 313//419
f 323//414 343//423 342//422
f 324//413 344//424 343//423
f 325//418 345//425 344//424
f 316//412 317//415 337//435
f 317//415 318//417 338//436
f 319//421 339//438 338//436
f 319//421 320//373 340//437
f 321//409 341//441 340//437
f 321//409 322//408 342//422
f 2//243 38//280 75//283
f 21//262 23//264 60//285
f 25//266 62//291 60//285
f 9//250 46//294 44//290
f 27//268 64//296 62//291
f 11//252 48//301 46//294
f 27//268 29//270 66//295
f 4//298 2//243 42//284
f 13//254 50//306 48//301
f 29//270 31//272 68//302
f 13//254 15//256 52//305
f 31//272 33//274 70//307
f 15//256 17//258 54//310
f 36//278 34//275 71//309
f 19//260 56//315 54//310
f 38//280 36//278 73//312
f 19//260 21//262 58//286
f 67//300 65//293 91//321
f 42//284 77//336 76//324
f 67//300 92//322 93//325
f 71//309 69//304 93//325
f 71//309 94//327 95//331
f 73//312 95//331 96//333
f 42//284 75//283 96//333
f 90//335 89//332 110//343
f 90//335 111//344 112//345
f 91//321 112//345 113//346
f 77//336 98//353 97//347
f 92//322 113//346 114//348
f 78//349 76//324 97//347
f 94//327 93//325 114//348
f 95//331 94//327 115//350
f 96//333 95//331 116//351
f 77//336 96//333 117//352
f 139//263 141//265 140//264
f 141//265 143//267 142//266
f 154//279 118//358 156//361
f 138//262 140//264 176//285
f 140//264 142//266 178//291
f 124//359 126//250 162//294
f 142//266 144//268 180//296
f 128//252 164//363 162//294
f 144//268 146//270 182//295
f 130//254 166//306 164//363
f 146//270 148//272 184//302
f 130//254 132//256 168//305
f 150//274 186//307 184//302
f 132//256 134//258 170//310
f 152//276 188//313 186//307
f 136//260 172//315 170//310
f 154//279 190//282 188//313
f 136//260 138//262 174//286
f 194//355 214//355 215//356
f 233//366 235//357 234//244
f 261//271 263//273 262//272
f 263//273 265//275 264//274
f 268//279 232//245 270//370
f 233//366 269//280 305//375
f 234//244 271//469 270//370
f 258//268 260//270 296//372
f 259//269 295//386 297//388
f 260//270 262//272 298//390
f 261//271 297//388 299//392
f 264//274 300//398 298//390
f 266//276 302//401 300//398
f 268//279 304//371 302//401
f 270//370 271//469 307//406
f 270//370 306//407 325//418
f 306//407 326//440 345//425
f 309//411 329//428 328//426
f 309//411 310//410 330//427
f 315//404 316//412 336//433
f 306//407 307//406 327//439
f 347//243 349//298 348//244
f 382//279 346//245 384//370
f 411//372 437//409 436//373
f 350//367 352//247 389//383
f 348//244 385//469 384//370
f 349//298 347//243 387//442
f 397//393 399//397 431//404
f 384//370 385//469 422//445
f 411//372 413//390 438//408
f 401//403 432//412 431//404
f 415//398 439//414 438//408
f 388//380 389//383 426//410
f 403//378 433//415 432//412
f 415//398 417//401 440//413
f 391//382 427//416 426//410
f 405//377 434//417 433//415
f 419//371 441//418 440//413
f 393//389 428//420 427//416
f 407//384 435//421 434//417
f 384//370 421//407 441//418
f 393//389 395//394 429//419
f 407//384 409//374 436//373
f 397//393 430//405 429//419
f 423//446 444//446 443//447
f 439//414 460//423 459//422
f 440//413 461//424 460//423
f 441//418 462//425 461//424
f 421//407 442//440 462//425
f 425//411 446//428 445//426
f 425//411 426//410 447//427
f 427//416 448//430 447//427
f 427//416 428//420 449//429
f 428//420 429//419 450//431
f 430//405 451//432 450//431
f 431//404 452//434 451//432
f 431//404 432//412 453//433
f 432//412 433//415 454//435
f 433//415 434//417 455//436
f 435//421 456//438 455//436
f 435//421 436//373 457//437
f 436//373 437//409 458//441
f 421//407 422//445 443//447
f 438//408 459//422 458//441
f 2//243 4//298 3//244
f 14//255 16//257 15//256
f 16//257 18//259 17//258
f 18//259 20//261 19//260
f 20//261 22//263 21//262
f 22//263 24//265 23//264
f 24//265 26//267 25//266
f 26//267 28//269 27//268
f 28//269 30//271 29//270
f 20//261 57//314 59//277
f 38//280 2//243 1//245
f 22//263 59//277 61//287
f 26//267 24//265 61//287
f 28//269 26//267 63//289
f 28//269 65//293 67//300
f 14//255 51//303 53//308
f 16//257 53//308 55//311
f 20//261 18//259 55//311
f 53//308 51//303 84//319
f 53//308 85//320 86//323
f 57//314 55//311 86//323
f 59//277 57//314 87//326
f 59//277 88//330 89//332
f 63//289 61//287 89//332
f 63//289 90//335 91//321
f 359//255 361//257 360//256
f 361//257 363//259 362//258
f 363//259 365//261 364//260
f 365//261 367//263 366//262
f 367//263 369//265 368//264
f 369//265 371//267 370//266
f 371//267 373//269 372//268
f 373//269 375//271 374//270
f 365//261 402//402 404//369
f 366//262 368//264 405//377
f 367//263 404//369 406//379
f 368//264 370//266 407//384
f 369//265 406//379 408//381
f 372//268 409//374 407//384
f 373//269 371//267 408//381
f 372//268 374//270 411//372
f 373//269 410//386 412//388
f 358//254 360//256 397//393
f 359//255 396//391 398//395
f 360//256 362//258 399//397
f 361//257 398//395 400//399
f 364//260 401//403 399//397
f 365//261 363//259 400//399
f 364//260 366//262 403//378
f 237//360 239//368 238//247
f 238//247 274//383 273//380
f 273//380 274//383 310//410
f 276//382 311//416 310//410
f 278//389 312//420 311//416
f 311//416 331//430 330//427
f 311//416 312//420 332//429
f 312//420 313//419 333//431
f 314//405 334//432 333//431
f 315//404 335//434 334//432
f 30//271 32//273 31//272
f 32//273 34//275 33//274
f 34//275 36//278 35//276
f 36//278 38//280 37//279
f 30//271 67//300 69//304
f 32//273 69//304 71//309
f 35//276 72//313 70//307
f 80//354 79//355 100//355
f 119//243 121//298 120//357
f 143//267 145//269 144//268
f 145//269 147//271 146//270
f 147//271 149//273 148//272
f 149//273 151//275 150//274
f 151//275 153//278 152//276
f 153//278 155//280 154//279
f 155//280 119//243 118//358
f 119//243 155//280 191//283
f 121//298 119//243 158//284
f 153//278 151//275 187//309
f 155//280 153//278 189//312
f 158//284 193//336 192//364
f 189//312 210//331 211//333
f 158//284 191//283 211//333
f 193//336 211//333 231//352
f 123//246 125//249 124//359
f 125//249 127//251 126//250
f 127//251 129//253 128//252
f 129//253 131//255 130//254
f 131//255 133//257 132//256
f 133//257 135//259 134//258
f 141//265 177//287 179//289
f 143//267 179//289 181//293
f 131//255 167//303 169//308
f 183//300 181//293 206//321
f 169//308 200//320 201//323
f 173//314 171//311 201//323
f 175//277 173//314 202//326
f 175//277 203//330 204//332
f 179//289 177//287 204//332
f 179//289 205//335 206//321
f 381//278 383//280 382//279
f 383//280 347//243 346//245
f 6//246 8//249 7//247
f 8//249 10//251 9//250
f 10//251 12//253 11//252
f 12//253 14//255 13//254
f 6//246 43//328 45//288
f 8//249 45//288 47//292
f 12//253 10//251 47//292
f 14//255 12//253 49//297
f 82//316 81//329 102//317
f 43//328 80//354 81//329
f 47//292 45//288 81//329
f 49//297 47//292 82//316
f 49//297 83//334 84//319
f 82//316 103//318 104//337
f 83//334 104//337 105//338
f 85//320 84//319 105//338
f 86//323 85//320 106//339
f 87//326 86//323 107//340
f 88//330 87//326 108//341
f 88//330 109//342 110//343
f 80//354 101//356 102//317
f 123//246 159//328 161//288
f 125//249 161//288 163//292
f 129//253 127//251 163//292
f 145//269 181//293 183//300
f 131//255 129//253 165//297
f 147//271 183//300 185//304
f 149//273 185//304 187//309
f 197//316 196//329 216//317
f 169//308 167//303 199//319
f 183//300 207//322 208//325
f 187//309 185//304 208//325
f 161//288 159//328 195//354
f 187//309 209//327 210//331
f 163//292 161//288 196//329
f 165//297 163//292 197//316
f 165//297 198//334 199//319
f 197//316 217//318 218//337
f 198//334 218//337 219//338
f 200//320 199//319 219//338
f 201//323 200//320 220//339
f 202//326 201//323 221//340
f 203//330 202//326 222//341
f 203//330 223//342 224//343
f 205//335 204//332 224//343
f 205//335 225//344 226//345
f 207//322 206//321 226//345
f 193//336 213//353 212//365
f 208//325 207//322 227//346
f 209//327 208//325 228//348
f 210//331 209//327 229//350
f 211//333 210//331 230//351
f 195//354 215//356 216//317
f 239//368 241//251 240//250
f 241//251 243//253 242//252
f 255//265 257//267 256//266
f 257//267 259//269 258//268
f 259//269 261//271 260//270
f 255//265 291//379 293//381
f 238//247 240//250 276//382
f 256//266 258//268 294//374
f 239//368 275//478 277//385
f 257//267 293//381 295//386
f 242//252 278//389 276//382
f 243//253 241//251 277//385
f 265//275 263//273 299//392
f 267//278 265//275 301//396
f 269//280 267//278 303//400
f 351//360 353//368 352//247
f 353//368 355//251 354//250
f 355//251 357//253 356//252
f 357//253 359//255 358//254
f 375//271 377//273 376//272
f 377//273 379//275 378//274
f 379//275 381//278 380//276
f 347//243 383//280 420//375
f 352//247 354//250 391//382
f 353//368 390//478 392//385
f 356//252 393//389 391//382
f 357//253 355//251 392//385
f 358//254 395//394 393//389
f 374//270 376//272 413//390
f 359//255 357//253 394//443
f 375//271 412//388 414//392
f 376//272 378//274 415//398
f 379//275 377//273 414//392
f 380//276 417//401 415//398
f 381//278 379//275 416//396
f 380//276 382//279 419//371
f 383//280 381//278 418//400
