# Blender 4.5.3 LTS
# www.blender.org
mtllib Cofre.mtl
o Cofre
v 9.143616 -0.436886 0.467242
v -8.293881 -0.436886 0.467242
v 0.424866 -0.436885 -11.705259
v 0.424866 0.148115 0.017242
v -8.304267 -0.886884 -11.120258
v 9.152508 -0.886884 -11.120258
v -3.939702 -0.436885 -11.570250
v -3.934509 0.013114 0.017242
v 4.784241 0.013114 0.017242
v 4.788687 -0.436885 -11.570250
vn -0.3896 0.6057 -0.6938
vn -0.0732 0.9962 -0.0470
vn -0.2288 0.8641 -0.4483
vn 0.2288 0.8641 -0.4483
vn -0.0049 0.9989 -0.0463
vn 0.0732 0.9962 -0.0471
vn -0.0000 0.9990 -0.0444
vn 0.3890 0.6058 -0.6940
vn 0.4431 0.8091 0.3859
vn -0.4435 0.8089 0.3861
s 1
g off
usemtl Body.001
f 5//1 8//2 7//3
f 10//4 4//5 9//6
f 7//3 4//5 3//7
f 6//8 9//6 1//9
f 5//1 2//10 8//2
f 10//4 3//7 4//5
f 7//3 8//2 4//5
f 6//8 10//4 9//6
