# Blender 4.5.3 LTS
# www.blender.org
mtllib CofreTex.mtl
g Cofre_Malla
v -9.143616 -0.436886 -0.467242
v 8.293881 -0.436886 -0.467242
v -0.424866 -0.436886 11.705259
v -0.424866 0.148115 -0.017242
v 8.304267 -0.886885 11.120258
v -9.152508 -0.886885 11.120258
v 3.939702 -0.436886 11.570250
v 3.934509 0.013114 -0.017242
v -4.784241 0.013114 -0.017242
v -4.788687 -0.436886 11.570250
vn 0.3896 0.6057 0.6938
vn 0.0732 0.9962 0.0470
vn 0.2288 0.8641 0.4483
vn -0.2288 0.8641 0.4483
vn 0.0049 0.9989 0.0463
vn -0.0732 0.9962 0.0471
vn -0.0000 0.9990 0.0444
vn -0.3890 0.6058 0.6940
vn -0.4431 0.8091 -0.3859
vn 0.4435 0.8089 -0.3861
vt 1.000665 0.045685
vt 0.758095 0.686524
vt 0.749673 0.024304
vt 0.251226 0.030777
vt 0.509033 0.690103
vt 0.259961 0.692994
vt 0.500328 0.019841
vt 0.000916 0.058669
vt 0.009904 0.720882
vt 1.008793 0.707910
s 1
g off
g Cofre_Material.001
usemtl Material.001
f 5/1/1 8/2/2 7/3/3
f 10/4/4 4/5/5 9/6/6
f 7/3/3 4/5/5 3/7/7
f 6/8/8 9/6/6 1/9/9
f 5/1/1 2/10/10 8/2/2
f 10/4/4 3/7/7 4/5/5
f 7/3/3 8/2/2 4/5/5
f 6/8/8 10/4/4 9/6/6
