# Blender 4.5.3 LTS
# www.blender.org
mtllib Foco.mtl
g Foco_Malla
v -6.029702 13.287883 0.000001
v -6.203207 13.191484 0.000001
v -6.417832 13.104853 0.000001
v -6.665331 13.031318 0.000001
v -6.936191 12.973705 0.000001
v -6.053028 13.285455 0.162213
v -6.223044 13.189420 0.137951
v -6.433418 13.103230 0.108387
v -6.676067 13.030200 0.074659
v -6.941664 12.973135 0.038061
v -6.122109 13.278264 0.318191
v -6.281793 13.183304 0.270599
v -6.479577 13.098426 0.212609
v -6.707861 13.026891 0.146448
v -6.957873 12.971448 0.074659
v -6.234291 13.266586 0.461941
v -6.377196 13.173373 0.392849
v -6.554535 13.090623 0.308659
v -6.759493 13.021516 0.212609
v -6.984195 12.968708 0.108387
v -6.385263 13.250871 0.587939
v -6.505587 13.160008 0.500001
v -6.655411 13.080122 0.392849
v -6.828978 13.014283 0.270599
v -7.019618 12.965021 0.137951
v -6.569222 13.231722 0.691343
v -6.662032 13.143723 0.587939
v -6.778329 13.067327 0.461941
v -6.913645 13.005469 0.318191
v -7.062780 12.960527 0.162213
v -6.779100 13.209875 0.768179
v -6.840518 13.125144 0.653283
v -6.918565 13.052730 0.513281
v -7.010242 12.995415 0.353554
v -7.112025 12.955401 0.180241
v -7.006831 13.186170 0.815494
v -7.034187 13.104984 0.693521
v -7.070730 13.036890 0.544896
v -7.115054 12.984504 0.375331
v -7.165458 12.949840 0.191343
v -7.243663 13.161516 0.831471
v -7.235596 13.084019 0.707108
v -7.228976 13.020417 0.555571
v -7.224056 12.973158 0.382685
v -7.221027 12.944056 0.195091
v -7.480495 13.136864 0.815494
v -7.437005 13.063053 0.693521
v -7.387222 13.003944 0.544896
v -7.333058 12.961811 0.375331
v -7.276595 12.938271 0.191343
v -7.708226 13.113158 0.768179
v -7.630674 13.042892 0.653283
v -7.539387 12.988105 0.513281
v -7.437871 12.950901 0.353554
v -7.330029 12.932709 0.180241
v -7.918104 13.091311 0.691343
v -7.809161 13.024313 0.587939
v -7.679623 12.973508 0.461941
v -7.534467 12.940845 0.318191
v -7.379273 12.927583 0.162213
v -8.102063 13.072162 0.587939
v -7.965605 13.008028 0.500001
v -7.802540 12.960712 0.392848
v -7.619134 12.932033 0.270599
v -7.422436 12.923090 0.137951
v -8.253035 13.056446 0.461941
v -8.093996 12.994663 0.392848
v -7.903416 12.950212 0.308659
v -7.688619 12.924799 0.212609
v -7.457859 12.919402 0.108387
v -8.365216 13.044768 0.318191
v -8.189399 12.984733 0.270599
v -7.978374 12.942410 0.212608
v -7.740251 12.919425 0.146448
v -7.484180 12.916662 0.074659
v -8.434298 13.037578 0.162213
v -8.248148 12.978618 0.137951
v -8.024532 12.937604 0.108387
v -7.772045 12.916115 0.074659
v -7.500389 12.914975 0.038061
v -8.457623 13.035150 0.000001
v -8.267984 12.976552 0.000001
v -8.040118 12.935982 0.000001
v -7.782781 12.914997 0.000001
v -7.505862 12.914406 0.000001
v -8.434298 13.037578 -0.162211
v -8.248148 12.978618 -0.137949
v -8.024532 12.937604 -0.108385
v -7.772045 12.916115 -0.074657
v -7.500389 12.914975 -0.038059
v -8.365216 13.044768 -0.318189
v -8.189399 12.984733 -0.270597
v -7.978374 12.942410 -0.212607
v -7.740251 12.919425 -0.146446
v -7.484180 12.916662 -0.074657
v -8.253035 13.056446 -0.461939
v -8.093996 12.994663 -0.392846
v -7.903416 12.950212 -0.308657
v -7.688619 12.924799 -0.212607
v -7.457859 12.919402 -0.108385
v -8.102063 13.072162 -0.587937
v -7.965605 13.008028 -0.499999
v -7.802540 12.960712 -0.392846
v -7.619134 12.932033 -0.270597
v -7.422436 12.923090 -0.137949
v -7.918103 13.091311 -0.691341
v -7.809160 13.024313 -0.587937
v -7.679622 12.973508 -0.461939
v -7.534467 12.940845 -0.318189
v -7.379273 12.927583 -0.162211
v -7.220004 12.934229 0.000001
v -7.708226 13.113158 -0.768177
v -7.630674 13.042892 -0.653280
v -7.539386 12.988106 -0.513279
v -7.437871 12.950901 -0.353552
v -7.330029 12.932709 -0.180239
v -7.480495 13.136864 -0.815492
v -7.437005 13.063053 -0.693519
v -7.387221 13.003944 -0.544894
v -7.333058 12.961811 -0.375329
v -7.276595 12.938271 -0.191341
v -7.243663 13.161516 -0.831468
v -7.235596 13.084019 -0.707106
v -7.228975 13.020417 -0.555569
v -7.224056 12.973158 -0.382682
v -7.221026 12.944056 -0.195089
v -7.006831 13.186170 -0.815492
v -7.034187 13.104984 -0.693519
v -7.070729 13.036890 -0.544894
v -7.115054 12.984504 -0.375329
v -7.165458 12.949840 -0.191341
v -6.779100 13.209875 -0.768176
v -6.840518 13.125144 -0.653280
v -6.918565 13.052730 -0.513279
v -7.010242 12.995415 -0.353552
v -7.112025 12.955401 -0.180239
v -6.569223 13.231722 -0.691340
v -6.662032 13.143723 -0.587936
v -6.778329 13.067327 -0.461938
v -6.913645 13.005469 -0.318188
v -7.062780 12.960527 -0.162211
v -6.385263 13.250871 -0.587936
v -6.505587 13.160008 -0.499999
v -6.655411 13.080122 -0.392846
v -6.828978 13.014283 -0.270597
v -7.019618 12.965021 -0.137949
v -6.234292 13.266586 -0.461938
v -6.377196 13.173373 -0.392846
v -6.554535 13.090623 -0.308657
v -6.759494 13.021516 -0.212606
v -6.984195 12.968708 -0.108385
v -6.122110 13.278264 -0.318188
v -6.281794 13.183304 -0.270597
v -6.479578 13.098426 -0.212606
v -6.707862 13.026891 -0.146445
v -6.957873 12.971448 -0.074657
v -6.053029 13.285455 -0.162210
v -6.223045 13.189420 -0.137948
v -6.433419 13.103230 -0.108385
v -6.676067 13.030200 -0.074657
v -6.941664 12.973135 -0.038059
vn 0.4857 -0.8741 -0.0000
vn 0.4356 -0.9001 -0.0000
vn 0.3339 -0.9426 -0.0000
vn 0.2501 -0.9682 -0.0000
vn 0.1762 -0.9844 -0.0000
vn 0.4774 -0.8722 0.1067
vn 0.4277 -0.8987 0.0975
vn 0.3288 -0.9420 0.0675
vn 0.2469 -0.9681 0.0429
vn 0.1746 -0.9844 0.0214
vn 0.4531 -0.8666 0.2090
vn 0.4048 -0.8946 0.1894
vn 0.3138 -0.9403 0.1316
vn 0.2377 -0.9677 0.0838
vn 0.1699 -0.9846 0.0417
vn 0.4140 -0.8587 0.3022
vn 0.3692 -0.8889 0.2712
vn 0.2903 -0.9380 0.1893
vn 0.2231 -0.9673 0.1208
vn 0.1626 -0.9849 0.0600
vn 0.3624 -0.8500 0.3823
vn 0.3238 -0.8829 0.3400
vn 0.2597 -0.9357 0.2387
vn 0.2040 -0.9670 0.1526
vn 0.1532 -0.9853 0.0756
vn 0.3013 -0.8425 0.4466
vn 0.2711 -0.8782 0.3941
vn 0.2236 -0.9341 0.2781
vn 0.1813 -0.9672 0.1782
vn 0.1421 -0.9859 0.0881
vn 0.2334 -0.8380 0.4932
vn 0.2135 -0.8758 0.4330
vn 0.1837 -0.9339 0.3069
vn 0.1560 -0.9679 0.1970
vn 0.1297 -0.9868 0.0973
vn 0.1614 -0.8379 0.5215
vn 0.1532 -0.8766 0.4563
vn 0.1412 -0.9354 0.3243
vn 0.1290 -0.9695 0.2084
vn 0.1165 -0.9879 0.1028
vn 0.0877 -0.8429 0.5309
vn 0.0917 -0.8811 0.4640
vn 0.0977 -0.9389 0.3301
vn 0.1012 -0.9720 0.2122
vn 0.1030 -0.9892 0.1047
vn 0.0146 -0.8531 0.5215
vn 0.0306 -0.8893 0.4563
vn 0.0544 -0.9444 0.3243
vn 0.0735 -0.9753 0.2084
vn 0.0894 -0.9907 0.1028
vn -0.0558 -0.8681 0.4932
vn -0.0286 -0.9010 0.4330
vn 0.0126 -0.9517 0.3069
vn 0.0467 -0.9793 0.1970
vn 0.0763 -0.9923 0.0973
vn -0.1213 -0.8865 0.4466
vn -0.0844 -0.9152 0.3941
vn -0.0264 -0.9602 0.2781
vn 0.0218 -0.9838 0.1782
vn 0.0641 -0.9940 0.0881
vn -0.1796 -0.9064 0.3823
vn -0.1350 -0.9307 0.3400
vn -0.0614 -0.9692 0.2387
vn -0.0004 -0.9883 0.1526
vn 0.0530 -0.9957 0.0756
vn -0.2283 -0.9255 0.3022
vn -0.1783 -0.9459 0.2712
vn -0.0909 -0.9777 0.1893
vn -0.0191 -0.9925 0.1208
vn 0.0437 -0.9972 0.0600
vn -0.2649 -0.9414 0.2090
vn -0.2119 -0.9588 0.1894
vn -0.1134 -0.9848 0.1316
vn -0.0333 -0.9959 0.0838
vn 0.0365 -0.9985 0.0417
vn -0.2876 -0.9518 0.1067
vn -0.2334 -0.9675 0.0975
vn -0.1277 -0.9895 0.0675
vn -0.0422 -0.9982 0.0430
vn 0.0319 -0.9993 0.0214
vn -0.2952 -0.9554 -0.0000
vn -0.2408 -0.9706 -0.0000
vn -0.1326 -0.9912 -0.0000
vn -0.0453 -0.9990 -0.0000
vn 0.0303 -0.9995 -0.0000
vn -0.2876 -0.9518 -0.1067
vn -0.2334 -0.9675 -0.0975
vn -0.1277 -0.9895 -0.0675
vn -0.0422 -0.9982 -0.0430
vn 0.0319 -0.9993 -0.0214
vn -0.2649 -0.9414 -0.2090
vn -0.2119 -0.9588 -0.1894
vn -0.1134 -0.9848 -0.1316
vn -0.0333 -0.9959 -0.0838
vn 0.0365 -0.9985 -0.0417
vn -0.2283 -0.9255 -0.3022
vn -0.1783 -0.9459 -0.2712
vn -0.0909 -0.9777 -0.1893
vn -0.0191 -0.9925 -0.1208
vn 0.0437 -0.9972 -0.0600
vn -0.1796 -0.9064 -0.3823
vn -0.1350 -0.9307 -0.3400
vn -0.0614 -0.9692 -0.2387
vn -0.0004 -0.9883 -0.1526
vn 0.0530 -0.9957 -0.0756
vn -0.1213 -0.8865 -0.4466
vn -0.0844 -0.9152 -0.3941
vn -0.0264 -0.9602 -0.2781
vn 0.0218 -0.9838 -0.1782
vn 0.0641 -0.9940 -0.0881
vn 0.1035 -0.9946 -0.0000
vn -0.0558 -0.8681 -0.4932
vn -0.0286 -0.9010 -0.4330
vn 0.0126 -0.9517 -0.3069
vn 0.0467 -0.9793 -0.1970
vn 0.0763 -0.9923 -0.0973
vn 0.0146 -0.8531 -0.5215
vn 0.0306 -0.8893 -0.4563
vn 0.0544 -0.9444 -0.3243
vn 0.0735 -0.9753 -0.2084
vn 0.0894 -0.9907 -0.1028
vn 0.0877 -0.8429 -0.5309
vn 0.0917 -0.8811 -0.4640
vn 0.0977 -0.9389 -0.3301
vn 0.1012 -0.9720 -0.2122
vn 0.1030 -0.9892 -0.1047
vn 0.1614 -0.8379 -0.5215
vn 0.1532 -0.8766 -0.4563
vn 0.1412 -0.9354 -0.3243
vn 0.1290 -0.9695 -0.2084
vn 0.1165 -0.9879 -0.1028
vn 0.2334 -0.8380 -0.4932
vn 0.2135 -0.8758 -0.4330
vn 0.1837 -0.9339 -0.3069
vn 0.1560 -0.9679 -0.1970
vn 0.1297 -0.9868 -0.0973
vn 0.3013 -0.8425 -0.4466
vn 0.2711 -0.8782 -0.3941
vn 0.2236 -0.9341 -0.2781
vn 0.1813 -0.9672 -0.1782
vn 0.1421 -0.9859 -0.0881
vn 0.3624 -0.8500 -0.3823
vn 0.3238 -0.8829 -0.3400
vn 0.2597 -0.9357 -0.2387
vn 0.2040 -0.9670 -0.1526
vn 0.1532 -0.9853 -0.0756
vn 0.4140 -0.8587 -0.3022
vn 0.3692 -0.8889 -0.2712
vn 0.2903 -0.9380 -0.1893
vn 0.2231 -0.9673 -0.1208
vn 0.1626 -0.9849 -0.0600
vn 0.4531 -0.8666 -0.2090
vn 0.4048 -0.8946 -0.1894
vn 0.3138 -0.9403 -0.1316
vn 0.2377 -0.9677 -0.0838
vn 0.1699 -0.9846 -0.0417
vn 0.4774 -0.8722 -0.1067
vn 0.4277 -0.8987 -0.0975
vn 0.3288 -0.9420 -0.0675
vn 0.2469 -0.9681 -0.0430
vn 0.1746 -0.9844 -0.0214
s 1
g off
g Foco_Foco
usemtl Foco
f 2//2 6//6 7//7
f 3//3 7//7 8//8
f 4//4 8//8 9//9
f 5//5 9//9 10//10
f 7//7 11//11 12//12
f 8//8 12//12 13//13
f 9//9 13//13 14//14
f 10//10 14//14 15//15
f 15//15 19//19 20//20
f 12//12 16//16 17//17
f 13//13 17//17 18//18
f 14//14 18//18 19//19
f 18//18 22//22 23//23
f 19//19 23//23 24//24
f 20//20 24//24 25//25
f 17//17 21//21 22//22
f 22//22 26//26 27//27
f 23//23 27//27 28//28
f 24//24 28//28 29//29
f 25//25 29//29 30//30
f 27//27 31//31 32//32
f 28//28 32//32 33//33
f 29//29 33//33 34//34
f 30//30 34//34 35//35
f 35//35 39//39 40//40
f 32//32 36//36 37//37
f 33//33 37//37 38//38
f 34//34 38//38 39//39
f 38//38 42//42 43//43
f 39//39 43//43 44//44
f 40//40 44//44 45//45
f 37//37 41//41 42//42
f 41//41 47//47 42//42
f 42//42 48//48 43//43
f 43//43 49//49 44//44
f 44//44 50//50 45//45
f 46//46 52//52 47//47
f 47//47 53//53 48//48
f 48//48 54//54 49//49
f 49//49 55//55 50//50
f 54//54 60//60 55//55
f 51//51 57//57 52//52
f 52//52 58//58 53//53
f 53//53 59//59 54//54
f 58//58 64//64 59//59
f 59//59 65//65 60//60
f 56//56 62//62 57//57
f 57//57 63//63 58//58
f 61//61 67//67 62//62
f 62//62 68//68 63//63
f 63//63 69//69 64//64
f 64//64 70//70 65//65
f 66//66 72//72 67//67
f 67//67 73//73 68//68
f 68//68 74//74 69//69
f 69//69 75//75 70//70
f 74//74 80//80 75//75
f 71//71 77//77 72//72
f 72//72 78//78 73//73
f 73//73 79//79 74//74
f 78//78 84//84 79//79
f 79//79 85//85 80//80
f 76//76 82//82 77//77
f 77//77 83//83 78//78
f 82//82 86//86 87//87
f 83//83 87//87 88//88
f 84//84 88//88 89//89
f 85//85 89//89 90//90
f 87//87 91//91 92//92
f 88//88 92//92 93//93
f 89//89 93//93 94//94
f 90//90 94//94 95//95
f 95//95 99//99 100//100
f 92//92 96//96 97//97
f 93//93 97//97 98//98
f 94//94 98//98 99//99
f 99//99 103//103 104//104
f 100//100 104//104 105//105
f 97//97 101//101 102//102
f 98//98 102//102 103//103
f 103//103 107//107 108//108
f 104//104 108//108 109//109
f 105//105 109//109 110//110
f 102//102 106//106 107//107
f 107//107 112//112 113//113
f 108//108 113//113 114//114
f 109//109 114//114 115//115
f 110//110 115//115 116//116
f 116//116 120//120 121//121
f 113//113 117//117 118//118
f 114//114 118//118 119//119
f 115//115 119//119 120//120
f 120//120 124//124 125//125
f 121//121 125//125 126//126
f 118//118 122//122 123//123
f 119//119 123//123 124//124
f 123//123 129//129 124//124
f 124//124 130//130 125//125
f 125//125 131//131 126//126
f 122//122 128//128 123//123
f 127//127 133//133 128//128
f 128//128 134//134 129//129
f 129//129 135//135 130//130
f 130//130 136//136 131//131
f 135//135 141//141 136//136
f 132//132 138//138 133//133
f 133//133 139//139 134//134
f 134//134 140//140 135//135
f 139//139 145//145 140//140
f 140//140 146//146 141//141
f 137//137 143//143 138//138
f 138//138 144//144 139//139
f 143//143 149//149 144//144
f 144//144 150//150 145//145
f 145//145 151//151 146//146
f 142//142 148//148 143//143
f 147//147 153//153 148//148
f 148//148 154//154 149//149
f 149//149 155//155 150//150
f 150//150 156//156 151//151
f 152//152 158//158 153//153
f 153//153 159//159 154//154
f 154//154 160//160 155//155
f 155//155 161//161 156//156
f 111//111 5//5 10//10
f 111//111 10//10 15//15
f 111//111 15//15 20//20
f 111//111 20//20 25//25
f 111//111 25//25 30//30
f 111//111 30//30 35//35
f 111//111 35//35 40//40
f 111//111 40//40 45//45
f 111//111 45//45 50//50
f 111//111 50//50 55//55
f 111//111 55//55 60//60
f 111//111 60//60 65//65
f 111//111 65//65 70//70
f 111//111 70//70 75//75
f 111//111 75//75 80//80
f 111//111 80//80 85//85
f 111//111 85//85 90//90
f 111//111 90//90 95//95
f 111//111 95//95 100//100
f 111//111 100//100 105//105
f 111//111 105//105 110//110
f 111//111 110//110 116//116
f 111//111 116//116 121//121
f 111//111 121//121 126//126
f 111//111 126//126 131//131
f 111//111 131//131 136//136
f 111//111 136//136 141//141
f 111//111 141//141 146//146
f 111//111 146//146 151//151
f 111//111 151//151 156//156
f 111//111 156//156 161//161
f 159//159 4//4 160//160
f 160//160 5//5 161//161
f 111//111 161//161 5//5
f 157//157 2//2 158//158
f 158//158 3//3 159//159
f 2//2 1//1 6//6
f 3//3 2//2 7//7
f 4//4 3//3 8//8
f 5//5 4//4 9//9
f 7//7 6//6 11//11
f 8//8 7//7 12//12
f 9//9 8//8 13//13
f 10//10 9//9 14//14
f 15//15 14//14 19//19
f 12//12 11//11 16//16
f 13//13 12//12 17//17
f 14//14 13//13 18//18
f 18//18 17//17 22//22
f 19//19 18//18 23//23
f 20//20 19//19 24//24
f 17//17 16//16 21//21
f 22//22 21//21 26//26
f 23//23 22//22 27//27
f 24//24 23//23 28//28
f 25//25 24//24 29//29
f 27//27 26//26 31//31
f 28//28 27//27 32//32
f 29//29 28//28 33//33
f 30//30 29//29 34//34
f 35//35 34//34 39//39
f 32//32 31//31 36//36
f 33//33 32//32 37//37
f 34//34 33//33 38//38
f 38//38 37//37 42//42
f 39//39 38//38 43//43
f 40//40 39//39 44//44
f 37//37 36//36 41//41
f 41//41 46//46 47//47
f 42//42 47//47 48//48
f 43//43 48//48 49//49
f 44//44 49//49 50//50
f 46//46 51//51 52//52
f 47//47 52//52 53//53
f 48//48 53//53 54//54
f 49//49 54//54 55//55
f 54//54 59//59 60//60
f 51//51 56//56 57//57
f 52//52 57//57 58//58
f 53//53 58//58 59//59
f 58//58 63//63 64//64
f 59//59 64//64 65//65
f 56//56 61//61 62//62
f 57//57 62//62 63//63
f 61//61 66//66 67//67
f 62//62 67//67 68//68
f 63//63 68//68 69//69
f 64//64 69//69 70//70
f 66//66 71//71 72//72
f 67//67 72//72 73//73
f 68//68 73//73 74//74
f 69//69 74//74 75//75
f 74//74 79//79 80//80
f 71//71 76//76 77//77
f 72//72 77//77 78//78
f 73//73 78//78 79//79
f 78//78 83//83 84//84
f 79//79 84//84 85//85
f 76//76 81//81 82//82
f 77//77 82//82 83//83
f 82//82 81//81 86//86
f 83//83 82//82 87//87
f 84//84 83//83 88//88
f 85//85 84//84 89//89
f 87//87 86//86 91//91
f 88//88 87//87 92//92
f 89//89 88//88 93//93
f 90//90 89//89 94//94
f 95//95 94//94 99//99
f 92//92 91//91 96//96
f 93//93 92//92 97//97
f 94//94 93//93 98//98
f 99//99 98//98 103//103
f 100//100 99//99 104//104
f 97//97 96//96 101//101
f 98//98 97//97 102//102
f 103//103 102//102 107//107
f 104//104 103//103 108//108
f 105//105 104//104 109//109
f 102//102 101//101 106//106
f 107//107 106//106 112//112
f 108//108 107//107 113//113
f 109//109 108//108 114//114
f 110//110 109//109 115//115
f 116//116 115//115 120//120
f 113//113 112//112 117//117
f 114//114 113//113 118//118
f 115//115 114//114 119//119
f 120//120 119//119 124//124
f 121//121 120//120 125//125
f 118//118 117//117 122//122
f 119//119 118//118 123//123
f 123//123 128//128 129//129
f 124//124 129//129 130//130
f 125//125 130//130 131//131
f 122//122 127//127 128//128
f 127//127 132//132 133//133
f 128//128 133//133 134//134
f 129//129 134//134 135//135
f 130//130 135//135 136//136
f 135//135 140//140 141//141
f 132//132 137//137 138//138
f 133//133 138//138 139//139
f 134//134 139//139 140//140
f 139//139 144//144 145//145
f 140//140 145//145 146//146
f 137//137 142//142 143//143
f 138//138 143//143 144//144
f 143//143 148//148 149//149
f 144//144 149//149 150//150
f 145//145 150//150 151//151
f 142//142 147//147 148//148
f 147//147 152//152 153//153
f 148//148 153//153 154//154
f 149//149 154//154 155//155
f 150//150 155//155 156//156
f 152//152 157//157 158//158
f 153//153 158//158 159//159
f 154//154 159//159 160//160
f 155//155 160//160 161//161
f 159//159 3//3 4//4
f 160//160 4//4 5//5
f 157//157 1//1 2//2
f 158//158 2//2 3//3
