# Blender 4.5.3 LTS
# www.blender.org
mtllib Lampara.mtl
g Lampara_Malla
v -6.338235 13.557651 0.000001
v -6.302973 13.543704 -0.096471
v -6.206634 13.505601 -0.167093
v -6.075032 13.453550 -0.192942
v -5.943431 13.401501 -0.167093
v -5.847092 13.363398 -0.096471
v -5.811830 13.349451 0.000001
v -5.847092 13.363398 0.096473
v -5.943431 13.401501 0.167095
v -6.075032 13.453550 0.192944
v -6.206634 13.505601 0.167095
v -6.302973 13.543704 0.096473
v -5.882906 13.649983 0.000001
v -5.853944 13.634759 -0.096471
v -5.774817 13.593165 -0.167093
v -5.666728 13.536348 -0.192942
v -5.558639 13.479530 -0.167093
v -5.479511 13.437937 -0.096471
v -5.450549 13.422713 0.000001
v -5.479511 13.437937 0.096473
v -5.558639 13.479530 0.167095
v -5.666728 13.536348 0.192944
v -5.774817 13.593165 0.167095
v -5.853944 13.634759 0.096473
v -5.391764 13.723489 0.000001
v -5.369597 13.707248 -0.096471
v -5.309036 13.662876 -0.167093
v -5.226308 13.602262 -0.192942
v -5.143579 13.541650 -0.167093
v -5.083018 13.497277 -0.096471
v -5.060851 13.481036 0.000001
v -5.083018 13.497277 0.096473
v -5.143579 13.541650 0.167095
v -5.226308 13.602262 0.192944
v -5.309036 13.662876 0.167095
v -5.369597 13.707248 0.096473
v -4.873207 13.776911 0.000001
v -4.858215 13.759931 -0.096471
v -4.817255 13.713539 -0.167093
v -4.761304 13.650167 -0.192942
v -4.705353 13.586796 -0.167093
v -4.664394 13.540404 -0.096471
v -4.649402 13.523423 0.000001
v -4.664394 13.540404 0.096473
v -4.705353 13.586796 0.167095
v -4.761304 13.650167 0.192944
v -4.817255 13.713539 0.167095
v -4.858215 13.759931 0.096473
v -4.336111 13.809334 0.000001
v -4.328550 13.791904 -0.096471
v -4.307894 13.744287 -0.167093
v -4.279677 13.679242 -0.192942
v -4.251460 13.614196 -0.167093
v -4.230803 13.566579 -0.096471
v -4.223243 13.549150 0.000001
v -4.230803 13.566579 0.096473
v -4.251460 13.614196 0.167095
v -4.279677 13.679242 0.192944
v -4.307894 13.744287 0.167095
v -4.328550 13.791904 0.096473
v -3.789666 13.820203 0.000001
v -3.789666 13.802624 -0.096471
v -3.789666 13.754596 -0.167093
v -3.789666 13.688989 -0.192942
v -3.789666 13.623382 -0.167093
v -3.789666 13.575354 -0.096471
v -3.789666 13.557774 0.000001
v -3.789666 13.575354 0.096473
v -3.789666 13.623382 0.167095
v -3.789666 13.688989 0.192944
v -3.789666 13.754596 0.167095
v -3.789666 13.802624 0.096473
v -3.243219 13.809334 0.000001
v -3.250780 13.791904 -0.096471
v -3.271436 13.744287 -0.167093
v -3.299653 13.679241 -0.192942
v -3.327870 13.614196 -0.167093
v -3.348527 13.566579 -0.096471
v -3.356088 13.549150 0.000001
v -3.348527 13.566579 0.096473
v -3.327870 13.614196 0.167095
v -3.299653 13.679241 0.192944
v -3.271436 13.744287 0.167095
v -3.250780 13.791904 0.096473
v -2.706125 13.776911 0.000001
v -2.721117 13.759931 -0.096471
v -2.762076 13.713539 -0.167093
v -2.818027 13.650167 -0.192942
v -2.873978 13.586796 -0.167093
v -2.914937 13.540404 -0.096471
v -2.929930 13.523423 0.000001
v -2.914937 13.540404 0.096473
v -2.873978 13.586796 0.167095
v -2.818027 13.650167 0.192944
v -2.762076 13.713539 0.167095
v -2.721117 13.759931 0.096473
v -2.187568 13.723489 0.000001
v -2.209735 13.707248 -0.096471
v -2.270296 13.662876 -0.167093
v -2.353024 13.602262 -0.192942
v -2.435752 13.541650 -0.167093
v -2.496313 13.497277 -0.096471
v -2.518480 13.481036 0.000001
v -2.496313 13.497277 0.096473
v -2.435752 13.541650 0.167095
v -2.353024 13.602262 0.192944
v -2.270296 13.662876 0.167095
v -2.209735 13.707248 0.096473
v -1.696425 13.649983 0.000001
v -1.725387 13.634759 -0.096471
v -1.804515 13.593165 -0.167093
v -1.912604 13.536348 -0.192942
v -2.020693 13.479530 -0.167093
v -2.099820 13.437937 -0.096471
v -2.128783 13.422713 0.000001
v -2.099820 13.437937 0.096473
v -2.020693 13.479530 0.167095
v -1.912604 13.536348 0.192944
v -1.804515 13.593165 0.167095
v -1.725387 13.634759 0.096473
v -1.241097 13.557651 0.000001
v -1.276359 13.543704 -0.096471
v -1.372698 13.505601 -0.167093
v -1.504299 13.453551 -0.192942
v -1.635901 13.401501 -0.167093
v -1.732239 13.363398 -0.096471
v -1.767502 13.349451 0.000001
v -1.732239 13.363398 0.096473
v -1.635901 13.401502 0.167095
v -1.504299 13.453551 0.192944
v -1.372698 13.505601 0.167095
v -1.276359 13.543704 0.096473
v -0.829376 13.448071 0.000001
v -0.870334 13.435640 -0.096471
v -0.982237 13.401679 -0.167093
v -1.135098 13.355288 -0.192942
v -1.287960 13.308896 -0.167093
v -1.399862 13.274936 -0.096471
v -1.440822 13.262506 0.000001
v -1.399862 13.274936 0.096473
v -1.287960 13.308896 0.167095
v -1.135098 13.355288 0.192944
v -0.982237 13.401679 0.167095
v -0.870334 13.435640 0.096473
v -0.468306 13.323119 0.000001
v -0.514261 13.312417 -0.096471
v -0.639812 13.283180 -0.167093
v -0.811319 13.243240 -0.192942
v -0.982825 13.203301 -0.167093
v -1.108376 13.174064 -0.096471
v -1.154331 13.163363 0.000001
v -1.108376 13.174064 0.096473
v -0.982825 13.203301 0.167095
v -0.811319 13.243240 0.192944
v -0.639812 13.283180 0.167095
v -0.514261 13.312417 0.096473
v -0.164067 13.184934 0.000001
v -0.214231 13.176144 -0.096471
v -0.351283 13.152130 -0.167093
v -0.538499 13.119327 -0.192942
v -0.725715 13.086523 -0.167093
v -0.862767 13.062509 -0.096471
v -0.912932 13.053720 0.000001
v -0.862767 13.062509 0.096473
v -0.725715 13.086523 0.167095
v -0.538499 13.119327 0.192944
v -0.351283 13.152130 0.167095
v -0.214231 13.176144 0.096473
v 0.078139 13.035878 0.000001
v 0.024624 13.029151 -0.096471
v -0.121584 13.010772 -0.167093
v -0.321307 12.985664 -0.192942
v -0.521030 12.960558 -0.167093
v -0.667238 12.942178 -0.096471
v -0.720754 12.935451 0.000001
v -0.667238 12.942178 0.096473
v -0.521030 12.960558 0.167095
v -0.321307 12.985664 0.192944
v -0.121584 13.010772 0.167095
v 0.024624 13.029151 0.096473
v 0.254166 12.878503 0.000001
v 0.198215 12.873954 -0.096471
v 0.045353 12.861523 -0.167093
v -0.163460 12.844543 -0.192942
v -0.372272 12.827562 -0.167093
v -0.525134 12.815131 -0.096471
v -0.581085 12.810581 0.000001
v -0.525134 12.815131 0.096473
v -0.372272 12.827562 0.167095
v -0.163460 12.844543 0.192944
v 0.045353 12.861523 0.167095
v 0.198215 12.873954 0.096473
v 0.239964 12.715503 0.000001
v 0.303571 12.713208 -0.096471
v 0.146671 12.706939 -0.167093
v -0.067658 12.698376 -0.192942
v -0.281988 12.689812 -0.167093
v -0.438888 12.683543 -0.096471
v -0.496317 12.681249 0.000001
v -0.438888 12.683543 0.096473
v -0.281988 12.689812 0.167095
v -0.067658 12.698376 0.192944
v 0.146671 12.706939 0.167095
v 0.303571 12.713208 0.096473
v 0.280239 12.549664 0.000001
v 0.268637 12.549664 -0.078370
v 0.140076 12.549664 -0.135741
v -0.035541 12.549664 -0.156740
v -0.211159 12.549664 -0.135741
v -0.339719 12.549664 -0.078370
v -0.386776 12.549664 0.000001
v -0.339719 12.549664 0.078372
v -0.211159 12.549664 0.135743
v -0.035541 12.549664 0.156742
v 0.140076 12.549664 0.135743
v 0.268637 12.549664 0.078372
v -7.027680 13.852616 0.000001
v -6.750762 13.852024 0.000001
v -6.493424 13.831039 0.000001
v -6.265558 13.790469 0.000001
v -6.075919 13.731872 0.000001
v -5.931795 13.657499 0.000001
v -5.838725 13.570210 0.000001
v -5.800285 13.473358 0.000001
v -5.817953 13.370667 0.000001
v -5.891050 13.266080 0.000001
v -6.029702 13.287883 0.000001
v -7.033154 13.852046 0.038061
v -6.761497 13.850906 0.074659
v -6.509010 13.829417 0.108387
v -6.285395 13.788404 0.137951
v -6.099245 13.729444 0.162213
v -5.957713 13.654801 0.180241
v -5.866240 13.567346 0.191343
v -5.828339 13.470438 0.195091
v -5.845468 13.367803 0.191343
v -5.916968 13.263382 0.180241
v -6.053028 13.285455 0.162213
v -7.049362 13.850359 0.074659
v -6.793292 13.847597 0.146448
v -6.555169 13.824612 0.212609
v -6.344144 13.782289 0.270599
v -6.168326 13.722253 0.318191
v -6.034472 13.646811 0.353554
v -5.947727 13.558864 0.375331
v -5.911423 13.461790 0.382685
v -5.926955 13.359320 0.375331
v -5.993728 13.255392 0.353555
v -6.122109 13.278264 0.318191
v -7.075684 13.847619 0.108388
v -6.844924 13.842222 0.212609
v -6.630127 13.816810 0.308659
v -6.439547 13.772358 0.392849
v -6.280508 13.710575 0.461941
v -6.159122 13.633836 0.513281
v -6.080055 13.545089 0.544896
v -6.046343 13.447745 0.555571
v -6.059283 13.345546 0.544896
v -6.118378 13.242416 0.513281
v -6.234291 13.266586 0.461941
v -7.111107 13.843931 0.137951
v -6.914409 13.834990 0.270599
v -6.731003 13.806309 0.392849
v -6.567938 13.758993 0.500001
v -6.431480 13.694860 0.587939
v -6.326873 13.616374 0.653283
v -6.258138 13.526551 0.693521
v -6.227915 13.428844 0.707108
v -6.237366 13.327008 0.693521
v -6.286129 13.224955 0.653283
v -6.385263 13.250871 0.587939
v -7.154270 13.839438 0.162213
v -6.999076 13.826176 0.318191
v -6.853921 13.793513 0.461941
v -6.724382 13.742708 0.587939
v -6.615439 13.675711 0.691343
v -6.531278 13.595097 0.768179
v -6.475133 13.503963 0.815494
v -6.449161 13.405814 0.831471
v -6.454361 13.304420 0.815494
v -6.490533 13.203677 0.768179
v -6.569222 13.231722 0.691343
v -7.203515 13.834312 0.180241
v -7.095672 13.816120 0.353555
v -6.994157 13.778916 0.513281
v -6.902869 13.724129 0.653283
v -6.825317 13.653864 0.768179
v -6.764482 13.570822 0.853555
v -6.722701 13.478193 0.906129
v -6.701579 13.379539 0.923881
v -6.701929 13.278649 0.906129
v -6.723737 13.179402 0.853555
v -6.779100 13.209875 0.768179
v -7.256948 13.828751 0.191343
v -7.200485 13.805210 0.375332
v -7.146321 13.763077 0.544896
v -7.096538 13.703969 0.693521
v -7.053048 13.630157 0.815494
v -7.017523 13.544481 0.906129
v -6.991327 13.450231 0.961941
v -6.975469 13.351028 0.980786
v -6.970556 13.250687 0.961941
v -6.976778 13.153062 0.906129
v -7.006831 13.186170 0.815494
v -7.312517 13.822966 0.195092
v -7.309487 13.793863 0.382685
v -7.304568 13.746604 0.555571
v -7.297947 13.683003 0.707108
v -7.289880 13.605505 0.831471
v -7.280676 13.517088 0.923881
v -7.270690 13.421150 0.980786
v -7.260304 13.321379 1.000001
v -7.249918 13.221607 0.980786
v -7.239932 13.125669 0.923881
v -7.243663 13.161516 0.831471
v -7.368085 13.817182 0.191343
v -7.418489 13.782517 0.375331
v -7.462814 13.730131 0.544896
v -7.499356 13.662038 0.693521
v -7.526712 13.580853 0.815494
v -7.543830 13.489696 0.906129
v -7.550052 13.392071 0.961941
v -7.545140 13.291729 0.980786
v -7.529281 13.192527 0.961941
v -7.503085 13.098276 0.906129
v -7.480495 13.136864 0.815494
v -7.421518 13.811620 0.180241
v -7.523302 13.771606 0.353555
v -7.614979 13.714292 0.513281
v -7.693025 13.641877 0.653283
v -7.754443 13.557147 0.768179
v -7.796871 13.463355 0.853554
v -7.818679 13.364108 0.906128
v -7.819029 13.263219 0.923881
v -7.797907 13.164564 0.906128
v -7.756126 13.071936 0.853554
v -7.708226 13.113158 0.768179
v -7.470763 13.806494 0.162213
v -7.619898 13.761552 0.318191
v -7.755215 13.699694 0.461941
v -7.871511 13.623298 0.587939
v -7.964321 13.535299 0.691343
v -8.030074 13.439080 0.768179
v -8.066247 13.338338 0.815494
v -8.071446 13.236943 0.831471
v -8.045475 13.138794 0.815494
v -7.989330 13.047661 0.768179
v -7.918104 13.091311 0.691343
v -7.513926 13.802000 0.137951
v -7.704566 13.752738 0.270599
v -7.878132 13.686899 0.392848
v -8.027956 13.607013 0.500001
v -8.148280 13.516150 0.587939
v -8.234479 13.417803 0.653282
v -8.283241 13.315749 0.693521
v -8.292693 13.213913 0.707108
v -8.262470 13.116206 0.693521
v -8.193734 13.026383 0.653282
v -8.102063 13.072162 0.587939
v -7.549349 13.798313 0.108388
v -7.774050 13.745505 0.212609
v -7.979008 13.676398 0.308659
v -8.156347 13.593648 0.392848
v -8.299252 13.500435 0.461941
v -8.402229 13.400341 0.513281
v -8.461325 13.297212 0.544896
v -8.474265 13.195012 0.555571
v -8.440553 13.097669 0.544896
v -8.361485 13.008922 0.513281
v -8.253035 13.056446 0.461941
v -7.575670 13.795573 0.074659
v -7.825682 13.740130 0.146448
v -8.053966 13.668595 0.212608
v -8.251750 13.583717 0.270599
v -8.411433 13.488757 0.318191
v -8.526879 13.387365 0.353554
v -8.593652 13.283438 0.375331
v -8.609185 13.180967 0.382684
v -8.572881 13.083894 0.375331
v -8.486135 12.995946 0.353554
v -8.365216 13.044768 0.318191
v -7.591879 13.793886 0.038061
v -7.857476 13.736821 0.074659
v -8.100124 13.663791 0.108387
v -8.310498 13.577602 0.137951
v -8.480515 13.481566 0.162213
v -8.603639 13.379375 0.180241
v -8.675139 13.274955 0.191343
v -8.692268 13.172319 0.195091
v -8.654367 13.075412 0.191343
v -8.562894 12.987956 0.180241
v -8.434298 13.037578 0.162213
v -7.597352 13.793316 0.000001
v -7.868212 13.735703 0.000001
v -8.115710 13.662169 0.000001
v -8.330336 13.575537 0.000001
v -8.503840 13.479138 0.000001
v -8.629557 13.376678 0.000001
v -8.702654 13.272091 0.000001
v -8.720322 13.169399 0.000001
v -8.681883 13.072547 0.000001
v -8.588813 12.985258 0.000001
v -8.457623 13.035150 0.000001
v -7.591879 13.793886 -0.038059
v -7.857476 13.736821 -0.074657
v -8.100124 13.663791 -0.108385
v -8.310498 13.577602 -0.137949
v -8.480515 13.481566 -0.162211
v -8.603639 13.379375 -0.180239
v -8.675138 13.274955 -0.191341
v -8.692268 13.172319 -0.195089
v -8.654367 13.075412 -0.191341
v -8.562894 12.987956 -0.180239
v -8.434298 13.037578 -0.162211
v -7.575670 13.795573 -0.074657
v -7.825682 13.740130 -0.146446
v -8.053966 13.668595 -0.212607
v -8.251750 13.583717 -0.270597
v -8.411433 13.488757 -0.318189
v -8.526879 13.387365 -0.353552
v -8.593652 13.283438 -0.375329
v -8.609184 13.180967 -0.382683
v -8.572881 13.083894 -0.375329
v -8.486135 12.995946 -0.353552
v -8.365216 13.044768 -0.318189
v -7.549349 13.798313 -0.108386
v -7.774050 13.745505 -0.212607
v -7.979008 13.676398 -0.308657
v -8.156346 13.593648 -0.392846
v -8.299252 13.500435 -0.461939
v -8.402229 13.400341 -0.513279
v -8.461324 13.297212 -0.544894
v -8.474264 13.195012 -0.555569
v -8.440553 13.097669 -0.544894
v -8.361485 13.008922 -0.513279
v -8.253035 13.056446 -0.461939
v -7.513926 13.802000 -0.137949
v -7.704565 13.752738 -0.270597
v -7.878132 13.686899 -0.392846
v -8.027956 13.607013 -0.499999
v -8.148279 13.516150 -0.587937
v -8.234479 13.417803 -0.653280
v -8.283241 13.315749 -0.693519
v -8.292692 13.213913 -0.707106
v -8.262469 13.116206 -0.693519
v -8.193734 13.026383 -0.653280
v -8.102063 13.072162 -0.587937
v -7.470763 13.806494 -0.162211
v -7.619898 13.761552 -0.318189
v -7.755214 13.699694 -0.461939
v -7.871511 13.623298 -0.587937
v -7.964320 13.535299 -0.691341
v -8.030074 13.439080 -0.768177
v -8.066246 13.338338 -0.815492
v -8.071446 13.236943 -0.831469
v -8.045475 13.138794 -0.815492
v -7.989329 13.047661 -0.768177
v -7.918103 13.091311 -0.691341
v -7.421518 13.811620 -0.180239
v -7.523302 13.771606 -0.353553
v -7.614978 13.714292 -0.513279
v -7.693025 13.641877 -0.653280
v -7.754442 13.557147 -0.768177
v -7.796870 13.463355 -0.853552
v -7.818678 13.364108 -0.906126
v -7.819028 13.263219 -0.923878
v -7.797907 13.164564 -0.906126
v -7.756126 13.071936 -0.853552
v -7.708226 13.113158 -0.768177
v -7.368085 13.817182 -0.191341
v -7.418489 13.782517 -0.375329
v -7.462813 13.730131 -0.544894
v -7.499356 13.662038 -0.693519
v -7.526711 13.580853 -0.815492
v -7.543829 13.489696 -0.906126
v -7.550052 13.392071 -0.961938
v -7.545139 13.291729 -0.980784
v -7.529280 13.192527 -0.961938
v -7.503085 13.098276 -0.906126
v -7.480495 13.136864 -0.815492
v -7.312516 13.822966 -0.195090
v -7.309487 13.793863 -0.382682
v -7.304567 13.746604 -0.555569
v -7.297947 13.683003 -0.707106
v -7.289880 13.605505 -0.831468
v -7.280676 13.517088 -0.923878
v -7.270689 13.421150 -0.980784
v -7.260303 13.321379 -0.999999
v -7.249918 13.221607 -0.980784
v -7.239932 13.125669 -0.923878
v -7.243663 13.161516 -0.831468
v -7.256948 13.828751 -0.191341
v -7.200485 13.805210 -0.375329
v -7.146321 13.763077 -0.544894
v -7.096538 13.703969 -0.693519
v -7.053048 13.630158 -0.815492
v -7.017522 13.544481 -0.906126
v -6.991327 13.450231 -0.961938
v -6.975468 13.351028 -0.980784
v -6.970556 13.250687 -0.961938
v -6.976778 13.153062 -0.906126
v -7.006831 13.186170 -0.815492
v -7.203515 13.834312 -0.180239
v -7.095672 13.816120 -0.353552
v -6.994157 13.778916 -0.513279
v -6.902869 13.724129 -0.653280
v -6.825317 13.653864 -0.768176
v -6.764482 13.570822 -0.853552
v -6.722701 13.478193 -0.906126
v -6.701579 13.379539 -0.923878
v -6.701929 13.278649 -0.906126
v -6.723737 13.179402 -0.853552
v -6.779100 13.209875 -0.768176
v -7.154270 13.839438 -0.162211
v -6.999076 13.826176 -0.318189
v -6.853921 13.793513 -0.461938
v -6.724382 13.742708 -0.587936
v -6.615439 13.675711 -0.691340
v -6.531278 13.595097 -0.768176
v -6.475133 13.503963 -0.815492
v -6.449162 13.405814 -0.831468
v -6.454361 13.304420 -0.815492
v -6.490534 13.203677 -0.768176
v -6.569223 13.231722 -0.691340
v -7.111107 13.843931 -0.137949
v -6.914409 13.834990 -0.270597
v -6.731003 13.806309 -0.392846
v -6.567938 13.758993 -0.499999
v -6.431480 13.694860 -0.587936
v -6.326874 13.616374 -0.653280
v -6.258138 13.526551 -0.693518
v -6.227915 13.428844 -0.707105
v -6.237367 13.327008 -0.693518
v -6.286129 13.224955 -0.653280
v -6.385263 13.250871 -0.587936
v -7.075684 13.847619 -0.108385
v -6.844924 13.842222 -0.212606
v -6.630127 13.816810 -0.308657
v -6.439548 13.772358 -0.392846
v -6.280509 13.710575 -0.461938
v -6.159123 13.633836 -0.513278
v -6.080055 13.545089 -0.544894
v -6.046343 13.447745 -0.555569
v -6.059284 13.345546 -0.544894
v -6.118379 13.242416 -0.513279
v -6.234292 13.266586 -0.461938
v -7.313539 13.832792 0.000001
v -7.049363 13.850359 -0.074657
v -6.793293 13.847596 -0.146445
v -6.555170 13.824612 -0.212606
v -6.344144 13.782289 -0.270597
v -6.168327 13.722253 -0.318188
v -6.034473 13.646811 -0.353552
v -5.947728 13.558864 -0.375329
v -5.911424 13.461790 -0.382682
v -5.926956 13.359320 -0.375329
v -5.993729 13.255392 -0.353552
v -6.122110 13.278264 -0.318188
v -7.033154 13.852046 -0.038059
v -6.761498 13.850906 -0.074657
v -6.509011 13.829417 -0.108385
v -6.285396 13.788404 -0.137948
v -6.099246 13.729444 -0.162210
v -5.957714 13.654801 -0.180239
v -5.866241 13.567346 -0.191340
v -5.828340 13.470438 -0.195089
v -5.845469 13.367803 -0.191340
v -5.916970 13.263382 -0.180239
v -6.053029 13.285455 -0.162210
v 0.000000 -0.039069 0.369538
v 0.000000 13.836954 0.369539
v -0.320030 -0.039069 0.184769
v -0.320030 13.836954 0.184770
v -0.320030 -0.039069 -0.184769
v -0.320030 13.836954 -0.184768
v 0.000000 -0.039069 -0.369538
v 0.000000 13.836954 -0.369537
v 0.320030 -0.039069 -0.184769
v 0.320030 13.836954 -0.184768
v 0.320030 -0.039069 0.184769
v 0.320030 13.836954 0.184770
v 0.000000 1.348534 0.369538
v -0.320030 1.348534 0.184769
v -0.320030 1.348534 -0.184769
v 0.000000 1.348534 -0.369538
v 0.320030 1.348534 -0.184769
v 0.320030 1.348534 0.184769
v -0.320030 11.339271 -0.184768
v -0.320030 12.588113 -0.184768
v 0.320030 3.846218 0.184769
v 0.320030 5.095060 0.184769
v 0.320030 11.339271 -0.184768
v 0.320030 12.588113 -0.184768
v 0.000000 8.841586 0.369539
v 0.000000 10.090428 0.369539
v 0.000000 6.343902 0.369538
v 0.000000 7.592744 0.369539
v 0.320030 8.841586 -0.184768
v 0.320030 10.090428 -0.184768
v 0.320030 6.343902 -0.184769
v 0.320030 7.592744 -0.184768
v -0.320030 3.846218 -0.184769
v -0.320030 5.095060 -0.184769
v -0.320030 6.343902 -0.184769
v -0.320030 7.592744 -0.184768
v -0.320030 3.846218 0.184769
v -0.320030 5.095060 0.184769
v 0.000000 11.339271 -0.369537
v 0.000000 12.588113 -0.369537
v -0.320030 8.841586 0.184770
v -0.320030 10.090428 0.184770
v -0.320030 6.343902 0.184769
v -0.320030 7.592744 0.184770
v 0.320030 2.597376 0.184769
v 0.320030 2.597376 -0.184769
v -0.320030 11.339271 0.184770
v -0.320030 12.588113 0.184770
v 0.000000 3.846218 -0.369538
v 0.000000 5.095060 -0.369538
v 0.000000 2.597376 -0.369538
v -0.320030 2.597376 -0.184769
v -0.320030 2.597376 0.184769
v 0.000000 2.597376 0.369538
v 0.000000 6.343902 -0.369538
v 0.000000 7.592744 -0.369537
v -0.320030 8.841586 -0.184768
v -0.320030 10.090428 -0.184768
v 0.000000 11.339271 0.369539
v 0.000000 12.588113 0.369539
v 0.000000 8.841586 -0.369537
v 0.000000 10.090428 -0.369537
v 0.320030 6.343902 0.184769
v 0.320030 7.592744 0.184770
v 0.320030 3.846218 -0.184769
v 0.320030 5.095060 -0.184769
v 0.000000 5.095060 0.369538
v 0.000000 3.846218 0.369538
v 0.320030 12.588113 0.184770
v 0.320030 11.339271 0.184770
v 0.320030 10.090428 0.184770
v 0.320030 8.841586 0.184770
v 0.157999 14.459006 0.000001
v 0.291945 14.369507 0.000001
v 0.381444 14.235561 0.000001
v 0.412872 14.077562 0.000001
v 0.381444 13.919563 0.000001
v 0.291945 13.785618 0.000001
v 0.157999 13.696118 0.000001
v 0.145972 14.459006 0.060465
v 0.269722 14.369507 0.111723
v 0.352408 14.235561 0.145973
v 0.381444 14.077562 0.158000
v 0.352408 13.919563 0.145973
v 0.269722 13.785618 0.111723
v 0.145972 13.696118 0.060465
v 0.111722 14.459006 0.111723
v 0.206436 14.369507 0.206437
v 0.269722 14.235561 0.269723
v 0.291945 14.077562 0.291946
v 0.269722 13.919563 0.269723
v 0.206436 13.785618 0.206437
v 0.111722 13.696118 0.111723
v 0.060464 14.459006 0.145973
v 0.111722 14.369507 0.269723
v 0.145972 14.235561 0.352409
v 0.157999 14.077562 0.381445
v 0.145972 13.919563 0.352409
v 0.111722 13.785618 0.269723
v 0.060464 13.696118 0.145973
v 0.000000 14.459006 0.158000
v 0.000000 14.369507 0.291946
v 0.000000 14.235561 0.381445
v 0.000000 14.077562 0.412873
v 0.000000 13.919563 0.381445
v 0.000000 13.785618 0.291946
v 0.000000 13.696118 0.158000
v 0.000000 14.490435 0.000001
v -0.060464 14.459006 0.145973
v -0.111722 14.369507 0.269723
v -0.145972 14.235561 0.352409
v -0.157999 14.077562 0.381445
v -0.145972 13.919563 0.352409
v -0.111722 13.785618 0.269723
v -0.060464 13.696118 0.145973
v -0.111722 14.459006 0.111723
v -0.206436 14.369507 0.206437
v -0.269722 14.235561 0.269723
v -0.291945 14.077562 0.291946
v -0.269722 13.919563 0.269723
v -0.206436 13.785618 0.206437
v -0.111722 13.696118 0.111723
v -0.145972 14.459006 0.060465
v -0.269722 14.369507 0.111723
v -0.352408 14.235561 0.145973
v -0.381444 14.077562 0.158000
v -0.352408 13.919563 0.145973
v -0.269722 13.785618 0.111723
v -0.145972 13.696118 0.060465
v -0.157999 14.459006 0.000001
v -0.291945 14.369507 0.000001
v -0.381444 14.235561 0.000001
v -0.412872 14.077562 0.000001
v -0.381444 13.919563 0.000001
v -0.291945 13.785618 0.000001
v -0.157999 13.696118 0.000001
v -0.145972 14.459006 -0.060463
v -0.269722 14.369507 -0.111721
v -0.352408 14.235561 -0.145971
v -0.381444 14.077562 -0.157998
v -0.352408 13.919563 -0.145971
v -0.269722 13.785618 -0.111721
v -0.145972 13.696118 -0.060463
v -0.111722 14.459006 -0.111721
v -0.206436 14.369507 -0.206435
v -0.269722 14.235561 -0.269721
v -0.291945 14.077562 -0.291944
v -0.269722 13.919563 -0.269721
v -0.206436 13.785618 -0.206435
v -0.111722 13.696118 -0.111721
v -0.060464 14.459006 -0.145971
v -0.111722 14.369507 -0.269721
v -0.145972 14.235561 -0.352407
v -0.157999 14.077562 -0.381443
v -0.145972 13.919563 -0.352407
v -0.111722 13.785618 -0.269721
v -0.060464 13.696118 -0.145971
v 0.000000 14.459006 -0.157998
v 0.000000 14.369507 -0.291944
v 0.000000 14.235561 -0.381443
v 0.000000 14.077562 -0.412871
v 0.000000 13.919563 -0.381443
v 0.000000 13.785618 -0.291944
v 0.000000 13.696118 -0.157998
v 0.060464 14.459006 -0.145971
v 0.111722 14.369507 -0.269721
v 0.145972 14.235561 -0.352407
v 0.157999 14.077562 -0.381443
v 0.145972 13.919563 -0.352407
v 0.111722 13.785618 -0.269721
v 0.060464 13.696118 -0.145971
v 0.000000 13.664690 0.000001
v 0.111722 14.459006 -0.111721
v 0.206436 14.369507 -0.206435
v 0.269722 14.235561 -0.269721
v 0.291945 14.077562 -0.291944
v 0.269722 13.919563 -0.269721
v 0.206436 13.785618 -0.206435
v 0.111722 13.696118 -0.111721
v 0.145972 14.459006 -0.060463
v 0.269722 14.369507 -0.111721
v 0.352408 14.235561 -0.145971
v 0.381444 14.077562 -0.157998
v 0.352408 13.919563 -0.145971
v 0.269722 13.785618 -0.111721
v 0.145972 13.696118 -0.060463
vn -0.1776 0.9841 -0.0000
vn -0.8459 0.0327 -0.5324
vn -0.9907 0.1363 -0.0000
vn -0.1596 0.8936 -0.4196
vn -0.5545 -0.2206 -0.8024
vn -0.0995 0.5783 -0.8097
vn -0.3048 -0.5276 -0.7930
vn 0.0030 0.0119 -0.9999
vn -0.1447 -0.7958 -0.5881
vn 0.1023 -0.5707 -0.8148
vn -0.0582 -0.9504 -0.3055
vn 0.1552 -0.8955 -0.4171
vn -0.0254 -0.9997 -0.0000
vn 0.1552 -0.8955 0.4171
vn -0.0582 -0.9504 0.3055
vn 0.1023 -0.5706 0.8148
vn -0.1447 -0.7958 0.5881
vn 0.0030 0.0119 0.9999
vn -0.3048 -0.5276 0.7930
vn -0.0995 0.5783 0.8097
vn -0.5545 -0.2206 0.8024
vn -0.1596 0.8936 0.4196
vn -0.8459 0.0327 0.5324
vn -0.1282 0.9918 -0.0000
vn -0.1166 0.9086 -0.4011
vn -0.0742 0.6000 -0.7966
vn 0.0030 0.0094 -1.0000
vn 0.0762 -0.5941 -0.8008
vn 0.1128 -0.9095 -0.4002
vn 0.1693 -0.9856 -0.0000
vn 0.1128 -0.9095 0.4002
vn 0.0762 -0.5941 0.8008
vn 0.0030 0.0094 1.0000
vn -0.0742 0.6000 0.7966
vn -0.1166 0.9086 0.4011
vn -0.0832 0.9965 -0.0000
vn -0.0763 0.9184 -0.3882
vn -0.0493 0.6149 -0.7870
vn 0.0026 0.0071 -1.0000
vn 0.0505 -0.6100 -0.7908
vn 0.0736 -0.9184 -0.3887
vn 0.1224 -0.9925 -0.0000
vn 0.0736 -0.9184 0.3887
vn 0.0505 -0.6100 0.7908
vn 0.0026 0.0071 1.0000
vn -0.0493 0.6149 0.7870
vn -0.0763 0.9184 0.3882
vn -0.0410 0.9992 -0.0000
vn -0.0378 0.9240 -0.3806
vn -0.0246 0.6238 -0.7812
vn 0.0015 0.0053 -1.0000
vn 0.0251 -0.6192 -0.7848
vn 0.0363 -0.9234 -0.3821
vn 0.0795 -0.9968 -0.0000
vn 0.0363 -0.9234 0.3821
vn 0.0251 -0.6192 0.7848
vn 0.0015 0.0053 1.0000
vn -0.0246 0.6238 0.7812
vn -0.0378 0.9240 0.3806
vn -0.0000 1.0000 -0.0000
vn -0.0000 0.9258 -0.3781
vn -0.0000 0.6267 -0.7792
vn -0.0000 0.0046 -1.0000
vn -0.0000 -0.6222 -0.7829
vn -0.0000 -0.9250 -0.3799
vn 0.0392 -0.9992 -0.0000
vn -0.0000 -0.9250 0.3799
vn -0.0000 -0.6222 0.7829
vn -0.0000 0.0046 1.0000
vn -0.0000 0.6267 0.7792
vn -0.0000 0.9258 0.3781
vn 0.0378 0.9240 -0.3806
vn 0.0246 0.6238 -0.7812
vn -0.0015 0.0053 -1.0000
vn -0.0251 -0.6192 -0.7848
vn -0.0363 -0.9234 -0.3821
vn -0.0392 -0.9992 -0.0000
vn -0.0000 -1.0000 -0.0000
vn -0.0363 -0.9234 0.3821
vn -0.0251 -0.6192 0.7848
vn -0.0015 0.0053 1.0000
vn 0.0246 0.6238 0.7812
vn 0.0378 0.9240 0.3806
vn 0.0410 0.9992 -0.0000
vn 0.0763 0.9184 -0.3882
vn 0.0493 0.6149 -0.7870
vn -0.0026 0.0071 -1.0000
vn -0.0505 -0.6100 -0.7908
vn -0.0736 -0.9184 -0.3887
vn -0.0795 -0.9968 -0.0000
vn -0.0736 -0.9184 0.3887
vn -0.0505 -0.6100 0.7908
vn -0.0026 0.0071 1.0000
vn 0.0493 0.6149 0.7870
vn 0.0763 0.9184 0.3882
vn 0.0832 0.9965 -0.0000
vn 0.1166 0.9086 -0.4011
vn 0.0742 0.6000 -0.7966
vn -0.0030 0.0094 -1.0000
vn -0.0762 -0.5941 -0.8008
vn -0.1128 -0.9095 -0.4002
vn -0.1224 -0.9925 -0.0000
vn -0.1128 -0.9095 0.4002
vn -0.0762 -0.5941 0.8008
vn -0.0030 0.0094 1.0000
vn 0.0742 0.6000 0.7966
vn 0.1166 0.9086 0.4011
vn 0.1282 0.9918 -0.0000
vn 0.1596 0.8936 -0.4196
vn 0.0995 0.5783 -0.8097
vn -0.0030 0.0119 -0.9999
vn -0.1023 -0.5707 -0.8148
vn -0.1552 -0.8955 -0.4171
vn -0.1693 -0.9856 -0.0000
vn -0.1552 -0.8955 0.4171
vn -0.1023 -0.5707 0.8148
vn -0.0030 0.0119 0.9999
vn 0.0995 0.5783 0.8097
vn 0.1596 0.8936 0.4196
vn 0.1776 0.9841 -0.0000
vn 0.2067 0.8717 -0.4444
vn 0.1253 0.5491 -0.8263
vn -0.0026 0.0143 -0.9999
vn -0.1286 -0.5386 -0.8327
vn -0.2019 -0.8748 -0.4405
vn -0.2224 -0.9750 -0.0000
vn -0.2019 -0.8747 0.4405
vn -0.1286 -0.5386 0.8327
vn -0.0026 0.0143 0.9999
vn 0.1253 0.5491 0.8263
vn 0.2067 0.8716 0.4444
vn 0.2337 0.9723 -0.0000
vn 0.2595 0.8402 -0.4762
vn 0.1516 0.5111 -0.8460
vn -0.0017 0.0167 -0.9999
vn -0.1550 -0.4965 -0.8541
vn -0.2546 -0.8444 -0.4714
vn -0.2846 -0.9586 -0.0000
vn -0.2546 -0.8444 0.4714
vn -0.1550 -0.4965 0.8541
vn -0.0017 0.0167 0.9999
vn 0.1516 0.5111 0.8460
vn 0.2595 0.8402 0.4762
vn 0.2999 0.9540 -0.0000
vn 0.3199 0.7949 -0.5155
vn 0.1784 0.4629 -0.8683
vn -0.0004 0.0186 -0.9998
vn -0.1809 -0.4426 -0.8783
vn -0.3151 -0.7996 -0.5112
vn -0.3604 -0.9328 -0.0000
vn -0.3151 -0.7996 0.5112
vn -0.1809 -0.4426 0.8783
vn -0.0004 0.0186 0.9998
vn 0.1784 0.4629 0.8683
vn 0.3199 0.7949 0.5155
vn 0.3807 0.9247 -0.0000
vn 0.3900 0.7292 -0.5623
vn 0.2053 0.4024 -0.8922
vn 0.0016 0.0200 -0.9998
vn -0.2050 -0.3754 -0.9039
vn -0.3852 -0.7327 -0.5611
vn -0.4562 -0.8899 -0.0000
vn -0.3852 -0.7327 0.5611
vn -0.2050 -0.3754 0.9039
vn 0.0016 0.0200 0.9998
vn 0.2053 0.4024 0.8922
vn 0.3900 0.7292 0.5623
vn 0.4827 0.8758 -0.0000
vn 0.4713 0.6322 -0.6150
vn 0.2317 0.3275 -0.9160
vn 0.0045 0.0202 -0.9998
vn -0.2256 -0.2941 -0.9288
vn -0.4649 -0.6308 -0.6212
vn -0.5808 -0.8141 -0.0000
vn -0.4649 -0.6308 0.6212
vn -0.2256 -0.2941 0.9288
vn 0.0045 0.0202 0.9998
vn 0.2317 0.3275 0.9160
vn 0.4713 0.6322 0.6150
vn 0.6134 0.7898 -0.0000
vn 0.6483 0.4310 -0.6277
vn 0.2564 0.2357 -0.9374
vn 0.0086 0.0182 -0.9998
vn -0.2398 -0.2004 -0.9499
vn -0.5478 -0.4769 -0.6874
vn -0.7405 -0.6721 -0.0000
vn -0.5478 -0.4769 0.6874
vn -0.2398 -0.2004 0.9499
vn 0.0086 0.0182 0.9998
vn 0.2564 0.2357 0.9374
vn 0.6483 0.4310 0.6277
vn 0.9817 0.1905 -0.0000
vn 0.9420 0.3356 -0.0000
vn 0.2905 -0.0005 -0.9569
vn 0.0177 -0.1069 -0.9941
vn -0.2421 -0.2395 -0.9402
vn -0.5743 -0.4393 -0.6908
vn -0.8099 -0.5866 -0.0000
vn -0.5743 -0.4393 0.6908
vn -0.2421 -0.2395 0.9402
vn 0.0177 -0.1069 0.9941
vn 0.2905 -0.0005 0.9569
vn 0.6672 -0.6414 -0.3789
vn 0.9536 0.1429 -0.2649
vn 0.0125 -0.7618 -0.6477
vn -0.1399 -0.7837 -0.6052
vn -0.3430 -0.8165 -0.4644
vn -0.5303 -0.8478 -0.0000
vn -0.3430 -0.8165 0.4644
vn -0.1399 -0.7837 0.6052
vn 0.0125 -0.7618 0.6477
vn 0.6672 -0.6414 0.3789
vn 0.9536 0.1429 0.2649
vn 0.2409 0.9706 -0.0000
vn 0.3734 0.9176 0.1365
vn 0.3849 0.9230 -0.0000
vn -0.1553 -0.9879 -0.0000
vn 0.4196 -0.9022 0.0998
vn -0.1498 -0.9858 -0.0764
vn 0.5657 0.8029 0.1878
vn 0.5845 0.8114 -0.0000
vn 0.8013 0.5455 0.2455
vn 0.8318 0.5551 -0.0000
vn -0.0303 0.9995 -0.0000
vn 0.0422 0.9982 0.0429
vn 0.0453 0.9990 -0.0000
vn 0.9565 0.0996 0.2744
vn 0.9946 0.1035 -0.0000
vn 0.1277 0.9895 0.0675
vn 0.1326 0.9912 -0.0000
vn 0.9283 -0.3719 -0.0000
vn 0.8965 -0.3688 0.2455
vn 0.2334 0.9675 0.0975
vn 0.4329 -0.9015 -0.0000
vn 0.3406 0.9026 0.2632
vn 0.3842 -0.9044 0.1854
vn -0.1337 -0.9798 -0.1485
vn 0.5134 0.7799 0.3581
vn 0.7191 0.5200 0.4610
vn -0.0319 0.9993 0.0214
vn 0.0333 0.9959 0.0838
vn 0.8547 0.0890 0.5115
vn 0.1134 0.9848 0.1316
vn 0.8108 -0.3608 0.4610
vn 0.2119 0.9588 0.1894
vn 0.7168 0.0746 0.6933
vn 0.6920 -0.3506 0.6310
vn 0.1783 0.9459 0.2712
vn 0.3366 -0.9079 0.2500
vn 0.2905 0.8810 0.3734
vn -0.1082 -0.9711 -0.2128
vn 0.4369 0.7478 0.5000
vn 0.6050 0.4856 0.6310
vn -0.0365 0.9985 0.0417
vn 0.0191 0.9925 0.1208
vn 0.0909 0.9777 0.1893
vn 0.5667 0.0590 0.8218
vn 0.0614 0.9692 0.2387
vn 0.5594 -0.3415 0.7553
vn 0.1350 0.9307 0.3400
vn 0.2850 -0.9122 0.2945
vn 0.2279 0.8564 0.4633
vn -0.0753 -0.9608 -0.2668
vn 0.3458 0.7127 0.6104
vn 0.4771 0.4494 0.7553
vn -0.0437 0.9972 0.0600
vn 0.0004 0.9883 0.1526
vn 0.3462 0.4159 0.8409
vn -0.0530 0.9957 0.0756
vn -0.0218 0.9838 0.1782
vn 0.4175 0.0435 0.9076
vn 0.0264 0.9602 0.2781
vn 0.4244 -0.3357 0.8409
vn 0.0844 0.9152 0.3941
vn 0.2343 -0.9170 0.3230
vn 0.1568 0.8320 0.5322
vn -0.0368 -0.9503 -0.3092
vn 0.2471 0.6793 0.6910
vn 0.0802 0.8104 0.5803
vn 0.1863 -0.9219 0.3398
vn 0.0057 -0.9406 -0.3394
vn 0.1448 0.6508 0.7454
vn 0.2168 0.3876 0.8960
vn -0.0641 0.9940 0.0881
vn -0.0467 0.9793 0.1970
vn 0.2739 0.0285 0.9613
vn -0.0126 0.9517 0.3069
vn 0.2920 -0.3346 0.8960
vn 0.0286 0.9010 0.4330
vn 0.1355 0.0141 0.9907
vn 0.1629 -0.3389 0.9266
vn -0.0306 0.8893 0.4563
vn 0.1408 -0.9267 0.3484
vn 0.0003 0.7934 0.6087
vn 0.0505 -0.9326 -0.3574
vn 0.0409 0.6287 0.7765
vn 0.0896 0.3652 0.9266
vn -0.0763 0.9923 0.0973
vn -0.0735 0.9753 0.2084
vn -0.0544 0.9444 0.3243
vn -0.0000 -0.0000 1.0000
vn -0.0977 0.9389 0.3301
vn 0.0363 -0.3491 0.9364
vn -0.0917 0.8811 0.4640
vn 0.0969 -0.9313 0.3511
vn -0.0814 0.7819 0.6181
vn 0.0965 -0.9266 -0.3634
vn -0.0639 0.6140 0.7867
vn -0.0363 0.3491 0.9364
vn -0.0894 0.9907 0.1028
vn -0.1012 0.9720 0.2122
vn -0.1695 0.6068 0.7766
vn -0.1629 0.3389 0.9266
vn -0.1165 0.9879 0.1028
vn -0.1290 0.9695 0.2084
vn -0.1355 -0.0141 0.9907
vn -0.1412 0.9354 0.3243
vn -0.0897 -0.3652 0.9266
vn -0.1532 0.8766 0.4563
vn 0.0530 -0.9358 0.3484
vn -0.1637 0.7763 0.6087
vn 0.1427 -0.9230 -0.3574
vn 0.1882 -0.9216 -0.3394
vn -0.2454 0.7765 0.5803
vn -0.2757 0.6070 0.7454
vn -0.2920 0.3346 0.8960
vn -0.1297 0.9868 0.0973
vn -0.1560 0.9679 0.1970
vn -0.2739 -0.0285 0.9613
vn -0.1837 0.9339 0.3069
vn -0.2168 -0.3876 0.8960
vn -0.2135 0.8758 0.4330
vn 0.0076 -0.9405 0.3398
vn -0.2236 0.9341 0.2781
vn -0.2711 0.8782 0.3941
vn -0.0404 -0.9456 0.3229
vn -0.3248 0.7819 0.5322
vn 0.2317 -0.9223 -0.3092
vn -0.3817 0.6139 0.6910
vn -0.4244 0.3357 0.8409
vn -0.1421 0.9859 0.0881
vn -0.1813 0.9671 0.1782
vn -0.4175 -0.0435 0.9076
vn -0.3462 -0.4159 0.8409
vn -0.5594 0.3415 0.7553
vn -0.5667 -0.0590 0.8218
vn -0.2040 0.9670 0.1526
vn -0.2597 0.9357 0.2387
vn -0.4771 -0.4494 0.7553
vn -0.3238 0.8829 0.3400
vn -0.0910 -0.9513 0.2945
vn -0.3994 0.7911 0.4633
vn 0.2716 -0.9247 -0.2668
vn -0.4851 0.6262 0.6104
vn -0.1532 0.9853 0.0756
vn -0.5815 0.6418 0.5000
vn -0.6920 0.3506 0.6310
vn -0.1626 0.9849 0.0600
vn -0.2231 0.9673 0.1208
vn -0.7168 -0.0746 0.6933
vn -0.2903 0.9380 0.1893
vn -0.6050 -0.4856 0.6310
vn -0.3692 0.8889 0.2712
vn -0.1424 -0.9577 0.2500
vn -0.4657 0.8023 0.3734
vn 0.3059 -0.9280 -0.2128
vn 0.3326 -0.9313 -0.1485
vn -0.5192 0.8131 0.2632
vn -0.6630 0.6574 0.3581
vn -0.8108 0.3608 0.4610
vn -0.1699 0.9846 0.0417
vn -0.2377 0.9677 0.0838
vn -0.8547 -0.0890 0.5115
vn -0.3138 0.9403 0.1316
vn -0.7191 -0.5200 0.4610
vn -0.4048 0.8946 0.1894
vn -0.1897 -0.9642 0.1854
vn -0.3288 0.9420 0.0675
vn -0.4277 0.8987 0.0975
vn -0.2247 -0.9693 0.0998
vn -0.5544 0.8210 0.1365
vn 0.3496 -0.9338 -0.0764
vn -0.7189 0.6692 0.1878
vn -0.8965 0.3688 0.2455
vn -0.1746 0.9844 0.0214
vn -0.2469 0.9681 0.0429
vn -0.9565 -0.0996 0.2744
vn -0.8013 -0.5455 0.2455
vn -0.9283 0.3719 -0.0000
vn -0.9946 -0.1035 -0.0000
vn -0.2501 0.9682 -0.0000
vn -0.3339 0.9426 -0.0000
vn -0.8318 -0.5551 -0.0000
vn -0.4356 0.9001 -0.0000
vn -0.2379 -0.9713 -0.0000
vn -0.5667 0.8239 -0.0000
vn 0.3555 -0.9347 -0.0000
vn -0.7391 0.6736 -0.0000
vn -0.1762 0.9844 -0.0000
vn -0.8965 0.3688 -0.2455
vn -0.2469 0.9681 -0.0429
vn -0.9565 -0.0996 -0.2744
vn -0.3288 0.9420 -0.0675
vn -0.8013 -0.5455 -0.2455
vn -0.4277 0.8987 -0.0975
vn -0.2247 -0.9693 -0.0998
vn -0.5544 0.8210 -0.1365
vn 0.3496 -0.9338 0.0764
vn -0.7189 0.6692 -0.1878
vn -0.1897 -0.9642 -0.1853
vn 0.3326 -0.9313 0.1485
vn -0.6630 0.6574 -0.3581
vn -0.8108 0.3608 -0.4610
vn -0.1746 0.9844 -0.0214
vn -0.2377 0.9677 -0.0838
vn -0.8547 -0.0890 -0.5115
vn -0.3138 0.9403 -0.1316
vn -0.7191 -0.5200 -0.4610
vn -0.4048 0.8946 -0.1894
vn -0.5192 0.8131 -0.2632
vn -0.6050 -0.4856 -0.6310
vn -0.1424 -0.9577 -0.2500
vn -0.4657 0.8023 -0.3734
vn 0.3059 -0.9280 0.2128
vn -0.5815 0.6418 -0.5000
vn -0.6920 0.3506 -0.6310
vn -0.1699 0.9846 -0.0417
vn -0.2231 0.9673 -0.1208
vn -0.7168 -0.0746 -0.6933
vn -0.2903 0.9380 -0.1893
vn -0.3692 0.8889 -0.2712
vn -0.2597 0.9357 -0.2387
vn -0.5667 -0.0590 -0.8218
vn -0.4771 -0.4494 -0.7553
vn -0.3238 0.8829 -0.3400
vn -0.0910 -0.9513 -0.2945
vn -0.3994 0.7911 -0.4633
vn 0.2716 -0.9247 0.2668
vn -0.4851 0.6262 -0.6104
vn -0.5594 0.3415 -0.7553
vn -0.1626 0.9849 -0.0600
vn -0.2040 0.9670 -0.1526
vn -0.4244 0.3357 -0.8409
vn -0.1532 0.9853 -0.0756
vn -0.1813 0.9671 -0.1782
vn -0.4175 -0.0435 -0.9076
vn -0.2236 0.9341 -0.2781
vn -0.3462 -0.4159 -0.8409
vn -0.2711 0.8782 -0.3941
vn -0.0404 -0.9456 -0.3229
vn -0.3248 0.7819 -0.5322
vn 0.2317 -0.9223 0.3092
vn -0.3817 0.6139 -0.6910
vn 0.0076 -0.9405 -0.3398
vn 0.1882 -0.9216 0.3394
vn -0.2757 0.6070 -0.7454
vn -0.2920 0.3346 -0.8960
vn -0.1421 0.9859 -0.0881
vn -0.1560 0.9679 -0.1970
vn -0.2739 -0.0285 -0.9613
vn -0.1837 0.9339 -0.3069
vn -0.2168 -0.3876 -0.8960
vn -0.2135 0.8758 -0.4330
vn -0.2454 0.7765 -0.5803
vn -0.0896 -0.3652 -0.9266
vn 0.0530 -0.9358 -0.3484
vn -0.1637 0.7763 -0.6087
vn 0.1427 -0.9230 0.3574
vn -0.1695 0.6068 -0.7766
vn -0.1629 0.3389 -0.9266
vn -0.1297 0.9868 -0.0973
vn -0.1290 0.9695 -0.2084
vn -0.1355 -0.0141 -0.9907
vn -0.1412 0.9354 -0.3243
vn -0.1532 0.8766 -0.4563
vn -0.0977 0.9389 -0.3301
vn -0.0000 -0.0000 -1.0000
vn 0.0363 -0.3491 -0.9364
vn -0.0917 0.8811 -0.4640
vn 0.0969 -0.9313 -0.3511
vn -0.0814 0.7819 -0.6181
vn 0.0965 -0.9266 0.3634
vn -0.0639 0.6140 -0.7867
vn -0.0363 0.3491 -0.9364
vn -0.1165 0.9879 -0.1028
vn -0.1012 0.9720 -0.2122
vn 0.0409 0.6287 -0.7766
vn 0.0896 0.3652 -0.9266
vn -0.0894 0.9907 -0.1028
vn -0.0735 0.9753 -0.2084
vn 0.1355 0.0141 -0.9907
vn -0.0544 0.9444 -0.3243
vn 0.1629 -0.3389 -0.9266
vn -0.0306 0.8893 -0.4563
vn 0.1408 -0.9267 -0.3484
vn 0.0003 0.7934 -0.6087
vn 0.0505 -0.9326 0.3574
vn 0.0057 -0.9406 0.3394
vn 0.0802 0.8104 -0.5803
vn 0.1448 0.6508 -0.7454
vn 0.2168 0.3876 -0.8960
vn -0.0763 0.9923 -0.0973
vn -0.0467 0.9793 -0.1970
vn 0.2739 0.0285 -0.9613
vn -0.0126 0.9517 -0.3069
vn 0.2920 -0.3346 -0.8960
vn 0.0286 0.9010 -0.4330
vn 0.1863 -0.9219 -0.3398
vn 0.2343 -0.9170 -0.3229
vn 0.0844 0.9152 -0.3941
vn 0.1568 0.8320 -0.5322
vn -0.0368 -0.9503 0.3092
vn 0.2471 0.6793 -0.6910
vn 0.3462 0.4159 -0.8409
vn -0.0641 0.9940 -0.0881
vn -0.0218 0.9838 -0.1782
vn 0.4175 0.0435 -0.9076
vn 0.0264 0.9602 -0.2781
vn 0.4244 -0.3357 -0.8409
vn 0.5594 -0.3415 -0.7553
vn 0.0614 0.9692 -0.2387
vn 0.1350 0.9307 -0.3400
vn 0.2850 -0.9122 -0.2945
vn 0.2279 0.8564 -0.4633
vn -0.0753 -0.9608 0.2668
vn 0.3458 0.7127 -0.6104
vn 0.4771 0.4494 -0.7553
vn -0.0530 0.9957 -0.0756
vn 0.0004 0.9883 -0.1526
vn 0.5667 0.0590 -0.8218
vn -0.0437 0.9972 -0.0600
vn 0.0191 0.9925 -0.1208
vn 0.6050 0.4856 -0.6310
vn 0.7168 0.0746 -0.6933
vn 0.0909 0.9777 -0.1893
vn 0.6920 -0.3506 -0.6310
vn 0.1783 0.9459 -0.2712
vn 0.3366 -0.9079 -0.2500
vn 0.2905 0.8810 -0.3734
vn -0.1082 -0.9711 0.2128
vn 0.4369 0.7478 -0.5000
vn 0.3406 0.9026 -0.2632
vn 0.5134 0.7799 -0.3581
vn 0.7191 0.5200 -0.4610
vn -0.0365 0.9985 -0.0417
vn 0.0333 0.9959 -0.0838
vn 0.8547 0.0890 -0.5115
vn 0.1134 0.9848 -0.1316
vn 0.8108 -0.3608 -0.4610
vn 0.2119 0.9588 -0.1894
vn 0.3842 -0.9044 -0.1853
vn -0.1337 -0.9798 0.1485
vn 0.4196 -0.9022 -0.0998
vn 0.2334 0.9675 -0.0975
vn 0.3734 0.9176 -0.1365
vn -0.1498 -0.9858 0.0764
vn 0.5657 0.8029 -0.1878
vn 0.8013 0.5455 -0.2455
vn -0.0319 0.9993 -0.0214
vn 0.0422 0.9982 -0.0430
vn 0.9565 0.0996 -0.2744
vn 0.1277 0.9895 -0.0675
vn 0.8965 -0.3688 -0.2455
vn -0.1035 0.9946 -0.0000
vn -0.1030 0.9892 0.1047
vn -0.1030 0.9892 -0.1047
vn -0.5000 -0.0000 0.8660
vn -1.0000 -0.0000 -0.0000
vn -0.5000 -0.0000 -0.8660
vn 0.5000 -0.0000 -0.8660
vn 0.5000 -0.0000 0.8660
vn 1.0000 -0.0000 -0.0000
vn 0.9273 -0.3744 -0.0000
vn 0.9239 -0.0000 0.3827
vn 0.8567 -0.3744 0.3549
vn 0.4031 -0.9152 -0.0000
vn 0.6641 -0.6952 0.2751
vn 0.3724 -0.9152 0.1543
vn 0.4031 0.9152 -0.0000
vn 0.6641 0.6952 0.2751
vn 0.7189 0.6952 -0.0000
vn 0.9273 0.3744 -0.0000
vn 0.7189 -0.6952 -0.0000
vn 0.8567 0.3744 0.3549
vn 0.3724 0.9152 0.1543
vn 0.5083 0.6951 0.5083
vn 0.6557 0.3744 0.6557
vn 0.7071 -0.0000 0.7071
vn 0.5083 -0.6951 0.5083
vn 0.6557 -0.3744 0.6557
vn 0.2850 -0.9152 0.2850
vn 0.1543 0.9152 0.3724
vn 0.2751 0.6952 0.6641
vn 0.3549 0.3744 0.8567
vn 0.3827 -0.0000 0.9239
vn 0.3549 -0.3744 0.8567
vn 0.2751 -0.6952 0.6641
vn 0.1543 -0.9152 0.3724
vn -0.0000 0.9152 0.4031
vn -0.0000 0.6952 0.7189
vn -0.0000 -0.3744 0.9273
vn -0.0000 -0.6952 0.7189
vn -0.0000 0.3744 0.9273
vn -0.0000 -0.9152 0.4031
vn -0.2751 0.6952 0.6641
vn -0.3549 0.3744 0.8567
vn -0.3827 -0.0000 0.9239
vn -0.2751 -0.6952 0.6641
vn -0.3549 -0.3744 0.8567
vn -0.1543 -0.9152 0.3724
vn -0.1543 0.9152 0.3724
vn -0.5083 0.6952 0.5083
vn -0.7071 -0.0000 0.7071
vn -0.5083 -0.6952 0.5083
vn -0.6557 0.3744 0.6557
vn -0.6557 -0.3744 0.6557
vn -0.2850 -0.9152 0.2850
vn -0.3724 0.9152 0.1543
vn -0.6641 0.6952 0.2751
vn -0.9239 -0.0000 0.3827
vn -0.8567 -0.3744 0.3549
vn -0.6641 -0.6952 0.2751
vn -0.8567 0.3744 0.3549
vn -0.3724 -0.9152 0.1543
vn -0.4031 0.9152 -0.0000
vn -0.7189 0.6952 -0.0000
vn -0.9273 0.3744 -0.0000
vn -0.9273 -0.3744 -0.0000
vn -0.7189 -0.6952 -0.0000
vn -0.4031 -0.9152 -0.0000
vn -0.6641 0.6952 -0.2751
vn -0.9239 -0.0000 -0.3827
vn -0.6641 -0.6952 -0.2751
vn -0.8567 0.3744 -0.3549
vn -0.8567 -0.3744 -0.3549
vn -0.3724 -0.9152 -0.1543
vn -0.3724 0.9152 -0.1543
vn -0.5083 0.6951 -0.5083
vn -0.6557 0.3744 -0.6557
vn -0.7071 -0.0000 -0.7071
vn -0.5083 -0.6951 -0.5083
vn -0.6557 -0.3744 -0.6557
vn -0.2850 -0.9152 -0.2850
vn -0.1543 0.9152 -0.3724
vn -0.2751 0.6952 -0.6641
vn -0.3549 0.3744 -0.8567
vn -0.3827 -0.0000 -0.9239
vn -0.3549 -0.3744 -0.8567
vn -0.2751 -0.6952 -0.6641
vn -0.1543 -0.9152 -0.3724
vn -0.0000 0.9152 -0.4031
vn -0.0000 0.6952 -0.7189
vn -0.0000 0.3744 -0.9273
vn -0.0000 -0.3744 -0.9273
vn -0.0000 -0.6952 -0.7189
vn -0.0000 -0.9152 -0.4031
vn 0.2751 0.6952 -0.6641
vn 0.3827 -0.0000 -0.9239
vn 0.2751 -0.6952 -0.6641
vn 0.3549 0.3744 -0.8567
vn 0.3549 -0.3744 -0.8567
vn 0.1543 -0.9152 -0.3724
vn 0.1543 0.9152 -0.3724
vn 0.5083 0.6951 -0.5083
vn 0.7071 -0.0000 -0.7071
vn 0.5083 -0.6952 -0.5083
vn 0.6557 0.3744 -0.6557
vn 0.6557 -0.3744 -0.6557
vn 0.2850 -0.9152 -0.2850
vn 0.3724 0.9152 -0.1543
vn 0.6641 0.6952 -0.2751
vn 0.9239 -0.0000 -0.3827
vn 0.8567 -0.3744 -0.3549
vn 0.6641 -0.6952 -0.2751
vn 0.8567 0.3744 -0.3549
vn 0.3724 -0.9152 -0.1543
vn 0.2850 0.9152 0.2850
vn -0.2850 0.9152 0.2850
vn -0.2850 0.9152 -0.2850
vn 0.2850 0.9152 -0.2850
vn 0.8113 -0.5847 -0.0000
vn 0.1781 -0.7456 -0.6422
vn 0.1781 -0.7456 0.6422
vt 0.000000 0.000000
vt 1.000000 0.000000
vt 0.000000 1.000000
vt 0.933013 0.750000
vt 0.500000 0.000000
vt 0.066987 0.750000
vt 1.000000 1.000000
vt 0.500000 1.000000
vt 0.933013 0.250000
vt 0.066987 0.250000
s 1
g off
g Lampara_Material.003
usemtl Material.003
f 13/1/1 2/1/2 1/1/3
f 14/1/4 3/1/5 2/1/2
f 15/1/6 4/1/7 3/1/5
f 16/1/8 5/1/9 4/1/7
f 17/1/10 6/1/11 5/1/9
f 18/1/12 7/1/13 6/1/11
f 7/1/13 20/1/14 8/1/15
f 8/1/15 21/1/16 9/1/17
f 9/1/17 22/1/18 10/1/19
f 10/1/19 23/1/20 11/1/21
f 11/1/21 24/1/22 12/1/23
f 12/1/23 13/1/1 1/1/3
f 25/1/24 14/1/4 13/1/1
f 26/1/25 15/1/6 14/1/4
f 27/1/26 16/1/8 15/1/6
f 28/1/27 17/1/10 16/1/8
f 29/1/28 18/1/12 17/1/10
f 30/1/29 19/1/30 18/1/12
f 19/1/30 32/1/31 20/1/14
f 20/1/14 33/1/32 21/1/16
f 21/1/16 34/1/33 22/1/18
f 22/1/18 35/1/34 23/1/20
f 23/1/20 36/1/35 24/1/22
f 24/1/22 25/1/24 13/1/1
f 37/1/36 26/1/25 25/1/24
f 38/1/37 27/1/26 26/1/25
f 39/1/38 28/1/27 27/1/26
f 40/1/39 29/1/28 28/1/27
f 41/1/40 30/1/29 29/1/28
f 42/1/41 31/1/42 30/1/29
f 31/1/42 44/1/43 32/1/31
f 32/1/31 45/1/44 33/1/32
f 33/1/32 46/1/45 34/1/33
f 34/1/33 47/1/46 35/1/34
f 35/1/34 48/1/47 36/1/35
f 36/1/35 37/1/36 25/1/24
f 49/1/48 38/1/37 37/1/36
f 50/1/49 39/1/38 38/1/37
f 51/1/50 40/1/39 39/1/38
f 52/1/51 41/1/40 40/1/39
f 53/1/52 42/1/41 41/1/40
f 54/1/53 43/1/54 42/1/41
f 43/1/54 56/1/55 44/1/43
f 44/1/43 57/1/56 45/1/44
f 45/1/44 58/1/57 46/1/45
f 46/1/45 59/1/58 47/1/46
f 47/1/46 60/1/59 48/1/47
f 48/1/47 49/1/48 37/1/36
f 61/1/60 50/1/49 49/1/48
f 62/1/61 51/1/50 50/1/49
f 63/1/62 52/1/51 51/1/50
f 64/1/63 53/1/52 52/1/51
f 65/1/64 54/1/53 53/1/52
f 66/1/65 55/1/66 54/1/53
f 55/1/66 68/1/67 56/1/55
f 56/1/55 69/1/68 57/1/56
f 57/1/56 70/1/69 58/1/57
f 58/1/57 71/1/70 59/1/58
f 59/1/58 72/1/71 60/1/59
f 60/1/59 61/1/60 49/1/48
f 61/1/60 74/1/72 62/1/61
f 62/1/61 75/1/73 63/1/62
f 63/1/62 76/1/74 64/1/63
f 64/1/63 77/1/75 65/1/64
f 65/1/64 78/1/76 66/1/65
f 66/1/65 79/1/77 67/1/78
f 79/1/77 68/1/67 67/1/78
f 80/1/79 69/1/68 68/1/67
f 81/1/80 70/1/69 69/1/68
f 82/1/81 71/1/70 70/1/69
f 83/1/82 72/1/71 71/1/70
f 84/1/83 61/1/60 72/1/71
f 73/1/84 86/1/85 74/1/72
f 74/1/72 87/1/86 75/1/73
f 75/1/73 88/1/87 76/1/74
f 76/1/74 89/1/88 77/1/75
f 77/1/75 90/1/89 78/1/76
f 78/1/76 91/1/90 79/1/77
f 91/1/90 80/1/79 79/1/77
f 92/1/91 81/1/80 80/1/79
f 93/1/92 82/1/81 81/1/80
f 94/1/93 83/1/82 82/1/81
f 95/1/94 84/1/83 83/1/82
f 96/1/95 73/1/84 84/1/83
f 85/1/96 98/1/97 86/1/85
f 86/1/85 99/1/98 87/1/86
f 87/1/86 100/1/99 88/1/87
f 88/1/87 101/1/100 89/1/88
f 89/1/88 102/1/101 90/1/89
f 90/1/89 103/1/102 91/1/90
f 103/1/102 92/1/91 91/1/90
f 104/1/103 93/1/92 92/1/91
f 105/1/104 94/1/93 93/1/92
f 106/1/105 95/1/94 94/1/93
f 107/1/106 96/1/95 95/1/94
f 108/1/107 85/1/96 96/1/95
f 97/1/108 110/1/109 98/1/97
f 98/1/97 111/1/110 99/1/98
f 99/1/98 112/1/111 100/1/99
f 100/1/99 113/1/112 101/1/100
f 101/1/100 114/1/113 102/1/101
f 102/1/101 115/1/114 103/1/102
f 115/1/114 104/1/103 103/1/102
f 116/1/115 105/1/104 104/1/103
f 117/1/116 106/1/105 105/1/104
f 118/1/117 107/1/106 106/1/105
f 119/1/118 108/1/107 107/1/106
f 120/1/119 97/1/108 108/1/107
f 109/1/120 122/1/121 110/1/109
f 110/1/109 123/1/122 111/1/110
f 111/1/110 124/1/123 112/1/111
f 112/1/111 125/1/124 113/1/112
f 113/1/112 126/1/125 114/1/113
f 114/1/113 127/1/126 115/1/114
f 127/1/126 116/1/115 115/1/114
f 128/1/127 117/1/116 116/1/115
f 129/1/128 118/1/117 117/1/116
f 130/1/129 119/1/118 118/1/117
f 131/1/130 120/1/119 119/1/118
f 132/1/131 109/1/120 120/1/119
f 121/1/132 134/1/133 122/1/121
f 122/1/121 135/1/134 123/1/122
f 123/1/122 136/1/135 124/1/123
f 124/1/123 137/1/136 125/1/124
f 125/1/124 138/1/137 126/1/125
f 126/1/125 139/1/138 127/1/126
f 139/1/138 128/1/127 127/1/126
f 140/1/139 129/1/128 128/1/127
f 141/1/140 130/1/129 129/1/128
f 142/1/141 131/1/130 130/1/129
f 143/1/142 132/1/131 131/1/130
f 144/1/143 121/1/132 132/1/131
f 133/1/144 146/1/145 134/1/133
f 134/1/133 147/1/146 135/1/134
f 135/1/134 148/1/147 136/1/135
f 136/1/135 149/1/148 137/1/136
f 137/1/136 150/1/149 138/1/137
f 138/1/137 151/1/150 139/1/138
f 151/1/150 140/1/139 139/1/138
f 152/1/151 141/1/140 140/1/139
f 153/1/152 142/1/141 141/1/140
f 154/1/153 143/1/142 142/1/141
f 155/1/154 144/1/143 143/1/142
f 156/1/155 133/1/144 144/1/143
f 145/1/156 158/1/157 146/1/145
f 146/1/145 159/1/158 147/1/146
f 147/1/146 160/1/159 148/1/147
f 148/1/147 161/1/160 149/1/148
f 149/1/148 162/1/161 150/1/149
f 150/1/149 163/1/162 151/1/150
f 163/1/162 152/1/151 151/1/150
f 164/1/163 153/1/152 152/1/151
f 165/1/164 154/1/153 153/1/152
f 166/1/165 155/1/154 154/1/153
f 167/1/166 156/1/155 155/1/154
f 168/1/167 145/1/156 156/1/155
f 157/1/168 170/1/169 158/1/157
f 158/1/157 171/1/170 159/1/158
f 159/1/158 172/1/171 160/1/159
f 160/1/159 173/1/172 161/1/160
f 161/1/160 174/1/173 162/1/161
f 162/1/161 175/1/174 163/1/162
f 175/1/174 164/1/163 163/1/162
f 176/1/175 165/1/164 164/1/163
f 177/1/176 166/1/165 165/1/164
f 178/1/177 167/1/166 166/1/165
f 179/1/178 168/1/167 167/1/166
f 180/1/179 157/1/168 168/1/167
f 169/1/180 182/1/181 170/1/169
f 170/1/169 183/1/182 171/1/170
f 171/1/170 184/1/183 172/1/171
f 172/1/171 185/1/184 173/1/172
f 173/1/172 186/1/185 174/1/173
f 174/1/173 187/1/186 175/1/174
f 187/1/186 176/1/175 175/1/174
f 188/1/187 177/1/176 176/1/175
f 189/1/188 178/1/177 177/1/176
f 190/1/189 179/1/178 178/1/177
f 191/1/190 180/1/179 179/1/178
f 192/1/191 169/1/180 180/1/179
f 193/1/192 182/1/181 181/1/193
f 182/1/181 195/1/194 183/1/182
f 183/1/182 196/1/195 184/1/183
f 184/1/183 197/1/196 185/1/184
f 185/1/184 198/1/197 186/1/185
f 186/1/185 199/1/198 187/1/186
f 199/1/198 188/1/187 187/1/186
f 200/1/199 189/1/188 188/1/187
f 201/1/200 190/1/189 189/1/188
f 202/1/201 191/1/190 190/1/189
f 203/1/202 192/1/191 191/1/190
f 192/1/191 193/1/192 181/1/193
f 193/1/192 206/1/203 194/1/204
f 206/1/203 195/1/194 194/1/204
f 195/1/194 208/1/205 196/1/195
f 196/1/195 209/1/206 197/1/196
f 197/1/196 210/1/207 198/1/197
f 198/1/197 211/1/208 199/1/198
f 211/1/208 200/1/199 199/1/198
f 212/1/209 201/1/200 200/1/199
f 213/1/210 202/1/201 201/1/200
f 214/1/211 203/1/202 202/1/201
f 203/1/202 216/1/212 204/1/213
f 216/1/212 193/1/192 204/1/213
f 210/1/207 206/1/203 214/1/211
f 3/1/5 7/1/13 11/1/21
f 220/1/214 232/1/215 221/1/216
f 227/1/217 237/1/218 238/1/219
f 221/1/216 233/1/220 222/1/221
f 222/1/221 234/1/222 223/1/223
f 217/1/224 229/1/225 218/1/226
f 223/1/223 235/1/227 224/1/228
f 218/1/226 230/1/229 219/1/230
f 225/1/231 235/1/227 236/1/232
f 219/1/230 231/1/233 220/1/214
f 226/1/234 236/1/232 237/1/218
f 231/1/233 243/1/235 232/1/215
f 238/1/219 248/1/236 249/1/237
f 232/1/215 244/1/238 233/1/220
f 233/1/220 245/1/239 234/1/222
f 228/1/240 240/1/241 229/1/225
f 234/1/222 246/1/242 235/1/227
f 229/1/225 241/1/243 230/1/229
f 236/1/232 246/1/242 247/1/244
f 230/1/229 242/1/245 231/1/233
f 237/1/218 247/1/244 248/1/236
f 247/1/244 257/1/246 258/1/247
f 241/1/243 253/1/248 242/1/245
f 248/1/236 258/1/247 259/1/249
f 242/1/245 254/1/250 243/1/235
f 249/1/237 259/1/249 260/1/251
f 243/1/235 255/1/252 244/1/238
f 244/1/238 256/1/253 245/1/239
f 239/1/254 251/1/255 240/1/241
f 245/1/239 257/1/246 246/1/242
f 240/1/241 252/1/256 241/1/243
f 256/1/253 268/1/257 257/1/246
f 251/1/255 263/1/258 252/1/256
f 258/1/247 268/1/257 269/1/259
f 252/1/256 264/1/260 253/1/248
f 259/1/249 269/1/259 270/1/261
f 253/1/248 265/1/262 254/1/250
f 260/1/251 270/1/261 271/1/263
f 254/1/250 266/1/264 255/1/252
f 255/1/252 267/1/265 256/1/253
f 250/1/266 262/1/267 251/1/255
f 266/1/264 278/1/268 267/1/265
f 261/1/269 273/1/270 262/1/267
f 267/1/265 279/1/271 268/1/257
f 262/1/267 274/1/272 263/1/258
f 269/1/259 279/1/271 280/1/273
f 263/1/258 275/1/274 264/1/260
f 270/1/261 280/1/273 281/1/275
f 264/1/260 276/1/276 265/1/262
f 271/1/263 281/1/275 282/1/277
f 265/1/262 277/1/278 266/1/264
f 275/1/274 287/1/279 276/1/276
f 282/1/277 292/1/280 293/1/281
f 276/1/276 288/1/282 277/1/278
f 277/1/278 289/1/283 278/1/268
f 272/1/284 284/1/285 273/1/270
f 278/1/268 290/1/286 279/1/271
f 273/1/270 285/1/287 274/1/272
f 280/1/273 290/1/286 291/1/288
f 274/1/272 286/1/289 275/1/274
f 281/1/275 291/1/288 292/1/280
f 291/1/288 301/1/290 302/1/291
f 285/1/287 297/1/292 286/1/289
f 292/1/280 302/1/291 303/1/293
f 286/1/289 298/1/294 287/1/279
f 293/1/281 303/1/293 304/1/295
f 287/1/279 299/1/296 288/1/282
f 288/1/282 300/1/297 289/1/283
f 283/1/298 295/1/299 284/1/285
f 289/1/283 301/1/290 290/1/286
f 284/1/285 296/1/300 285/1/287
f 300/1/297 312/1/301 301/1/290
f 295/1/299 307/1/302 296/1/300
f 302/1/291 312/1/301 313/1/303
f 296/1/300 308/1/304 297/1/292
f 303/1/293 313/1/303 314/1/305
f 297/1/292 309/1/306 298/1/294
f 304/1/295 314/1/305 315/1/307
f 298/1/294 310/1/308 299/1/296
f 299/1/296 311/1/309 300/1/297
f 294/1/310 306/1/311 295/1/299
f 311/1/309 321/1/312 322/1/313
f 306/1/311 316/1/314 317/1/315
f 312/1/301 322/1/313 323/1/316
f 307/1/302 317/1/315 318/1/317
f 312/1/301 324/1/318 313/1/303
f 308/1/304 318/1/317 319/1/319
f 313/1/303 325/1/320 314/1/305
f 309/1/306 319/1/319 320/1/321
f 314/1/305 326/1/322 315/1/307
f 310/1/308 320/1/321 321/1/312
f 325/1/320 337/1/323 326/1/322
f 321/1/312 331/1/324 332/1/325
f 322/1/313 332/1/325 333/1/326
f 317/1/315 327/1/327 328/1/328
f 323/1/316 333/1/326 334/1/329
f 318/1/317 328/1/328 329/1/330
f 323/1/316 335/1/331 324/1/318
f 319/1/319 329/1/330 330/1/332
f 324/1/318 336/1/333 325/1/320
f 320/1/321 330/1/332 331/1/324
f 330/1/332 340/1/334 341/1/335
f 335/1/331 347/1/336 336/1/333
f 331/1/324 341/1/335 342/1/337
f 336/1/333 348/1/338 337/1/323
f 332/1/325 342/1/337 343/1/339
f 333/1/326 343/1/339 344/1/340
f 328/1/328 338/1/341 339/1/342
f 334/1/329 344/1/340 345/1/343
f 329/1/330 339/1/342 340/1/334
f 334/1/329 346/1/344 335/1/331
f 345/1/343 355/1/345 356/1/346
f 340/1/334 350/1/347 351/1/348
f 345/1/343 357/1/349 346/1/344
f 341/1/335 351/1/348 352/1/350
f 346/1/344 358/1/351 347/1/336
f 342/1/337 352/1/350 353/1/352
f 347/1/336 359/1/353 348/1/338
f 343/1/339 353/1/352 354/1/354
f 344/1/340 354/1/354 355/1/345
f 339/1/342 349/1/355 350/1/347
f 355/1/345 365/1/356 366/1/357
f 350/1/347 360/1/358 361/1/359
f 356/1/346 366/1/357 367/1/360
f 351/1/348 361/1/359 362/1/361
f 356/1/346 368/1/362 357/1/349
f 352/1/350 362/1/361 363/1/363
f 357/1/349 369/1/364 358/1/351
f 353/1/352 363/1/363 364/1/365
f 358/1/351 370/1/366 359/1/353
f 354/1/354 364/1/365 365/1/356
f 369/1/364 381/1/367 370/1/366
f 365/1/356 375/1/368 376/1/369
f 366/1/357 376/1/369 377/1/370
f 361/1/359 371/1/371 372/1/372
f 367/1/360 377/1/370 378/1/373
f 362/1/361 372/1/372 373/1/374
f 367/1/360 379/1/375 368/1/362
f 363/1/363 373/1/374 374/1/376
f 368/1/362 380/1/377 369/1/364
f 364/1/365 374/1/376 375/1/368
f 374/1/376 384/1/378 385/1/379
f 379/1/375 391/1/380 380/1/377
f 375/1/368 385/1/379 386/1/381
f 380/1/377 392/1/382 381/1/367
f 376/1/369 386/1/381 387/1/383
f 377/1/370 387/1/383 388/1/384
f 372/1/372 382/1/385 383/1/386
f 378/1/373 388/1/384 389/1/387
f 373/1/374 383/1/386 384/1/378
f 378/1/373 390/1/388 379/1/375
f 389/1/387 399/1/389 400/1/390
f 384/1/378 394/1/391 395/1/392
f 389/1/387 401/1/393 390/1/388
f 385/1/379 395/1/392 396/1/394
f 390/1/388 402/1/395 391/1/380
f 386/1/381 396/1/394 397/1/396
f 391/1/380 403/1/397 392/1/382
f 387/1/383 397/1/396 398/1/398
f 388/1/384 398/1/398 399/1/389
f 383/1/386 393/1/399 394/1/391
f 398/1/398 410/1/400 399/1/389
f 393/1/399 405/1/401 394/1/391
f 399/1/389 411/1/402 400/1/390
f 394/1/391 406/1/403 395/1/392
f 401/1/393 411/1/402 412/1/404
f 395/1/392 407/1/405 396/1/394
f 402/1/395 412/1/404 413/1/406
f 396/1/394 408/1/407 397/1/396
f 403/1/397 413/1/406 414/1/408
f 397/1/396 409/1/409 398/1/398
f 414/1/408 424/1/410 425/1/411
f 408/1/407 420/1/412 409/1/409
f 409/1/409 421/1/413 410/1/400
f 404/1/414 416/1/415 405/1/401
f 410/1/400 422/1/416 411/1/402
f 405/1/401 417/1/417 406/1/403
f 412/1/404 422/1/416 423/1/418
f 406/1/403 418/1/419 407/1/405
f 413/1/406 423/1/418 424/1/410
f 407/1/405 419/1/420 408/1/407
f 424/1/410 434/1/421 435/1/422
f 418/1/419 430/1/423 419/1/420
f 425/1/411 435/1/422 436/1/424
f 419/1/420 431/1/425 420/1/412
f 420/1/412 432/1/426 421/1/413
f 415/1/427 427/1/428 416/1/415
f 421/1/413 433/1/429 422/1/416
f 416/1/415 428/1/430 417/1/417
f 423/1/418 433/1/429 434/1/421
f 417/1/417 429/1/431 418/1/419
f 427/1/428 439/1/432 428/1/430
f 434/1/421 444/1/433 445/1/434
f 428/1/430 440/1/435 429/1/431
f 435/1/422 445/1/434 446/1/436
f 429/1/431 441/1/437 430/1/423
f 436/1/424 446/1/436 447/1/438
f 430/1/423 442/1/439 431/1/425
f 431/1/425 443/1/440 432/1/426
f 426/1/441 438/1/442 427/1/428
f 432/1/426 444/1/433 433/1/429
f 442/1/439 454/1/443 443/1/440
f 437/1/444 449/1/445 438/1/442
f 443/1/440 455/1/446 444/1/433
f 438/1/442 450/1/447 439/1/432
f 445/1/434 455/1/446 456/1/448
f 439/1/432 451/1/449 440/1/435
f 446/1/436 456/1/448 457/1/450
f 440/1/435 452/1/451 441/1/437
f 447/1/438 457/1/450 458/1/452
f 441/1/437 453/1/453 442/1/439
f 458/1/452 468/1/454 469/1/455
f 452/1/451 464/1/456 453/1/453
f 453/1/453 465/1/457 454/1/443
f 448/1/458 460/1/459 449/1/445
f 454/1/443 466/1/460 455/1/446
f 449/1/445 461/1/461 450/1/447
f 456/1/448 466/1/460 467/1/462
f 450/1/447 462/1/463 451/1/449
f 457/1/450 467/1/462 468/1/454
f 451/1/449 463/1/464 452/1/451
f 468/1/454 478/1/465 479/1/466
f 462/1/463 474/1/467 463/1/464
f 469/1/455 479/1/466 480/1/468
f 463/1/464 475/1/469 464/1/456
f 464/1/456 476/1/470 465/1/457
f 459/1/471 471/1/472 460/1/459
f 465/1/457 477/1/473 466/1/460
f 460/1/459 472/1/474 461/1/461
f 467/1/462 477/1/473 478/1/465
f 461/1/461 473/1/475 462/1/463
f 471/1/472 483/1/476 472/1/474
f 478/1/465 488/1/477 489/1/478
f 472/1/474 484/1/479 473/1/475
f 479/1/466 489/1/478 490/1/480
f 473/1/475 485/1/481 474/1/467
f 480/1/468 490/1/480 491/1/482
f 474/1/467 486/1/483 475/1/469
f 475/1/469 487/1/484 476/1/470
f 470/1/485 482/1/486 471/1/472
f 476/1/470 488/1/477 477/1/473
f 487/1/484 497/1/487 498/1/488
f 482/1/486 492/1/489 493/1/490
f 488/1/477 498/1/488 499/1/491
f 483/1/476 493/1/490 494/1/492
f 488/1/477 500/1/493 489/1/478
f 484/1/479 494/1/492 495/1/494
f 489/1/478 501/1/495 490/1/480
f 485/1/481 495/1/494 496/1/496
f 490/1/480 502/1/497 491/1/482
f 486/1/483 496/1/496 497/1/487
f 501/1/495 513/1/498 502/1/497
f 497/1/487 507/1/499 508/1/500
f 498/1/488 508/1/500 509/1/501
f 493/1/490 503/1/502 504/1/503
f 499/1/491 509/1/501 510/1/504
f 494/1/492 504/1/503 505/1/505
f 499/1/491 511/1/506 500/1/493
f 495/1/494 505/1/505 506/1/507
f 500/1/493 512/1/508 501/1/495
f 496/1/496 506/1/507 507/1/499
f 511/1/506 523/1/509 512/1/508
f 507/1/499 517/1/510 518/1/511
f 512/1/508 524/1/512 513/1/498
f 508/1/500 518/1/511 519/1/513
f 509/1/501 519/1/513 520/1/514
f 504/1/503 514/1/515 515/1/516
f 510/1/504 520/1/514 521/1/517
f 505/1/505 515/1/516 516/1/518
f 510/1/504 522/1/519 511/1/506
f 506/1/507 516/1/518 517/1/510
f 521/1/517 533/1/520 522/1/519
f 517/1/510 527/1/521 528/1/522
f 522/1/519 534/1/523 523/1/509
f 518/1/511 528/1/522 529/1/524
f 523/1/509 535/1/525 524/1/512
f 519/1/513 529/1/524 530/1/526
f 520/1/514 530/1/526 531/1/527
f 515/1/516 525/1/528 526/1/529
f 521/1/517 531/1/527 532/1/530
f 516/1/518 526/1/529 527/1/521
f 526/1/529 536/1/531 537/1/532
f 532/1/530 542/1/533 543/1/534
f 527/1/521 537/1/532 538/1/535
f 532/1/530 544/1/536 533/1/520
f 528/1/522 538/1/535 539/1/537
f 533/1/520 545/1/538 534/1/523
f 529/1/524 539/1/537 540/1/539
f 534/1/523 546/1/540 535/1/525
f 530/1/526 540/1/539 541/1/541
f 531/1/527 541/1/541 542/1/533
f 541/1/541 552/1/542 553/1/543
f 542/1/533 553/1/543 554/1/544
f 537/1/532 548/1/545 549/1/546
f 543/1/534 554/1/544 555/1/547
f 538/1/535 549/1/546 550/1/548
f 543/1/534 556/1/549 544/1/536
f 539/1/537 550/1/548 551/1/550
f 544/1/536 557/1/551 545/1/538
f 540/1/539 551/1/550 552/1/542
f 545/1/538 558/1/552 546/1/540
f 556/1/549 568/1/553 557/1/551
f 552/1/542 562/1/554 563/1/555
f 557/1/551 569/1/556 558/1/552
f 553/1/543 563/1/555 564/1/557
f 554/1/544 564/1/557 565/1/558
f 549/1/546 559/1/559 560/1/560
f 555/1/547 565/1/558 566/1/561
f 550/1/548 560/1/560 561/1/562
f 555/1/547 567/1/563 556/1/549
f 551/1/550 561/1/562 562/1/554
f 217/1/224 547/1/564 228/1/240
f 228/1/240 547/1/564 239/1/254
f 239/1/254 547/1/564 250/1/266
f 250/1/266 547/1/564 261/1/269
f 261/1/269 547/1/564 272/1/284
f 272/1/284 547/1/564 283/1/298
f 283/1/298 547/1/564 294/1/310
f 294/1/310 547/1/564 305/1/565
f 305/1/565 547/1/564 316/1/314
f 316/1/314 547/1/564 327/1/327
f 327/1/327 547/1/564 338/1/341
f 338/1/341 547/1/564 349/1/355
f 349/1/355 547/1/564 360/1/358
f 360/1/358 547/1/564 371/1/371
f 371/1/371 547/1/564 382/1/385
f 382/1/385 547/1/564 393/1/399
f 393/1/399 547/1/564 404/1/414
f 404/1/414 547/1/564 415/1/427
f 415/1/427 547/1/564 426/1/441
f 426/1/441 547/1/564 437/1/444
f 437/1/444 547/1/564 448/1/458
f 448/1/458 547/1/564 459/1/471
f 459/1/471 547/1/564 470/1/485
f 470/1/485 547/1/564 481/1/566
f 481/1/566 547/1/564 492/1/489
f 492/1/489 547/1/564 503/1/502
f 503/1/502 547/1/564 514/1/515
f 514/1/515 547/1/564 525/1/528
f 525/1/528 547/1/564 536/1/531
f 536/1/531 547/1/564 548/1/545
f 548/1/545 547/1/564 559/1/559
f 566/1/561 225/1/231 567/1/563
f 562/1/554 219/1/230 220/1/214
f 567/1/563 226/1/234 568/1/553
f 563/1/555 220/1/214 221/1/216
f 568/1/553 227/1/217 569/1/556
f 564/1/557 221/1/216 222/1/221
f 559/1/559 547/1/564 217/1/224
f 565/1/558 222/1/221 223/1/223
f 560/1/560 217/1/224 218/1/226
f 566/1/561 223/1/223 224/1/228
f 561/1/562 218/1/226 219/1/230
s 0
f 571/2/567 617/3/567 629/1/567
f 573/2/568 589/3/568 617/1/568
f 575/2/569 609/3/569 589/1/569
f 577/2/570 593/3/570 609/1/570
f 571/4/60 579/5/60 575/6/60
f 581/2/571 629/3/571 638/1/571
f 579/2/572 638/3/572 593/1/572
f 572/4/78 576/5/78 580/6/78
f 582/2/567 572/3/567 570/1/567
f 583/2/568 574/3/568 572/1/568
f 584/2/569 576/3/569 574/1/569
f 585/2/570 578/3/570 576/1/570
f 587/2/571 570/3/571 580/1/571
f 586/2/572 580/3/572 578/1/572
f 615/2/572 587/3/572 586/1/572
f 595/2/567 610/3/567 594/1/567
f 628/2/567 611/3/567 595/1/567
f 620/2/570 586/3/570 585/1/570
f 621/2/569 585/3/569 584/1/569
f 606/2/568 621/3/568 622/1/568
f 622/2/568 584/3/568 583/1/568
f 594/2/567 613/3/567 597/1/567
f 623/2/567 583/3/567 582/1/567
f 596/2/567 607/3/567 636/1/567
f 612/2/568 603/3/568 607/1/568
f 614/2/571 582/3/571 587/1/571
f 597/2/567 612/3/567 596/1/567
f 629/2/567 616/3/567 628/1/567
f 636/2/567 606/3/567 637/1/567
f 607/2/568 602/3/568 606/1/568
f 637/2/567 622/3/567 623/1/567
f 613/2/568 604/3/568 612/1/568
f 610/2/568 605/3/568 613/1/568
f 611/2/568 626/3/568 610/1/568
f 616/2/568 627/3/568 611/1/568
f 617/2/568 588/3/568 616/1/568
f 602/2/569 620/3/569 621/1/569
f 603/2/569 618/3/569 602/1/569
f 604/2/569 619/3/569 603/1/569
f 605/2/569 624/3/569 604/1/569
f 626/2/569 625/3/569 605/1/569
f 627/2/569 630/3/569 626/1/569
f 588/2/569 631/3/569 627/1/569
f 589/2/569 608/3/569 588/1/569
f 618/2/570 615/3/570 620/1/570
f 619/2/570 634/3/570 618/1/570
f 624/2/570 635/3/570 619/1/570
f 625/2/570 600/3/570 624/1/570
f 630/2/570 601/3/570 625/1/570
f 631/2/570 598/3/570 630/1/570
f 608/2/570 599/3/570 631/1/570
f 609/2/570 592/3/570 608/1/570
f 590/2/571 623/3/571 614/1/571
f 591/2/571 637/3/571 590/1/571
f 632/2/571 636/3/571 591/1/571
f 633/2/571 596/3/571 632/1/571
f 641/2/571 597/3/571 633/1/571
f 640/2/571 594/3/571 641/1/571
f 639/2/571 595/3/571 640/1/571
f 638/2/571 628/3/571 639/1/571
f 634/2/572 614/3/572 615/1/572
f 635/2/572 590/3/572 634/1/572
f 600/2/572 591/3/572 635/1/572
f 601/2/572 632/3/572 600/1/572
f 598/2/572 633/3/572 601/1/572
f 599/2/572 641/3/572 598/1/572
f 592/2/572 640/3/572 599/1/572
f 593/2/572 639/3/572 592/1/572
s 1
f 646/1/573 652/1/574 653/1/575
f 648/1/576 654/1/577 655/1/578
f 642/1/579 650/1/580 643/1/581
f 644/1/582 652/1/574 645/1/572
f 646/1/573 654/1/577 647/1/583
f 644/1/582 650/1/580 651/1/584
f 649/1/585 657/1/586 650/1/580
f 652/1/574 658/1/587 659/1/588
f 653/1/575 661/1/589 654/1/577
f 651/1/584 657/1/586 658/1/587
f 653/1/575 659/1/588 660/1/590
f 655/1/578 661/1/589 662/1/591
f 657/1/586 663/1/592 664/1/593
f 659/1/588 665/1/594 666/1/595
f 661/1/589 667/1/596 668/1/597
f 657/1/586 665/1/594 658/1/587
f 659/1/588 667/1/596 660/1/590
f 661/1/589 669/1/598 662/1/591
f 664/1/593 670/1/599 671/1/600
f 665/1/594 673/1/301 666/1/595
f 668/1/597 674/1/601 675/1/602
f 664/1/593 672/1/603 665/1/594
f 666/1/595 674/1/601 667/1/596
f 668/1/597 676/1/604 669/1/598
f 670/1/599 679/1/605 671/1/600
f 673/1/301 680/1/606 681/1/607
f 674/1/601 683/1/608 675/1/602
f 672/1/603 679/1/605 680/1/606
f 674/1/601 681/1/607 682/1/609
f 676/1/604 683/1/608 684/1/610
f 678/1/611 686/1/612 679/1/605
f 680/1/606 688/1/613 681/1/607
f 682/1/609 690/1/614 683/1/608
f 679/1/605 687/1/615 680/1/606
f 682/1/609 688/1/613 689/1/616
f 684/1/610 690/1/614 691/1/617
f 686/1/612 692/1/618 693/1/619
f 687/1/615 695/1/620 688/1/613
f 690/1/614 696/1/621 697/1/622
f 686/1/612 694/1/623 687/1/615
f 688/1/613 696/1/621 689/1/616
f 690/1/614 698/1/624 691/1/617
f 693/1/619 699/1/625 700/1/626
f 695/1/620 701/1/627 702/1/568
f 697/1/622 703/1/628 704/1/629
f 693/1/619 701/1/627 694/1/623
f 695/1/620 703/1/628 696/1/621
f 697/1/622 705/1/630 698/1/624
f 699/1/625 707/1/631 700/1/626
f 701/1/627 709/1/632 702/1/568
f 703/1/628 711/1/633 704/1/629
f 701/1/627 707/1/631 708/1/634
f 703/1/628 709/1/632 710/1/635
f 705/1/630 711/1/633 712/1/636
f 706/1/637 714/1/638 707/1/631
f 709/1/632 715/1/639 716/1/640
f 710/1/635 718/1/641 711/1/633
f 708/1/634 714/1/638 715/1/639
f 709/1/632 717/1/642 710/1/635
f 712/1/636 718/1/641 719/1/643
f 714/1/638 720/1/644 721/1/645
f 716/1/640 722/1/646 723/1/647
f 718/1/641 724/1/648 725/1/649
f 714/1/638 722/1/646 715/1/639
f 716/1/640 724/1/648 717/1/642
f 718/1/641 726/1/650 719/1/643
f 721/1/645 727/1/651 728/1/652
f 723/1/647 729/1/653 730/1/477
f 725/1/649 731/1/654 732/1/655
f 721/1/645 729/1/653 722/1/646
f 723/1/647 731/1/654 724/1/648
f 725/1/649 733/1/656 726/1/650
f 727/1/651 735/1/657 728/1/652
f 729/1/653 737/1/658 730/1/477
f 731/1/654 739/1/659 732/1/655
f 729/1/653 735/1/657 736/1/660
f 731/1/654 737/1/658 738/1/661
f 733/1/656 739/1/659 740/1/662
f 734/1/663 743/1/664 735/1/657
f 736/1/660 745/1/665 737/1/658
f 738/1/661 747/1/666 739/1/659
f 736/1/660 743/1/664 744/1/667
f 737/1/658 746/1/668 738/1/661
f 740/1/662 747/1/666 748/1/669
f 743/1/664 749/1/670 750/1/671
f 744/1/667 752/1/672 745/1/665
f 747/1/666 753/1/673 754/1/674
f 743/1/664 751/1/675 744/1/667
f 746/1/668 752/1/672 753/1/673
f 747/1/666 755/1/676 748/1/669
f 642/1/579 677/1/60 649/1/585
f 741/1/78 648/1/576 655/1/578
f 649/1/585 677/1/60 656/1/677
f 741/1/78 655/1/578 662/1/591
f 656/1/677 677/1/60 663/1/592
f 741/1/78 662/1/591 669/1/598
f 663/1/592 677/1/60 670/1/599
f 741/1/78 669/1/598 676/1/604
f 670/1/599 677/1/60 678/1/611
f 741/1/78 676/1/604 684/1/610
f 678/1/611 677/1/60 685/1/678
f 741/1/78 684/1/610 691/1/617
f 685/1/678 677/1/60 692/1/618
f 741/1/78 691/1/617 698/1/624
f 692/1/618 677/1/60 699/1/625
f 741/1/78 698/1/624 705/1/630
f 699/1/625 677/1/60 706/1/637
f 741/1/78 705/1/630 712/1/636
f 706/1/637 677/1/60 713/1/679
f 741/1/78 712/1/636 719/1/643
f 713/1/679 677/1/60 720/1/644
f 741/1/78 719/1/643 726/1/650
f 720/1/644 677/1/60 727/1/651
f 741/1/78 726/1/650 733/1/656
f 727/1/651 677/1/60 734/1/663
f 741/1/78 733/1/656 740/1/662
f 734/1/663 677/1/60 742/1/680
f 741/1/78 740/1/662 748/1/669
f 742/1/680 677/1/60 749/1/670
f 741/1/78 748/1/669 755/1/676
f 750/1/671 642/1/579 643/1/581
f 752/1/672 644/1/582 645/1/572
f 754/1/674 646/1/573 647/1/583
f 749/1/670 677/1/60 642/1/579
f 741/1/78 755/1/676 648/1/576
f 750/1/671 644/1/582 751/1/675
f 752/1/672 646/1/573 753/1/673
f 754/1/674 648/1/576 755/1/676
f 13/1/1 14/1/4 2/1/2
f 14/1/4 15/1/6 3/1/5
f 15/1/6 16/1/8 4/1/7
f 16/1/8 17/1/10 5/1/9
f 17/1/10 18/1/12 6/1/11
f 18/1/12 19/1/30 7/1/13
f 7/1/13 19/1/30 20/1/14
f 8/1/15 20/1/14 21/1/16
f 9/1/17 21/1/16 22/1/18
f 10/1/19 22/1/18 23/1/20
f 11/1/21 23/1/20 24/1/22
f 12/1/23 24/1/22 13/1/1
f 25/1/24 26/1/25 14/1/4
f 26/1/25 27/1/26 15/1/6
f 27/1/26 28/1/27 16/1/8
f 28/1/27 29/1/28 17/1/10
f 29/1/28 30/1/29 18/1/12
f 30/1/29 31/1/42 19/1/30
f 19/1/30 31/1/42 32/1/31
f 20/1/14 32/1/31 33/1/32
f 21/1/16 33/1/32 34/1/33
f 22/1/18 34/1/33 35/1/34
f 23/1/20 35/1/34 36/1/35
f 24/1/22 36/1/35 25/1/24
f 37/1/36 38/1/37 26/1/25
f 38/1/37 39/1/38 27/1/26
f 39/1/38 40/1/39 28/1/27
f 40/1/39 41/1/40 29/1/28
f 41/1/40 42/1/41 30/1/29
f 42/1/41 43/1/54 31/1/42
f 31/1/42 43/1/54 44/1/43
f 32/1/31 44/1/43 45/1/44
f 33/1/32 45/1/44 46/1/45
f 34/1/33 46/1/45 47/1/46
f 35/1/34 47/1/46 48/1/47
f 36/1/35 48/1/47 37/1/36
f 49/1/48 50/1/49 38/1/37
f 50/1/49 51/1/50 39/1/38
f 51/1/50 52/1/51 40/1/39
f 52/1/51 53/1/52 41/1/40
f 53/1/52 54/1/53 42/1/41
f 54/1/53 55/1/66 43/1/54
f 43/1/54 55/1/66 56/1/55
f 44/1/43 56/1/55 57/1/56
f 45/1/44 57/1/56 58/1/57
f 46/1/45 58/1/57 59/1/58
f 47/1/46 59/1/58 60/1/59
f 48/1/47 60/1/59 49/1/48
f 61/1/60 62/1/61 50/1/49
f 62/1/61 63/1/62 51/1/50
f 63/1/62 64/1/63 52/1/51
f 64/1/63 65/1/64 53/1/52
f 65/1/64 66/1/65 54/1/53
f 66/1/65 67/1/78 55/1/66
f 55/1/66 67/1/78 68/1/67
f 56/1/55 68/1/67 69/1/68
f 57/1/56 69/1/68 70/1/69
f 58/1/57 70/1/69 71/1/70
f 59/1/58 71/1/70 72/1/71
f 60/1/59 72/1/71 61/1/60
f 61/1/60 73/1/84 74/1/72
f 62/1/61 74/1/72 75/1/73
f 63/1/62 75/1/73 76/1/74
f 64/1/63 76/1/74 77/1/75
f 65/1/64 77/1/75 78/1/76
f 66/1/65 78/1/76 79/1/77
f 79/1/77 80/1/79 68/1/67
f 80/1/79 81/1/80 69/1/68
f 81/1/80 82/1/81 70/1/69
f 82/1/81 83/1/82 71/1/70
f 83/1/82 84/1/83 72/1/71
f 84/1/83 73/1/84 61/1/60
f 73/1/84 85/1/96 86/1/85
f 74/1/72 86/1/85 87/1/86
f 75/1/73 87/1/86 88/1/87
f 76/1/74 88/1/87 89/1/88
f 77/1/75 89/1/88 90/1/89
f 78/1/76 90/1/89 91/1/90
f 91/1/90 92/1/91 80/1/79
f 92/1/91 93/1/92 81/1/80
f 93/1/92 94/1/93 82/1/81
f 94/1/93 95/1/94 83/1/82
f 95/1/94 96/1/95 84/1/83
f 96/1/95 85/1/96 73/1/84
f 85/1/96 97/1/108 98/1/97
f 86/1/85 98/1/97 99/1/98
f 87/1/86 99/1/98 100/1/99
f 88/1/87 100/1/99 101/1/100
f 89/1/88 101/1/100 102/1/101
f 90/1/89 102/1/101 103/1/102
f 103/1/102 104/1/103 92/1/91
f 104/1/103 105/1/104 93/1/92
f 105/1/104 106/1/105 94/1/93
f 106/1/105 107/1/106 95/1/94
f 107/1/106 108/1/107 96/1/95
f 108/1/107 97/1/108 85/1/96
f 97/1/108 109/1/120 110/1/109
f 98/1/97 110/1/109 111/1/110
f 99/1/98 111/1/110 112/1/111
f 100/1/99 112/1/111 113/1/112
f 101/1/100 113/1/112 114/1/113
f 102/1/101 114/1/113 115/1/114
f 115/1/114 116/1/115 104/1/103
f 116/1/115 117/1/116 105/1/104
f 117/1/116 118/1/117 106/1/105
f 118/1/117 119/1/118 107/1/106
f 119/1/118 120/1/119 108/1/107
f 120/1/119 109/1/120 97/1/108
f 109/1/120 121/1/132 122/1/121
f 110/1/109 122/1/121 123/1/122
f 111/1/110 123/1/122 124/1/123
f 112/1/111 124/1/123 125/1/124
f 113/1/112 125/1/124 126/1/125
f 114/1/113 126/1/125 127/1/126
f 127/1/126 128/1/127 116/1/115
f 128/1/127 129/1/128 117/1/116
f 129/1/128 130/1/129 118/1/117
f 130/1/129 131/1/130 119/1/118
f 131/1/130 132/1/131 120/1/119
f 132/1/131 121/1/132 109/1/120
f 121/1/132 133/1/144 134/1/133
f 122/1/121 134/1/133 135/1/134
f 123/1/122 135/1/134 136/1/135
f 124/1/123 136/1/135 137/1/136
f 125/1/124 137/1/136 138/1/137
f 126/1/125 138/1/137 139/1/138
f 139/1/138 140/1/139 128/1/127
f 140/1/139 141/1/140 129/1/128
f 141/1/140 142/1/141 130/1/129
f 142/1/141 143/1/142 131/1/130
f 143/1/142 144/1/143 132/1/131
f 144/1/143 133/1/144 121/1/132
f 133/1/144 145/1/156 146/1/145
f 134/1/133 146/1/145 147/1/146
f 135/1/134 147/1/146 148/1/147
f 136/1/135 148/1/147 149/1/148
f 137/1/136 149/1/148 150/1/149
f 138/1/137 150/1/149 151/1/150
f 151/1/150 152/1/151 140/1/139
f 152/1/151 153/1/152 141/1/140
f 153/1/152 154/1/153 142/1/141
f 154/1/153 155/1/154 143/1/142
f 155/1/154 156/1/155 144/1/143
f 156/1/155 145/1/156 133/1/144
f 145/1/156 157/1/168 158/1/157
f 146/1/145 158/1/157 159/1/158
f 147/1/146 159/1/158 160/1/159
f 148/1/147 160/1/159 161/1/160
f 149/1/148 161/1/160 162/1/161
f 150/1/149 162/1/161 163/1/162
f 163/1/162 164/1/163 152/1/151
f 164/1/163 165/1/164 153/1/152
f 165/1/164 166/1/165 154/1/153
f 166/1/165 167/1/166 155/1/154
f 167/1/166 168/1/167 156/1/155
f 168/1/167 157/1/168 145/1/156
f 157/1/168 169/1/180 170/1/169
f 158/1/157 170/1/169 171/1/170
f 159/1/158 171/1/170 172/1/171
f 160/1/159 172/1/171 173/1/172
f 161/1/160 173/1/172 174/1/173
f 162/1/161 174/1/173 175/1/174
f 175/1/174 176/1/175 164/1/163
f 176/1/175 177/1/176 165/1/164
f 177/1/176 178/1/177 166/1/165
f 178/1/177 179/1/178 167/1/166
f 179/1/178 180/1/179 168/1/167
f 180/1/179 169/1/180 157/1/168
f 169/1/180 181/1/193 182/1/181
f 170/1/169 182/1/181 183/1/182
f 171/1/170 183/1/182 184/1/183
f 172/1/171 184/1/183 185/1/184
f 173/1/172 185/1/184 186/1/185
f 174/1/173 186/1/185 187/1/186
f 187/1/186 188/1/187 176/1/175
f 188/1/187 189/1/188 177/1/176
f 189/1/188 190/1/189 178/1/177
f 190/1/189 191/1/190 179/1/178
f 191/1/190 192/1/191 180/1/179
f 192/1/191 181/1/193 169/1/180
f 193/1/192 194/1/204 182/1/181
f 182/1/181 194/1/204 195/1/194
f 183/1/182 195/1/194 196/1/195
f 184/1/183 196/1/195 197/1/196
f 185/1/184 197/1/196 198/1/197
f 186/1/185 198/1/197 199/1/198
f 199/1/198 200/1/199 188/1/187
f 200/1/199 201/1/200 189/1/188
f 201/1/200 202/1/201 190/1/189
f 202/1/201 203/1/202 191/1/190
f 203/1/202 204/1/213 192/1/191
f 192/1/191 204/1/213 193/1/192
f 193/1/192 205/1/681 206/1/203
f 206/1/203 207/1/682 195/1/194
f 195/1/194 207/1/682 208/1/205
f 196/1/195 208/1/205 209/1/206
f 197/1/196 209/1/206 210/1/207
f 198/1/197 210/1/207 211/1/208
f 211/1/208 212/1/209 200/1/199
f 212/1/209 213/1/210 201/1/200
f 213/1/210 214/1/211 202/1/201
f 214/1/211 215/1/683 203/1/202
f 203/1/202 215/1/683 216/1/212
f 216/1/212 205/1/681 193/1/192
f 214/1/211 213/1/210 212/1/209
f 212/1/209 211/1/208 210/1/207
f 210/1/207 209/1/206 208/1/205
f 208/1/205 207/1/682 206/1/203
f 206/1/203 205/1/681 216/1/212
f 216/1/212 215/1/683 214/1/211
f 214/1/211 212/1/209 210/1/207
f 210/1/207 208/1/205 206/1/203
f 206/1/203 216/1/212 214/1/211
f 11/1/21 12/1/23 1/1/3
f 1/1/3 2/1/2 3/1/5
f 3/1/5 4/1/7 5/1/9
f 5/1/9 6/1/11 7/1/13
f 7/1/13 8/1/15 9/1/17
f 9/1/17 10/1/19 11/1/21
f 11/1/21 1/1/3 3/1/5
f 3/1/5 5/1/9 7/1/13
f 7/1/13 9/1/17 11/1/21
f 220/1/214 231/1/233 232/1/215
f 227/1/217 226/1/234 237/1/218
f 221/1/216 232/1/215 233/1/220
f 222/1/221 233/1/220 234/1/222
f 217/1/224 228/1/240 229/1/225
f 223/1/223 234/1/222 235/1/227
f 218/1/226 229/1/225 230/1/229
f 225/1/231 224/1/228 235/1/227
f 219/1/230 230/1/229 231/1/233
f 226/1/234 225/1/231 236/1/232
f 231/1/233 242/1/245 243/1/235
f 238/1/219 237/1/218 248/1/236
f 232/1/215 243/1/235 244/1/238
f 233/1/220 244/1/238 245/1/239
f 228/1/240 239/1/254 240/1/241
f 234/1/222 245/1/239 246/1/242
f 229/1/225 240/1/241 241/1/243
f 236/1/232 235/1/227 246/1/242
f 230/1/229 241/1/243 242/1/245
f 237/1/218 236/1/232 247/1/244
f 247/1/244 246/1/242 257/1/246
f 241/1/243 252/1/256 253/1/248
f 248/1/236 247/1/244 258/1/247
f 242/1/245 253/1/248 254/1/250
f 249/1/237 248/1/236 259/1/249
f 243/1/235 254/1/250 255/1/252
f 244/1/238 255/1/252 256/1/253
f 239/1/254 250/1/266 251/1/255
f 245/1/239 256/1/253 257/1/246
f 240/1/241 251/1/255 252/1/256
f 256/1/253 267/1/265 268/1/257
f 251/1/255 262/1/267 263/1/258
f 258/1/247 257/1/246 268/1/257
f 252/1/256 263/1/258 264/1/260
f 259/1/249 258/1/247 269/1/259
f 253/1/248 264/1/260 265/1/262
f 260/1/251 259/1/249 270/1/261
f 254/1/250 265/1/262 266/1/264
f 255/1/252 266/1/264 267/1/265
f 250/1/266 261/1/269 262/1/267
f 266/1/264 277/1/278 278/1/268
f 261/1/269 272/1/284 273/1/270
f 267/1/265 278/1/268 279/1/271
f 262/1/267 273/1/270 274/1/272
f 269/1/259 268/1/257 279/1/271
f 263/1/258 274/1/272 275/1/274
f 270/1/261 269/1/259 280/1/273
f 264/1/260 275/1/274 276/1/276
f 271/1/263 270/1/261 281/1/275
f 265/1/262 276/1/276 277/1/278
f 275/1/274 286/1/289 287/1/279
f 282/1/277 281/1/275 292/1/280
f 276/1/276 287/1/279 288/1/282
f 277/1/278 288/1/282 289/1/283
f 272/1/284 283/1/298 284/1/285
f 278/1/268 289/1/283 290/1/286
f 273/1/270 284/1/285 285/1/287
f 280/1/273 279/1/271 290/1/286
f 274/1/272 285/1/287 286/1/289
f 281/1/275 280/1/273 291/1/288
f 291/1/288 290/1/286 301/1/290
f 285/1/287 296/1/300 297/1/292
f 292/1/280 291/1/288 302/1/291
f 286/1/289 297/1/292 298/1/294
f 293/1/281 292/1/280 303/1/293
f 287/1/279 298/1/294 299/1/296
f 288/1/282 299/1/296 300/1/297
f 283/1/298 294/1/310 295/1/299
f 289/1/283 300/1/297 301/1/290
f 284/1/285 295/1/299 296/1/300
f 300/1/297 311/1/309 312/1/301
f 295/1/299 306/1/311 307/1/302
f 302/1/291 301/1/290 312/1/301
f 296/1/300 307/1/302 308/1/304
f 303/1/293 302/1/291 313/1/303
f 297/1/292 308/1/304 309/1/306
f 304/1/295 303/1/293 314/1/305
f 298/1/294 309/1/306 310/1/308
f 299/1/296 310/1/308 311/1/309
f 294/1/310 305/1/565 306/1/311
f 311/1/309 310/1/308 321/1/312
f 306/1/311 305/1/565 316/1/314
f 312/1/301 311/1/309 322/1/313
f 307/1/302 306/1/311 317/1/315
f 312/1/301 323/1/316 324/1/318
f 308/1/304 307/1/302 318/1/317
f 313/1/303 324/1/318 325/1/320
f 309/1/306 308/1/304 319/1/319
f 314/1/305 325/1/320 326/1/322
f 310/1/308 309/1/306 320/1/321
f 325/1/320 336/1/333 337/1/323
f 321/1/312 320/1/321 331/1/324
f 322/1/313 321/1/312 332/1/325
f 317/1/315 316/1/314 327/1/327
f 323/1/316 322/1/313 333/1/326
f 318/1/317 317/1/315 328/1/328
f 323/1/316 334/1/329 335/1/331
f 319/1/319 318/1/317 329/1/330
f 324/1/318 335/1/331 336/1/333
f 320/1/321 319/1/319 330/1/332
f 330/1/332 329/1/330 340/1/334
f 335/1/331 346/1/344 347/1/336
f 331/1/324 330/1/332 341/1/335
f 336/1/333 347/1/336 348/1/338
f 332/1/325 331/1/324 342/1/337
f 333/1/326 332/1/325 343/1/339
f 328/1/328 327/1/327 338/1/341
f 334/1/329 333/1/326 344/1/340
f 329/1/330 328/1/328 339/1/342
f 334/1/329 345/1/343 346/1/344
f 345/1/343 344/1/340 355/1/345
f 340/1/334 339/1/342 350/1/347
f 345/1/343 356/1/346 357/1/349
f 341/1/335 340/1/334 351/1/348
f 346/1/344 357/1/349 358/1/351
f 342/1/337 341/1/335 352/1/350
f 347/1/336 358/1/351 359/1/353
f 343/1/339 342/1/337 353/1/352
f 344/1/340 343/1/339 354/1/354
f 339/1/342 338/1/341 349/1/355
f 355/1/345 354/1/354 365/1/356
f 350/1/347 349/1/355 360/1/358
f 356/1/346 355/1/345 366/1/357
f 351/1/348 350/1/347 361/1/359
f 356/1/346 367/1/360 368/1/362
f 352/1/350 351/1/348 362/1/361
f 357/1/349 368/1/362 369/1/364
f 353/1/352 352/1/350 363/1/363
f 358/1/351 369/1/364 370/1/366
f 354/1/354 353/1/352 364/1/365
f 369/1/364 380/1/377 381/1/367
f 365/1/356 364/1/365 375/1/368
f 366/1/357 365/1/356 376/1/369
f 361/1/359 360/1/358 371/1/371
f 367/1/360 366/1/357 377/1/370
f 362/1/361 361/1/359 372/1/372
f 367/1/360 378/1/373 379/1/375
f 363/1/363 362/1/361 373/1/374
f 368/1/362 379/1/375 380/1/377
f 364/1/365 363/1/363 374/1/376
f 374/1/376 373/1/374 384/1/378
f 379/1/375 390/1/388 391/1/380
f 375/1/368 374/1/376 385/1/379
f 380/1/377 391/1/380 392/1/382
f 376/1/369 375/1/368 386/1/381
f 377/1/370 376/1/369 387/1/383
f 372/1/372 371/1/371 382/1/385
f 378/1/373 377/1/370 388/1/384
f 373/1/374 372/1/372 383/1/386
f 378/1/373 389/1/387 390/1/388
f 389/1/387 388/1/384 399/1/389
f 384/1/378 383/1/386 394/1/391
f 389/1/387 400/1/390 401/1/393
f 385/1/379 384/1/378 395/1/392
f 390/1/388 401/1/393 402/1/395
f 386/1/381 385/1/379 396/1/394
f 391/1/380 402/1/395 403/1/397
f 387/1/383 386/1/381 397/1/396
f 388/1/384 387/1/383 398/1/398
f 383/1/386 382/1/385 393/1/399
f 398/1/398 409/1/409 410/1/400
f 393/1/399 404/1/414 405/1/401
f 399/1/389 410/1/400 411/1/402
f 394/1/391 405/1/401 406/1/403
f 401/1/393 400/1/390 411/1/402
f 395/1/392 406/1/403 407/1/405
f 402/1/395 401/1/393 412/1/404
f 396/1/394 407/1/405 408/1/407
f 403/1/397 402/1/395 413/1/406
f 397/1/396 408/1/407 409/1/409
f 414/1/408 413/1/406 424/1/410
f 408/1/407 419/1/420 420/1/412
f 409/1/409 420/1/412 421/1/413
f 404/1/414 415/1/427 416/1/415
f 410/1/400 421/1/413 422/1/416
f 405/1/401 416/1/415 417/1/417
f 412/1/404 411/1/402 422/1/416
f 406/1/403 417/1/417 418/1/419
f 413/1/406 412/1/404 423/1/418
f 407/1/405 418/1/419 419/1/420
f 424/1/410 423/1/418 434/1/421
f 418/1/419 429/1/431 430/1/423
f 425/1/411 424/1/410 435/1/422
f 419/1/420 430/1/423 431/1/425
f 420/1/412 431/1/425 432/1/426
f 415/1/427 426/1/441 427/1/428
f 421/1/413 432/1/426 433/1/429
f 416/1/415 427/1/428 428/1/430
f 423/1/418 422/1/416 433/1/429
f 417/1/417 428/1/430 429/1/431
f 427/1/428 438/1/442 439/1/432
f 434/1/421 433/1/429 444/1/433
f 428/1/430 439/1/432 440/1/435
f 435/1/422 434/1/421 445/1/434
f 429/1/431 440/1/435 441/1/437
f 436/1/424 435/1/422 446/1/436
f 430/1/423 441/1/437 442/1/439
f 431/1/425 442/1/439 443/1/440
f 426/1/441 437/1/444 438/1/442
f 432/1/426 443/1/440 444/1/433
f 442/1/439 453/1/453 454/1/443
f 437/1/444 448/1/458 449/1/445
f 443/1/440 454/1/443 455/1/446
f 438/1/442 449/1/445 450/1/447
f 445/1/434 444/1/433 455/1/446
f 439/1/432 450/1/447 451/1/449
f 446/1/436 445/1/434 456/1/448
f 440/1/435 451/1/449 452/1/451
f 447/1/438 446/1/436 457/1/450
f 441/1/437 452/1/451 453/1/453
f 458/1/452 457/1/450 468/1/454
f 452/1/451 463/1/464 464/1/456
f 453/1/453 464/1/456 465/1/457
f 448/1/458 459/1/471 460/1/459
f 454/1/443 465/1/457 466/1/460
f 449/1/445 460/1/459 461/1/461
f 456/1/448 455/1/446 466/1/460
f 450/1/447 461/1/461 462/1/463
f 457/1/450 456/1/448 467/1/462
f 451/1/449 462/1/463 463/1/464
f 468/1/454 467/1/462 478/1/465
f 462/1/463 473/1/475 474/1/467
f 469/1/455 468/1/454 479/1/466
f 463/1/464 474/1/467 475/1/469
f 464/1/456 475/1/469 476/1/470
f 459/1/471 470/1/485 471/1/472
f 465/1/457 476/1/470 477/1/473
f 460/1/459 471/1/472 472/1/474
f 467/1/462 466/1/460 477/1/473
f 461/1/461 472/1/474 473/1/475
f 471/1/472 482/1/486 483/1/476
f 478/1/465 477/1/473 488/1/477
f 472/1/474 483/1/476 484/1/479
f 479/1/466 478/1/465 489/1/478
f 473/1/475 484/1/479 485/1/481
f 480/1/468 479/1/466 490/1/480
f 474/1/467 485/1/481 486/1/483
f 475/1/469 486/1/483 487/1/484
f 470/1/485 481/1/566 482/1/486
f 476/1/470 487/1/484 488/1/477
f 487/1/484 486/1/483 497/1/487
f 482/1/486 481/1/566 492/1/489
f 488/1/477 487/1/484 498/1/488
f 483/1/476 482/1/486 493/1/490
f 488/1/477 499/1/491 500/1/493
f 484/1/479 483/1/476 494/1/492
f 489/1/478 500/1/493 501/1/495
f 485/1/481 484/1/479 495/1/494
f 490/1/480 501/1/495 502/1/497
f 486/1/483 485/1/481 496/1/496
f 501/1/495 512/1/508 513/1/498
f 497/1/487 496/1/496 507/1/499
f 498/1/488 497/1/487 508/1/500
f 493/1/490 492/1/489 503/1/502
f 499/1/491 498/1/488 509/1/501
f 494/1/492 493/1/490 504/1/503
f 499/1/491 510/1/504 511/1/506
f 495/1/494 494/1/492 505/1/505
f 500/1/493 511/1/506 512/1/508
f 496/1/496 495/1/494 506/1/507
f 511/1/506 522/1/519 523/1/509
f 507/1/499 506/1/507 517/1/510
f 512/1/508 523/1/509 524/1/512
f 508/1/500 507/1/499 518/1/511
f 509/1/501 508/1/500 519/1/513
f 504/1/503 503/1/502 514/1/515
f 510/1/504 509/1/501 520/1/514
f 505/1/505 504/1/503 515/1/516
f 510/1/504 521/1/517 522/1/519
f 506/1/507 505/1/505 516/1/518
f 521/1/517 532/1/530 533/1/520
f 517/1/510 516/1/518 527/1/521
f 522/1/519 533/1/520 534/1/523
f 518/1/511 517/1/510 528/1/522
f 523/1/509 534/1/523 535/1/525
f 519/1/513 518/1/511 529/1/524
f 520/1/514 519/1/513 530/1/526
f 515/1/516 514/1/515 525/1/528
f 521/1/517 520/1/514 531/1/527
f 516/1/518 515/1/516 526/1/529
f 526/1/529 525/1/528 536/1/531
f 532/1/530 531/1/527 542/1/533
f 527/1/521 526/1/529 537/1/532
f 532/1/530 543/1/534 544/1/536
f 528/1/522 527/1/521 538/1/535
f 533/1/520 544/1/536 545/1/538
f 529/1/524 528/1/522 539/1/537
f 534/1/523 545/1/538 546/1/540
f 530/1/526 529/1/524 540/1/539
f 531/1/527 530/1/526 541/1/541
f 541/1/541 540/1/539 552/1/542
f 542/1/533 541/1/541 553/1/543
f 537/1/532 536/1/531 548/1/545
f 543/1/534 542/1/533 554/1/544
f 538/1/535 537/1/532 549/1/546
f 543/1/534 555/1/547 556/1/549
f 539/1/537 538/1/535 550/1/548
f 544/1/536 556/1/549 557/1/551
f 540/1/539 539/1/537 551/1/550
f 545/1/538 557/1/551 558/1/552
f 556/1/549 567/1/563 568/1/553
f 552/1/542 551/1/550 562/1/554
f 557/1/551 568/1/553 569/1/556
f 553/1/543 552/1/542 563/1/555
f 554/1/544 553/1/543 564/1/557
f 549/1/546 548/1/545 559/1/559
f 555/1/547 554/1/544 565/1/558
f 550/1/548 549/1/546 560/1/560
f 555/1/547 566/1/561 567/1/563
f 551/1/550 550/1/548 561/1/562
f 566/1/561 224/1/228 225/1/231
f 562/1/554 561/1/562 219/1/230
f 567/1/563 225/1/231 226/1/234
f 563/1/555 562/1/554 220/1/214
f 568/1/553 226/1/234 227/1/217
f 564/1/557 563/1/555 221/1/216
f 565/1/558 564/1/557 222/1/221
f 560/1/560 559/1/559 217/1/224
f 566/1/561 565/1/558 223/1/223
f 561/1/562 560/1/560 218/1/226
s 0
f 571/2/567 573/7/567 617/3/567
f 573/2/568 575/7/568 589/3/568
f 575/2/569 577/7/569 609/3/569
f 577/2/570 579/7/570 593/3/570
f 575/6/60 573/8/60 571/4/60
f 571/4/60 581/9/60 579/5/60
f 579/5/60 577/10/60 575/6/60
f 581/2/571 571/7/571 629/3/571
f 579/2/572 581/7/572 638/3/572
f 580/6/78 570/8/78 572/4/78
f 572/4/78 574/9/78 576/5/78
f 576/5/78 578/10/78 580/6/78
f 582/2/567 583/7/567 572/3/567
f 583/2/568 584/7/568 574/3/568
f 584/2/569 585/7/569 576/3/569
f 585/2/570 586/7/570 578/3/570
f 587/2/571 582/7/571 570/3/571
f 586/2/572 587/7/572 580/3/572
f 615/2/572 614/7/572 587/3/572
f 595/2/567 611/7/567 610/3/567
f 628/2/567 616/7/567 611/3/567
f 620/2/570 615/7/570 586/3/570
f 621/2/569 620/7/569 585/3/569
f 606/2/568 602/7/568 621/3/568
f 622/2/568 621/7/568 584/3/568
f 594/2/567 610/7/567 613/3/567
f 623/2/567 622/7/567 583/3/567
f 596/2/567 612/7/567 607/3/567
f 612/2/568 604/7/568 603/3/568
f 614/2/571 623/7/571 582/3/571
f 597/2/567 613/7/567 612/3/567
f 629/2/567 617/7/567 616/3/567
f 636/2/567 607/7/567 606/3/567
f 607/2/568 603/7/568 602/3/568
f 637/2/567 606/7/567 622/3/567
f 613/2/568 605/7/568 604/3/568
f 610/2/568 626/7/568 605/3/568
f 611/2/568 627/7/568 626/3/568
f 616/2/568 588/7/568 627/3/568
f 617/2/568 589/7/568 588/3/568
f 602/2/569 618/7/569 620/3/569
f 603/2/569 619/7/569 618/3/569
f 604/2/569 624/7/569 619/3/569
f 605/2/569 625/7/569 624/3/569
f 626/2/569 630/7/569 625/3/569
f 627/2/569 631/7/569 630/3/569
f 588/2/569 608/7/569 631/3/569
f 589/2/569 609/7/569 608/3/569
f 618/2/570 634/7/570 615/3/570
f 619/2/570 635/7/570 634/3/570
f 624/2/570 600/7/570 635/3/570
f 625/2/570 601/7/570 600/3/570
f 630/2/570 598/7/570 601/3/570
f 631/2/570 599/7/570 598/3/570
f 608/2/570 592/7/570 599/3/570
f 609/2/570 593/7/570 592/3/570
f 590/2/571 637/7/571 623/3/571
f 591/2/571 636/7/571 637/3/571
f 632/2/571 596/7/571 636/3/571
f 633/2/571 597/7/571 596/3/571
f 641/2/571 594/7/571 597/3/571
f 640/2/571 595/7/571 594/3/571
f 639/2/571 628/7/571 595/3/571
f 638/2/571 629/7/571 628/3/571
f 634/2/572 590/7/572 614/3/572
f 635/2/572 591/7/572 590/3/572
f 600/2/572 632/7/572 591/3/572
f 601/2/572 633/7/572 632/3/572
f 598/2/572 641/7/572 633/3/572
f 599/2/572 640/7/572 641/3/572
f 592/2/572 639/7/572 640/3/572
f 593/2/572 638/7/572 639/3/572
s 1
f 646/1/573 645/1/572 652/1/574
f 648/1/576 647/1/583 654/1/577
f 642/1/579 649/1/585 650/1/580
f 644/1/582 651/1/584 652/1/574
f 646/1/573 653/1/575 654/1/577
f 644/1/582 643/1/581 650/1/580
f 649/1/585 656/1/677 657/1/586
f 652/1/574 651/1/584 658/1/587
f 653/1/575 660/1/590 661/1/589
f 651/1/584 650/1/580 657/1/586
f 653/1/575 652/1/574 659/1/588
f 655/1/578 654/1/577 661/1/589
f 657/1/586 656/1/677 663/1/592
f 659/1/588 658/1/587 665/1/594
f 661/1/589 660/1/590 667/1/596
f 657/1/586 664/1/593 665/1/594
f 659/1/588 666/1/595 667/1/596
f 661/1/589 668/1/597 669/1/598
f 664/1/593 663/1/592 670/1/599
f 665/1/594 672/1/603 673/1/301
f 668/1/597 667/1/596 674/1/601
f 664/1/593 671/1/600 672/1/603
f 666/1/595 673/1/301 674/1/601
f 668/1/597 675/1/602 676/1/604
f 670/1/599 678/1/611 679/1/605
f 673/1/301 672/1/603 680/1/606
f 674/1/601 682/1/609 683/1/608
f 672/1/603 671/1/600 679/1/605
f 674/1/601 673/1/301 681/1/607
f 676/1/604 675/1/602 683/1/608
f 678/1/611 685/1/678 686/1/612
f 680/1/606 687/1/615 688/1/613
f 682/1/609 689/1/616 690/1/614
f 679/1/605 686/1/612 687/1/615
f 682/1/609 681/1/607 688/1/613
f 684/1/610 683/1/608 690/1/614
f 686/1/612 685/1/678 692/1/618
f 687/1/615 694/1/623 695/1/620
f 690/1/614 689/1/616 696/1/621
f 686/1/612 693/1/619 694/1/623
f 688/1/613 695/1/620 696/1/621
f 690/1/614 697/1/622 698/1/624
f 693/1/619 692/1/618 699/1/625
f 695/1/620 694/1/623 701/1/627
f 697/1/622 696/1/621 703/1/628
f 693/1/619 700/1/626 701/1/627
f 695/1/620 702/1/568 703/1/628
f 697/1/622 704/1/629 705/1/630
f 699/1/625 706/1/637 707/1/631
f 701/1/627 708/1/634 709/1/632
f 703/1/628 710/1/635 711/1/633
f 701/1/627 700/1/626 707/1/631
f 703/1/628 702/1/568 709/1/632
f 705/1/630 704/1/629 711/1/633
f 706/1/637 713/1/679 714/1/638
f 709/1/632 708/1/634 715/1/639
f 710/1/635 717/1/642 718/1/641
f 708/1/634 707/1/631 714/1/638
f 709/1/632 716/1/640 717/1/642
f 712/1/636 711/1/633 718/1/641
f 714/1/638 713/1/679 720/1/644
f 716/1/640 715/1/639 722/1/646
f 718/1/641 717/1/642 724/1/648
f 714/1/638 721/1/645 722/1/646
f 716/1/640 723/1/647 724/1/648
f 718/1/641 725/1/649 726/1/650
f 721/1/645 720/1/644 727/1/651
f 723/1/647 722/1/646 729/1/653
f 725/1/649 724/1/648 731/1/654
f 721/1/645 728/1/652 729/1/653
f 723/1/647 730/1/477 731/1/654
f 725/1/649 732/1/655 733/1/656
f 727/1/651 734/1/663 735/1/657
f 729/1/653 736/1/660 737/1/658
f 731/1/654 738/1/661 739/1/659
f 729/1/653 728/1/652 735/1/657
f 731/1/654 730/1/477 737/1/658
f 733/1/656 732/1/655 739/1/659
f 734/1/663 742/1/680 743/1/664
f 736/1/660 744/1/667 745/1/665
f 738/1/661 746/1/668 747/1/666
f 736/1/660 735/1/657 743/1/664
f 737/1/658 745/1/665 746/1/668
f 740/1/662 739/1/659 747/1/666
f 743/1/664 742/1/680 749/1/670
f 744/1/667 751/1/675 752/1/672
f 747/1/666 746/1/668 753/1/673
f 743/1/664 750/1/671 751/1/675
f 746/1/668 745/1/665 752/1/672
f 747/1/666 754/1/674 755/1/676
f 750/1/671 749/1/670 642/1/579
f 752/1/672 751/1/675 644/1/582
f 754/1/674 753/1/673 646/1/573
f 750/1/671 643/1/581 644/1/582
f 752/1/672 645/1/572 646/1/573
f 754/1/674 647/1/583 648/1/576
