# Blender 4.5.3 LTS
# www.blender.org
mtllib Parabrisas.mtl
o Parabrisas
v -3.867345 2.860461 7.740061
v -7.801686 2.454336 7.312561
v -2.687049 6.921711 2.876714
v -5.441076 6.515586 2.449214
v 7.935660 2.454336 7.312561
v 5.575059 6.515586 2.449214
v 4.001328 2.860461 7.740061
v 0.066987 2.988713 7.740061
v 2.821023 6.921711 2.876714
v 0.066987 7.049962 2.876714
vn 0.1021 0.7851 0.6109
vn 0.1837 0.7795 0.5989
vn 0.1048 0.7698 0.6297
vn -0.0000 0.7698 0.6383
vn -0.1192 0.7729 0.6232
vn -0.1054 0.7829 0.6131
vn -0.0011 0.7675 0.6410
vn -0.1892 0.7777 0.5995
vn -0.1441 0.7962 0.5876
vn 0.1419 0.7955 0.5891
s 1
g off
usemtl Window
f 7//1 6//2 9//3
f 8//4 3//5 1//6
f 8//4 9//3 10//7
f 1//6 4//8 2//9
f 7//1 5//10 6//2
f 8//4 10//7 3//5
f 8//4 7//1 9//3
f 1//6 3//5 4//8
