# Blender 4.5.3 LTS
# www.blender.org
mtllib Parrilla.mtl
g Car.001_Malla
v -8.796124 1.757288 -19.149261
v 8.660655 1.757288 -19.149261
v -4.431555 2.207289 -19.599262
v 4.296834 2.207289 -19.599262
v -9.066986 -0.830212 -19.599262
v 8.933013 -0.830212 -19.599262
v -4.566987 -0.830230 -20.499264
v 4.433013 -0.830230 -20.499264
v 4.639437 1.592624 -19.397949
v 8.348680 1.525124 -19.015450
v -8.484013 1.525124 -19.015450
v -4.774140 1.592624 -19.397949
v 4.755186 -0.674260 -20.162951
v 8.580186 -0.674251 -19.397949
v -8.714259 -0.674251 -19.397949
v -4.889259 -0.674260 -20.162951
v -0.066987 2.207289 -19.734262
v -4.431555 2.207289 -19.599262
v 4.296834 2.207289 -19.599262
v -0.066987 -0.830239 -20.634262
v -4.566987 -0.830230 -20.499264
v 4.433013 -0.830230 -20.499264
vn -0.4572 0.1054 -0.8831
vn 0.0990 0.8632 -0.4951
vn 0.0990 0.8631 -0.4952
vn 0.7057 0.2425 -0.6657
vn -0.0723 -0.3648 -0.9283
vn -0.0990 0.8631 -0.4952
vn 0.0723 -0.3648 -0.9283
vn 0.4572 0.1057 -0.8830
vn -0.7056 0.2423 -0.6659
vn -0.0000 0.2851 -0.9585
vn -0.0291 0.2847 -0.9582
vn -0.0000 0.2844 -0.9587
vn 0.0291 0.2847 -0.9582
vn 0.4572 0.1057 -0.8831
vn -0.0290 0.2847 -0.9582
vn 0.0287 0.2852 -0.9581
vn -0.1478 0.2568 -0.9551
vn -0.1477 0.2568 -0.9551
vn 0.1478 0.2569 -0.9551
vt 0.307955 0.271520
vt 0.575136 0.232644
vt 0.336936 0.217779
vt 0.609112 0.285986
vt 0.576685 -0.298035
vt 0.610295 -0.361899
vt 0.319902 -0.290993
vt 0.974424 -0.365714
vt 0.891308 0.212069
vt 0.920971 0.265211
vt 0.620048 0.285871
vt 0.645003 -0.298747
vt 0.610582 -0.361903
vt 0.246450 -0.358088
vt 0.653336 0.231834
vt 0.901839 -0.297079
vt 0.493436 0.287567
vt 0.025749 0.737307
vt 0.496213 0.727058
vt 0.966664 0.727451
vt 0.008385 0.297970
vt 0.978554 0.287807
s 1
g off
g Car.001_Material.001
usemtl Material.001
f 2/1/1 14/2/1 10/3/1
s 2
f 6/4/2 13/5/3 14/2/2
s 3
f 8/6/4 9/7/4 13/5/4
s 4
f 3/8/5 11/9/5 1/10/5
s 5
f 5/11/6 16/12/6 7/13/6
s 6
f 4/14/7 10/3/7 9/7/7
s 7
f 1/10/8 15/15/8 5/11/8
s 8
f 7/13/9 12/16/9 3/8/9
s 9
f 20/17/10 18/18/11 17/19/12
f 19/20/13 20/17/10 17/19/12
s 2
f 6/4/2 8/6/3 13/5/3
s 3
f 8/6/4 4/14/4 9/7/4
s 10
f 5/11/6 15/15/6 16/12/6
s 6
f 4/14/7 2/1/7 10/3/7
s 11
f 1/10/14 11/9/14 15/15/14
s 9
f 20/17/10 21/21/15 18/18/11
f 19/20/13 22/22/16 20/17/10
s 1
f 2/1/1 6/4/1 14/2/1
s 12
f 3/8/5 12/16/5 11/9/5
s 13
f 7/13/9 16/12/9 12/16/9
s 14
g Car.001_
usemtl 
f 16/12/17 11/9/17 12/16/18
s 15
f 10/3/19 13/5/19 9/7/19
s 14
f 16/12/17 15/15/17 11/9/17
s 15
f 10/3/19 14/2/19 13/5/19
