# Blender 4.5.3 LTS
# www.blender.org
mtllib PuertaDerecha.mtl
g PuertaDerecha_Malla
v 1.141521 9.849869 -1.097295
v 1.151483 10.874979 -1.096475
v 1.109451 9.835699 -1.087216
v 1.002705 10.659453 -1.086483
v 1.333673 9.849869 -1.098634
v 1.310903 10.874979 -1.097579
v 1.365660 9.835699 -1.088990
v 1.461742 10.659453 -1.089659
v 1.151483 11.028515 -1.096475
v 1.002705 11.217480 -1.086483
v 1.461742 11.217480 -1.089659
v 1.310903 11.028515 -1.097579
v 1.397213 10.676385 -1.099182
v 1.066710 10.676385 -1.096890
v 1.397213 11.217617 -1.099182
v 1.066710 11.217617 -1.096890
v 1.333438 10.874085 -1.525282
v 1.168718 10.882664 -1.528290
v 1.333438 11.016516 -1.525282
v 1.168718 11.006661 -1.528290
v 1.335386 10.847821 -1.568283
v 1.184866 10.871141 -1.565895
v 1.335386 11.043280 -1.568283
v 1.184866 11.018185 -1.565895
v 1.696054 11.033831 -1.526261
v 1.696054 10.864360 -1.526261
v 1.696222 11.039145 -1.574068
v 1.696222 10.859035 -1.574068
v 1.002634 10.659453 -1.066759
v 1.109381 9.835699 -1.067503
v 1.365587 9.835699 -1.069277
v 1.461672 10.659453 -1.069936
v 1.002634 11.217480 -1.066759
v 1.461672 11.217480 -1.069936
v 2.462538 11.038549 -1.530374
v 2.462538 10.861405 -1.530374
v 2.462719 11.038549 -1.580570
v 2.462719 10.861405 -1.580570
v 2.734782 11.016410 -1.538538
v 2.734782 10.883546 -1.538538
v 2.734918 11.016410 -1.576177
v 2.734918 10.883546 -1.576177
v 1.167446 10.895057 -1.180833
v 1.167446 10.994268 -1.180833
v 1.295545 10.994268 -1.181714
v 1.295545 10.895057 -1.181714
v 1.168411 10.895057 -1.446125
v 1.168411 10.994268 -1.446125
v 1.296522 10.994268 -1.447018
v 1.296522 10.895057 -1.447018
v 1.103455 10.064225 -1.097932
v 1.036860 10.064225 -1.086710
v 1.436123 10.064225 -1.089481
v 1.369619 10.064225 -1.099779
v 1.036789 10.064225 -1.066997
v 1.436050 10.064225 -1.069758
v 1.132445 11.385770 -1.097240
v 1.100917 11.394623 -1.087156
v 1.372067 11.394623 -1.089034
v 1.339543 11.385770 -1.098672
v 1.100844 11.394623 -1.067444
v 1.371998 11.394623 -1.069322
v 1.140523 9.849869 -0.823040
v 1.150490 10.874979 -0.824006
v 1.108523 9.835699 -0.832673
v 1.001778 10.659453 -0.831940
v 1.332675 9.849869 -0.824368
v 1.309897 10.874979 -0.825109
v 1.364733 9.835699 -0.834447
v 1.460814 10.659453 -0.835116
v 1.150490 11.028515 -0.824006
v 1.001778 11.217480 -0.831940
v 1.460814 11.217480 -0.835116
v 1.309897 11.028515 -0.825109
v 1.396209 10.676385 -0.824700
v 1.065704 10.676385 -0.822409
v 1.396209 11.217617 -0.824700
v 1.065704 11.217617 -0.822409
v 1.329324 10.874085 -0.397690
v 1.164564 10.882664 -0.392402
v 1.329324 11.016516 -0.397690
v 1.164564 11.006661 -0.392402
v 1.330961 10.847821 -0.354718
v 1.180445 10.871141 -0.355020
v 1.330961 11.043280 -0.354718
v 1.180445 11.018185 -0.355020
v 1.691944 11.033831 -0.401736
v 1.691944 10.864360 -0.401736
v 1.691766 11.039145 -0.353928
v 1.691766 10.859035 -0.353928
v 1.001847 10.659453 -0.851653
v 1.108595 9.835699 -0.852396
v 1.364801 9.835699 -0.854170
v 1.460886 10.659453 -0.854829
v 1.001847 11.217480 -0.851653
v 1.460886 11.217480 -0.854829
v 2.458442 11.038549 -0.408238
v 2.458442 10.861405 -0.408238
v 2.458248 11.038549 -0.358041
v 2.458248 10.861405 -0.358041
v 2.730640 11.016410 -0.403845
v 2.730640 10.883546 -0.403845
v 2.730493 11.016410 -0.366206
v 2.730493 10.883546 -0.366206
v 1.165836 10.895057 -0.739859
v 1.165836 10.994268 -0.739859
v 1.293933 10.994268 -0.740751
v 1.293933 10.895057 -0.740751
v 1.164869 10.895057 -0.474567
v 1.164869 10.994268 -0.474567
v 1.292967 10.994268 -0.475448
v 1.292967 10.895057 -0.475448
v 1.102437 10.064225 -0.821879
v 1.035933 10.064225 -0.832167
v 1.435195 10.064225 -0.834938
v 1.368614 10.064225 -0.823716
v 1.036003 10.064225 -0.851890
v 1.435266 10.064225 -0.854651
v 1.131449 11.385770 -0.822974
v 1.099989 11.394623 -0.832613
v 1.371140 11.394623 -0.834492
v 1.338546 11.385770 -0.824406
v 1.100060 11.394623 -0.852337
v 1.371212 11.394623 -0.854215
v 1.089719 10.332609 -1.097759
v 1.009501 10.660824 -1.093168
v 1.019789 10.332609 -1.086602
v 1.045204 10.064225 -1.093498
v 1.422512 9.906776 -1.089387
v 1.365636 9.835699 -1.079801
v 1.422441 9.906776 -1.069664
v 1.436085 10.064225 -1.080291
v 1.448938 10.332609 -1.089570
v 1.454928 10.660824 -1.096251
v 1.379018 10.332609 -1.099759
v 1.427832 10.064225 -1.096143
v 1.232198 10.604692 -1.098662
v 1.236531 10.064225 -1.100201
v 1.237561 9.814442 -1.088108
v 1.360206 9.838123 -1.095560
v 1.237597 9.840546 -1.098556
v 1.114967 9.838123 -1.093859
v 1.466549 10.974998 -1.089695
v 1.461704 10.659453 -1.080470
v 1.466476 10.974998 -1.069972
v 1.461704 11.217480 -1.080470
v 1.232198 11.264756 -1.098662
v 1.373817 11.346633 -1.099570
v 1.236355 11.391594 -1.098549
v 1.094771 11.346633 -1.097642
v 1.454928 11.217978 -1.096251
v 1.435238 10.973287 -1.098651
v 1.027452 10.973287 -1.095832
v 1.009501 11.217978 -1.093168
v 0.996297 10.974998 -1.086438
v 1.144396 10.944663 -1.445966
v 1.168644 10.893516 -1.507490
v 1.144693 10.944663 -1.528345
v 1.168644 10.995821 -1.507490
v 1.231187 10.846195 -1.097027
v 1.117635 10.822397 -1.095042
v 1.344892 10.822397 -1.096606
v 1.231187 11.057300 -1.097027
v 1.344892 11.102642 -1.096606
v 1.117635 11.102642 -1.095042
v 1.340790 10.951753 -1.097787
v 1.121594 10.951753 -1.096267
v 1.335419 10.945545 -1.575675
v 1.462169 10.854093 -1.570241
v 1.696255 10.949096 -1.583031
v 1.462169 11.040547 -1.570241
v 1.232469 11.012869 -1.446571
v 1.236569 11.030928 -1.527868
v 1.300545 10.996608 -1.507730
v 1.320540 10.944663 -1.447177
v 1.360186 10.945492 -1.519052
v 1.300545 10.892857 -1.507730
v 1.232469 10.876456 -1.446571
v 1.236569 10.858536 -1.527868
v 1.239788 10.847949 -1.568533
v 1.239788 11.041600 -1.568533
v 1.174350 10.944663 -1.569635
v 1.335124 10.829614 -1.548188
v 1.171535 10.864264 -1.549952
v 1.171535 11.025061 -1.549952
v 1.335124 11.061422 -1.548188
v 1.696145 11.069257 -1.550159
v 2.083481 11.038624 -1.577787
v 2.462628 11.071765 -1.555467
v 2.083290 11.037965 -1.527902
v 1.462480 11.024519 -1.526699
v 1.696023 10.949096 -1.517297
v 1.462480 10.870069 -1.526699
v 1.696145 10.828923 -1.550159
v 1.360704 9.908615 -1.099557
v 1.114223 9.908615 -1.097848
v 1.052341 9.906776 -1.086820
v 1.036835 10.064225 -1.077532
v 1.052271 9.906776 -1.067108
v 1.109426 9.835699 -1.078027
v 1.237492 9.814442 -1.068385
v 1.440858 11.345909 -1.069794
v 1.372043 11.394623 -1.079846
v 1.440928 11.345909 -1.089517
v 1.002666 11.217480 -1.077293
v 0.996224 10.974998 -1.066715
v 1.002666 10.659453 -1.077293
v 1.019716 10.332609 -1.066879
v 2.669620 11.034766 -1.580920
v 2.743968 11.030971 -1.557414
v 2.669445 11.034766 -1.532886
v 2.462507 10.949978 -1.520970
v 2.083290 10.861767 -1.527902
v 2.462628 10.828189 -1.555467
v 2.083481 10.861108 -1.577787
v 2.462749 10.949978 -1.589974
v 2.743886 10.949978 -1.534474
v 2.744051 10.949978 -1.580366
v 2.743968 10.868983 -1.557414
v 2.669445 10.865200 -1.532886
v 2.669620 10.865200 -1.580920
v 1.297262 10.892549 -1.114731
v 1.231503 10.876456 -1.181268
v 1.165243 10.892549 -1.113820
v 1.297262 10.998552 -1.114731
v 1.319574 10.944663 -1.181885
v 1.165243 10.998552 -1.113820
v 1.231503 11.012869 -1.181268
v 1.143430 10.944663 -1.180663
v 1.296041 10.895057 -1.315711
v 1.167932 10.895057 -1.314819
v 1.296041 10.994268 -1.315711
v 1.167932 10.994268 -1.314819
v 1.448854 10.332609 -1.069846
v 1.237292 11.407909 -1.088100
v 1.106278 11.393113 -1.093806
v 1.366573 11.393113 -1.095604
v 1.237223 11.407909 -1.068387
v 1.100880 11.394623 -1.077967
v 1.027785 11.345909 -1.086655
v 1.027715 11.345909 -1.066931
v 1.088708 10.332609 -0.821857
v 1.044223 10.064225 -0.825505
v 1.018847 10.332609 -0.832059
v 1.008528 10.660824 -0.825336
v 1.421585 9.906776 -0.834844
v 1.435221 10.064225 -0.844127
v 1.421656 9.906776 -0.854557
v 1.364770 9.835699 -0.843636
v 1.447998 10.332609 -0.835027
v 1.426849 10.064225 -0.828160
v 1.378006 10.332609 -0.823867
v 1.453954 10.660824 -0.828430
v 1.235523 10.064225 -0.821458
v 1.231194 10.604692 -0.822933
v 1.236633 9.814442 -0.833566
v 1.113992 9.838123 -0.826103
v 1.236599 9.840546 -0.823117
v 1.359228 9.838123 -0.827804
v 1.465621 10.974998 -0.835153
v 1.460853 11.217480 -0.844306
v 1.465692 10.974998 -0.854865
v 1.460853 10.659453 -0.844306
v 1.231194 11.264756 -0.822933
v 1.093764 11.346633 -0.822052
v 1.235342 11.391594 -0.823109
v 1.372810 11.346633 -0.823980
v 1.434247 10.973287 -0.825752
v 1.453954 11.217978 -0.828430
v 0.995369 10.974998 -0.831895
v 1.008528 11.217978 -0.825336
v 1.026462 10.973287 -0.822932
v 1.140841 10.944663 -0.474396
v 1.164639 10.995821 -0.413201
v 1.140541 10.944663 -0.392017
v 1.164639 10.893516 -0.413201
v 1.230194 10.846195 -0.824558
v 1.343899 10.822397 -0.826547
v 1.116654 10.822397 -0.824973
v 1.230194 11.057300 -0.824558
v 1.116654 11.102642 -0.824973
v 1.343899 11.102642 -0.826547
v 1.339798 10.951753 -0.825318
v 1.120589 10.951753 -0.823797
v 1.330931 10.945545 -0.347326
v 1.457723 11.040547 -0.354513
v 1.691733 10.949096 -0.344965
v 1.457723 10.854093 -0.354513
v 1.228912 11.012869 -0.475002
v 1.296558 10.996608 -0.414787
v 1.232435 11.030928 -0.393767
v 1.316984 10.944663 -0.475618
v 1.296558 10.892857 -0.414787
v 1.356109 10.945492 -0.404286
v 1.228912 10.876456 -0.475002
v 1.232435 10.858536 -0.393767
v 1.235357 10.847949 -0.353139
v 1.169904 10.944663 -0.351130
v 1.235357 11.041600 -0.353139
v 1.167233 10.864264 -0.370776
v 1.330841 10.829614 -0.374801
v 1.167233 11.025061 -0.370776
v 1.330841 11.061422 -0.374801
v 1.691854 11.069257 -0.377837
v 2.079189 11.037965 -0.405465
v 2.458350 11.071765 -0.383145
v 2.079014 11.038624 -0.355570
v 1.458361 10.870069 -0.398053
v 1.691978 10.949096 -0.410699
v 1.458361 11.024519 -0.398053
v 1.691854 10.828923 -0.377837
v 1.359703 9.908615 -0.823817
v 1.113222 9.908615 -0.822108
v 1.051414 9.906776 -0.832278
v 1.108562 9.835699 -0.841862
v 1.051485 9.906776 -0.852001
v 1.035971 10.064225 -0.841356
v 1.236706 9.814442 -0.853278
v 1.440001 11.345909 -0.834974
v 1.371178 11.394623 -0.843681
v 1.440071 11.345909 -0.854687
v 1.001801 10.659453 -0.841118
v 0.995440 10.974998 -0.851608
v 1.001801 11.217480 -0.841118
v 1.018930 10.332609 -0.851772
v 2.665341 11.034766 -0.408598
v 2.739692 11.030971 -0.385093
v 2.665155 11.034766 -0.360554
v 2.079189 10.861767 -0.405465
v 2.458472 10.949978 -0.417642
v 2.079014 10.861108 -0.355570
v 2.458350 10.828189 -0.383145
v 2.458218 10.949978 -0.348637
v 2.739774 10.949978 -0.408034
v 2.739692 10.868983 -0.385093
v 2.739610 10.949978 -0.362142
v 2.665341 10.865200 -0.408598
v 2.665155 10.865200 -0.360554
v 1.164118 10.892549 -0.806843
v 1.229891 10.876456 -0.740305
v 1.296137 10.892549 -0.807764
v 1.317951 10.944663 -0.740911
v 1.296137 10.998552 -0.807764
v 1.229891 11.012869 -0.740305
v 1.164118 10.998552 -0.806843
v 1.141818 10.944663 -0.739700
v 1.165339 10.895057 -0.605873
v 1.293447 10.895057 -0.606755
v 1.293447 10.994268 -0.606755
v 1.165339 10.994268 -0.605873
v 1.448070 10.332609 -0.854740
v 1.236364 11.407909 -0.833557
v 1.365584 11.393113 -0.827847
v 1.105302 11.393113 -0.826049
v 1.100027 11.394623 -0.841803
v 1.236436 11.407909 -0.853280
v 1.026929 11.345909 -0.851825
v 1.026857 11.345909 -0.832112
v 1.028338 10.332981 -1.093365
v 1.422474 9.906776 -1.080198
v 1.440405 10.332981 -1.096225
v 1.234385 10.327316 -1.100013
v 1.237592 9.817715 -1.094769
v 1.466511 10.974998 -1.080506
v 1.234352 11.350534 -1.099808
v 1.462185 10.974956 -1.096215
v 1.000673 10.974956 -1.093013
v 1.144612 10.944663 -1.507341
v 1.231298 10.771058 -1.095879
v 1.231298 11.150282 -1.095879
v 1.385175 10.964730 -1.096804
v 1.077253 10.964730 -1.094669
v 1.462191 10.947321 -1.578333
v 1.233449 11.015123 -1.507789
v 1.325463 10.944758 -1.507348
v 1.233449 10.874224 -1.507789
v 1.238774 10.944769 -1.575709
v 1.238113 10.830549 -1.549210
v 1.148485 10.944663 -1.550749
v 1.238113 11.058978 -1.549210
v 2.083385 11.071457 -1.552845
v 1.464543 10.947309 -1.518675
v 1.462031 10.830167 -1.548568
v 1.462031 11.064464 -1.548568
v 1.237473 9.907701 -1.099994
v 1.052302 9.906776 -1.077631
v 1.237525 9.814442 -1.078919
v 1.440889 11.345909 -1.080328
v 0.996258 10.974998 -1.077249
v 1.019751 10.332609 -1.077413
v 2.670429 11.066642 -1.556910
v 2.083259 10.949871 -1.518541
v 2.083385 10.828275 -1.552845
v 2.083512 10.949871 -1.587148
v 2.763115 10.949978 -1.557557
v 2.670314 10.949978 -1.523856
v 2.670429 10.833313 -1.556910
v 2.670547 10.949978 -1.589966
v 1.231248 10.872672 -1.114275
v 1.322011 10.945545 -1.114903
v 1.231248 11.018417 -1.114275
v 1.140494 10.945545 -1.113648
v 1.231987 10.876456 -1.315265
v 1.320060 10.944663 -1.315881
v 1.231987 11.012869 -1.315265
v 1.143912 10.944663 -1.314659
v 1.414785 9.907233 -1.096025
v 1.448900 10.332609 -1.080381
v 1.060113 9.907233 -1.093569
v 1.237194 11.405858 -1.094767
v 1.237255 11.407909 -1.078921
v 1.027761 11.345909 -1.077466
v 1.432769 11.345783 -1.096140
v 1.035938 11.345783 -1.093394
v 1.027369 10.332981 -0.825404
v 1.421610 9.906776 -0.844033
v 1.439436 10.332981 -0.828253
v 1.233365 10.327316 -0.821615
v 1.236605 9.817715 -0.826894
v 1.465646 10.974998 -0.844331
v 1.233334 11.350534 -0.821818
v 1.461205 10.974956 -0.828566
v 0.999705 10.974956 -0.825375
v 1.140621 10.944663 -0.413010
v 1.230310 10.771058 -0.825702
v 1.230310 11.150282 -0.825702
v 1.384190 10.964730 -0.826917
v 1.076269 10.964730 -0.824782
v 1.457688 10.947321 -0.346421
v 1.229445 11.015123 -0.413801
v 1.321483 10.944758 -0.415513
v 1.229445 10.874224 -0.413801
v 1.234294 10.944769 -0.345950
v 1.233813 10.830549 -0.372444
v 1.144170 10.944663 -0.369658
v 1.233813 11.058978 -0.372444
v 2.079108 11.071457 -0.380513
v 1.460485 10.947309 -0.406116
v 1.457757 10.830167 -0.376183
v 1.457757 11.064464 -0.376183
v 1.236453 9.907701 -0.821671
v 1.051453 9.906776 -0.841467
v 1.236660 9.814442 -0.842744
v 1.440025 11.345909 -0.844152
v 0.995406 10.974998 -0.841074
v 1.018886 10.332609 -0.841237
v 2.666153 11.066642 -0.384578
v 2.079235 10.949871 -0.414816
v 2.079108 10.828275 -0.380513
v 2.078980 10.949871 -0.346209
v 2.758839 10.949978 -0.385225
v 2.666268 10.949978 -0.417633
v 2.666153 10.833313 -0.384578
v 2.666023 10.949978 -0.351523
v 1.230134 10.872672 -0.807298
v 1.320899 10.945545 -0.807926
v 1.230134 11.018417 -0.807298
v 1.139370 10.945545 -0.806671
v 1.229394 10.876456 -0.606309
v 1.317467 10.944663 -0.606925
v 1.229394 11.012869 -0.606309
v 1.141320 10.944663 -0.605703
v 1.413803 9.907233 -0.828096
v 1.448035 10.332609 -0.844216
v 1.059138 9.907233 -0.825640
v 1.236220 11.405858 -0.826892
v 1.236403 11.407909 -0.842746
v 1.026896 11.345909 -0.841301
v 1.431795 11.345783 -0.828233
v 1.034966 11.345783 -0.825487
v 10.652327 0.289021 -0.918482
v 10.653112 0.289021 -1.133589
v 9.628281 2.946288 -1.126493
v 10.652327 7.392779 -0.918484
v 10.653112 7.392779 -1.133591
v 10.652327 14.496546 -0.918484
v 10.653112 14.496546 -1.133591
v 10.652327 21.600304 -0.918486
v 10.653112 21.600304 -1.133593
v 5.496154 20.749977 -0.882780
v 5.496154 21.600304 -0.882780
v 5.496941 21.600304 -1.097887
v 5.496941 20.749977 -1.097887
v 1.364801 20.749977 -0.854170
v 0.339984 21.600304 -0.847076
v 0.340770 21.600304 -1.062183
v 0.339984 14.496546 -0.847074
v 0.340770 14.496546 -1.062181
v 0.339984 7.392779 -0.847074
v 0.340770 7.392779 -1.062181
v 1.365587 8.880848 -1.069277
v 0.339984 0.289021 -0.847072
v 0.340770 0.289021 -1.062179
v 1.365587 2.946288 -1.069275
v 5.496154 2.946288 -0.882778
v 5.496154 0.289021 -0.882778
v 5.496941 0.289021 -1.097885
v 5.496941 2.946288 -1.097885
v 8.987768 3.477744 -1.122054
v 8.923906 3.530889 -1.175387
v 8.859657 3.584034 -1.121171
v 8.603449 3.796616 -1.119398
v 8.539202 3.849761 -1.065171
v 8.987768 8.349396 -1.122054
v 8.923906 8.296250 -1.175387
v 8.859657 8.243105 -1.121172
v 8.603449 8.030523 -1.119398
v 8.539202 7.977378 -1.065172
v 6.137455 8.349396 -1.102315
v 6.201703 8.296250 -1.156541
v 6.265564 8.243105 -1.103208
v 6.521771 8.030523 -1.104982
v 6.585621 7.977378 -1.051648
v 6.137455 3.477744 -1.102315
v 6.201703 3.530889 -1.156541
v 6.265564 3.584034 -1.103208
v 6.521771 3.796616 -1.104982
v 6.585621 3.849761 -1.051648
v 8.538815 3.849761 -0.957624
v 8.602665 3.796616 -0.904290
v 8.858871 3.584034 -0.906064
v 8.922733 3.530889 -0.852731
v 8.986982 3.477744 -0.906946
v 9.627495 2.946288 -0.911386
v 8.538815 7.977378 -0.957624
v 8.602665 8.030523 -0.904291
v 8.858871 8.243105 -0.906065
v 8.922733 8.296250 -0.852732
v 8.986982 8.349396 -0.906947
v 6.585235 7.977378 -0.944090
v 6.520987 8.030523 -0.889875
v 6.264779 8.243105 -0.888101
v 6.200531 8.296250 -0.833875
v 6.136669 8.349396 -0.887208
v 6.585235 3.849761 -0.944090
v 6.520987 3.796616 -0.889875
v 6.264779 3.584034 -0.888101
v 6.200531 3.530889 -0.833875
v 6.136669 3.477744 -0.887208
v 9.628281 8.880848 -1.126495
v 8.987768 9.412302 -1.122054
v 8.923906 9.465446 -1.175387
v 8.859657 9.518593 -1.121172
v 8.603449 9.731174 -1.119398
v 8.539202 9.784319 -1.065172
v 8.987768 14.283964 -1.122054
v 8.923906 14.230820 -1.175387
v 8.859657 14.177674 -1.121172
v 8.603449 13.965093 -1.119398
v 8.539202 13.911947 -1.065172
v 6.137455 14.283964 -1.102317
v 6.201703 14.230820 -1.156542
v 6.265564 14.177674 -1.103208
v 6.521771 13.965093 -1.104982
v 6.585621 13.911947 -1.051648
v 6.137455 9.412302 -1.102315
v 6.201703 9.465446 -1.156541
v 6.265564 9.518593 -1.103207
v 6.521771 9.731174 -1.104982
v 6.585621 9.784319 -1.051648
v 8.538815 9.784319 -0.957624
v 8.602665 9.731174 -0.904291
v 8.858871 9.518593 -0.906065
v 8.922733 9.465446 -0.852732
v 8.986982 9.412302 -0.906947
v 9.627495 8.880848 -0.911388
v 8.538815 13.911947 -0.957624
v 8.602665 13.965093 -0.904291
v 8.858871 14.177674 -0.906065
v 8.922733 14.230820 -0.852732
v 8.986982 14.283964 -0.906947
v 6.585235 13.911947 -0.944091
v 6.520987 13.965093 -0.889876
v 6.264779 14.177674 -0.888103
v 6.200531 14.230820 -0.833877
v 6.136669 14.283964 -0.887210
v 6.585235 9.784319 -0.944090
v 6.520987 9.731174 -0.889875
v 6.264779 9.518593 -0.888101
v 6.200531 9.465446 -0.833875
v 6.136669 9.412302 -0.887208
v 9.628281 14.815418 -1.126494
v 8.987768 15.346872 -1.122054
v 8.923906 15.400017 -1.175387
v 8.859657 15.453163 -1.121172
v 8.603449 15.665744 -1.119398
v 8.539202 15.718889 -1.065172
v 9.628281 20.749977 -1.126496
v 8.987768 20.218525 -1.122056
v 8.923906 20.165379 -1.175389
v 8.859657 20.112234 -1.121174
v 8.603449 19.899652 -1.119400
v 8.539202 19.846508 -1.065174
v 6.137455 20.218525 -1.102317
v 6.201703 20.165379 -1.156543
v 6.265564 20.112234 -1.103209
v 6.521771 19.899652 -1.104984
v 6.585621 19.846508 -1.051650
v 6.137455 15.346872 -1.102317
v 6.201703 15.400017 -1.156543
v 6.265564 15.453163 -1.103209
v 6.521771 15.665744 -1.104984
v 6.585621 15.718889 -1.051650
v 8.538815 15.718889 -0.957624
v 8.602665 15.665744 -0.904291
v 8.858871 15.453163 -0.906065
v 8.922733 15.400017 -0.852732
v 8.986982 15.346872 -0.906947
v 9.627495 14.815418 -0.911388
v 8.538815 19.846508 -0.957626
v 8.602665 19.899652 -0.904293
v 8.858871 20.112234 -0.906067
v 8.922733 20.165379 -0.852734
v 8.986982 20.218525 -0.906949
v 9.627495 20.749977 -0.911389
v 6.585235 19.846508 -0.944092
v 6.520987 19.899652 -0.889877
v 6.264779 20.112234 -0.888103
v 6.200531 20.165379 -0.833877
v 6.136669 20.218525 -0.887210
v 6.585235 15.718889 -0.944092
v 6.520987 15.665744 -0.889877
v 6.264779 15.453163 -0.888103
v 6.200531 15.400017 -0.833877
v 6.136669 15.346872 -0.887210
v 4.856416 3.477744 -1.093444
v 4.792566 3.530889 -1.146778
v 4.728318 3.584034 -1.092563
v 4.472109 3.796616 -1.090788
v 4.407862 3.849761 -1.036563
v 5.496941 8.880848 -1.097885
v 4.856416 8.349396 -1.093444
v 4.792566 8.296250 -1.146778
v 4.728318 8.243105 -1.092563
v 4.472109 8.030523 -1.090788
v 4.407862 7.977378 -1.036563
v 2.006115 8.349396 -1.073707
v 2.070362 8.296250 -1.127931
v 2.134212 8.243105 -1.074598
v 2.390419 8.030523 -1.076373
v 2.454282 7.977378 -1.023039
v 2.006115 3.477744 -1.073706
v 2.070362 3.530889 -1.127931
v 2.134212 3.584034 -1.074598
v 2.390419 3.796616 -1.076372
v 2.454282 3.849761 -1.023039
v 4.407462 3.849761 -0.929015
v 4.471323 3.796616 -0.875682
v 4.727531 3.584034 -0.877456
v 4.791380 3.530889 -0.824122
v 4.855629 3.477744 -0.878337
v 4.407462 7.977378 -0.929015
v 4.471323 8.030523 -0.875682
v 4.727531 8.243105 -0.877456
v 4.791380 8.296250 -0.824122
v 4.855629 8.349396 -0.878337
v 2.453882 7.977378 -0.915480
v 2.389633 8.030523 -0.861265
v 2.133427 8.243105 -0.859491
v 2.069179 8.296250 -0.805265
v 2.005328 8.349396 -0.858599
v 1.364801 8.880848 -0.854170
v 2.453882 3.849761 -0.915480
v 2.389633 3.796616 -0.861265
v 2.133427 3.584034 -0.859491
v 2.069179 3.530889 -0.805265
v 2.005328 3.477744 -0.858599
v 1.364801 2.946288 -0.854169
v 4.856416 9.412302 -1.093444
v 4.792566 9.465446 -1.146778
v 4.728318 9.518593 -1.092563
v 4.472109 9.731174 -1.090788
v 4.407862 9.784319 -1.036563
v 5.496941 14.815418 -1.097887
v 4.856416 14.283964 -1.093446
v 4.792566 14.230820 -1.146780
v 4.728318 14.177674 -1.092565
v 4.472109 13.965093 -1.090790
v 4.407862 13.911947 -1.036565
v 2.006115 14.283964 -1.073707
v 2.070362 14.230820 -1.127933
v 2.134212 14.177674 -1.074600
v 2.390419 13.965093 -1.076374
v 2.454282 13.911947 -1.023041
v 2.006115 9.412302 -1.073707
v 2.070362 9.465446 -1.127932
v 2.134212 9.518593 -1.074600
v 2.390419 9.731174 -1.076373
v 2.454282 9.784319 -1.023041
v 4.407462 9.784319 -0.929015
v 4.471323 9.731174 -0.875682
v 4.727531 9.518593 -0.877456
v 4.791380 9.465446 -0.824122
v 4.855629 9.412302 -0.878337
v 5.496154 8.880848 -0.882778
v 4.407462 13.911947 -0.929017
v 4.471323 13.965093 -0.875684
v 4.727531 14.177674 -0.877458
v 4.791380 14.230820 -0.824124
v 4.855629 14.283964 -0.878339
v 2.453882 13.911947 -0.915482
v 2.389633 13.965093 -0.861267
v 2.133427 14.177674 -0.859493
v 2.069179 14.230820 -0.805267
v 2.005328 14.283964 -0.858601
v 1.364801 14.815418 -0.854170
v 2.453882 9.784319 -0.915482
v 2.389633 9.731174 -0.861267
v 2.133427 9.518593 -0.859493
v 2.069179 9.465446 -0.805267
v 2.005328 9.412302 -0.858601
v 4.856416 15.346872 -1.093446
v 4.792566 15.400017 -1.146780
v 4.728318 15.453163 -1.092565
v 4.472109 15.665744 -1.090790
v 4.407862 15.718889 -1.036565
v 4.856416 20.218525 -1.093446
v 4.792566 20.165379 -1.146779
v 4.728318 20.112234 -1.092564
v 4.472109 19.899652 -1.090790
v 4.407862 19.846508 -1.036565
v 1.365587 20.749977 -1.069278
v 2.006115 20.218525 -1.073707
v 2.070362 20.165379 -1.127933
v 2.134212 20.112234 -1.074600
v 2.390419 19.899652 -1.076374
v 2.454282 19.846508 -1.023041
v 1.365587 14.815418 -1.069277
v 2.006115 15.346872 -1.073707
v 2.070362 15.400017 -1.127933
v 2.134212 15.453163 -1.074600
v 2.390419 15.665744 -1.076374
v 2.454282 15.718889 -1.023041
v 4.407462 15.718889 -0.929017
v 4.471323 15.665744 -0.875684
v 4.727531 15.453163 -0.877458
v 4.791380 15.400017 -0.824124
v 4.855629 15.346872 -0.878339
v 5.496154 14.815418 -0.882780
v 4.407462 19.846508 -0.929017
v 4.471323 19.899652 -0.875683
v 4.727531 20.112234 -0.877458
v 4.791380 20.165379 -0.824124
v 4.855629 20.218525 -0.878339
v 2.453882 19.846508 -0.915482
v 2.389633 19.899652 -0.861267
v 2.133427 20.112234 -0.859493
v 2.069179 20.165379 -0.805267
v 2.005328 20.218525 -0.858601
v 2.453882 15.718889 -0.915482
v 2.389633 15.665744 -0.861267
v 2.133427 15.453163 -0.859493
v 2.069179 15.400017 -0.805267
v 2.005328 15.346872 -0.858601
vn -0.0716 -0.0032 -0.9974
vn -0.0374 0.0035 -0.9993
vn -0.0428 -0.0008 -0.9991
vn -0.6973 -0.0277 -0.7162
vn -0.6995 -0.0260 -0.7141
vn -0.6199 -0.0357 -0.7838
vn -0.6307 -0.0507 -0.7744
vn -0.6301 -0.0498 -0.7749
vn -0.0467 -0.0028 -0.9989
vn -0.0756 -0.0050 -0.9971
vn 0.7809 -0.6246 0.0028
vn 0.7809 -0.6246 0.0020
vn 0.9249 -0.3802 0.0038
vn 0.9249 -0.3802 0.0034
vn 0.9249 -0.3802 0.0029
vn 0.9978 -0.0669 0.0037
vn 0.9977 -0.0670 0.0036
vn 0.6921 -0.0214 -0.7215
vn 0.6140 -0.0269 -0.7888
vn 0.6149 -0.0270 -0.7881
vn 0.0575 -0.0026 -0.9983
vn 0.0568 -0.0021 -0.9984
vn 0.0289 -0.0003 -0.9996
vn 0.0620 -0.0040 -0.9981
vn 0.6313 -0.0417 -0.7744
vn -0.0069 0.0078 -0.9999
vn 0.0233 0.0038 -0.9997
vn -0.0069 0.0019 -1.0000
vn -0.0069 -0.0004 -1.0000
vn 0.0330 -0.0023 -0.9995
vn 0.1436 -0.8837 -0.4455
vn 0.1597 -0.9696 -0.1852
vn -0.0015 -0.9754 -0.2207
vn 0.0355 -0.0998 -0.9944
vn 0.0648 -0.0987 -0.9930
vn -0.0087 -0.1737 -0.9848
vn -0.0766 -0.0935 -0.9927
vn -0.0472 -0.0941 -0.9944
vn -0.1621 -0.9691 -0.1862
vn -0.1496 -0.8825 -0.4458
vn 0.9996 -0.0272 0.0041
vn 1.0000 0.0023 0.0042
vn 1.0000 0.0023 0.0037
vn 0.9996 -0.0272 0.0036
vn 1.0000 0.0023 0.0033
vn 0.9959 0.0901 0.0036
vn 0.9959 0.0901 0.0041
vn 0.0351 0.0364 -0.9987
vn 0.0232 -0.0028 -0.9997
vn -0.0067 -0.0139 -0.9999
vn 0.0286 0.1640 -0.9860
vn -0.0070 0.0087 -0.9999
vn -0.0492 0.0404 -0.9980
vn -0.0416 0.1665 -0.9852
vn -0.0375 -0.0022 -0.9993
vn 0.8299 -0.0012 -0.5579
vn 0.6943 -0.0200 -0.7194
vn 0.6979 0.0635 -0.7134
vn 0.8296 -0.0013 -0.5584
vn 0.0591 0.0065 -0.9982
vn 0.0629 0.0007 -0.9980
vn 0.0181 -0.0005 -0.9998
vn -0.0773 0.0008 -0.9970
vn -0.0323 -0.0005 -0.9995
vn -0.0733 0.0078 -0.9973
vn -0.8311 -0.0006 -0.5562
vn -0.8313 -0.0005 -0.5558
vn -0.7034 0.0763 -0.7067
vn -0.9013 -0.4332 -0.0007
vn -0.9001 -0.4357 -0.0032
vn -0.9039 -0.4277 -0.0005
vn -0.9147 -0.3944 0.0880
vn -0.9206 -0.3864 -0.0569
vn -0.9206 0.3864 -0.0569
vn -0.9039 0.4276 -0.0005
vn -0.9147 0.3943 0.0879
vn -0.9001 0.4357 -0.0032
vn -0.9013 0.4332 -0.0007
vn -0.0000 0.0009 -1.0000
vn -0.0248 -0.0121 -0.9996
vn -0.0069 -0.0162 -0.9998
vn -0.0069 0.0043 -1.0000
vn -0.0142 0.0005 -0.9999
vn 0.0118 -0.0126 -0.9999
vn -0.0153 -0.0029 -0.9999
vn 0.0466 0.1305 -0.9904
vn -0.0069 0.1706 -0.9853
vn -0.0069 -0.0091 -0.9999
vn 0.0014 -0.0039 -1.0000
vn -0.0602 0.1304 -0.9896
vn 0.0191 -0.0020 -0.9998
vn -0.0119 0.0008 -0.9999
vn -0.0360 -0.0045 -0.9993
vn -0.0023 0.0005 -1.0000
vn -0.0162 -0.0866 -0.9961
vn -0.0068 -0.0777 -0.9970
vn -0.0075 -0.0002 -1.0000
vn -0.0136 -0.0975 -0.9951
vn -0.0172 0.0002 -0.9999
vn -0.0180 0.0865 -0.9961
vn -0.0144 0.0973 -0.9952
vn -0.0086 0.0777 -0.9969
vn -0.2751 0.9333 0.2307
vn -0.2788 0.9603 0.0110
vn -0.2805 0.9597 0.0133
vn -0.2662 0.8050 0.5303
vn -0.2903 0.9013 0.3215
vn -0.1019 0.6663 0.7387
vn 0.2072 0.7528 0.6248
vn 0.0933 0.6275 0.7730
vn 0.2720 0.9611 0.0475
vn 0.2789 0.9601 0.0203
vn 0.2755 0.9610 0.0245
vn 0.8996 0.4349 0.0392
vn 0.8994 0.4355 0.0386
vn 0.8981 0.4333 0.0752
vn 0.3460 0.2007 0.9165
vn 0.3282 -0.0220 0.9444
vn 0.1370 -0.0037 0.9906
vn 0.3769 -0.1876 0.9070
vn 0.0933 -0.3635 0.9269
vn 0.8997 -0.4348 0.0387
vn 0.8994 -0.4354 0.0392
vn 0.8983 -0.4332 0.0740
vn 0.2761 -0.9608 0.0237
vn 0.2789 -0.9601 0.0201
vn 0.2728 -0.9609 0.0463
vn 0.1008 -0.6365 0.7647
vn 0.2090 -0.7546 0.6220
vn -0.1025 -0.6778 0.7281
vn -0.2898 -0.9020 0.3201
vn -0.2751 -0.9333 0.2308
vn -0.2654 -0.8053 0.5301
vn -0.2805 -0.9598 0.0131
vn -0.2788 -0.9603 0.0109
vn -0.0342 -0.0726 -0.9968
vn -0.0428 -0.0002 -0.9991
vn -0.0347 0.0727 -0.9968
vn -0.0863 -0.0001 -0.9963
vn -0.0861 0.0695 -0.9939
vn -0.0860 -0.0695 -0.9939
vn 0.0151 -0.4804 0.8769
vn 0.0008 -0.7415 -0.6709
vn -0.1479 -0.7319 -0.6652
vn -0.1703 -0.7244 -0.6680
vn -0.3546 -0.7135 -0.6043
vn -0.3478 -0.7086 -0.6139
vn -0.2822 -0.7081 0.6473
vn -0.9447 -0.3101 0.1068
vn -0.9338 -0.3423 -0.1038
vn -0.6395 -0.1616 -0.7516
vn -0.6480 -0.0000 -0.7616
vn -0.6395 0.1616 -0.7516
vn -0.9338 0.3423 -0.1038
vn -0.9447 0.3101 0.1068
vn -0.2836 0.7077 0.6471
vn -0.3404 0.7006 -0.6271
vn -0.1580 0.7343 -0.6602
vn -0.0157 0.7420 -0.6702
vn -0.0136 0.7359 -0.6770
vn 0.0802 0.3822 0.9206
vn 0.0006 0.4919 0.8707
vn -0.0073 0.6052 -0.7961
vn -0.0101 0.6333 -0.7739
vn -0.0102 0.6326 -0.7744
vn 0.0017 0.6029 -0.7978
vn -0.0074 0.6044 -0.7966
vn 0.0023 0.5892 0.8080
vn 0.0036 0.3609 0.9326
vn 0.0126 0.6013 0.7990
vn -0.0068 0.5492 0.8357
vn -0.0043 0.3388 0.9408
vn -0.0087 0.3047 0.9524
vn -0.0020 -0.0000 1.0000
vn -0.0012 0.0001 1.0000
vn -0.0033 -0.2957 0.9553
vn -0.0002 -0.3406 0.9402
vn -0.0032 -0.4860 0.8739
vn -0.0035 -0.6244 -0.7811
vn 0.0049 -0.6772 -0.7358
vn 0.0066 -0.6688 -0.7434
vn 0.0026 -0.7358 -0.6772
vn -0.0072 0.6641 -0.7476
vn -0.0054 0.6580 -0.7530
vn -0.0137 0.4933 0.8697
vn 0.0381 -0.0226 -0.9990
vn -0.0069 -0.0108 -0.9999
vn -0.0520 -0.0227 -0.9984
vn -0.0058 -0.0943 -0.9955
vn -0.9967 -0.0807 -0.0035
vn -0.9967 -0.0807 -0.0027
vn -0.9223 -0.3865 -0.0035
vn -0.9967 -0.0807 -0.0043
vn -0.9223 -0.3865 -0.0032
vn -0.7795 -0.6264 -0.0027
vn -0.7795 -0.6264 -0.0033
vn -0.7795 -0.6264 -0.0022
vn -0.1637 -0.9865 -0.0006
vn -0.0000 -1.0000 -0.0000
vn 0.1637 -0.9865 0.0006
vn 0.1637 -0.9865 0.0007
vn 0.9871 0.1600 0.0030
vn 0.9959 0.0902 0.0031
vn 0.5776 0.8163 0.0017
vn 0.5776 0.8163 0.0021
vn 0.5775 0.8164 0.0016
vn 0.5776 0.8163 0.0024
vn 0.9871 0.1600 0.0042
vn -0.9940 0.1094 -0.0036
vn -0.9940 0.1095 -0.0041
vn -1.0000 0.0031 -0.0043
vn -1.0000 0.0031 -0.0037
vn -1.0000 0.0031 -0.0032
vn -0.9993 -0.0363 -0.0036
vn -0.9993 -0.0363 -0.0041
vn -0.9983 -0.0578 -0.0041
vn -0.9983 -0.0578 -0.0037
vn -0.9993 -0.0363 -0.0031
vn 0.0019 0.6032 -0.7976
vn 0.1183 0.6159 -0.7789
vn 0.1442 0.6181 -0.7728
vn 0.2647 0.6223 -0.7366
vn 0.2657 0.6568 0.7057
vn 0.1326 0.5941 0.7934
vn 0.1565 0.6064 0.7796
vn 0.0125 0.6013 0.7990
vn 0.0049 0.0001 1.0000
vn 0.0102 -0.0000 0.9999
vn 0.0049 -0.3643 0.9313
vn 0.0014 -0.5604 0.8282
vn 0.0129 -0.6024 0.7981
vn 0.0046 -0.5975 0.8019
vn 0.0019 -0.6030 -0.7977
vn -0.0051 -0.6054 -0.7959
vn -0.0050 -0.6048 -0.7963
vn -0.0030 -0.6213 -0.7836
vn -0.0085 -0.1039 -0.9946
vn -0.0138 0.0002 -0.9999
vn -0.0036 -0.1055 -0.9944
vn -0.0087 -0.0002 -1.0000
vn -0.0036 -0.0000 -1.0000
vn -0.0087 0.1035 -0.9946
vn 0.8069 0.1834 0.5615
vn 0.7683 -0.0000 0.6401
vn 0.7816 -0.0000 0.6238
vn 0.8068 0.1852 -0.5610
vn 0.8162 0.1939 -0.5442
vn 0.7809 -0.0000 -0.6247
vn 0.8162 -0.1939 -0.5442
vn 0.8069 -0.1853 -0.5609
vn 0.8069 -0.1834 0.5616
vn 0.0584 0.1062 0.9926
vn 0.0101 0.1056 0.9944
vn 0.1260 0.0959 0.9874
vn 0.0725 -0.0000 0.9974
vn 0.0584 -0.1062 0.9926
vn 0.1260 -0.0959 0.9874
vn 0.0102 -0.1056 0.9944
vn 0.0129 -0.6027 0.7979
vn 0.1326 -0.5939 0.7935
vn 0.1565 -0.6062 0.7798
vn 0.2656 -0.6568 0.7058
vn 0.2646 -0.6223 -0.7367
vn 0.1182 -0.6159 -0.7789
vn 0.1442 -0.6180 -0.7728
vn 0.0021 -0.6028 -0.7979
vn 0.0503 -0.1009 -0.9936
vn 0.1143 -0.0945 -0.9889
vn 0.0580 -0.0000 -0.9983
vn 0.0503 0.1009 -0.9936
vn 0.1143 0.0945 -0.9889
vn -0.0035 0.1056 -0.9944
vn 0.1820 -0.5896 -0.7870
vn -0.0057 -0.5458 -0.8379
vn -0.0058 -0.5627 -0.8266
vn 0.2833 -0.9578 -0.0484
vn 0.2876 -0.9563 -0.0529
vn 0.2811 -0.9594 -0.0238
vn -0.2813 -0.9593 -0.0256
vn -0.2883 -0.9560 -0.0551
vn -0.2839 -0.9575 -0.0505
vn -0.1924 -0.5877 -0.7858
vn 0.5656 0.2404 -0.7889
vn 0.6333 0.0240 -0.7735
vn 0.9012 0.4330 -0.0207
vn 0.9049 0.4226 -0.0502
vn 0.9025 0.4284 -0.0451
vn 0.9029 -0.4286 -0.0338
vn 0.9054 -0.4229 -0.0391
vn 0.9013 -0.4330 -0.0148
vn 0.6216 -0.2440 -0.7443
vn 0.6328 -0.2562 -0.7307
vn -0.0063 0.4252 -0.9051
vn -0.2832 0.9561 -0.0753
vn -0.2833 0.9561 -0.0753
vn -0.2813 0.9589 -0.0382
vn 0.2807 0.9591 -0.0364
vn 0.2868 0.9548 -0.0780
vn 0.2825 0.9564 -0.0735
vn -0.6369 -0.2537 -0.7280
vn -0.6260 -0.2417 -0.7414
vn -0.6376 0.0237 -0.7700
vn -0.9013 -0.4327 -0.0213
vn -0.9052 -0.4226 -0.0456
vn -0.9028 -0.4282 -0.0404
vn -0.9023 0.4279 -0.0516
vn -0.9047 0.4222 -0.0567
vn -0.9012 0.4326 -0.0271
vn -0.5713 0.2382 -0.7854
vn 0.2787 -0.9601 -0.0210
vn 0.2789 -0.9603 0.0010
vn -0.2789 -0.9603 -0.0010
vn -0.2789 -0.9600 -0.0233
vn 0.9000 0.4358 0.0033
vn 0.8998 0.4360 -0.0175
vn 0.9000 -0.4358 0.0033
vn 0.8999 -0.4360 -0.0119
vn -0.2789 0.9603 -0.0010
vn 0.2789 0.9603 0.0010
vn 0.2785 0.9598 -0.0336
vn -0.9001 -0.4358 -0.0033
vn -0.8999 -0.4356 -0.0187
vn -0.9001 0.4358 -0.0033
vn -0.8998 0.4356 -0.0243
vn 0.6317 -0.0423 -0.7741
vn 0.6182 -0.2367 -0.7495
vn 0.0637 -0.0254 -0.9976
vn 0.6106 -0.2831 -0.7396
vn 0.5859 -0.4675 -0.6620
vn 0.9990 -0.0434 0.0041
vn 0.9990 -0.0434 0.0042
vn 0.9990 -0.0434 0.0043
vn 0.9996 -0.0272 0.0031
vn -0.0776 -0.0259 -0.9966
vn -0.6195 -0.2855 -0.7313
vn -0.6281 -0.2391 -0.7405
vn -0.5900 -0.4655 -0.6597
vn -0.5887 -0.4648 -0.6613
vn -0.0947 0.9516 -0.2924
vn -0.0971 0.9885 -0.1161
vn 0.0001 0.9891 -0.1474
vn -0.0819 0.1419 -0.9865
vn -0.0060 0.2608 -0.9654
vn 0.0675 0.1347 -0.9886
vn 0.0966 0.9886 -0.1157
vn 0.0917 0.9509 -0.2955
vn 0.0005 1.0000 -0.0000
vn 0.0981 0.9952 0.0004
vn 0.0981 0.9952 0.0003
vn -0.0970 0.9953 -0.0004
vn -0.0970 0.9953 -0.0003
vn -0.9814 0.1918 -0.0027
vn -0.5544 0.8322 -0.0022
vn -0.5544 0.8323 -0.0015
vn -0.5544 0.8323 -0.0019
vn -0.5544 0.8322 -0.0024
vn -0.9940 0.1094 -0.0031
vn -0.9814 0.1918 -0.0043
vn 0.6285 0.1093 -0.7701
vn 0.6946 0.0706 -0.7160
vn 0.4792 0.6769 -0.5586
vn 0.4653 0.6635 -0.5859
vn 0.4660 0.6642 -0.5846
vn 0.0559 0.0331 -0.9979
vn -0.0699 0.0353 -0.9969
vn -0.4595 0.6838 -0.5668
vn -0.4588 0.6829 -0.5684
vn -0.4717 0.6966 -0.5406
vn -0.7002 0.0850 -0.7088
vn -0.6336 0.1294 -0.7627
vn -0.0618 -0.0050 0.9981
vn -0.0329 -0.0028 0.9995
vn -0.0290 -0.0008 0.9996
vn -0.6226 -0.0504 0.7809
vn -0.6231 -0.0511 0.7805
vn -0.6178 -0.0360 0.7855
vn -0.6975 -0.0263 0.7161
vn -0.6953 -0.0281 0.7182
vn -0.0237 0.0035 0.9997
vn -0.0579 -0.0032 0.9983
vn 0.9978 -0.0669 0.0035
vn 0.9249 -0.3802 0.0031
vn 0.9249 -0.3803 0.0033
vn 0.9249 -0.3802 0.0040
vn 0.7810 -0.6245 0.0027
vn 0.7810 -0.6245 0.0024
vn 0.7810 -0.6245 0.0031
vn 0.6298 -0.0412 0.7757
vn 0.6195 -0.0267 0.7845
vn 0.6204 -0.0267 0.7838
vn 0.0757 -0.0040 0.9971
vn 0.0705 -0.0021 0.9975
vn 0.0427 -0.0003 0.9991
vn 0.0660 -0.0015 0.9978
vn 0.6949 -0.0212 0.7188
vn 0.0468 -0.0023 0.9989
vn 0.0069 0.0021 1.0000
vn 0.0069 -0.0004 1.0000
vn 0.0069 0.0078 0.9999
vn 0.0341 0.0045 0.9994
vn -0.1436 -0.8836 0.4457
vn -0.1596 -0.9697 0.1848
vn 0.0015 -0.9754 0.2206
vn -0.0353 -0.0996 0.9944
vn -0.0646 -0.0986 0.9930
vn 0.0068 -0.1678 0.9858
vn 0.0724 -0.0984 0.9925
vn 0.0443 -0.0997 0.9940
vn 0.1621 -0.9690 0.1862
vn 0.1495 -0.8824 0.4461
vn 0.9959 0.0901 0.0042
vn 1.0000 0.0023 0.0027
vn 1.0000 0.0023 0.0035
vn 0.9959 0.0901 0.0037
vn 1.0000 0.0023 0.0043
vn 0.9996 -0.0272 0.0037
vn 0.9996 -0.0272 0.0042
vn -0.0360 0.0404 0.9985
vn -0.0234 -0.0026 0.9997
vn 0.0069 -0.0127 0.9999
vn -0.0282 0.1666 0.9856
vn 0.0070 0.0109 0.9999
vn 0.0487 0.0373 0.9981
vn 0.0420 0.1641 0.9855
vn 0.0374 -0.0035 0.9993
vn 0.0879 -0.0018 0.9961
vn 0.0436 -0.0082 0.9990
vn 0.0728 0.0065 0.9973
vn 0.8292 -0.0013 0.5590
vn 0.8295 -0.0011 0.5586
vn 0.7005 0.0629 0.7109
vn 0.6970 -0.0198 0.7168
vn -0.8315 -0.0005 0.5555
vn -0.7016 0.0771 0.7084
vn -0.8313 -0.0006 0.5559
vn -0.0578 0.0082 0.9983
vn -0.0635 0.0007 0.9980
vn -0.0178 -0.0001 0.9998
vn -0.9015 0.4328 -0.0062
vn -0.9013 0.4331 -0.0060
vn -0.9040 0.4275 -0.0062
vn -0.9136 0.3961 -0.0919
vn -0.9209 0.3865 0.0507
vn -0.9209 -0.3865 0.0507
vn -0.9040 -0.4275 -0.0062
vn -0.9144 -0.3938 -0.0941
vn -0.9000 -0.4359 -0.0033
vn -0.9012 -0.4333 -0.0058
vn 0.0001 0.0009 1.0000
vn 0.0248 -0.0121 0.9996
vn 0.0069 -0.0162 0.9998
vn 0.0069 0.0046 1.0000
vn 0.0139 0.0010 0.9999
vn -0.0114 -0.0114 0.9999
vn 0.0151 -0.0033 0.9999
vn -0.0465 0.1309 0.9903
vn 0.0069 0.1706 0.9853
vn 0.0069 -0.0091 0.9999
vn -0.0011 -0.0032 1.0000
vn 0.0603 0.1304 0.9896
vn 0.0360 -0.0045 0.9993
vn 0.0025 0.0005 1.0000
vn -0.0222 -0.0045 0.9997
vn 0.0129 0.0015 0.9999
vn -0.0042 0.0866 0.9962
vn 0.0052 0.0777 0.9970
vn 0.0060 -0.0002 1.0000
vn -0.0007 0.0975 0.9952
vn -0.0036 0.0002 1.0000
vn -0.0024 -0.0865 0.9963
vn 0.0002 -0.0975 0.9952
vn 0.0071 -0.0777 0.9970
vn 0.2753 0.9611 -0.0224
vn 0.2787 0.9602 -0.0185
vn 0.2714 0.9614 -0.0456
vn 0.0828 0.6284 -0.7735
vn 0.1990 0.7547 -0.6251
vn -0.1161 0.6740 -0.7295
vn -0.2929 0.9005 -0.3214
vn -0.2779 0.9320 -0.2325
vn -0.2728 0.8026 -0.5305
vn -0.2807 0.9597 -0.0152
vn -0.2806 0.9597 -0.0150
vn 0.8985 -0.4337 -0.0677
vn 0.8995 -0.4356 -0.0330
vn 0.8998 -0.4351 -0.0326
vn 0.0749 -0.3800 -0.9220
vn 0.3670 -0.1890 -0.9108
vn 0.3173 -0.0221 -0.9481
vn 0.1236 -0.0034 -0.9923
vn 0.3356 0.2020 -0.9201
vn 0.8983 0.4339 -0.0690
vn 0.8995 0.4356 -0.0326
vn 0.8998 0.4352 -0.0330
vn -0.2778 -0.9320 -0.2326
vn -0.2790 -0.9602 -0.0131
vn -0.2807 -0.9597 -0.0150
vn -0.2718 -0.8030 -0.5303
vn -0.2937 -0.9002 -0.3215
vn -0.1084 -0.6679 -0.7363
vn 0.2009 -0.7565 -0.6224
vn 0.0903 -0.6374 -0.7652
vn 0.2724 -0.9612 -0.0441
vn 0.2787 -0.9602 -0.0183
vn 0.2758 -0.9610 -0.0217
vn -0.0724 -0.0696 0.9949
vn -0.0204 -0.0727 0.9971
vn -0.0290 -0.0002 0.9996
vn -0.0726 0.0696 0.9949
vn -0.0727 -0.0001 0.9974
vn -0.0209 0.0727 0.9971
vn -0.2900 -0.7054 -0.6468
vn -0.3408 -0.7117 0.6143
vn -0.3478 -0.7167 0.6045
vn -0.1393 -0.7340 0.6647
vn -0.1615 -0.7264 0.6680
vn 0.0102 -0.7410 0.6714
vn -0.0016 -0.4920 -0.8706
vn -0.9441 0.3096 -0.1133
vn -0.9343 0.3430 0.0973
vn -0.6803 0.1950 0.7065
vn -0.7018 0.2108 0.6805
vn -0.6084 -0.0000 0.7936
vn -0.7018 -0.2108 0.6805
vn -0.6803 -0.1949 0.7065
vn -0.9343 -0.3430 0.0973
vn -0.9441 -0.3096 -0.1133
vn -0.0078 0.4778 -0.8784
vn 0.0725 0.3639 -0.9286
vn 0.0001 0.7236 0.6902
vn -0.0000 0.7233 0.6905
vn -0.1458 0.7331 0.6643
vn -0.3493 0.7154 0.6051
vn -0.3425 0.7106 0.6146
vn -0.2914 0.7050 -0.6466
vn -0.0089 0.3643 -0.9313
vn -0.0164 0.3415 -0.9398
vn -0.0154 0.5609 -0.8277
vn 0.0017 0.6025 -0.7981
vn -0.0078 0.5976 -0.8018
vn 0.0041 0.6085 0.7935
vn 0.0041 0.6085 0.7936
vn 0.0127 0.6029 0.7977
vn 0.0001 0.6290 0.7774
vn -0.0144 -0.3061 -0.9519
vn -0.0149 -0.3323 -0.9430
vn -0.0157 0.0002 -0.9999
vn -0.0151 0.0001 -0.9999
vn -0.0234 0.2960 -0.9549
vn 0.0123 -0.7346 0.6783
vn 0.0177 -0.6639 0.7476
vn 0.0191 -0.6576 0.7531
vn 0.0062 -0.6290 0.7774
vn -0.0124 -0.4998 -0.8661
vn -0.0260 0.4854 -0.8739
vn -0.0003 0.6748 0.7380
vn 0.0530 -0.0227 0.9983
vn 0.0069 -0.0108 0.9999
vn 0.0071 -0.0980 0.9952
vn -0.0384 -0.0226 0.9990
vn -0.7796 -0.6263 -0.0027
vn -0.9223 -0.3865 -0.0038
vn -0.9222 -0.3866 -0.0033
vn -0.7795 -0.6263 -0.0028
vn -0.7796 -0.6263 -0.0028
vn -0.9223 -0.3865 -0.0029
vn -0.9967 -0.0807 -0.0036
vn -0.9967 -0.0807 -0.0041
vn -0.0001 -1.0000 -0.0000
vn 0.0001 -1.0000 0.0002
vn -0.1637 -0.9865 -0.0005
vn 0.9871 0.1601 0.0027
vn 0.5776 0.8163 0.0023
vn 0.5775 0.8164 0.0025
vn 0.5776 0.8163 0.0019
vn 0.9959 0.0901 0.0032
vn 0.9871 0.1600 0.0043
vn -0.9993 -0.0363 -0.0035
vn -0.9993 -0.0363 -0.0026
vn -1.0000 0.0031 -0.0040
vn -1.0000 0.0031 -0.0036
vn -0.9940 0.1095 -0.0035
vn -0.9940 0.1098 -0.0027
vn -0.9983 -0.0578 -0.0043
vn -0.9983 -0.0578 -0.0042
vn -0.9983 -0.0579 -0.0042
vn -0.9993 -0.0363 -0.0043
vn 0.0016 0.6028 -0.7979
vn 0.1219 0.5954 -0.7941
vn 0.1461 0.6081 -0.7803
vn 0.2570 0.6594 -0.7065
vn 0.2737 0.6197 0.7356
vn 0.1288 0.6147 0.7782
vn 0.1545 0.6166 0.7720
vn -0.0090 0.0001 -1.0000
vn -0.0080 -0.3649 -0.9310
vn 0.0062 -0.6288 0.7775
vn 0.0055 -0.6090 0.7932
vn 0.0055 -0.6089 0.7932
vn 0.0130 -0.6029 0.7977
vn -0.0063 -0.5988 -0.8009
vn 0.0017 -0.6014 -0.7989
vn -0.0144 -0.5410 -0.8409
vn 0.0050 0.1039 0.9946
vn -0.0000 0.0002 1.0000
vn 0.0102 0.1055 0.9944
vn 0.0053 -0.1036 0.9946
vn 0.0102 -0.1055 0.9944
vn 0.8067 -0.1851 -0.5612
vn 0.7673 -0.0000 -0.6413
vn 0.7808 -0.0000 -0.6248
vn 0.8067 -0.1834 0.5617
vn 0.8159 -0.1920 0.5454
vn 0.7815 -0.0000 0.6238
vn 0.8159 0.1920 0.5454
vn 0.8068 0.1834 0.5617
vn 0.8067 0.1851 -0.5613
vn 0.0447 -0.1063 -0.9933
vn -0.0036 -0.1056 -0.9944
vn 0.1127 -0.0961 -0.9890
vn 0.0584 -0.0000 -0.9983
vn 0.0447 0.1063 -0.9933
vn 0.1127 0.0961 -0.9890
vn -0.0036 0.1056 -0.9944
vn 0.0130 -0.6028 0.7978
vn 0.1564 -0.6067 0.7794
vn 0.2657 -0.6570 0.7055
vn 0.2569 -0.6594 -0.7065
vn 0.1219 -0.5953 -0.7942
vn 0.1461 -0.6080 -0.7804
vn 0.0016 -0.6015 -0.7989
vn 0.0640 0.1008 0.9928
vn 0.1278 0.0942 0.9873
vn 0.0720 -0.0000 0.9974
vn 0.0640 -0.1008 0.9928
vn 0.1279 -0.0938 0.9873
vn -0.1821 -0.5897 0.7868
vn 0.0063 -0.5461 0.8377
vn 0.0057 -0.5629 0.8265
vn -0.2833 -0.9578 0.0483
vn -0.2876 -0.9563 0.0530
vn -0.2809 -0.9595 0.0236
vn 0.2814 -0.9593 0.0256
vn 0.2883 -0.9560 0.0550
vn 0.2841 -0.9575 0.0506
vn 0.1925 -0.5878 0.7858
vn 0.6369 -0.2538 0.7280
vn 0.6259 -0.2418 0.7415
vn 0.6491 0.0371 0.7598
vn 0.9012 -0.4328 0.0213
vn 0.9051 -0.4228 0.0456
vn 0.9027 -0.4284 0.0404
vn 0.9023 0.4281 0.0517
vn 0.9046 0.4224 0.0568
vn 0.9011 0.4327 0.0272
vn 0.5523 0.2129 0.8060
vn 0.5609 0.2244 0.7969
vn 0.0063 0.4254 0.9050
vn 0.2833 0.9561 0.0753
vn 0.2813 0.9589 0.0382
vn -0.2808 0.9591 0.0367
vn -0.2824 0.9565 0.0733
vn -0.2825 0.9564 0.0735
vn -0.5659 0.2406 0.7886
vn -0.6336 0.0240 0.7733
vn -0.9014 0.4324 0.0211
vn -0.9022 0.4289 0.0446
vn -0.9022 0.4290 0.0446
vn -0.9029 -0.4285 0.0338
vn -0.9053 -0.4229 0.0391
vn -0.9013 -0.4329 0.0148
vn -0.6220 -0.2443 0.7439
vn -0.6332 -0.2564 0.7303
vn -0.2787 -0.9602 0.0210
vn 0.2790 -0.9600 0.0230
vn 0.8999 -0.4357 0.0187
vn 0.8998 0.4356 0.0244
vn -0.2808 0.9591 0.0362
vn -0.9014 0.4324 0.0207
vn -0.9000 0.4358 -0.0033
vn -0.9000 -0.4358 -0.0033
vn -0.9000 -0.4358 0.0120
vn 0.5901 -0.4635 0.6611
vn 0.6285 -0.2345 0.7416
vn 0.6202 -0.2806 0.7325
vn 0.0807 -0.0255 0.9964
vn 0.6304 -0.0420 0.7752
vn 0.9990 -0.0434 0.0040
vn 0.9991 -0.0434 0.0037
vn 0.9996 -0.0272 0.0032
vn 0.9977 -0.0670 0.0035
vn -0.5845 -0.4686 0.6624
vn -0.5858 -0.4694 0.6607
vn -0.6150 -0.2881 0.7340
vn -0.6237 -0.2413 0.7435
vn -0.0637 -0.0259 0.9976
vn 0.0957 0.9504 0.2959
vn 0.0982 0.9883 0.1166
vn 0.0020 0.9891 0.1475
vn 0.0811 0.1345 0.9876
vn 0.0074 0.2600 0.9656
vn -0.0684 0.1421 0.9875
vn -0.0955 0.9887 0.1158
vn -0.0907 0.9520 0.2924
vn 0.0006 1.0000 -0.0000
vn 0.0005 1.0000 -0.0002
vn 0.0981 0.9952 -0.0002
vn -0.9940 0.1095 -0.0043
vn -0.9815 0.1917 -0.0036
vn -0.5544 0.8323 -0.0017
vn -0.5544 0.8323 -0.0018
vn -0.5544 0.8323 -0.0020
vn -0.5544 0.8323 -0.0023
vn 0.0697 0.0331 0.9970
vn 0.4715 0.6605 0.5843
vn 0.4709 0.6599 0.5855
vn 0.4840 0.6728 0.5596
vn 0.6972 0.0699 0.7134
vn 0.6331 0.1083 0.7664
vn -0.6292 0.1307 0.7662
vn -0.6983 0.0860 0.7107
vn -0.4602 0.6937 0.5541
vn -0.4602 0.6935 0.5543
vn -0.4602 0.6935 0.5544
vn -0.0577 0.0350 0.9977
vn 0.0069 -0.0000 1.0000
vn 1.0000 -0.0000 0.0037
vn -0.0069 -0.0000 -1.0000
vn -0.0000 1.0000 -0.0000
vn -1.0000 -0.0000 -0.0037
vn 0.6410 -0.0000 -0.7675
vn -0.6449 -0.0000 -0.7643
vn -0.6450 -0.0000 -0.7642
vn -0.0049 0.7113 -0.7029
vn -0.0049 -0.7113 -0.7029
vn -0.0049 -0.7112 -0.7030
vn 0.6411 -0.0000 -0.7675
vn -0.0049 0.7112 -0.7029
vn -0.6411 -0.0000 0.7675
vn -0.6410 -0.0000 0.7675
vn 0.6449 -0.0000 0.7643
vn 0.0049 -0.7112 0.7030
vn 0.0049 -0.7113 0.7029
vn 0.0049 0.7113 0.7029
vn 0.0049 0.7112 0.7030
vn 0.6450 -0.0000 0.7642
vn 0.0049 0.7112 0.7029
vn -0.0049 0.7112 -0.7030
vn 0.0049 -0.7112 0.7029
vn -0.0049 -0.7112 -0.7029
vn -0.0708 -0.0032 -0.9975
vn -0.6480 -0.0000 -0.7617
vn -0.1865 0.7309 -0.6565
vn -0.1164 0.5546 0.8239
vn 0.2647 0.6224 -0.7366
vn 0.1152 -0.0000 -0.9933
vn 0.6680 -0.0818 -0.7397
vn -0.1466 0.4205 -0.8954
vn 0.1345 0.4217 -0.8967
vn -0.6713 -0.0810 -0.7367
vn -0.0571 -0.0032 0.9984
vn -0.6171 -0.0359 0.7861
vn 0.0072 0.1496 0.9887
vn -0.1236 -0.5558 -0.8221
vn 0.1286 -0.0000 0.9917
vn 0.1467 0.4206 0.8953
vn -0.1346 0.4218 0.8966
vn -0.6682 -0.0818 0.7395
vn 0.9991 -0.0434 0.0033
vn -0.4603 0.6936 0.5541
vn -0.6190 -0.0355 -0.7845
vn 0.7809 -0.6246 0.0041
vn 0.9978 -0.0669 0.0033
vn -0.0030 -0.8971 -0.4418
vn -0.0070 0.1492 -0.9888
vn 0.2656 0.9625 0.0547
vn 0.8985 0.4324 0.0762
vn 0.8989 -0.4321 0.0729
vn 0.2672 -0.9622 0.0526
vn -0.1342 -0.6056 0.7844
vn -0.9560 -0.2730 0.1076
vn -0.9560 0.2730 0.1076
vn -0.9222 -0.3866 -0.0029
vn -0.1637 -0.9865 -0.0007
vn 0.9871 0.1600 0.0036
vn -0.9983 -0.0578 -0.0033
vn 0.2547 0.7018 0.6653
vn 0.8160 0.1920 0.5452
vn 0.8160 -0.1920 0.5452
vn 0.1428 -0.0000 0.9897
vn 0.2546 -0.7018 0.6653
vn 0.1791 -0.6125 -0.7699
vn -0.1892 -0.6108 -0.7689
vn 0.5873 -0.4682 -0.6602
vn -0.0024 0.9555 -0.2951
vn -0.9814 0.1918 -0.0035
vn -0.5544 0.8322 -0.0021
vn -0.5544 0.8322 -0.0019
vn 0.6254 0.1091 -0.7726
vn 0.4800 0.6777 -0.5571
vn -0.4723 0.6973 -0.5391
vn -0.6306 0.1291 -0.7653
vn 0.0031 -0.8973 0.4413
vn 0.2649 0.9628 -0.0528
vn 0.8991 -0.4327 -0.0666
vn 0.8987 0.4330 -0.0699
vn 0.2665 -0.9625 -0.0507
vn -0.9554 0.2725 -0.1139
vn -0.5843 -0.0000 0.8115
vn -0.9554 -0.2725 -0.1139
vn -0.1500 0.6030 -0.7835
vn -0.1694 0.7257 0.6668
vn -0.9967 -0.0807 -0.0031
vn 0.1637 -0.9865 0.0005
vn 0.9871 0.1601 0.0035
vn 0.9871 0.1601 0.0043
vn 0.2464 0.7043 -0.6658
vn 0.8161 -0.1938 -0.5444
vn 0.7683 -0.0000 0.6400
vn 0.8161 0.1938 -0.5444
vn 0.1295 -0.0000 -0.9916
vn 0.2546 -0.7019 0.6652
vn 0.2463 -0.7043 -0.6658
vn -0.1792 -0.6128 0.7696
vn 0.1893 -0.6107 0.7689
vn 0.6871 -0.0642 0.7237
vn 0.5914 -0.4642 0.6594
vn 0.0017 0.9555 0.2950
vn -0.0970 0.9953 0.0002
vn -0.9815 0.1917 -0.0031
vn -0.9815 0.1916 -0.0041
vn 0.4847 0.6735 0.5582
vn 0.6301 0.1081 0.7690
vn -0.6261 0.1304 0.7688
vt 0.000000 0.000000
vt 0.080000 0.668333
vt 0.000000 0.668333
vt 0.100000 0.668333
vt 0.080000 0.000000
vt 0.100000 0.000000
vt 0.180000 0.000000
vt 0.080000 2.005000
vt 0.000000 2.005000
vt 0.100000 2.005000
vt 0.180000 0.668333
vt 0.000000 4.010000
vt 0.100000 4.010000
vt 0.080000 4.010000
vt 0.180000 4.010000
vt 0.080000 4.412500
vt 0.000000 4.412500
vt 0.100000 4.412500
vt 0.000000 5.217500
vt 0.100000 5.217500
vt 0.080000 5.217500
vt 0.180000 5.217500
vt 0.080000 5.885834
vt 0.000000 5.885834
vt 0.100000 5.885834
vt 0.000000 7.222500
vt 0.100000 7.222500
vt 0.080000 7.222500
vt 0.180000 7.222500
vt 0.000000 9.227501
vt 0.100000 9.227501
vt 0.080000 9.227501
vt 0.180000 9.227501
vt 0.080000 9.630000
vt 0.000000 9.630000
vt 0.100000 9.630000
vt 0.000000 10.435000
vt 0.100000 10.435000
vt 0.080000 10.435000
vt 0.180000 10.435000
vt 0.000000 0.558333
vt 0.050000 0.000000
vt 0.057071 0.558333
vt 0.050000 0.558333
vt 0.064142 0.558333
vt 0.057071 0.000000
vt 0.064142 0.000000
vt 0.084142 0.000000
vt 0.091213 0.558333
vt 0.084142 0.558333
vt 0.050000 0.880833
vt 0.000000 0.880833
vt 0.064142 0.880833
vt 0.057071 0.880833
vt 0.084142 0.880833
vt 0.050000 1.439167
vt 0.000000 1.439167
vt 0.057071 1.439167
vt 0.064142 1.439167
vt 0.084142 1.439167
vt 0.091213 1.439167
vt 0.000000 1.761667
vt 0.057071 1.761667
vt 0.050000 1.761667
vt 0.084142 1.761667
vt 0.064142 1.761667
vt 0.091213 1.761667
vt -0.161250 0.558333
vt -0.161250 0.000000
vt 0.161250 0.000000
vt 0.007071 0.558333
vt 0.027071 0.558333
vt 0.007071 0.000000
vt 0.034142 0.558333
vt 0.027071 0.000000
vt 0.034142 0.000000
vt 0.041213 0.000000
vt 0.041213 0.558333
vt 0.027071 0.880833
vt 0.007071 0.880833
vt 0.034142 0.880833
vt 0.041213 0.880833
vt 0.007071 1.439167
vt 0.034142 1.439167
vt 0.027071 1.439167
vt 0.041213 1.439167
vt 0.091213 0.880833
vt 0.007071 1.761667
vt 0.027071 1.761667
vt 0.041213 1.761667
vt 0.034142 1.761667
vt 0.161250 0.558333
vt 0.180000 2.005000
vt 0.180000 4.412500
vt 0.180000 5.885834
vt 0.180000 9.630000
vt 0.091213 0.000000
s 1
g off
g PuertaDerecha_Madera
usemtl Madera
f 126/1/1 14/1/2 125/1/3
s 2
f 4/1/4 126/1/5 359/1/6
f 359/1/6 128/1/7 52/1/8
s 1
f 125/1/3 51/1/9 128/1/10
f 130/1/11 7/1/12 129/1/13
f 130/1/11 360/1/14 131/1/15
f 131/1/15 360/1/14 132/1/16
f 129/1/13 53/1/17 132/1/16
s 2
f 8/1/18 133/1/19 361/1/20
s 1
f 134/1/21 361/1/22 135/1/23
f 135/1/23 361/1/22 136/1/24
s 2
f 361/1/20 133/1/19 53/1/25
s 1
f 137/1/26 13/1/27 135/1/23
f 137/1/26 362/1/28 125/1/3
f 362/1/28 138/1/29 51/1/9
f 362/1/28 135/1/23 54/1/30
s 4
f 140/1/31 7/1/32 139/1/33
s 1
f 5/1/34 140/1/35 363/1/36
f 363/1/36 142/1/37 1/1/38
s 4
f 139/1/33 3/1/39 142/1/40
s 1
f 8/1/41 143/1/42 364/1/43
f 144/1/44 364/1/43 145/1/45
f 145/1/45 364/1/43 146/1/46
f 364/1/43 143/1/42 11/1/47
f 148/1/48 15/1/49 147/1/50
f 60/1/51 148/1/48 365/1/52
f 365/1/52 150/1/53 57/1/54
f 147/1/50 16/1/55 150/1/53
s 2
f 143/1/56 8/1/18 134/1/57
f 11/1/58 143/1/56 366/1/59
s 1
f 151/1/60 366/1/61 152/1/62
f 366/1/61 134/1/21 13/1/27
f 14/1/2 126/1/1 367/1/63
f 153/1/64 367/1/63 154/1/65
s 2
f 367/1/66 155/1/67 10/1/68
f 126/1/5 4/1/4 155/1/67
s 1
f 47/1/69 156/1/70 368/1/71
f 157/1/72 368/1/71 158/1/73
s 2
f 158/1/74 368/1/75 159/1/76
f 368/1/75 156/1/77 48/1/78
s 1
f 161/1/79 2/1/80 160/1/81
f 14/1/2 161/1/79 369/1/82
f 369/1/82 162/1/83 13/1/27
f 160/1/81 6/1/84 162/1/83
f 164/1/85 12/1/86 163/1/87
f 15/1/49 164/1/85 370/1/88
f 370/1/88 165/1/89 16/1/55
f 163/1/87 9/1/90 165/1/89
f 6/1/84 166/1/91 371/1/92
f 162/1/83 371/1/92 152/1/62
f 152/1/62 371/1/92 164/1/85
f 371/1/92 166/1/91 12/1/86
f 9/1/90 167/1/93 372/1/94
f 165/1/89 372/1/94 153/1/64
f 153/1/64 372/1/94 161/1/79
f 372/1/94 167/1/93 2/1/80
f 169/1/95 21/1/96 168/1/97
f 28/1/98 169/1/95 373/1/99
f 373/1/99 171/1/100 27/1/101
f 168/1/97 23/1/102 171/1/100
s 4
f 159/1/103 48/1/104 172/1/105
f 20/1/106 159/1/103 374/1/107
f 173/1/108 374/1/109 174/1/110
s 2
f 374/1/111 172/1/112 49/1/113
s 8
f 49/1/114 175/1/115 375/1/116
s 4
f 174/1/117 375/1/118 176/1/119
f 375/1/118 177/1/120 17/1/121
s 1
f 175/1/122 50/1/123 177/1/124
s 2
f 50/1/125 178/1/126 376/1/127
s 4
f 177/1/128 376/1/129 179/1/130
f 376/1/131 157/1/132 18/1/133
f 178/1/134 47/1/135 157/1/132
s 1
f 168/1/97 21/1/96 180/1/136
f 168/1/97 377/1/137 181/1/138
f 377/1/137 182/1/139 24/1/140
f 377/1/137 180/1/136 22/1/141
s 4
f 183/1/142 17/1/121 179/1/130
s 2
f 183/1/143 378/1/144 180/1/145
f 378/1/144 184/1/146 22/1/147
s 4
f 179/1/130 18/1/133 184/1/148
s 1
f 18/1/149 158/1/73 379/1/150
s 8
f 22/1/151 184/1/151 379/1/152
f 379/1/152 185/1/153 24/1/153
s 2
f 379/1/154 158/1/74 20/1/155
s 4
f 185/1/156 20/1/106 173/1/108
s 16
f 24/1/157 185/1/157 380/1/158
f 380/1/158 186/1/159 23/1/160
s 4
f 173/1/108 19/1/161 186/1/162
s 16
f 188/1/163 27/1/164 187/1/165
f 37/1/166 188/1/163 381/1/167
s 4
f 381/1/168 190/1/169 35/1/170
f 187/1/171 25/1/172 190/1/169
f 191/1/173 19/1/161 176/1/119
f 191/1/173 382/1/174 192/1/175
f 382/1/174 193/1/176 26/1/177
f 176/1/119 17/1/121 193/1/176
f 193/1/176 17/1/121 183/1/142
f 26/1/177 193/1/176 383/1/178
s 2
f 194/1/179 383/1/180 169/1/181
f 383/1/180 183/1/143 21/1/182
s 16
f 23/1/160 186/1/159 384/1/183
f 27/1/164 171/1/184 384/1/183
s 4
f 384/1/185 191/1/173 25/1/172
f 186/1/162 19/1/161 191/1/173
s 1
f 138/1/29 54/1/30 195/1/186
f 138/1/29 385/1/187 196/1/188
f 385/1/187 141/1/189 1/1/38
f 385/1/187 195/1/186 5/1/34
f 198/1/190 52/1/191 197/1/192
f 55/1/193 198/1/190 386/1/194
f 386/1/194 200/1/195 30/1/196
f 386/1/194 197/1/192 3/1/197
s 4
f 200/1/198 3/1/39 139/1/33
f 200/1/198 387/1/199 201/1/199
f 387/1/199 130/1/200 31/1/201
f 387/1/199 139/1/33 7/1/32
s 1
f 202/1/202 34/1/203 146/1/46
s 4
f 202/1/204 388/1/205 203/1/206
f 203/1/206 388/1/205 204/1/207
s 1
f 146/1/46 11/1/47 204/1/208
f 205/1/209 10/1/210 155/1/211
f 205/1/209 389/1/212 206/1/213
f 206/1/213 389/1/212 207/1/214
f 155/1/211 4/1/215 207/1/214
f 4/1/215 127/1/216 390/1/217
f 29/1/218 207/1/214 390/1/217
f 390/1/217 198/1/190 55/1/193
f 390/1/217 127/1/216 52/1/191
s 16
f 37/1/166 189/1/219 391/1/220
f 209/1/221 391/1/220 210/1/222
s 4
f 210/1/223 391/1/224 211/1/225
f 391/1/224 189/1/226 35/1/170
f 25/1/172 192/1/175 392/1/227
f 190/1/169 392/1/227 212/1/228
f 212/1/228 392/1/227 213/1/229
f 392/1/227 192/1/175 26/1/177
f 213/1/229 26/1/177 194/1/230
f 36/1/231 213/1/229 393/1/232
s 2
f 214/1/233 393/1/234 215/1/235
f 393/1/234 194/1/179 28/1/236
s 1
f 215/1/237 28/1/98 170/1/238
f 38/1/239 215/1/237 394/1/240
f 216/1/241 394/1/240 188/1/242
f 394/1/240 170/1/238 27/1/101
f 39/1/243 217/1/244 395/1/245
s 8
f 41/1/246 210/1/247 395/1/248
f 395/1/248 219/1/249 42/1/250
s 1
f 395/1/245 217/1/244 40/1/251
s 4
f 211/1/252 35/1/253 212/1/228
f 39/1/254 211/1/252 396/1/255
f 396/1/255 220/1/256 40/1/257
f 212/1/228 36/1/258 220/1/256
f 36/1/231 214/1/259 397/1/260
f 220/1/261 397/1/260 219/1/262
s 2
f 219/1/263 397/1/264 221/1/265
f 397/1/264 214/1/233 38/1/266
s 1
f 221/1/267 38/1/239 216/1/241
f 42/1/268 221/1/267 398/1/269
f 398/1/269 209/1/270 41/1/271
f 216/1/241 37/1/272 209/1/270
s 8
f 6/1/273 160/1/274 399/1/275
s 2
f 222/1/276 399/1/277 223/1/278
s 4
f 223/1/279 399/1/280 224/1/281
s 8
f 399/1/275 160/1/274 2/1/282
s 4
f 225/1/283 12/1/283 166/1/284
s 8
f 45/1/285 225/1/286 400/1/287
s 1
f 400/1/288 222/1/289 46/1/290
s 4
f 166/1/284 6/1/291 222/1/292
s 1
f 9/1/90 163/1/87 401/1/293
s 4
f 227/1/294 401/1/295 228/1/296
s 2
f 228/1/297 401/1/298 225/1/299
s 1
f 401/1/293 163/1/87 12/1/86
s 16
f 224/1/300 2/1/301 167/1/302
s 1
f 43/1/303 224/1/304 402/1/305
s 2
f 402/1/306 227/1/307 44/1/308
s 16
f 167/1/302 9/1/309 227/1/309
s 2
f 46/1/310 223/1/278 403/1/311
f 230/1/311 403/1/311 178/1/126
s 4
f 403/1/312 231/1/312 47/1/135
f 403/1/312 223/1/279 43/1/313
s 8
f 232/1/314 45/1/285 226/1/315
f 232/1/314 404/1/314 175/1/115
s 1
f 175/1/122 404/1/316 230/1/316
f 226/1/317 46/1/290 230/1/316
s 4
f 44/1/296 228/1/296 405/1/318
f 48/1/104 233/1/318 405/1/318
s 2
f 172/1/112 405/1/319 232/1/319
f 405/1/319 228/1/297 45/1/320
s 1
f 231/1/321 43/1/303 229/1/322
f 47/1/69 231/1/321 406/1/321
s 2
f 406/1/323 233/1/323 48/1/78
f 229/1/324 44/1/308 233/1/323
f 136/1/325 53/1/25 129/1/326
s 1
f 54/1/30 136/1/24 407/1/327
f 195/1/186 407/1/327 140/1/35
s 2
f 407/1/328 129/1/326 7/1/329
s 1
f 53/1/17 133/1/330 408/1/331
f 132/1/16 408/1/331 234/1/332
f 408/1/331 144/1/44 32/1/333
f 133/1/330 8/1/41 144/1/44
f 51/1/9 196/1/188 409/1/334
s 2
f 128/1/7 409/1/335 197/1/336
f 409/1/335 142/1/337 3/1/338
s 1
f 196/1/188 1/1/38 142/1/37
s 2
f 236/1/339 58/1/340 235/1/341
s 1
f 57/1/54 236/1/342 410/1/343
f 410/1/343 237/1/344 60/1/51
s 2
f 235/1/341 59/1/345 237/1/346
f 59/1/345 235/1/341 411/1/347
f 62/1/348 203/1/349 411/1/347
f 411/1/347 239/1/350 61/1/351
f 411/1/347 235/1/341 58/1/340
s 1
f 240/1/352 10/1/210 205/1/209
s 4
f 58/1/353 240/1/354 412/1/355
s 8
f 412/1/356 241/1/356 61/1/356
s 1
f 205/1/209 33/1/357 241/1/358
s 2
f 204/1/359 11/1/58 151/1/360
s 8
f 59/1/361 204/1/362 413/1/363
s 1
f 237/1/344 413/1/364 148/1/48
f 413/1/364 151/1/60 15/1/49
f 16/1/55 154/1/65 414/1/365
f 150/1/53 414/1/365 236/1/342
s 8
f 414/1/366 240/1/367 58/1/368
s 2
f 154/1/369 10/1/68 240/1/370
s 1
f 243/1/371 113/1/372 242/1/373
s 2
f 114/1/374 243/1/375 415/1/376
f 415/1/376 245/1/377 66/1/378
s 1
f 242/1/373 76/1/379 245/1/380
f 247/1/381 115/1/17 246/1/382
f 247/1/381 416/1/383 248/1/384
f 416/1/383 249/1/385 93/1/386
f 416/1/383 246/1/382 69/1/387
s 2
f 115/1/388 250/1/389 417/1/390
s 1
f 251/1/391 417/1/392 252/1/393
f 252/1/393 417/1/392 253/1/394
s 2
f 417/1/390 250/1/389 70/1/395
s 1
f 116/1/396 252/1/393 418/1/397
f 113/1/372 254/1/398 418/1/397
f 242/1/373 418/1/397 255/1/399
f 252/1/393 75/1/400 255/1/399
s 4
f 257/1/401 65/1/402 256/1/403
s 1
f 63/1/404 257/1/405 419/1/406
f 419/1/406 259/1/407 67/1/408
s 4
f 256/1/403 69/1/409 259/1/410
s 1
f 73/1/411 260/1/412 420/1/413
f 261/1/414 420/1/413 262/1/415
f 262/1/415 420/1/413 263/1/416
f 420/1/413 260/1/412 70/1/417
f 265/1/418 78/1/419 264/1/420
f 119/1/421 265/1/418 421/1/422
f 421/1/422 267/1/423 122/1/424
f 264/1/420 77/1/425 267/1/423
f 75/1/400 253/1/394 422/1/426
f 268/1/427 422/1/426 269/1/428
s 2
f 422/1/429 260/1/430 73/1/431
f 253/1/432 70/1/395 260/1/430
f 270/1/433 66/1/378 245/1/377
f 72/1/434 270/1/433 423/1/435
s 1
f 271/1/436 423/1/437 272/1/438
f 423/1/437 245/1/380 76/1/379
s 2
f 110/1/439 273/1/440 424/1/441
f 274/1/442 424/1/441 275/1/443
s 1
f 275/1/444 424/1/445 276/1/446
f 424/1/445 273/1/447 109/1/448
f 278/1/449 68/1/450 277/1/451
f 75/1/400 278/1/449 425/1/452
f 425/1/452 279/1/453 76/1/379
f 277/1/451 64/1/454 279/1/453
f 281/1/455 71/1/456 280/1/457
f 78/1/419 281/1/455 426/1/458
f 426/1/458 282/1/459 77/1/425
f 280/1/457 74/1/460 282/1/459
f 74/1/460 283/1/461 427/1/462
f 282/1/459 427/1/462 268/1/427
f 268/1/427 427/1/462 278/1/449
f 427/1/462 283/1/461 68/1/450
f 64/1/454 284/1/463 428/1/464
f 279/1/453 428/1/464 272/1/438
f 272/1/438 428/1/464 281/1/455
f 428/1/464 284/1/463 71/1/456
f 286/1/465 85/1/466 285/1/467
f 89/1/468 286/1/465 429/1/469
f 429/1/469 288/1/470 90/1/471
f 285/1/467 83/1/472 288/1/470
s 2
f 111/1/473 289/1/474 430/1/475
s 4
f 290/1/476 430/1/477 291/1/478
f 430/1/479 274/1/480 82/1/481
f 289/1/482 110/1/483 274/1/480
s 1
f 293/1/484 112/1/485 292/1/486
s 4
f 79/1/487 293/1/488 431/1/489
f 294/1/490 431/1/489 290/1/491
s 8
f 431/1/492 292/1/493 111/1/494
s 4
f 276/1/495 109/1/496 295/1/497
f 80/1/498 276/1/495 432/1/499
f 296/1/500 432/1/501 293/1/502
s 2
f 432/1/503 295/1/504 112/1/505
s 1
f 84/1/506 297/1/507 433/1/508
f 86/1/509 298/1/510 433/1/508
f 299/1/511 433/1/508 285/1/467
f 297/1/507 83/1/472 285/1/467
s 4
f 300/1/512 80/1/498 296/1/500
s 2
f 84/1/513 300/1/514 434/1/515
f 297/1/516 434/1/515 301/1/517
s 4
f 296/1/500 79/1/487 301/1/518
s 2
f 82/1/519 275/1/443 435/1/520
s 8
f 86/1/521 302/1/522 435/1/523
f 435/1/523 300/1/524 84/1/525
s 1
f 435/1/526 275/1/444 80/1/527
s 4
f 303/1/528 81/1/529 291/1/478
s 16
f 85/1/530 303/1/531 436/1/532
f 436/1/532 302/1/533 86/1/534
s 4
f 291/1/478 82/1/481 302/1/535
f 305/1/536 87/1/537 304/1/538
f 97/1/539 305/1/536 437/1/540
s 16
f 437/1/541 307/1/542 99/1/543
f 304/1/544 89/1/544 307/1/542
s 4
f 308/1/545 79/1/487 294/1/490
f 88/1/546 308/1/545 438/1/547
f 309/1/548 438/1/547 310/1/549
f 294/1/490 81/1/529 310/1/549
s 2
f 83/1/550 301/1/517 439/1/551
f 288/1/552 439/1/551 311/1/553
s 4
f 439/1/554 308/1/545 88/1/546
f 301/1/518 79/1/487 308/1/545
f 310/1/549 81/1/529 303/1/528
f 87/1/537 310/1/549 440/1/555
s 16
f 440/1/556 286/1/556 89/1/544
f 440/1/556 303/1/531 85/1/530
s 1
f 67/1/408 312/1/557 441/1/558
f 63/1/404 258/1/559 441/1/558
f 313/1/560 441/1/558 254/1/398
f 312/1/557 116/1/396 254/1/398
f 65/1/561 314/1/562 442/1/563
f 92/1/564 315/1/565 442/1/563
f 316/1/566 442/1/563 317/1/567
f 314/1/562 114/1/568 317/1/567
s 4
f 249/1/200 69/1/409 256/1/403
f 249/1/200 443/1/569 318/1/570
f 443/1/569 315/1/198 92/1/571
f 443/1/569 256/1/403 65/1/402
s 1
f 319/1/572 73/1/411 261/1/414
s 4
f 121/1/573 319/1/206 444/1/206
s 2
f 444/1/574 321/1/574 124/1/575
s 1
f 261/1/414 96/1/576 321/1/577
f 322/1/578 66/1/579 270/1/580
f 322/1/578 445/1/581 323/1/213
f 323/1/213 445/1/581 324/1/582
f 270/1/580 72/1/583 324/1/582
f 114/1/568 244/1/584 446/1/585
f 317/1/567 446/1/585 325/1/586
f 446/1/585 322/1/578 91/1/587
f 446/1/585 244/1/584 66/1/579
s 4
f 97/1/539 306/1/588 447/1/589
f 326/1/590 447/1/589 327/1/591
s 16
f 327/1/592 447/1/593 328/1/594
f 447/1/593 306/1/543 99/1/543
s 4
f 88/1/546 309/1/548 448/1/595
f 329/1/596 448/1/595 330/1/241
f 330/1/241 448/1/595 305/1/536
f 448/1/595 309/1/548 87/1/537
s 2
f 90/1/597 311/1/553 449/1/598
f 331/1/599 449/1/598 332/1/600
s 4
f 449/1/601 329/1/596 98/1/602
f 311/1/603 88/1/546 329/1/596
s 1
f 307/1/604 89/1/468 287/1/605
f 99/1/606 307/1/604 450/1/227
f 450/1/227 331/1/607 100/1/608
f 287/1/605 90/1/471 331/1/607
f 102/1/609 334/1/610 451/1/611
s 8
f 104/1/612 335/1/613 451/1/614
f 451/1/614 327/1/615 103/1/616
s 1
f 451/1/611 334/1/610 101/1/617
s 4
f 337/1/618 98/1/619 330/1/241
f 102/1/620 337/1/618 452/1/621
f 452/1/621 326/1/622 101/1/623
f 330/1/241 97/1/624 326/1/622
s 2
f 100/1/625 332/1/600 453/1/260
f 338/1/626 453/1/260 335/1/627
s 4
f 335/1/628 453/1/629 337/1/630
f 453/1/629 332/1/631 98/1/602
s 1
f 328/1/632 99/1/606 333/1/228
f 103/1/633 328/1/632 454/1/634
f 454/1/634 338/1/635 104/1/636
f 333/1/228 100/1/608 338/1/635
s 8
f 64/1/637 277/1/638 455/1/639
s 4
f 339/1/640 455/1/641 340/1/642
s 2
f 340/1/643 455/1/644 341/1/645
s 8
f 455/1/639 277/1/638 68/1/646
s 4
f 341/1/647 68/1/648 283/1/649
s 1
f 108/1/650 341/1/651 456/1/652
s 8
f 456/1/653 343/1/654 107/1/655
s 4
f 283/1/649 74/1/656 343/1/657
s 1
f 74/1/460 280/1/457 457/1/658
s 2
f 343/1/659 457/1/659 344/1/660
s 4
f 344/1/661 457/1/662 345/1/663
s 1
f 457/1/658 280/1/457 71/1/456
s 16
f 345/1/664 71/1/664 284/1/665
s 2
f 106/1/666 345/1/667 458/1/668
s 1
f 458/1/669 339/1/670 105/1/671
s 16
f 284/1/665 64/1/672 339/1/673
s 4
f 105/1/674 340/1/642 459/1/312
f 109/1/496 347/1/312 459/1/312
s 2
f 459/1/311 348/1/311 112/1/505
f 340/1/643 108/1/675 348/1/311
s 1
f 348/1/316 108/1/650 342/1/676
f 348/1/316 460/1/316 292/1/486
s 8
f 292/1/493 460/1/314 349/1/314
f 342/1/677 107/1/655 349/1/314
s 2
f 349/1/319 107/1/660 344/1/660
f 111/1/473 349/1/319 461/1/319
s 4
f 461/1/318 350/1/318 110/1/483
f 461/1/318 344/1/661 106/1/678
s 2
f 106/1/666 346/1/679 462/1/680
f 110/1/439 350/1/323 462/1/680
s 1
f 462/1/681 347/1/321 109/1/448
f 462/1/681 346/1/682 105/1/671
s 2
f 69/1/683 246/1/684 463/1/685
s 1
f 259/1/407 463/1/686 312/1/557
f 463/1/686 251/1/391 116/1/396
s 2
f 246/1/684 115/1/388 251/1/687
s 1
f 70/1/417 250/1/688 464/1/689
f 94/1/690 263/1/416 464/1/689
f 464/1/689 247/1/381 118/1/691
f 464/1/689 250/1/688 115/1/17
f 257/1/405 63/1/404 313/1/560
s 2
f 65/1/692 257/1/693 465/1/694
f 314/1/695 465/1/694 243/1/375
s 1
f 465/1/696 313/1/560 113/1/372
s 8
f 353/1/697 121/1/698 352/1/699
s 1
f 122/1/424 353/1/700 466/1/701
f 466/1/701 354/1/702 119/1/421
s 8
f 352/1/699 120/1/703 354/1/704
f 355/1/350 120/1/703 352/1/699
f 355/1/350 467/1/705 356/1/706
f 467/1/705 320/1/348 124/1/707
f 467/1/705 352/1/699 121/1/698
s 1
f 95/1/708 324/1/582 468/1/709
s 4
f 123/1/710 357/1/711 468/1/712
f 468/1/712 358/1/713 120/1/713
s 1
f 468/1/709 324/1/582 72/1/583
f 77/1/425 269/1/428 469/1/714
f 267/1/423 469/1/714 353/1/700
s 16
f 469/1/715 319/1/716 121/1/717
s 2
f 269/1/718 73/1/431 319/1/719
f 358/1/720 72/1/434 271/1/721
s 16
f 120/1/722 358/1/723 470/1/724
s 1
f 354/1/702 470/1/725 265/1/418
f 470/1/725 271/1/436 78/1/419
f 474/2/726 566/3/726 524/1/726
s 2
f 475/4/727 474/2/727 471/5/727
s 1
f 475/4/728 472/6/728 473/7/728
f 476/8/726 609/9/726 566/3/726
s 2
f 477/10/727 476/8/727 474/2/727
s 1
f 477/10/728 475/4/728 540/11/728
f 615/12/726 609/9/726 476/8/726
s 2
f 479/13/727 478/14/727 476/8/727
s 1
f 588/15/728 479/13/728 477/10/728
f 481/16/726 480/17/726 615/12/726
s 4
f 482/18/729 481/16/729 478/14/729
s 1
f 482/18/728 479/13/728 588/15/728
f 484/19/726 480/17/726 481/16/726
s 4
f 486/20/729 485/21/729 481/16/729
s 1
f 722/22/728 486/20/728 482/18/728
f 487/23/726 706/24/726 484/19/726
s 2
f 488/25/730 487/23/730 485/21/730
s 1
f 488/25/728 486/20/728 722/22/728
f 662/26/726 706/24/726 487/23/726
s 2
f 490/27/730 489/28/730 487/23/730
s 1
f 491/29/728 490/27/728 488/25/728
f 668/30/726 662/26/726 489/28/726
s 2
f 493/31/730 492/32/730 489/28/730
s 1
f 494/33/728 493/31/728 490/27/728
f 496/34/726 495/35/726 668/30/726
s 4
f 497/36/199 496/34/199 492/32/199
s 1
f 497/36/728 493/31/728 494/33/728
f 524/37/726 495/35/726 496/34/726
s 4
f 472/38/199 471/39/199 496/34/199
s 1
f 473/40/728 472/38/728 497/36/728
f 540/41/728 473/1/728 499/42/728
s 2
f 505/43/731 504/44/731 499/42/731
s 1
f 506/45/732 505/43/732 500/46/732
s 2
f 506/45/728 501/47/728 502/48/728
s 1
f 508/49/733 507/50/733 502/48/733
f 509/51/728 631/52/728 540/41/728
s 4
f 509/51/734 504/44/734 505/43/734
s 8
f 511/53/735 510/54/735 505/43/736
s 2
f 511/53/728 506/45/728 507/50/728
s 4
f 512/55/735 507/50/735 508/49/735
s 1
f 514/56/728 498/57/728 631/52/728
s 2
f 515/58/733 514/56/733 509/51/733
s 1
f 516/59/731 515/58/731 510/54/731
s 2
f 517/60/728 516/59/728 511/53/728
s 1
f 518/61/737 517/60/737 512/55/737
f 473/62/728 498/57/728 514/56/728
s 4
f 500/63/735 499/64/735 514/56/735
s 8
f 500/63/738 515/58/734 516/59/734
s 2
f 502/65/728 501/66/728 516/59/728
s 4
f 503/67/734 502/65/734 517/60/734
s 2
f 508/68/728 503/69/728 518/70/728
s 1
f 526/71/739 525/41/739 519/1/739
s 2
f 527/72/726 526/71/726 520/73/726
s 1
f 528/74/740 527/72/740 521/75/740
s 2
f 528/74/741 522/76/741 523/77/741
s 1
f 566/49/726 529/78/726 523/77/726
s 4
f 530/52/742 525/41/743 526/71/743
s 2
f 532/79/726 531/80/726 526/71/726
s 4
f 533/81/743 532/79/743 527/72/743
s 8
f 533/81/744 528/74/745 529/78/745
s 1
f 534/82/726 529/78/726 566/49/726
f 536/83/741 535/57/741 530/52/741
s 2
f 536/83/726 531/80/726 532/79/726
s 1
f 538/84/746 537/85/746 532/79/746
s 2
f 539/86/740 538/84/740 533/81/740
s 1
f 539/86/726 534/82/726 695/87/726
s 4
f 520/88/744 519/62/744 535/57/745
s 2
f 521/89/726 520/88/726 536/83/726
s 4
f 521/89/747 537/85/744 538/84/744
s 8
f 523/90/742 522/91/742 538/84/743
s 1
f 524/67/726 523/90/726 539/86/726
s 2
f 530/92/726 535/70/726 519/69/726
s 1
f 546/44/728 582/41/728 540/1/728
s 2
f 547/43/731 546/44/731 541/42/731
s 1
f 548/45/732 547/43/732 542/46/732
s 2
f 548/45/728 543/47/728 544/48/728
s 1
f 550/49/733 549/50/733 544/48/733
f 551/51/728 674/52/728 582/41/728
s 4
f 551/51/734 546/44/734 547/43/734
s 8
f 553/53/735 552/54/735 547/43/736
s 2
f 553/53/728 548/45/728 549/50/728
s 4
f 554/55/735 549/50/735 550/49/735
s 1
f 556/56/728 631/57/728 674/52/728
s 2
f 557/58/733 556/56/733 551/51/733
s 1
f 558/59/731 557/58/731 552/54/731
s 2
f 559/60/728 558/59/728 553/53/728
s 1
f 560/61/737 559/60/737 554/55/737
f 541/64/728 540/62/728 631/57/728
s 4
f 542/63/735 541/64/735 556/56/735
s 8
f 542/63/748 557/58/734 558/59/734
s 2
f 544/65/728 543/66/728 558/59/728
s 4
f 545/67/734 544/65/734 559/60/734
s 2
f 550/68/728 545/69/728 560/70/728
s 1
f 568/71/739 567/41/739 561/1/739
s 2
f 569/72/726 568/71/726 562/73/726
s 1
f 570/74/740 569/72/740 563/75/740
s 2
f 571/78/741 570/74/741 564/76/741
s 1
f 609/49/726 571/78/726 565/77/726
s 4
f 572/52/742 567/41/743 568/71/749
s 2
f 573/80/726 568/71/726 569/72/726
s 4
f 575/81/743 574/79/743 569/72/749
s 8
f 575/81/744 570/74/747 571/78/747
s 1
f 576/82/726 571/78/726 609/49/726
f 578/83/741 577/57/741 572/52/741
s 2
f 578/83/726 573/80/726 574/79/726
s 1
f 580/84/746 579/85/746 574/79/746
s 2
f 581/86/740 580/84/740 575/81/740
s 1
f 581/86/726 576/82/726 739/87/726
s 4
f 562/88/744 561/62/744 577/57/747
s 2
f 563/89/726 562/88/726 578/83/726
s 4
f 563/89/744 579/85/744 580/84/744
s 8
f 565/90/742 564/91/742 580/84/743
s 1
f 566/67/726 565/90/726 581/86/726
s 2
f 572/92/726 577/70/726 561/69/726
s 1
f 589/44/728 588/41/728 582/1/728
s 2
f 590/43/731 589/44/731 583/42/731
s 1
f 591/45/732 590/43/732 584/46/732
s 2
f 592/50/728 591/45/728 585/47/728
s 1
f 593/49/733 592/50/733 586/48/733
f 594/51/728 483/52/728 588/41/728
s 4
f 594/51/734 589/44/738 590/43/738
s 8
f 596/53/735 595/54/735 590/43/750
s 2
f 596/53/728 591/45/728 592/50/728
s 4
f 597/55/735 592/50/735 593/49/735
s 1
f 599/56/728 674/57/728 483/52/728
s 2
f 600/58/733 599/56/733 594/51/733
s 1
f 601/59/731 600/58/731 595/54/731
s 2
f 602/60/728 601/59/728 596/53/728
s 1
f 603/61/737 602/60/737 597/55/737
f 582/62/728 674/57/728 599/56/728
s 4
f 584/63/735 583/64/735 599/56/735
s 8
f 584/63/748 600/58/734 601/59/734
s 2
f 586/65/728 585/66/728 601/59/728
s 4
f 587/67/734 586/65/734 602/60/734
s 2
f 593/68/728 587/69/728 603/70/728
s 1
f 611/71/739 610/41/739 604/1/739
s 2
f 612/72/726 611/71/726 605/73/726
s 1
f 613/74/740 612/72/740 606/75/740
s 2
f 614/78/741 613/74/741 607/76/741
s 1
f 615/49/726 614/78/726 608/77/726
s 4
f 616/52/749 610/41/743 611/71/743
s 2
f 618/79/726 617/80/726 611/71/726
s 4
f 619/81/743 618/79/743 612/72/743
s 8
f 619/81/747 613/74/745 614/78/745
s 1
f 480/87/726 620/82/726 614/78/726
f 622/83/741 621/57/741 616/52/741
s 2
f 623/85/726 622/83/726 617/80/726
s 1
f 624/84/746 623/85/746 618/79/746
s 2
f 625/86/740 624/84/740 619/81/740
s 1
f 625/86/726 620/82/726 480/87/726
s 4
f 605/88/744 604/62/744 621/57/745
s 2
f 606/89/726 605/88/726 622/83/726
s 4
f 606/89/747 623/85/744 624/84/744
s 8
f 608/90/749 607/91/749 624/84/743
s 1
f 609/67/726 608/90/726 625/86/726
s 2
f 616/92/726 621/70/726 604/69/726
s 1
f 631/41/728 498/1/728 626/42/728
s 2
f 633/43/737 632/44/737 626/42/737
s 1
f 634/45/732 633/43/732 627/46/732
s 2
f 634/45/728 628/47/728 629/48/728
s 1
f 636/49/733 635/50/733 629/48/733
f 637/51/728 491/52/728 631/41/728
s 4
f 638/54/734 637/51/734 632/44/734
s 8
f 638/54/750 633/43/736 634/45/736
s 2
f 640/55/728 639/53/728 634/45/728
s 4
f 641/87/735 640/55/735 635/50/735
s 1
f 642/56/728 494/57/728 491/52/728
s 2
f 642/56/733 637/51/733 638/54/733
s 1
f 644/59/737 643/58/737 638/54/737
s 2
f 645/60/728 644/59/728 639/53/728
s 1
f 646/61/731 645/60/731 640/55/731
f 626/64/728 498/62/728 494/57/728
s 4
f 626/64/735 642/56/735 643/58/735
s 8
f 628/66/748 627/63/748 643/58/738
s 2
f 629/65/728 628/66/728 644/59/728
s 4
f 629/65/734 645/60/738 646/61/738
s 2
f 636/68/728 630/69/728 646/70/728
s 1
f 653/71/740 652/41/740 647/1/740
s 2
f 654/72/726 653/71/726 648/73/726
s 1
f 655/74/739 654/72/739 649/75/739
s 2
f 655/74/741 650/76/741 651/77/741
s 1
f 695/49/726 656/78/726 651/77/726
s 4
f 658/80/742 657/52/742 652/41/743
s 2
f 659/79/726 658/80/726 653/71/726
s 4
f 659/79/743 654/72/743 655/74/743
s 8
f 661/82/744 660/81/744 655/74/745
s 1
f 661/82/726 656/78/726 695/49/726
f 664/83/741 663/57/741 657/52/741
s 2
f 665/85/726 664/83/726 658/80/726
s 1
f 666/84/746 665/85/746 659/79/746
s 2
f 667/86/739 666/84/739 660/81/739
s 1
f 667/86/726 661/82/726 662/87/726
s 4
f 647/62/747 663/57/747 664/83/747
s 2
f 648/88/726 664/83/726 665/85/726
s 4
f 650/91/744 649/89/744 665/85/744
s 8
f 650/91/749 666/84/743 667/86/743
s 1
f 495/67/726 651/90/726 667/86/726
s 2
f 657/92/726 663/70/726 647/69/726
s 1
f 675/44/728 674/41/728 631/1/728
s 2
f 676/43/737 675/44/737 669/42/737
s 1
f 677/45/732 676/43/732 670/46/732
s 2
f 678/50/728 677/45/728 671/47/728
s 1
f 679/49/733 678/50/733 672/48/733
f 680/51/728 728/52/728 674/41/728
s 4
f 681/54/734 680/51/734 675/44/734
s 8
f 681/54/750 676/43/736 677/45/736
s 2
f 682/53/728 677/45/728 678/50/728
s 4
f 684/87/750 683/55/750 678/50/735
s 1
f 685/56/728 491/57/728 728/52/728
s 2
f 686/58/733 685/56/733 680/51/733
s 1
f 687/59/737 686/58/737 681/54/737
s 2
f 687/59/728 682/53/728 683/55/728
s 1
f 689/61/731 688/60/731 683/55/731
f 631/62/728 491/57/728 685/56/728
s 4
f 669/64/735 685/56/735 686/58/735
s 8
f 671/66/748 670/63/748 686/58/738
s 2
f 672/65/728 671/66/728 687/59/728
s 4
f 672/65/734 688/60/734 689/61/734
s 2
f 679/68/728 673/69/728 689/70/728
s 1
f 697/71/740 696/41/740 690/1/740
s 2
f 698/72/726 697/71/726 691/73/726
s 1
f 699/74/739 698/72/739 692/75/739
s 2
f 700/78/741 699/74/741 693/76/741
s 1
f 739/49/726 700/78/726 694/77/726
s 4
f 702/80/742 701/52/742 696/41/749
s 2
f 703/79/726 702/80/726 697/71/726
s 4
f 703/79/743 698/72/743 699/74/743
s 8
f 705/82/744 704/81/744 699/74/745
s 1
f 705/82/726 700/78/726 739/49/726
f 707/57/741 701/52/741 702/80/741
s 2
f 709/85/726 708/83/726 702/80/726
s 1
f 710/84/746 709/85/746 703/79/746
s 2
f 711/86/739 710/84/739 704/81/739
s 1
f 662/61/726 711/86/726 705/82/726
s 4
f 690/62/744 707/57/747 708/83/747
s 2
f 692/89/726 691/88/726 708/83/726
s 4
f 693/91/744 692/89/744 709/85/744
s 8
f 693/91/742 710/84/743 711/86/743
s 1
f 695/67/726 694/90/726 711/86/726
s 2
f 701/92/726 707/70/726 690/69/726
s 1
f 483/41/728 674/1/728 712/42/728
s 2
f 718/43/737 717/44/737 712/42/737
s 1
f 719/45/732 718/43/732 713/46/732
s 2
f 720/50/728 719/45/728 714/47/728
s 1
f 721/49/733 720/50/733 715/48/733
f 723/51/728 722/52/728 483/41/728
s 4
f 724/54/734 723/51/734 717/44/738
s 8
f 724/54/735 718/43/750 719/45/750
s 2
f 726/55/728 725/53/728 719/45/728
s 4
f 727/87/735 726/55/735 720/50/735
s 1
f 729/56/728 728/57/728 722/52/728
s 2
f 730/58/733 729/56/733 723/51/733
s 1
f 731/59/737 730/58/737 724/54/737
s 2
f 732/60/728 731/59/728 725/53/728
s 1
f 732/60/731 726/55/731 727/87/731
f 712/64/728 674/62/728 728/57/728
s 4
f 712/64/735 729/56/735 730/58/735
s 8
f 714/66/748 713/63/748 730/58/738
s 2
f 714/66/728 731/59/728 732/60/728
s 4
f 715/65/734 732/60/734 733/61/734
s 2
f 721/68/728 716/69/728 733/70/728
s 1
f 741/71/740 740/41/740 734/1/740
s 2
f 742/72/726 741/71/726 735/73/726
s 1
f 743/74/739 742/72/739 736/75/739
s 2
f 744/78/741 743/74/741 737/76/741
s 1
f 480/49/726 744/78/726 738/77/726
s 4
f 746/80/749 745/52/749 740/41/743
s 2
f 747/79/726 746/80/726 741/71/726
s 4
f 747/79/743 742/72/743 743/74/743
s 8
f 749/82/747 748/81/747 743/74/745
s 1
f 484/87/726 749/82/726 744/78/726
f 751/83/741 750/57/741 745/52/741
s 2
f 752/85/726 751/83/726 746/80/726
s 1
f 753/84/746 752/85/746 747/79/746
s 2
f 754/86/739 753/84/739 748/81/739
s 1
f 754/86/726 749/82/726 484/87/726
s 4
f 734/62/744 750/57/745 751/83/745
s 2
f 735/88/726 751/83/726 752/85/726
s 4
f 737/91/744 736/89/744 752/85/744
s 8
f 737/91/749 753/84/743 754/86/743
s 1
f 739/67/726 738/90/726 754/86/726
s 2
f 745/92/726 750/70/726 734/69/726
s 1
f 126/1/1 125/1/3 359/1/751
f 125/1/3 128/1/10 359/1/751
f 134/1/21 135/1/23 13/1/27
f 135/1/23 136/1/24 54/1/30
f 137/1/26 135/1/23 362/1/28
f 137/1/26 125/1/3 14/1/2
f 362/1/28 51/1/9 125/1/3
f 362/1/28 54/1/30 138/1/29
f 363/1/36 1/1/38 141/1/189
f 8/1/41 364/1/43 144/1/44
f 151/1/60 152/1/62 15/1/49
f 366/1/61 13/1/27 152/1/62
f 14/1/2 367/1/63 153/1/64
f 153/1/64 154/1/65 16/1/55
f 14/1/2 369/1/82 137/1/26
f 369/1/82 13/1/27 137/1/26
f 164/1/85 163/1/87 370/1/88
f 370/1/88 16/1/55 147/1/50
f 163/1/87 165/1/89 370/1/88
f 6/1/84 371/1/92 162/1/83
f 162/1/83 152/1/62 13/1/27
f 152/1/62 164/1/85 15/1/49
f 371/1/92 12/1/86 164/1/85
f 9/1/90 372/1/94 165/1/89
f 165/1/89 153/1/64 16/1/55
f 153/1/64 161/1/79 14/1/2
f 169/1/95 168/1/97 373/1/99
f 28/1/98 373/1/99 170/1/238
f 373/1/99 27/1/101 170/1/238
f 168/1/97 171/1/100 373/1/99
f 168/1/97 180/1/136 377/1/137
f 168/1/97 181/1/138 23/1/102
f 377/1/137 24/1/140 181/1/138
f 377/1/137 22/1/141 182/1/139
s 2
f 183/1/143 180/1/145 21/1/182
s 8
f 22/1/151 379/1/152 182/1/752
f 379/1/152 24/1/153 182/1/752
s 16
f 24/1/157 380/1/158 181/1/753
s 4
f 173/1/108 186/1/162 380/1/754
s 16
f 37/1/166 381/1/167 189/1/219
s 4
f 381/1/168 35/1/170 189/1/226
f 187/1/171 190/1/169 381/1/168
f 191/1/173 176/1/119 382/1/174
f 382/1/174 26/1/177 192/1/175
f 176/1/119 193/1/176 382/1/174
s 16
f 27/1/164 384/1/183 187/1/165
s 4
f 384/1/185 25/1/172 187/1/171
f 186/1/162 191/1/173 384/1/185
s 1
f 138/1/29 195/1/186 385/1/187
f 138/1/29 196/1/188 51/1/9
f 385/1/187 5/1/34 141/1/189
s 16
f 37/1/166 391/1/220 209/1/221
f 209/1/221 210/1/222 41/1/755
s 2
f 214/1/233 215/1/235 38/1/266
s 1
f 215/1/237 170/1/238 394/1/240
f 38/1/239 394/1/240 216/1/241
f 216/1/241 188/1/242 37/1/272
f 394/1/240 27/1/101 188/1/242
s 2
f 219/1/263 221/1/265 42/1/263
f 397/1/264 38/1/266 221/1/265
s 1
f 221/1/267 216/1/241 398/1/269
f 42/1/268 398/1/269 218/1/756
f 398/1/269 41/1/271 218/1/756
f 216/1/241 209/1/270 398/1/269
s 4
f 225/1/283 166/1/284 400/1/757
s 1
f 9/1/90 401/1/293 227/1/758
s 4
f 227/1/294 228/1/296 44/1/296
s 1
f 401/1/293 12/1/86 225/1/759
s 16
f 167/1/302 227/1/309 402/1/760
s 4
f 44/1/296 405/1/318 233/1/318
s 2
f 405/1/319 45/1/320 232/1/319
f 229/1/324 233/1/323 406/1/323
f 136/1/325 129/1/326 407/1/328
s 1
f 54/1/30 407/1/327 195/1/186
f 51/1/9 409/1/334 128/1/10
f 413/1/364 15/1/49 148/1/48
f 16/1/55 414/1/365 150/1/53
f 243/1/371 242/1/373 415/1/761
s 2
f 114/1/374 415/1/376 244/1/762
s 1
f 242/1/373 245/1/380 415/1/761
f 251/1/391 252/1/393 116/1/396
f 252/1/393 253/1/394 75/1/400
f 116/1/396 418/1/397 254/1/398
f 113/1/372 418/1/397 242/1/373
f 242/1/373 255/1/399 76/1/379
f 252/1/393 255/1/399 418/1/397
f 265/1/418 264/1/420 421/1/422
f 421/1/422 122/1/424 266/1/763
f 264/1/420 267/1/423 421/1/422
f 268/1/427 269/1/428 77/1/425
f 271/1/436 272/1/438 78/1/419
f 423/1/437 76/1/379 272/1/438
s 2
f 110/1/439 424/1/441 274/1/442
s 1
f 75/1/400 425/1/452 255/1/399
f 425/1/452 76/1/379 255/1/399
f 277/1/451 279/1/453 425/1/452
f 78/1/419 426/1/458 264/1/420
f 426/1/458 77/1/425 264/1/420
f 280/1/457 282/1/459 426/1/458
f 74/1/460 427/1/462 282/1/459
f 282/1/459 268/1/427 77/1/425
f 268/1/427 278/1/449 75/1/400
f 272/1/438 281/1/455 78/1/419
f 428/1/464 71/1/456 281/1/455
f 286/1/465 285/1/467 429/1/469
f 89/1/468 429/1/469 287/1/605
f 429/1/469 90/1/471 287/1/605
f 285/1/467 288/1/470 429/1/469
s 4
f 289/1/482 274/1/480 430/1/479
s 1
f 84/1/506 433/1/508 298/1/510
f 86/1/509 433/1/508 299/1/511
f 299/1/511 285/1/467 85/1/466
f 297/1/507 285/1/467 433/1/508
s 4
f 296/1/500 301/1/518 434/1/764
s 16
f 437/1/541 99/1/543 306/1/543
f 304/1/544 307/1/542 437/1/541
s 4
f 308/1/545 294/1/490 438/1/547
f 88/1/546 438/1/547 309/1/548
f 309/1/548 310/1/549 87/1/537
f 294/1/490 310/1/549 438/1/547
s 2
f 288/1/552 311/1/553 90/1/597
s 4
f 439/1/554 88/1/546 311/1/603
s 16
f 440/1/556 89/1/544 304/1/544
f 440/1/556 85/1/530 286/1/556
s 1
f 67/1/408 441/1/558 258/1/559
f 313/1/560 254/1/398 113/1/372
f 312/1/557 254/1/398 441/1/558
s 16
f 327/1/592 328/1/594 103/1/592
f 447/1/593 99/1/543 328/1/594
s 4
f 330/1/241 305/1/536 97/1/624
f 448/1/595 87/1/537 305/1/536
s 2
f 90/1/597 449/1/598 331/1/599
s 4
f 449/1/601 98/1/602 332/1/631
s 1
f 307/1/604 287/1/605 450/1/227
f 99/1/606 450/1/227 333/1/228
f 450/1/227 100/1/608 333/1/228
f 287/1/605 331/1/607 450/1/227
s 4
f 330/1/241 326/1/622 452/1/621
s 2
f 100/1/625 453/1/260 338/1/626
s 1
f 328/1/632 333/1/228 454/1/634
f 103/1/633 454/1/634 336/1/765
f 454/1/634 104/1/636 336/1/765
f 333/1/228 338/1/635 454/1/634
f 74/1/460 457/1/658 343/1/766
s 2
f 343/1/659 344/1/660 107/1/660
s 4
f 344/1/661 345/1/663 106/1/678
s 1
f 457/1/658 71/1/456 345/1/767
s 16
f 345/1/664 284/1/665 458/1/768
s 2
f 106/1/666 458/1/668 346/1/679
f 111/1/473 461/1/319 289/1/474
s 4
f 461/1/318 110/1/483 289/1/482
f 461/1/318 106/1/678 350/1/318
s 2
f 106/1/666 462/1/680 350/1/323
f 110/1/439 462/1/680 273/1/440
s 1
f 462/1/681 109/1/448 273/1/447
f 462/1/681 105/1/671 347/1/321
f 259/1/407 312/1/557 67/1/408
f 463/1/686 116/1/396 312/1/557
f 464/1/689 118/1/691 351/1/769
f 464/1/689 115/1/17 247/1/381
f 465/1/696 113/1/372 243/1/371
f 77/1/425 469/1/714 267/1/423
s 16
f 120/1/722 470/1/724 354/1/770
s 1
f 474/2/726 524/1/726 471/5/726
s 2
f 475/4/727 471/5/727 472/6/727
s 1
f 475/4/728 473/7/728 540/11/728
f 476/8/726 566/3/726 474/2/726
s 2
f 477/10/727 474/2/727 475/4/727
s 1
f 477/10/728 540/11/728 582/93/728
f 615/12/726 476/8/726 478/14/726
s 2
f 479/13/727 476/8/727 477/10/727
s 1
f 588/15/728 477/10/728 582/93/728
f 481/16/726 615/12/726 478/14/726
s 4
f 482/18/729 478/14/729 479/13/729
s 1
f 482/18/728 588/15/728 483/94/728
f 484/19/726 481/16/726 485/21/726
s 4
f 486/20/729 481/16/729 482/18/729
s 1
f 722/22/728 482/18/728 483/94/728
f 487/23/726 484/19/726 485/21/726
s 2
f 488/25/730 485/21/730 486/20/730
s 1
f 488/25/728 722/22/728 728/95/728
f 662/26/726 487/23/726 489/28/726
s 2
f 490/27/730 487/23/730 488/25/730
s 1
f 491/29/728 488/25/728 728/95/728
f 668/30/726 489/28/726 492/32/726
s 2
f 493/31/730 489/28/730 490/27/730
s 1
f 494/33/728 490/27/728 491/29/728
f 496/34/726 668/30/726 492/32/726
s 4
f 497/36/199 492/32/199 493/31/199
s 1
f 497/36/728 494/33/728 498/96/728
f 524/37/726 496/34/726 471/39/726
s 4
f 472/38/199 496/34/199 497/36/199
s 1
f 473/40/728 497/36/728 498/96/728
f 540/41/728 499/42/728 504/44/728
s 2
f 505/43/731 499/42/731 500/46/731
s 1
f 506/45/732 500/46/732 501/47/732
s 2
f 506/45/728 502/48/728 507/50/728
s 1
f 508/49/733 502/48/733 503/97/733
f 509/51/728 540/41/728 504/44/728
s 4
f 509/51/734 505/43/734 510/54/734
s 8
f 511/53/735 505/43/736 506/45/736
s 2
f 511/53/728 507/50/728 512/55/728
s 4
f 512/55/735 508/49/735 513/87/735
s 1
f 514/56/728 631/52/728 509/51/728
s 2
f 515/58/733 509/51/733 510/54/733
s 1
f 516/59/731 510/54/731 511/53/731
s 2
f 517/60/728 511/53/728 512/55/728
s 1
f 518/61/737 512/55/737 513/87/737
f 473/62/728 514/56/728 499/64/728
s 4
f 500/63/735 514/56/735 515/58/735
s 8
f 500/63/738 516/59/734 501/66/738
s 2
f 502/65/728 516/59/728 517/60/728
s 4
f 503/67/734 517/60/734 518/61/734
s 2
f 508/68/728 518/70/728 513/92/728
s 1
f 526/71/739 519/1/739 520/73/739
s 2
f 527/72/726 520/73/726 521/75/726
s 1
f 528/74/740 521/75/740 522/76/740
s 2
f 528/74/741 523/77/741 529/78/741
s 1
f 566/49/726 523/77/726 524/97/726
s 4
f 530/52/742 526/71/743 531/80/742
s 2
f 532/79/726 526/71/726 527/72/726
s 4
f 533/81/743 527/72/743 528/74/743
s 8
f 533/81/744 529/78/745 534/82/744
s 1
f 534/82/726 566/49/726 695/87/726
f 536/83/741 530/52/741 531/80/741
s 2
f 536/83/726 532/79/726 537/85/726
s 1
f 538/84/746 532/79/746 533/81/746
s 2
f 539/86/740 533/81/740 534/82/740
s 1
f 539/86/726 695/87/726 495/61/726
s 4
f 520/88/744 535/57/745 536/83/745
s 2
f 521/89/726 536/83/726 537/85/726
s 4
f 521/89/747 538/84/744 522/91/747
s 8
f 523/90/742 538/84/743 539/86/743
s 1
f 524/67/726 539/86/726 495/61/726
s 2
f 530/92/726 519/69/726 525/68/726
s 1
f 546/44/728 540/1/728 541/42/728
s 2
f 547/43/731 541/42/731 542/46/731
s 1
f 548/45/732 542/46/732 543/47/732
s 2
f 548/45/728 544/48/728 549/50/728
s 1
f 550/49/733 544/48/733 545/97/733
f 551/51/728 582/41/728 546/44/728
s 4
f 551/51/734 547/43/734 552/54/734
s 8
f 553/53/735 547/43/736 548/45/736
s 2
f 553/53/728 549/50/728 554/55/728
s 4
f 554/55/735 550/49/735 555/87/735
s 1
f 556/56/728 674/52/728 551/51/728
s 2
f 557/58/733 551/51/733 552/54/733
s 1
f 558/59/731 552/54/731 553/53/731
s 2
f 559/60/728 553/53/728 554/55/728
s 1
f 560/61/737 554/55/737 555/87/737
f 541/64/728 631/57/728 556/56/728
s 4
f 542/63/735 556/56/735 557/58/735
s 8
f 542/63/748 558/59/734 543/66/748
s 2
f 544/65/728 558/59/728 559/60/728
s 4
f 545/67/734 559/60/734 560/61/734
s 2
f 550/68/728 560/70/728 555/92/728
s 1
f 568/71/739 561/1/739 562/73/739
s 2
f 569/72/726 562/73/726 563/75/726
s 1
f 570/74/740 563/75/740 564/76/740
s 2
f 571/78/741 564/76/741 565/77/741
s 1
f 609/49/726 565/77/726 566/97/726
s 4
f 572/52/742 568/71/749 573/80/742
s 2
f 573/80/726 569/72/726 574/79/726
s 4
f 575/81/743 569/72/749 570/74/749
s 8
f 575/81/744 571/78/747 576/82/744
s 1
f 576/82/726 609/49/726 739/87/726
f 578/83/741 572/52/741 573/80/741
s 2
f 578/83/726 574/79/726 579/85/726
s 1
f 580/84/746 574/79/746 575/81/746
s 2
f 581/86/740 575/81/740 576/82/740
s 1
f 581/86/726 739/87/726 695/61/726
s 4
f 562/88/744 577/57/747 578/83/747
s 2
f 563/89/726 578/83/726 579/85/726
s 4
f 563/89/744 580/84/744 564/91/744
s 8
f 565/90/742 580/84/743 581/86/743
s 1
f 566/67/726 581/86/726 695/61/726
s 2
f 572/92/726 561/69/726 567/68/726
s 1
f 589/44/728 582/1/728 583/42/728
s 2
f 590/43/731 583/42/731 584/46/731
s 1
f 591/45/732 584/46/732 585/47/732
s 2
f 592/50/728 585/47/728 586/48/728
s 1
f 593/49/733 586/48/733 587/97/733
f 594/51/728 588/41/728 589/44/728
s 4
f 594/51/734 590/43/738 595/54/734
s 8
f 596/53/735 590/43/750 591/45/750
s 2
f 596/53/728 592/50/728 597/55/728
s 4
f 597/55/735 593/49/735 598/87/735
s 1
f 599/56/728 483/52/728 594/51/728
s 2
f 600/58/733 594/51/733 595/54/733
s 1
f 601/59/731 595/54/731 596/53/731
s 2
f 602/60/728 596/53/728 597/55/728
s 1
f 603/61/737 597/55/737 598/87/737
f 582/62/728 599/56/728 583/64/728
s 4
f 584/63/735 599/56/735 600/58/735
s 8
f 584/63/748 601/59/734 585/66/748
s 2
f 586/65/728 601/59/728 602/60/728
s 4
f 587/67/734 602/60/734 603/61/734
s 2
f 593/68/728 603/70/728 598/92/728
s 1
f 611/71/739 604/1/739 605/73/739
s 2
f 612/72/726 605/73/726 606/75/726
s 1
f 613/74/740 606/75/740 607/76/740
s 2
f 614/78/741 607/76/741 608/77/741
s 1
f 615/49/726 608/77/726 609/97/726
s 4
f 616/52/749 611/71/743 617/80/749
s 2
f 618/79/726 611/71/726 612/72/726
s 4
f 619/81/743 612/72/743 613/74/743
s 8
f 619/81/747 614/78/745 620/82/747
s 1
f 480/87/726 614/78/726 615/49/726
f 622/83/741 616/52/741 617/80/741
s 2
f 623/85/726 617/80/726 618/79/726
s 1
f 624/84/746 618/79/746 619/81/746
s 2
f 625/86/740 619/81/740 620/82/740
s 1
f 625/86/726 480/87/726 739/61/726
s 4
f 605/88/744 621/57/745 622/83/745
s 2
f 606/89/726 622/83/726 623/85/726
s 4
f 606/89/747 624/84/744 607/91/747
s 8
f 608/90/749 624/84/743 625/86/743
s 1
f 609/67/726 625/86/726 739/61/726
s 2
f 616/92/726 604/69/726 610/68/726
s 1
f 631/41/728 626/42/728 632/44/728
s 2
f 633/43/737 626/42/737 627/46/737
s 1
f 634/45/732 627/46/732 628/47/732
s 2
f 634/45/728 629/48/728 635/50/728
s 1
f 636/49/733 629/48/733 630/97/733
f 637/51/728 631/41/728 632/44/728
s 4
f 638/54/734 632/44/734 633/43/734
s 8
f 638/54/750 634/45/736 639/53/735
s 2
f 640/55/728 634/45/728 635/50/728
s 4
f 641/87/735 635/50/735 636/49/735
s 1
f 642/56/728 491/52/728 637/51/728
s 2
f 642/56/733 638/54/733 643/58/733
s 1
f 644/59/737 638/54/737 639/53/737
s 2
f 645/60/728 639/53/728 640/55/728
s 1
f 646/61/731 640/55/731 641/87/731
f 626/64/728 494/57/728 642/56/728
s 4
f 626/64/735 643/58/735 627/63/735
s 8
f 628/66/748 643/58/738 644/59/734
s 2
f 629/65/728 644/59/728 645/60/728
s 4
f 629/65/734 646/61/738 630/67/734
s 2
f 636/68/728 646/70/728 641/92/728
s 1
f 653/71/740 647/1/740 648/73/740
s 2
f 654/72/726 648/73/726 649/75/726
s 1
f 655/74/739 649/75/739 650/76/739
s 2
f 655/74/741 651/77/741 656/78/741
s 1
f 695/49/726 651/77/726 495/97/726
s 4
f 658/80/742 652/41/743 653/71/743
s 2
f 659/79/726 653/71/726 654/72/726
s 4
f 659/79/743 655/74/743 660/81/743
s 8
f 661/82/744 655/74/745 656/78/745
s 1
f 661/82/726 695/49/726 662/87/726
f 664/83/741 657/52/741 658/80/741
s 2
f 665/85/726 658/80/726 659/79/726
s 1
f 666/84/746 659/79/746 660/81/746
s 2
f 667/86/739 660/81/739 661/82/739
s 1
f 667/86/726 662/87/726 668/61/726
s 4
f 647/62/747 664/83/747 648/88/747
s 2
f 648/88/726 665/85/726 649/89/726
s 4
f 650/91/744 665/85/744 666/84/744
s 8
f 650/91/749 667/86/743 651/90/749
s 1
f 495/67/726 667/86/726 668/61/726
s 2
f 657/92/726 647/69/726 652/68/726
s 1
f 675/44/728 631/1/728 669/42/728
s 2
f 676/43/737 669/42/737 670/46/737
s 1
f 677/45/732 670/46/732 671/47/732
s 2
f 678/50/728 671/47/728 672/48/728
s 1
f 679/49/733 672/48/733 673/97/733
f 680/51/728 674/41/728 675/44/728
s 4
f 681/54/734 675/44/734 676/43/734
s 8
f 681/54/750 677/45/736 682/53/750
s 2
f 682/53/728 678/50/728 683/55/728
s 4
f 684/87/750 678/50/735 679/49/735
s 1
f 685/56/728 728/52/728 680/51/728
s 2
f 686/58/733 680/51/733 681/54/733
s 1
f 687/59/737 681/54/737 682/53/737
s 2
f 687/59/728 683/55/728 688/60/728
s 1
f 689/61/731 683/55/731 684/87/731
f 631/62/728 685/56/728 669/64/728
s 4
f 669/64/735 686/58/735 670/63/735
s 8
f 671/66/748 686/58/738 687/59/738
s 2
f 672/65/728 687/59/728 688/60/728
s 4
f 672/65/734 689/61/734 673/67/734
s 2
f 679/68/728 689/70/728 684/92/728
s 1
f 697/71/740 690/1/740 691/73/740
s 2
f 698/72/726 691/73/726 692/75/726
s 1
f 699/74/739 692/75/739 693/76/739
s 2
f 700/78/741 693/76/741 694/77/741
s 1
f 739/49/726 694/77/726 695/97/726
s 4
f 702/80/742 696/41/749 697/71/749
s 2
f 703/79/726 697/71/726 698/72/726
s 4
f 703/79/743 699/74/743 704/81/743
s 8
f 705/82/744 699/74/745 700/78/745
s 1
f 705/82/726 739/49/726 706/87/726
f 707/57/741 702/80/741 708/83/741
s 2
f 709/85/726 702/80/726 703/79/726
s 1
f 710/84/746 703/79/746 704/81/746
s 2
f 711/86/739 704/81/739 705/82/739
s 1
f 662/61/726 705/82/726 706/87/726
s 4
f 690/62/744 708/83/747 691/88/744
s 2
f 692/89/726 708/83/726 709/85/726
s 4
f 693/91/744 709/85/744 710/84/744
s 8
f 693/91/742 711/86/743 694/90/742
s 1
f 695/67/726 711/86/726 662/61/726
s 2
f 701/92/726 690/69/726 696/68/726
s 1
f 483/41/728 712/42/728 717/44/728
s 2
f 718/43/737 712/42/737 713/46/737
s 1
f 719/45/732 713/46/732 714/47/732
s 2
f 720/50/728 714/47/728 715/48/728
s 1
f 721/49/733 715/48/733 716/97/733
f 723/51/728 483/41/728 717/44/728
s 4
f 724/54/734 717/44/738 718/43/738
s 8
f 724/54/735 719/45/750 725/53/735
s 2
f 726/55/728 719/45/728 720/50/728
s 4
f 727/87/735 720/50/735 721/49/735
s 1
f 729/56/728 722/52/728 723/51/728
s 2
f 730/58/733 723/51/733 724/54/733
s 1
f 731/59/737 724/54/737 725/53/737
s 2
f 732/60/728 725/53/728 726/55/728
s 1
f 732/60/731 727/87/731 733/61/731
f 712/64/728 728/57/728 729/56/728
s 4
f 712/64/735 730/58/735 713/63/735
s 8
f 714/66/748 730/58/738 731/59/738
s 2
f 714/66/728 732/60/728 715/65/728
s 4
f 715/65/734 733/61/734 716/67/734
s 2
f 721/68/728 733/70/728 727/92/728
s 1
f 741/71/740 734/1/740 735/73/740
s 2
f 742/72/726 735/73/726 736/75/726
s 1
f 743/74/739 736/75/739 737/76/739
s 2
f 744/78/741 737/76/741 738/77/741
s 1
f 480/49/726 738/77/726 739/97/726
s 4
f 746/80/749 740/41/743 741/71/743
s 2
f 747/79/726 741/71/726 742/72/726
s 4
f 747/79/743 743/74/743 748/81/743
s 8
f 749/82/747 743/74/745 744/78/745
s 1
f 484/87/726 744/78/726 480/49/726
f 751/83/741 745/52/741 746/80/741
s 2
f 752/85/726 746/80/726 747/79/726
s 1
f 753/84/746 747/79/746 748/81/746
s 2
f 754/86/739 748/81/739 749/82/739
s 1
f 754/86/726 484/87/726 706/61/726
s 4
f 734/62/744 751/83/745 735/88/744
s 2
f 735/88/726 752/85/726 736/89/726
s 4
f 737/91/744 752/85/744 753/84/744
s 8
f 737/91/749 754/86/743 738/90/749
s 1
f 739/67/726 754/86/726 706/61/726
s 2
f 745/92/726 734/69/726 740/68/726
f 4/1/4 359/1/6 127/1/771
f 359/1/6 52/1/8 127/1/771
s 1
f 130/1/11 129/1/13 360/1/14
f 130/1/11 131/1/15 31/1/772
f 131/1/15 132/1/16 56/1/773
f 129/1/13 132/1/16 360/1/14
s 2
f 8/1/18 361/1/20 134/1/57
f 361/1/20 53/1/25 136/1/325
s 4
f 140/1/31 139/1/33 363/1/774
s 1
f 5/1/34 363/1/36 141/1/189
s 4
f 139/1/33 142/1/40 363/1/774
s 1
f 144/1/44 145/1/45 32/1/333
f 145/1/45 146/1/46 34/1/203
f 364/1/43 11/1/47 146/1/46
f 148/1/48 147/1/50 365/1/52
f 60/1/51 365/1/52 149/1/775
f 365/1/52 57/1/54 149/1/775
f 147/1/50 150/1/53 365/1/52
s 2
f 143/1/56 134/1/57 366/1/59
f 11/1/58 366/1/59 151/1/360
f 367/1/66 10/1/68 154/1/369
f 126/1/5 155/1/67 367/1/66
s 1
f 47/1/69 368/1/71 157/1/72
f 157/1/72 158/1/73 18/1/149
s 2
f 158/1/74 159/1/76 20/1/155
f 368/1/75 48/1/78 159/1/76
s 1
f 161/1/79 160/1/81 369/1/82
f 160/1/81 162/1/83 369/1/82
f 15/1/49 370/1/88 147/1/50
f 372/1/94 2/1/80 161/1/79
s 4
f 159/1/103 172/1/105 374/1/107
f 20/1/106 374/1/107 173/1/108
f 173/1/108 174/1/110 19/1/161
s 2
f 374/1/111 49/1/113 174/1/776
s 8
f 49/1/114 375/1/116 174/1/777
s 4
f 174/1/117 176/1/119 19/1/161
f 375/1/118 17/1/121 176/1/119
s 1
f 175/1/122 177/1/124 375/1/778
s 2
f 50/1/125 376/1/127 177/1/779
s 4
f 177/1/128 179/1/130 17/1/121
f 376/1/131 18/1/133 179/1/130
f 178/1/134 157/1/132 376/1/131
f 183/1/142 179/1/130 378/1/780
s 2
f 378/1/144 22/1/147 180/1/145
s 4
f 179/1/130 184/1/148 378/1/780
s 1
f 18/1/149 379/1/150 184/1/781
s 2
f 379/1/154 20/1/155 185/1/782
s 4
f 185/1/156 173/1/108 380/1/754
s 16
f 380/1/158 23/1/160 181/1/753
f 188/1/163 187/1/165 381/1/167
s 4
f 191/1/173 192/1/175 25/1/172
f 193/1/176 183/1/142 383/1/178
f 26/1/177 383/1/178 194/1/230
s 2
f 194/1/179 169/1/181 28/1/236
f 383/1/180 21/1/182 169/1/181
s 16
f 23/1/160 384/1/183 171/1/184
s 1
f 385/1/187 1/1/38 196/1/188
f 198/1/190 197/1/192 386/1/194
f 55/1/193 386/1/194 199/1/783
f 386/1/194 30/1/196 199/1/783
f 386/1/194 3/1/197 200/1/195
s 4
f 200/1/198 139/1/33 387/1/199
f 200/1/198 201/1/199 30/1/784
f 387/1/199 31/1/201 201/1/199
f 387/1/199 7/1/32 130/1/200
s 1
f 202/1/202 146/1/46 388/1/785
s 8
f 202/1/575 203/1/574 62/1/574
s 4
f 203/1/206 204/1/207 59/1/206
s 1
f 146/1/46 204/1/208 388/1/785
f 205/1/209 155/1/211 389/1/212
f 205/1/209 206/1/213 33/1/357
f 206/1/213 207/1/214 29/1/218
f 155/1/211 207/1/214 389/1/212
f 4/1/215 390/1/217 207/1/214
f 29/1/218 390/1/217 208/1/786
f 390/1/217 55/1/193 208/1/786
f 390/1/217 52/1/191 198/1/190
s 4
f 210/1/223 211/1/225 39/1/787
f 391/1/224 35/1/170 211/1/225
f 25/1/172 392/1/227 190/1/169
f 190/1/169 212/1/228 35/1/253
f 212/1/228 213/1/229 36/1/258
f 392/1/227 26/1/177 213/1/229
f 213/1/229 194/1/230 393/1/232
f 36/1/231 393/1/232 214/1/259
s 2
f 393/1/234 28/1/236 215/1/235
s 1
f 39/1/243 395/1/245 210/1/788
s 8
f 41/1/246 395/1/248 218/1/610
f 395/1/248 42/1/250 218/1/610
s 1
f 395/1/245 40/1/251 219/1/789
s 4
f 211/1/252 212/1/228 396/1/255
f 39/1/254 396/1/255 217/1/790
f 396/1/255 40/1/257 217/1/790
f 212/1/228 220/1/256 396/1/255
f 36/1/231 397/1/260 220/1/261
f 220/1/261 219/1/262 40/1/791
s 8
f 6/1/273 399/1/275 222/1/792
s 2
f 222/1/276 223/1/278 46/1/310
s 4
f 223/1/279 224/1/281 43/1/313
s 8
f 399/1/275 2/1/282 224/1/793
f 45/1/285 400/1/287 226/1/315
s 1
f 400/1/288 46/1/290 226/1/317
s 4
f 166/1/284 222/1/292 400/1/757
s 2
f 228/1/297 225/1/299 45/1/320
s 16
f 224/1/300 167/1/302 402/1/760
s 1
f 43/1/303 402/1/305 229/1/322
s 2
f 402/1/306 44/1/308 229/1/324
f 46/1/310 403/1/311 230/1/311
f 230/1/311 178/1/126 50/1/125
s 4
f 403/1/312 47/1/135 178/1/134
f 403/1/312 43/1/313 231/1/312
s 8
f 232/1/314 226/1/315 404/1/314
f 232/1/314 175/1/115 49/1/114
s 1
f 175/1/122 230/1/316 50/1/123
f 226/1/317 230/1/316 404/1/316
s 4
f 48/1/104 405/1/318 172/1/105
s 2
f 172/1/112 232/1/319 49/1/113
s 1
f 231/1/321 229/1/322 406/1/321
f 47/1/69 406/1/321 156/1/70
s 2
f 406/1/323 48/1/78 156/1/77
s 1
f 195/1/186 140/1/35 5/1/34
s 2
f 407/1/328 7/1/329 140/1/794
s 1
f 53/1/17 408/1/331 132/1/16
f 132/1/16 234/1/332 56/1/773
f 408/1/331 32/1/333 234/1/332
f 133/1/330 144/1/44 408/1/331
s 2
f 128/1/7 197/1/336 52/1/8
f 409/1/335 3/1/338 197/1/336
s 1
f 196/1/188 142/1/37 409/1/334
s 2
f 236/1/339 235/1/341 410/1/795
s 1
f 57/1/54 410/1/343 149/1/775
f 410/1/343 60/1/51 149/1/775
s 2
f 235/1/341 237/1/346 410/1/795
f 59/1/345 411/1/347 203/1/349
f 62/1/349 411/1/347 238/1/347
f 411/1/347 61/1/351 238/1/347
f 411/1/347 58/1/340 239/1/350
s 1
f 240/1/352 205/1/209 412/1/796
s 4
f 58/1/353 412/1/355 239/1/797
f 412/1/355 61/1/798 239/1/797
s 1
f 205/1/209 241/1/358 412/1/796
s 2
f 204/1/359 151/1/360 413/1/799
s 8
f 59/1/361 413/1/363 237/1/800
s 1
f 237/1/344 148/1/48 60/1/51
f 150/1/53 236/1/342 57/1/54
s 8
f 414/1/366 58/1/368 236/1/801
s 2
f 154/1/369 240/1/370 414/1/802
f 415/1/376 66/1/378 244/1/762
s 1
f 247/1/381 246/1/382 416/1/383
f 247/1/381 248/1/384 118/1/691
f 416/1/383 93/1/386 248/1/384
f 416/1/383 69/1/387 249/1/385
s 2
f 115/1/388 417/1/390 251/1/687
f 417/1/390 70/1/395 253/1/432
s 4
f 257/1/401 256/1/403 419/1/803
s 1
f 63/1/404 419/1/406 258/1/559
f 419/1/406 67/1/408 258/1/559
s 4
f 256/1/403 259/1/410 419/1/803
s 1
f 73/1/411 420/1/413 261/1/414
f 261/1/414 262/1/415 96/1/576
f 262/1/415 263/1/416 94/1/690
f 420/1/413 70/1/417 263/1/416
f 119/1/421 421/1/422 266/1/763
f 75/1/400 422/1/426 268/1/427
s 2
f 422/1/429 73/1/431 269/1/718
f 253/1/432 260/1/430 422/1/429
f 270/1/433 245/1/377 423/1/435
f 72/1/434 423/1/435 271/1/721
f 274/1/442 275/1/443 82/1/519
s 1
f 275/1/444 276/1/446 80/1/527
f 424/1/445 109/1/448 276/1/446
f 278/1/449 277/1/451 425/1/452
f 281/1/455 280/1/457 426/1/458
f 427/1/462 68/1/450 278/1/449
f 64/1/454 428/1/464 279/1/453
f 279/1/453 272/1/438 76/1/379
s 2
f 111/1/473 430/1/475 290/1/804
s 4
f 290/1/476 291/1/478 81/1/529
f 430/1/479 82/1/481 291/1/478
s 1
f 293/1/484 292/1/486 431/1/805
s 4
f 79/1/487 431/1/489 294/1/490
f 294/1/490 290/1/491 81/1/529
s 8
f 431/1/492 111/1/494 290/1/806
s 4
f 276/1/495 295/1/497 432/1/499
f 80/1/498 432/1/499 296/1/500
f 296/1/500 293/1/502 79/1/487
s 2
f 432/1/503 112/1/505 293/1/807
s 4
f 300/1/512 296/1/500 434/1/764
s 2
f 84/1/513 434/1/515 297/1/516
f 297/1/516 301/1/517 83/1/550
f 82/1/519 435/1/520 302/1/808
s 8
f 86/1/521 435/1/523 298/1/809
f 435/1/523 84/1/525 298/1/809
s 1
f 435/1/526 80/1/527 300/1/810
s 4
f 303/1/528 291/1/478 436/1/811
s 16
f 85/1/530 436/1/532 299/1/812
f 436/1/532 86/1/534 299/1/812
s 4
f 291/1/478 302/1/535 436/1/811
f 305/1/536 304/1/538 437/1/540
f 97/1/539 437/1/540 306/1/588
s 2
f 83/1/550 439/1/551 288/1/552
s 4
f 301/1/518 308/1/545 439/1/554
f 310/1/549 303/1/528 440/1/555
f 87/1/537 440/1/555 304/1/538
s 1
f 63/1/404 441/1/558 313/1/560
f 65/1/561 442/1/563 315/1/565
f 92/1/561 442/1/563 316/1/566
f 316/1/566 317/1/567 117/1/813
f 314/1/562 317/1/567 442/1/563
s 4
f 249/1/200 256/1/403 443/1/569
f 249/1/200 318/1/570 93/1/814
f 443/1/569 92/1/571 318/1/570
f 443/1/569 65/1/402 315/1/198
s 1
f 319/1/572 261/1/414 444/1/815
s 4
f 121/1/573 444/1/206 320/1/205
f 444/1/206 124/1/575 320/1/205
s 1
f 261/1/414 321/1/816 444/1/815
f 322/1/578 270/1/580 445/1/581
f 322/1/578 323/1/213 91/1/587
f 323/1/213 324/1/582 95/1/708
f 270/1/580 324/1/582 445/1/581
f 114/1/568 446/1/585 317/1/567
f 317/1/567 325/1/586 117/1/813
f 446/1/585 91/1/587 325/1/586
f 446/1/585 66/1/579 322/1/578
s 4
f 97/1/539 447/1/589 326/1/590
f 326/1/590 327/1/591 101/1/817
f 88/1/546 448/1/595 329/1/596
f 329/1/596 330/1/241 98/1/619
s 2
f 331/1/599 332/1/600 100/1/625
s 4
f 311/1/603 329/1/596 449/1/601
s 1
f 102/1/609 451/1/611 335/1/818
s 8
f 104/1/612 451/1/614 336/1/819
f 451/1/614 103/1/616 336/1/819
s 1
f 451/1/611 101/1/617 327/1/820
s 4
f 337/1/618 330/1/241 452/1/621
f 102/1/620 452/1/621 334/1/821
f 452/1/621 101/1/623 334/1/821
s 2
f 338/1/626 335/1/627 104/1/822
s 4
f 335/1/628 337/1/630 102/1/823
f 453/1/629 98/1/602 337/1/630
s 8
f 64/1/637 455/1/639 339/1/824
s 4
f 339/1/640 340/1/642 105/1/674
s 2
f 340/1/643 341/1/645 108/1/675
s 8
f 455/1/639 68/1/646 341/1/825
s 4
f 341/1/647 283/1/649 456/1/826
s 1
f 108/1/650 456/1/652 342/1/676
s 8
f 456/1/653 107/1/655 342/1/677
s 4
f 283/1/649 343/1/657 456/1/826
s 1
f 458/1/669 105/1/671 346/1/682
s 16
f 284/1/665 339/1/673 458/1/768
s 4
f 105/1/674 459/1/312 347/1/312
f 109/1/496 459/1/312 295/1/497
s 2
f 459/1/311 112/1/505 295/1/504
f 340/1/643 348/1/311 459/1/311
s 1
f 348/1/316 342/1/676 460/1/316
f 348/1/316 292/1/486 112/1/485
s 8
f 292/1/493 349/1/314 111/1/494
f 342/1/677 349/1/314 460/1/314
s 2
f 349/1/319 344/1/660 461/1/319
f 69/1/683 463/1/685 259/1/827
f 246/1/684 251/1/687 463/1/685
s 1
f 70/1/417 464/1/689 263/1/416
f 94/1/690 464/1/689 351/1/769
f 257/1/405 313/1/560 465/1/696
s 2
f 65/1/692 465/1/694 314/1/695
f 314/1/695 243/1/375 114/1/374
s 8
f 353/1/697 352/1/699 466/1/828
s 1
f 122/1/424 466/1/701 266/1/763
f 466/1/701 119/1/421 266/1/763
s 8
f 352/1/699 354/1/704 466/1/828
f 355/1/350 352/1/699 467/1/705
f 355/1/350 356/1/706 123/1/829
f 467/1/705 124/1/707 356/1/706
f 467/1/705 121/1/698 320/1/348
s 1
f 95/1/708 468/1/709 357/1/830
s 4
f 123/1/710 468/1/712 355/1/712
f 468/1/712 120/1/713 355/1/712
s 1
f 468/1/709 72/1/583 358/1/831
f 267/1/423 353/1/700 122/1/424
s 16
f 469/1/715 121/1/717 353/1/832
s 2
f 269/1/718 319/1/719 469/1/833
f 358/1/720 271/1/721 470/1/834
s 1
f 354/1/702 265/1/418 119/1/421
f 470/1/725 78/1/419 265/1/418
