# Blender 4.5.3 LTS
# www.blender.org
mtllib PuertaIzquierda.mtl
g PuertaIzquierda_Malla
v -0.499064 9.839703 -0.840869
v -0.509022 10.864824 -0.841783
v -0.466887 9.825534 -0.850646
v -0.360092 10.649296 -0.850374
v -0.691305 9.839703 -0.841340
v -0.668516 10.864824 -0.842181
v -0.723214 9.825534 -0.851285
v -0.819341 10.649296 -0.851520
v -0.509022 11.018362 -0.841783
v -0.360092 11.207328 -0.850374
v -0.819341 11.207328 -0.851520
v -0.668516 11.018362 -0.842181
v -0.754876 10.666228 -0.841390
v -0.424220 10.666228 -0.840570
v -0.754876 11.207466 -0.841390
v -0.424220 11.207466 -0.840570
v -0.695097 10.863931 -0.414708
v -0.530342 10.872509 -0.410150
v -0.695097 11.006363 -0.414708
v -0.530342 10.996509 -0.410150
v -0.697453 10.837667 -0.371727
v -0.546849 10.860987 -0.372698
v -0.697453 11.033127 -0.371727
v -0.546849 11.008032 -0.372698
v -1.057868 11.023678 -0.417143
v -1.057868 10.854205 -0.417143
v -1.058487 11.028992 -0.369340
v -1.058487 10.848880 -0.369340
v -0.359835 10.649296 -0.870096
v -0.466630 9.825534 -0.870358
v -0.722957 9.825534 -0.870996
v -0.819084 10.649296 -0.871242
v -0.359835 11.207328 -0.870096
v -0.819084 11.207328 -0.871242
v -1.824695 11.028397 -0.420247
v -1.824695 10.851251 -0.420247
v -1.825350 11.028397 -0.370054
v -1.825350 10.851251 -0.370054
v -2.097124 11.006256 -0.414646
v -2.097124 10.873391 -0.414646
v -2.097614 11.006256 -0.377010
v -2.097614 10.873391 -0.377010
v -0.525789 10.884903 -0.757579
v -0.525789 10.984115 -0.757579
v -0.653947 10.984115 -0.757904
v -0.653947 10.884903 -0.757904
v -0.529260 10.884903 -0.492308
v -0.529260 10.984115 -0.492308
v -0.657429 10.984115 -0.492621
v -0.657429 10.884903 -0.492621
v -0.460989 10.054061 -0.839874
v -0.394263 10.054061 -0.850469
v -0.793710 10.054061 -0.851457
v -0.727278 10.054061 -0.840533
v -0.394007 10.054061 -0.870180
v -0.793453 10.054061 -0.871179
v -0.489985 11.375621 -0.840839
v -0.458348 11.384474 -0.850625
v -0.729626 11.384474 -0.851300
v -0.697179 11.375621 -0.841357
v -0.458091 11.384474 -0.870337
v -0.729368 11.384474 -0.871011
v -0.495477 9.839703 -1.115103
v -0.505458 10.864824 -1.114231
v -0.463556 9.825534 -1.105170
v -0.356762 10.649296 -1.104897
v -0.687719 9.839703 -1.115585
v -0.664939 10.864824 -1.114629
v -0.719883 9.825534 -1.105808
v -0.816010 10.649296 -1.106043
v -0.505458 11.018362 -1.114231
v -0.356762 11.207328 -1.104897
v -0.816010 11.207328 -1.106043
v -0.664939 11.018362 -1.114629
v -0.751280 10.666228 -1.115850
v -0.420625 10.666228 -1.115030
v -0.751280 11.207466 -1.115850
v -0.420625 11.207466 -1.115030
v -0.680338 10.863931 -1.542212
v -0.515463 10.872509 -1.545949
v -0.680338 11.006363 -1.542212
v -0.515463 10.996509 -1.545949
v -0.681571 10.837667 -1.585198
v -0.530996 10.860987 -1.583479
v -0.681571 11.033127 -1.585198
v -0.530996 11.008032 -1.583479
v -1.043141 11.023678 -1.541581
v -1.043141 10.854205 -1.541581
v -1.042511 11.028992 -1.589385
v -1.042511 10.848880 -1.589385
v -0.357018 10.649296 -1.085186
v -0.463814 9.825534 -1.085448
v -0.720140 9.825534 -1.086086
v -0.816267 10.649296 -1.086332
v -0.357018 11.207328 -1.085186
v -0.816267 11.207328 -1.086332
v -1.810003 11.028397 -1.542296
v -1.810003 10.851251 -1.542296
v -1.809338 11.028397 -1.592488
v -1.809338 10.851251 -1.592488
v -2.082271 11.006256 -1.549251
v -2.082271 10.873391 -1.549251
v -2.081767 11.006256 -1.586887
v -2.081767 10.873391 -1.586887
v -0.520016 10.884903 -1.198519
v -0.520016 10.984115 -1.198519
v -0.648171 10.984115 -1.198833
v -0.648171 10.884903 -1.198833
v -0.516545 10.884903 -1.463791
v -0.516545 10.984115 -1.463791
v -0.644701 10.984115 -1.464115
v -0.644701 10.884903 -1.464115
v -0.457364 10.054061 -1.115905
v -0.390933 10.054061 -1.104992
v -0.790379 10.054061 -1.105980
v -0.723667 10.054061 -1.116575
v -0.391190 10.054061 -1.085270
v -0.790636 10.054061 -1.086269
v -0.486400 11.375621 -1.115084
v -0.455017 11.384474 -1.105149
v -0.726295 11.384474 -1.105823
v -0.693591 11.375621 -1.115602
v -0.455274 11.384474 -1.085427
v -0.726551 11.384474 -1.086102
v -0.447245 10.322449 -0.839917
v -0.366955 10.650667 -0.843754
v -0.377184 10.322449 -0.850416
v -0.402676 10.054061 -0.843759
v -0.780093 9.896611 -0.851422
v -0.723102 9.825534 -0.860473
v -0.779836 9.896611 -0.871144
v -0.793586 10.054061 -0.860646
v -0.806532 10.322449 -0.851488
v -0.812587 10.650667 -0.844865
v -0.736678 10.322449 -0.840642
v -0.785479 10.054061 -0.844717
v -0.589790 10.594534 -0.840356
v -0.594141 10.054061 -0.838859
v -0.595057 9.804276 -0.850960
v -0.717819 9.827957 -0.844663
v -0.595191 9.830380 -0.840513
v -0.472469 9.827957 -0.844055
v -0.824149 10.964845 -0.851529
v -0.819217 10.649296 -0.860708
v -0.823893 10.964845 -0.871251
v -0.819217 11.207328 -0.860708
v -0.589790 11.254606 -0.840356
v -0.731476 11.336484 -0.840782
v -0.593947 11.381445 -0.840509
v -0.452300 11.336484 -0.840082
v -0.812587 11.207828 -0.844865
v -0.792912 10.963133 -0.842279
v -0.384938 10.963133 -0.841258
v -0.366955 11.207828 -0.843754
v -0.353682 10.964845 -0.850359
v -0.505231 10.934509 -0.492241
v -0.530070 10.883361 -0.430947
v -0.506308 10.934509 -0.409868
v -0.530070 10.985667 -0.430947
v -0.588763 10.836040 -0.841982
v -0.475148 10.812242 -0.842897
v -0.702509 10.812242 -0.843473
v -0.588763 11.047147 -0.841982
v -0.702509 11.092490 -0.843473
v -0.475148 11.092490 -0.842897
v -0.698417 10.941599 -0.842254
v -0.479121 10.941599 -0.841710
v -0.697555 10.935391 -0.364335
v -0.824304 10.843937 -0.370963
v -1.058604 10.938942 -0.360377
v -0.824304 11.030395 -0.370963
v -0.593346 11.002716 -0.492465
v -0.598216 11.020775 -0.411210
v -0.662024 10.986454 -0.431949
v -0.681458 10.934509 -0.492688
v -0.721797 10.935338 -0.421190
v -0.662024 10.882702 -0.431949
v -0.593346 10.866302 -0.492465
v -0.598216 10.848380 -0.411210
v -0.601818 10.837793 -0.370577
v -0.601818 11.031447 -0.370577
v -0.536365 10.934509 -0.368860
v -0.697000 10.819458 -0.391819
v -0.533362 10.854110 -0.388515
v -0.533362 11.014908 -0.388515
v -0.697000 11.051270 -0.391819
v -1.058185 11.059104 -0.393247
v -1.445933 11.028471 -0.369267
v -1.825022 11.061612 -0.395156
v -1.445271 11.027812 -0.419148
v -0.824203 11.014366 -0.414506
v -1.057752 10.938942 -0.426106
v -0.824203 10.859914 -0.414506
v -1.058185 10.818768 -0.393247
v -0.718357 9.898450 -0.840671
v -0.471763 9.898450 -0.840059
v -0.409752 9.896611 -0.850504
v -0.394152 10.054061 -0.859646
v -0.409495 9.896611 -0.870215
v -0.466775 9.825534 -0.859835
v -0.594800 9.804276 -0.870682
v -0.798261 11.335760 -0.871188
v -0.729513 11.384474 -0.860489
v -0.798518 11.335760 -0.851466
v -0.359967 11.207328 -0.859563
v -0.353424 10.964845 -0.870081
v -0.359967 10.649296 -0.859563
v -0.376925 10.322449 -0.870138
v -2.032335 11.024612 -0.371653
v -2.106492 11.020818 -0.395857
v -2.031709 11.024612 -0.419682
v -1.824574 10.939823 -0.429650
v -1.445271 10.851612 -0.419148
v -1.825022 10.818034 -0.395156
v -1.445933 10.850952 -0.369267
v -1.825469 10.939823 -0.360651
v -2.106194 10.939823 -0.418796
v -2.106791 10.939823 -0.372907
v -2.106492 10.858829 -0.395857
v -2.031709 10.855045 -0.419682
v -2.032335 10.855045 -0.371653
v -0.655032 10.882394 -0.824901
v -0.589873 10.866302 -0.757747
v -0.522952 10.882394 -0.824568
v -0.655032 10.988400 -0.824901
v -0.677987 10.934509 -0.757960
v -0.522952 10.988400 -0.824568
v -0.589873 11.002716 -0.757747
v -0.501760 10.934509 -0.757523
v -0.655708 10.884903 -0.623918
v -0.527539 10.884903 -0.623604
v -0.655708 10.984115 -0.623918
v -0.527539 10.984115 -0.623604
v -0.806262 10.322449 -0.871210
v -0.594788 11.397760 -0.850966
v -0.463775 11.382964 -0.844027
v -0.724192 11.382964 -0.844680
v -0.594531 11.397760 -0.870677
v -0.458223 11.384474 -0.859814
v -0.385184 11.335760 -0.850439
v -0.384928 11.335760 -0.870160
v -0.443630 10.322449 -1.115798
v -0.399163 10.054061 -1.111732
v -0.373840 10.322449 -1.104939
v -0.363452 10.650667 -1.111565
v -0.776762 9.896611 -1.105945
v -0.790491 10.054061 -1.096792
v -0.777020 9.896611 -1.086234
v -0.720007 9.825534 -1.096619
v -0.803188 10.322449 -1.106012
v -0.781966 10.054061 -1.112679
v -0.733063 10.322449 -1.116512
v -0.809084 10.650667 -1.112665
v -0.590501 10.054061 -1.117579
v -0.586185 10.594534 -1.116064
v -0.591726 9.804276 -1.105483
v -0.468965 9.827957 -1.111791
v -0.591593 9.830380 -1.115930
v -0.714314 9.827957 -1.112399
v -0.820819 10.964845 -1.106052
v -0.816133 11.207328 -1.096854
v -0.821074 10.964845 -1.086341
v -0.816133 10.649296 -1.096854
v -0.586185 11.254606 -1.116064
v -0.448691 11.336484 -1.115651
v -0.590335 11.381445 -1.115927
v -0.727867 11.336484 -1.116350
v -0.789344 10.963133 -1.115157
v -0.809084 11.207828 -1.112665
v -0.350350 10.964845 -1.104882
v -0.363452 11.207828 -1.111565
v -0.381371 10.963133 -1.114137
v -0.492504 10.934509 -1.463735
v -0.515734 10.985667 -1.525151
v -0.491426 10.934509 -1.546108
v -0.515734 10.883361 -1.525151
v -0.585198 10.836040 -1.114430
v -0.698967 10.812242 -1.113511
v -0.471619 10.812242 -1.112946
v -0.585198 11.047147 -1.114430
v -0.471619 11.092490 -1.112946
v -0.698967 11.092490 -1.113511
v -0.694853 10.941599 -1.114702
v -0.475544 10.941599 -1.114158
v -0.681470 10.935391 -1.592590
v -0.808380 11.030395 -1.586596
v -1.042395 10.938942 -1.598347
v -0.808380 10.843937 -1.586596
v -0.580618 11.002716 -1.463958
v -0.647722 10.986454 -1.524808
v -0.583374 11.020775 -1.545223
v -0.668730 10.934509 -1.464171
v -0.647722 10.882702 -1.524808
v -0.707195 10.935338 -1.535868
v -0.580618 10.866302 -1.463958
v -0.583374 10.848380 -1.545223
v -0.585915 10.837793 -1.585877
v -0.520414 10.934509 -1.587269
v -0.585915 11.031447 -1.585877
v -0.517930 10.854110 -1.567599
v -0.681641 10.819458 -1.565115
v -0.517930 11.014908 -1.567599
v -0.681641 11.051270 -1.565115
v -1.042826 11.059104 -1.565477
v -1.430575 11.027812 -1.541498
v -1.809677 11.061612 -1.567386
v -1.429928 11.028471 -1.591388
v -0.809430 10.859914 -1.543064
v -1.043260 10.938942 -1.532618
v -0.809430 11.014366 -1.543064
v -1.042826 10.818768 -1.565477
v -0.714751 9.898450 -1.116390
v -0.468157 9.898450 -1.115778
v -0.406422 9.896611 -1.105027
v -0.463681 9.825534 -1.095981
v -0.406678 9.896611 -1.085305
v -0.391057 10.054061 -1.095803
v -0.591984 9.804276 -1.085772
v -0.795187 11.335760 -1.105989
v -0.726418 11.384474 -1.096635
v -0.795444 11.335760 -1.086278
v -0.356874 10.649296 -1.095720
v -0.350608 10.964845 -1.085171
v -0.356874 11.207328 -1.095720
v -0.374110 10.322449 -1.085228
v -2.016991 11.024612 -1.543883
v -2.091147 11.020818 -1.568087
v -2.016352 11.024612 -1.591924
v -1.430575 10.851612 -1.541498
v -1.810122 10.939823 -1.532892
v -1.429928 10.850952 -1.591388
v -1.809677 10.818034 -1.567386
v -1.809218 10.939823 -1.601892
v -2.091446 10.939823 -1.545149
v -2.091147 10.858829 -1.568087
v -2.090849 10.939823 -1.591037
v -2.016991 10.855045 -1.543883
v -2.016352 10.855045 -1.591924
v -0.518929 10.882394 -1.131522
v -0.584100 10.866302 -1.198676
v -0.651009 10.882394 -1.131844
v -0.672201 10.934509 -1.198900
v -0.651009 10.988400 -1.131844
v -0.584100 11.002716 -1.198676
v -0.518929 10.988400 -1.131522
v -0.495987 10.934509 -1.198452
v -0.518252 10.884903 -1.332494
v -0.646422 10.884903 -1.332819
v -0.646422 10.984115 -1.332819
v -0.518252 10.984115 -1.332494
v -0.803446 10.322449 -1.086300
v -0.591457 11.397760 -1.105489
v -0.720675 11.382964 -1.112416
v -0.460271 11.382964 -1.111763
v -0.455142 11.384474 -1.095960
v -0.591714 11.397760 -1.085767
v -0.382111 11.335760 -1.085250
v -0.381855 11.335760 -1.104962
v -0.385802 10.322821 -0.843734
v -0.779968 9.896611 -0.860611
v -0.798058 10.322821 -0.844754
v -0.591990 10.317155 -0.839026
v -0.595149 9.807549 -0.844300
v -0.824025 10.964845 -0.860718
v -0.591956 11.340385 -0.839231
v -0.819846 10.964802 -0.844969
v -0.358123 10.964802 -0.843825
v -0.506029 10.934509 -0.430870
v -0.588866 10.760902 -0.843130
v -0.588866 11.140130 -0.843130
v -0.742810 10.954576 -0.843654
v -0.434747 10.954576 -0.842891
v -0.824401 10.937166 -0.362872
v -0.594902 11.004971 -0.431259
v -0.686951 10.934605 -0.432566
v -0.594902 10.864069 -0.431259
v -0.600873 10.934614 -0.363392
v -0.599961 10.820394 -0.389884
v -0.510312 10.934509 -0.387501
v -0.599961 11.048825 -0.389884
v -1.445603 11.061304 -0.394207
v -0.826194 10.937155 -0.422549
v -0.823962 10.820011 -0.392633
v -0.823962 11.054311 -0.392633
v -0.595081 9.897536 -0.839074
v -0.409628 9.896611 -0.859693
v -0.594932 9.804276 -0.860149
v -0.798393 11.335760 -0.860655
v -0.353556 10.964845 -0.859547
v -0.377059 10.322449 -0.859605
v -2.032919 11.056489 -0.395669
v -1.445152 10.939717 -0.428508
v -1.445603 10.818119 -0.394207
v -1.446054 10.939717 -0.359906
v -2.125648 10.939823 -0.395895
v -2.032491 10.939823 -0.428721
v -2.032919 10.823157 -0.395669
v -2.033348 10.939823 -0.362616
v -0.588986 10.862517 -0.824735
v -0.679791 10.935391 -0.824962
v -0.588986 11.008265 -0.824735
v -0.498193 10.935391 -0.824507
v -0.591623 10.866302 -0.623761
v -0.679737 10.934509 -0.623974
v -0.591623 11.002716 -0.623761
v -0.503510 10.934509 -0.623537
v -0.772427 9.897068 -0.844713
v -0.806407 10.322449 -0.860677
v -0.417589 9.897068 -0.843829
v -0.594751 11.395709 -0.844298
v -0.594663 11.397760 -0.860144
v -0.385074 11.335760 -0.859627
v -0.790417 11.335633 -0.844766
v -0.393406 11.335633 -0.843776
v -0.382301 10.322821 -1.111674
v -0.776874 9.896611 -1.096757
v -0.794559 10.322821 -1.112704
v -0.588343 10.317155 -1.117403
v -0.591634 9.807549 -1.112154
v -0.820930 10.964845 -1.096874
v -0.588313 11.340385 -1.117199
v -0.816339 10.964802 -1.112597
v -0.354629 10.964802 -1.111443
v -0.491706 10.934509 -1.525116
v -0.585325 10.760902 -1.113287
v -0.585325 11.140130 -1.113287
v -0.739277 10.954576 -1.113520
v -0.431214 10.954576 -1.112756
v -0.808270 10.937166 -1.594688
v -0.580573 11.004971 -1.525162
v -0.672661 10.934605 -1.524316
v -0.580573 10.864069 -1.525162
v -0.584782 10.934614 -1.593056
v -0.584552 10.820394 -1.566558
v -0.494845 10.934509 -1.568500
v -0.584552 11.048825 -1.566558
v -1.430259 11.061304 -1.566448
v -0.811633 10.937155 -1.535022
v -0.808619 10.820011 -1.564928
v -0.808619 11.054311 -1.564928
v -0.591433 9.897536 -1.117375
v -0.406547 9.896611 -1.095838
v -0.591838 9.804276 -1.096306
v -0.795300 11.335760 -1.096812
v -0.350474 10.964845 -1.095704
v -0.373965 10.322449 -1.095762
v -2.017575 11.056489 -1.567910
v -1.430710 10.939717 -1.532147
v -1.430259 10.818119 -1.566448
v -1.429808 10.939717 -1.600749
v -2.110304 10.939823 -1.568136
v -2.018003 10.939823 -1.534857
v -2.017575 10.823157 -1.567910
v -2.017134 10.939823 -1.600962
v -0.584976 10.862517 -1.131688
v -0.675781 10.935391 -1.131915
v -0.584976 11.008265 -1.131688
v -0.494169 10.935391 -1.131461
v -0.582338 10.866302 -1.332662
v -0.670451 10.934509 -1.332875
v -0.582338 11.002716 -1.332662
v -0.494225 10.934509 -1.332438
v -0.768913 9.897068 -1.112620
v -0.803312 10.322449 -1.096823
v -0.414087 9.897068 -1.111737
v -0.591250 11.395709 -1.112152
v -0.591581 11.397760 -1.096301
v -0.381979 11.335760 -1.095773
v -0.786915 11.335633 -1.112652
v -0.389904 11.335633 -1.111663
v -10.011960 0.278748 -1.109214
v -10.014776 0.278748 -0.894124
v -8.989472 2.936045 -0.891572
v -10.011960 7.382585 -1.109215
v -10.014776 7.382585 -0.894124
v -10.011960 14.486432 -1.109217
v -10.014776 14.486432 -0.894126
v -10.011960 21.590271 -1.109218
v -10.014776 21.590271 -0.894129
v -4.853404 20.739935 -1.096376
v -4.853404 21.590271 -1.096376
v -4.856220 21.590271 -0.881286
v -4.856220 20.739935 -0.881286
v -0.720140 20.739935 -1.086088
v 0.305153 21.590271 -1.083535
v 0.302336 21.590271 -0.868445
v 0.305153 14.486432 -1.083533
v 0.302336 14.486432 -0.868443
v 0.305153 7.382585 -1.083531
v 0.302336 7.382585 -0.868443
v -0.722957 8.870670 -0.870996
v 0.305153 0.278748 -1.083531
v 0.302336 0.278748 -0.868441
v -0.722957 2.936045 -0.870993
v -4.853404 2.936045 -1.096374
v -4.853404 0.278748 -1.096372
v -4.856220 0.278748 -0.881281
v -4.856220 2.936045 -0.881283
v -8.348662 3.467504 -0.889982
v -8.285278 3.520650 -0.836050
v -8.220493 3.573796 -0.889658
v -7.964166 3.786380 -0.889020
v -7.899381 3.839526 -0.942638
v -8.348662 8.339212 -0.889982
v -8.285278 8.286066 -0.836050
v -8.220493 8.232920 -0.889658
v -7.964166 8.020336 -0.889020
v -7.899381 7.967190 -0.942638
v -5.497030 8.339212 -0.882884
v -5.561816 8.286066 -0.829266
v -5.625199 8.232920 -0.883198
v -5.881526 8.020336 -0.883836
v -5.944897 7.967190 -0.937768
v -5.497030 3.467504 -0.882884
v -5.561816 3.520650 -0.829266
v -5.625199 3.573796 -0.883198
v -5.881526 3.786380 -0.883836
v -5.944897 3.839526 -0.937768
v -7.897979 3.839526 -1.050177
v -7.961349 3.786380 -1.104110
v -8.217676 3.573796 -1.104748
v -8.281059 3.520650 -1.158680
v -8.345846 3.467504 -1.105072
v -8.986655 2.936045 -1.106662
v -7.897979 7.967190 -1.050177
v -7.961349 8.020336 -1.104110
v -8.217676 8.232920 -1.104748
v -8.281059 8.286066 -1.158680
v -8.345846 8.339212 -1.105072
v -5.943495 7.967190 -1.045319
v -5.878709 8.020336 -1.098926
v -5.622383 8.232920 -1.098288
v -5.557597 8.286066 -1.151906
v -5.494213 8.339212 -1.097975
v -5.943495 3.839526 -1.045319
v -5.878709 3.786380 -1.098926
v -5.622383 3.573796 -1.098288
v -5.557597 3.520650 -1.151906
v -5.494213 3.467504 -1.097974
v -8.989472 8.870670 -0.891572
v -8.348662 9.402130 -0.889982
v -8.285278 9.455275 -0.836050
v -8.220493 9.508421 -0.889658
v -7.964166 9.721006 -0.889020
v -7.899381 9.774153 -0.942638
v -8.348662 14.273849 -0.889984
v -8.285278 14.220703 -0.836052
v -8.220493 14.167557 -0.889660
v -7.964166 13.954973 -0.889022
v -7.899381 13.901827 -0.942640
v -5.497030 14.273849 -0.882886
v -5.561816 14.220703 -0.829268
v -5.625199 14.167557 -0.883200
v -5.881526 13.954973 -0.883838
v -5.944897 13.901827 -0.937770
v -5.497030 9.402130 -0.882884
v -5.561816 9.455275 -0.829266
v -5.625199 9.508421 -0.883198
v -5.881526 9.721006 -0.883836
v -5.944897 9.774153 -0.937768
v -7.897979 9.774153 -1.050177
v -7.961349 9.721006 -1.104110
v -8.217676 9.508421 -1.104748
v -8.281059 9.455275 -1.158680
v -8.345846 9.402130 -1.105072
v -8.986655 8.870670 -1.106662
v -7.897979 13.901827 -1.050179
v -7.961349 13.954973 -1.104112
v -8.217676 14.167557 -1.104750
v -8.281059 14.220703 -1.158682
v -8.345846 14.273849 -1.105074
v -5.943495 13.901827 -1.045321
v -5.878709 13.954973 -1.098927
v -5.622383 14.167557 -1.098290
v -5.557597 14.220703 -1.151908
v -5.494213 14.273849 -1.097977
v -5.943495 9.774153 -1.045319
v -5.878709 9.721006 -1.098926
v -5.622383 9.508421 -1.098288
v -5.557597 9.455275 -1.151906
v -5.494213 9.402130 -1.097975
v -8.989472 14.805309 -0.891574
v -8.348662 15.336767 -0.889984
v -8.285278 15.389914 -0.836052
v -8.220493 15.443060 -0.889660
v -7.964166 15.655643 -0.889022
v -7.899381 15.708789 -0.942640
v -8.989472 20.739935 -0.891574
v -8.348662 20.208477 -0.889984
v -8.285278 20.155331 -0.836052
v -8.220493 20.102184 -0.889660
v -7.964166 19.889601 -0.889022
v -7.899381 19.836454 -0.942640
v -5.497030 20.208477 -0.882887
v -5.561816 20.155331 -0.829268
v -5.625199 20.102184 -0.883200
v -5.881526 19.889601 -0.883838
v -5.944897 19.836454 -0.937770
v -5.497030 15.336767 -0.882886
v -5.561816 15.389914 -0.829268
v -5.625199 15.443060 -0.883200
v -5.881526 15.655643 -0.883838
v -5.944897 15.708789 -0.937770
v -7.897979 15.708789 -1.050179
v -7.961349 15.655643 -1.104112
v -8.217676 15.443060 -1.104750
v -8.281059 15.389914 -1.158682
v -8.345846 15.336767 -1.105074
v -8.986655 14.805309 -1.106664
v -7.897979 19.836454 -1.050180
v -7.961349 19.889601 -1.104112
v -8.217676 20.102184 -1.104750
v -8.281059 20.155331 -1.158682
v -8.345846 20.208477 -1.105074
v -8.986655 20.739935 -1.106664
v -5.943495 19.836454 -1.045321
v -5.878709 19.889601 -1.098928
v -5.622383 20.102184 -1.098290
v -5.557597 20.155331 -1.151909
v -5.494213 20.208477 -1.097977
v -5.943495 15.708789 -1.045321
v -5.878709 15.655643 -1.098928
v -5.622383 15.443060 -1.098290
v -5.557597 15.389914 -1.151908
v -5.494213 15.336767 -1.097977
v -4.215398 3.467504 -0.879694
v -4.152028 3.520650 -0.825762
v -4.087241 3.573796 -0.879369
v -3.830915 3.786380 -0.878731
v -3.766130 3.839526 -0.932349
v -4.856220 8.870670 -0.881284
v -4.215398 8.339212 -0.879694
v -4.152028 8.286066 -0.825762
v -4.087241 8.232920 -0.879369
v -3.830915 8.020336 -0.878731
v -3.766130 7.967190 -0.932350
v -1.363779 8.339212 -0.872596
v -1.428565 8.286066 -0.818978
v -1.491936 8.232920 -0.872910
v -1.748261 8.020336 -0.873548
v -1.811646 7.967190 -0.927480
v -1.363779 3.467504 -0.872594
v -1.428565 3.520650 -0.818976
v -1.491936 3.573796 -0.872908
v -1.748261 3.786380 -0.873546
v -1.811646 3.839526 -0.927478
v -3.764715 3.839526 -1.039889
v -3.828099 3.786380 -1.093821
v -4.084425 3.573796 -1.094459
v -4.147796 3.520650 -1.148392
v -4.212581 3.467504 -1.094784
v -3.764715 7.967190 -1.039889
v -3.828099 8.020336 -1.093821
v -4.084425 8.232920 -1.094459
v -4.147796 8.286066 -1.148392
v -4.212581 8.339212 -1.094784
v -1.810231 7.967190 -1.035030
v -1.745445 8.020336 -1.088638
v -1.489120 8.232920 -1.088000
v -1.424335 8.286066 -1.141618
v -1.360963 8.339212 -1.087686
v -0.720140 8.870670 -1.086086
v -1.810231 3.839526 -1.035028
v -1.745445 3.786380 -1.088636
v -1.489120 3.573796 -1.087998
v -1.424335 3.520650 -1.141616
v -1.360963 3.467504 -1.087684
v -0.720140 2.936045 -1.086084
v -4.215398 9.402130 -0.879694
v -4.152028 9.455275 -0.825762
v -4.087241 9.508421 -0.879369
v -3.830915 9.721006 -0.878731
v -3.766130 9.774153 -0.932350
v -4.856220 14.805309 -0.881286
v -4.215398 14.273849 -0.879695
v -4.152028 14.220703 -0.825762
v -4.087241 14.167557 -0.879369
v -3.830915 13.954973 -0.878731
v -3.766130 13.901827 -0.932350
v -1.363779 14.273849 -0.872596
v -1.428565 14.220703 -0.818978
v -1.491936 14.167557 -0.872910
v -1.748261 13.954973 -0.873548
v -1.811646 13.901827 -0.927480
v -1.363779 9.402130 -0.872596
v -1.428565 9.455275 -0.818978
v -1.491936 9.508421 -0.872910
v -1.748261 9.721006 -0.873548
v -1.811646 9.774153 -0.927480
v -3.764715 9.774153 -1.039889
v -3.828099 9.721006 -1.093821
v -4.084425 9.508421 -1.094459
v -4.147796 9.455275 -1.148392
v -4.212581 9.402130 -1.094784
v -4.853404 8.870670 -1.096374
v -3.764715 13.901827 -1.039889
v -3.828099 13.954973 -1.093821
v -4.084425 14.167557 -1.094459
v -4.147796 14.220703 -1.148392
v -4.212581 14.273849 -1.094784
v -1.810231 13.901827 -1.035031
v -1.745445 13.954973 -1.088638
v -1.489120 14.167557 -1.088000
v -1.424335 14.220703 -1.141618
v -1.360963 14.273849 -1.087686
v -0.720140 14.805309 -1.086086
v -1.810231 9.774153 -1.035031
v -1.745445 9.721006 -1.088638
v -1.489120 9.508421 -1.088000
v -1.424335 9.455275 -1.141618
v -1.360963 9.402130 -1.087686
v -4.215398 15.336767 -0.879695
v -4.152028 15.389914 -0.825763
v -4.087241 15.443060 -0.879371
v -3.830915 15.655643 -0.878733
v -3.766130 15.708789 -0.932351
v -4.215398 20.208477 -0.879696
v -4.152028 20.155331 -0.825764
v -4.087241 20.102184 -0.879371
v -3.830915 19.889601 -0.878733
v -3.766130 19.836454 -0.932352
v -0.722957 20.739935 -0.870998
v -1.363779 20.208477 -0.872598
v -1.428565 20.155331 -0.818980
v -1.491936 20.102184 -0.872912
v -1.748261 19.889601 -0.873550
v -1.811646 19.836454 -0.927482
v -0.722957 14.805309 -0.870996
v -1.363779 15.336767 -0.872596
v -1.428565 15.389914 -0.818978
v -1.491936 15.443060 -0.872910
v -1.748261 15.655643 -0.873548
v -1.811646 15.708789 -0.927480
v -3.764715 15.708789 -1.039890
v -3.828099 15.655643 -1.093822
v -4.084425 15.443060 -1.094461
v -4.147796 15.389914 -1.148393
v -4.212581 15.336767 -1.094784
v -4.853404 14.805309 -1.096376
v -3.764715 19.836454 -1.039891
v -3.828099 19.889601 -1.093823
v -4.084425 20.102184 -1.094462
v -4.147796 20.155331 -1.148394
v -4.212581 20.208477 -1.094786
v -1.810231 19.836454 -1.035033
v -1.745445 19.889601 -1.088640
v -1.489120 20.102184 -1.088002
v -1.424335 20.155331 -1.141620
v -1.360963 20.208477 -1.087688
v -1.810231 15.708789 -1.035031
v -1.745445 15.655643 -1.088638
v -1.489120 15.443060 -1.088000
v -1.424335 15.389914 -1.141619
v -1.360963 15.336767 -1.087686
vn 0.0622 -0.0032 0.9981
vn 0.0280 0.0035 0.9996
vn 0.0334 -0.0008 0.9994
vn 0.6693 -0.0259 0.7425
vn 0.6738 -0.0241 0.7385
vn 0.6304 -0.0374 0.7754
vn 0.6285 -0.0507 0.7762
vn 0.6281 -0.0500 0.7765
vn 0.0368 -0.0029 0.9993
vn 0.0661 -0.0050 0.9978
vn -0.7807 -0.6248 -0.0102
vn -0.7807 -0.6248 -0.0096
vn -0.9248 -0.3803 -0.0125
vn -0.9248 -0.3804 -0.0121
vn -0.9248 -0.3803 -0.0117
vn -0.9977 -0.0669 -0.0130
vn -0.9977 -0.0670 -0.0130
vn -0.6987 -0.0214 0.7151
vn -0.6212 -0.0269 0.7832
vn -0.6221 -0.0270 0.7825
vn -0.0619 -0.0015 0.9981
vn -0.0662 -0.0021 0.9978
vn -0.0383 -0.0003 0.9993
vn -0.0713 -0.0040 0.9974
vn -0.6328 -0.0416 0.7732
vn -0.0025 0.0078 1.0000
vn -0.0295 0.0045 0.9996
vn -0.0025 0.0024 1.0000
vn -0.0025 -0.0004 1.0000
vn -0.0424 -0.0023 0.9991
vn -0.1477 -0.8836 0.4443
vn -0.1614 -0.9696 0.1839
vn -0.0006 -0.9754 0.2206
vn -0.0428 -0.0943 0.9946
vn -0.0724 -0.0934 0.9930
vn -0.0043 -0.1738 0.9848
vn 0.0631 -0.0986 0.9931
vn 0.0349 -0.0998 0.9944
vn 0.1603 -0.9691 0.1873
vn 0.1453 -0.8823 0.4478
vn -0.9995 -0.0272 -0.0135
vn -0.9999 0.0023 -0.0135
vn -0.9999 0.0023 -0.0130
vn -0.9995 -0.0272 -0.0130
vn -0.9999 0.0023 -0.0126
vn -0.9958 0.0902 -0.0130
vn -0.9958 0.0907 -0.0136
vn -0.0443 0.0373 0.9983
vn -0.0330 -0.0035 0.9994
vn -0.0024 -0.0128 0.9999
vn -0.0377 0.1644 0.9857
vn -0.0024 0.0106 0.9999
vn 0.0403 0.0402 0.9984
vn 0.0287 0.1660 0.9857
vn 0.0284 -0.0027 0.9996
vn -0.8350 -0.0012 0.5502
vn -0.7009 -0.0200 0.7130
vn -0.6879 0.0631 0.7231
vn -0.8348 -0.0013 0.5506
vn -0.0684 0.0065 0.9976
vn -0.0835 -0.0018 0.9965
vn -0.0353 -0.0022 0.9994
vn 0.0678 0.0008 0.9977
vn 0.0229 -0.0005 0.9997
vn 0.0639 0.0078 0.9979
vn 0.7943 0.0005 0.6076
vn 0.7922 0.0007 0.6103
vn 0.7137 0.0749 0.6964
vn 0.9011 -0.4334 0.0093
vn 0.8999 -0.4359 0.0118
vn 0.9038 -0.4279 0.0091
vn 0.9155 -0.3945 -0.0794
vn 0.9200 -0.3863 0.0660
vn 0.9200 0.3862 0.0662
vn 0.9038 0.4278 0.0090
vn 0.9155 0.3945 -0.0793
vn 0.8999 0.4359 0.0118
vn 0.9012 0.4334 0.0092
vn -0.0098 0.0007 1.0000
vn 0.0164 -0.0118 0.9998
vn -0.0025 -0.0168 0.9999
vn -0.0025 0.0046 1.0000
vn 0.0048 0.0008 1.0000
vn -0.0200 -0.0125 0.9997
vn 0.0058 -0.0036 1.0000
vn -0.0558 0.1306 0.9899
vn -0.0024 0.1706 0.9853
vn -0.0025 -0.0086 1.0000
vn -0.0108 -0.0038 0.9999
vn 0.0509 0.1304 0.9902
vn -0.0315 -0.0045 0.9995
vn 0.0019 0.0005 1.0000
vn 0.0235 -0.0020 0.9997
vn -0.0077 0.0009 1.0000
vn 0.0068 -0.0865 0.9962
vn -0.0026 -0.0777 0.9970
vn -0.0019 -0.0002 1.0000
vn 0.0042 -0.0975 0.9952
vn 0.0078 0.0002 1.0000
vn 0.0086 0.0866 0.9962
vn 0.0047 0.0972 0.9953
vn -0.0007 0.0777 0.9970
vn 0.2769 0.9333 -0.2287
vn 0.2804 0.9598 -0.0102
vn 0.2806 0.9598 -0.0106
vn 0.2711 0.8051 -0.5276
vn 0.2918 0.9024 -0.3171
vn 0.1088 0.6663 -0.7377
vn -0.2012 0.7528 -0.6267
vn -0.0860 0.6275 -0.7739
vn -0.2714 0.9612 -0.0501
vn -0.2786 0.9601 -0.0229
vn -0.2749 0.9611 -0.0276
vn -0.8991 0.4350 -0.0477
vn -0.8989 0.4355 -0.0477
vn -0.8973 0.4335 -0.0837
vn -0.3372 0.2007 -0.9198
vn -0.3190 -0.0220 -0.9475
vn -0.1278 -0.0037 -0.9918
vn -0.3682 -0.1877 -0.9106
vn -0.0855 -0.3623 -0.9281
vn -0.8992 -0.4349 -0.0477
vn -0.8989 -0.4355 -0.0477
vn -0.8975 -0.4333 -0.0825
vn -0.2757 -0.9609 -0.0264
vn -0.2786 -0.9601 -0.0227
vn -0.2724 -0.9610 -0.0487
vn -0.0935 -0.6365 -0.7656
vn -0.2030 -0.7546 -0.6240
vn 0.1071 -0.6878 -0.7179
vn 0.2927 -0.9020 -0.3173
vn 0.2768 -0.9333 -0.2288
vn 0.2814 -0.7743 -0.5668
vn 0.2805 -0.9598 -0.0105
vn 0.2788 -0.9603 -0.0083
vn 0.0248 -0.0726 0.9971
vn 0.0334 -0.0002 0.9994
vn 0.0253 0.0726 0.9970
vn 0.0769 -0.0001 0.9970
vn 0.0768 0.0695 0.9946
vn 0.0765 -0.0695 0.9946
vn -0.0069 -0.4804 -0.8770
vn -0.0130 -0.7230 0.6907
vn 0.1418 -0.7325 0.6659
vn 0.1642 -0.7246 0.6693
vn 0.3488 -0.7136 0.6076
vn 0.3418 -0.7086 0.6172
vn 0.2984 -0.6650 -0.6847
vn 0.9456 -0.3102 -0.0980
vn 0.9327 -0.3425 0.1126
vn 0.6323 -0.1616 0.7577
vn 0.6323 -0.1617 0.7577
vn 0.6407 -0.0000 0.7678
vn 0.6324 0.1617 0.7576
vn 0.6323 0.1617 0.7577
vn 0.9327 0.3425 0.1126
vn 0.9456 0.3102 -0.0979
vn 0.2895 0.7077 -0.6444
vn 0.3436 0.7075 0.6176
vn 0.3502 0.7120 0.6086
vn 0.1483 0.7311 0.6659
vn 0.0030 0.7233 0.6905
vn 0.0030 0.7236 0.6902
vn -0.0726 0.3809 -0.9218
vn 0.0076 0.4919 -0.8706
vn -0.0006 0.6084 0.7936
vn 0.0034 0.6289 0.7775
vn 0.0033 0.6289 0.7775
vn -0.0093 0.6029 0.7977
vn -0.0006 0.6085 0.7936
vn 0.0053 0.5892 -0.8080
vn 0.0052 0.3609 -0.9326
vn -0.0051 0.6012 -0.7991
vn 0.0147 0.5492 -0.8356
vn 0.0132 0.3388 -0.9407
vn 0.0126 0.3010 -0.9535
vn 0.0141 0.0002 -0.9999
vn 0.0106 0.0001 -0.9999
vn 0.0123 -0.2957 -0.9552
vn 0.0091 -0.3406 -0.9402
vn 0.0114 -0.4859 -0.8739
vn -0.0027 -0.6290 0.7774
vn -0.0114 -0.6751 0.7376
vn -0.0111 -0.6742 0.7385
vn -0.0132 -0.7225 0.6912
vn 0.0035 0.6748 0.7380
vn 0.0036 0.6748 0.7380
vn 0.0219 0.4933 -0.8696
vn -0.0477 -0.0224 0.9986
vn -0.0025 -0.0107 0.9999
vn 0.0435 -0.0230 0.9988
vn 0.0001 -0.1001 0.9950
vn 0.9967 -0.0807 0.0129
vn 0.9967 -0.0807 0.0121
vn 0.9221 -0.3867 0.0125
vn 0.9966 -0.0807 0.0137
vn 0.9221 -0.3867 0.0120
vn 0.7793 -0.6266 0.0101
vn 0.7793 -0.6266 0.0107
vn 0.7793 -0.6266 0.0096
vn 0.1636 -0.9865 0.0021
vn 0.0001 -1.0000 -0.0000
vn -0.0000 -1.0000 -0.0000
vn -0.1636 -0.9865 -0.0021
vn -0.1636 -0.9865 -0.0022
vn -0.9870 0.1600 -0.0124
vn -0.9958 0.0902 -0.0125
vn -0.5774 0.8164 -0.0073
vn -0.5774 0.8164 -0.0076
vn -0.5773 0.8165 -0.0071
vn -0.5774 0.8164 -0.0078
vn -0.9870 0.1601 -0.0134
vn 0.9939 0.1095 0.0130
vn 0.9939 0.1095 0.0135
vn 0.9999 0.0031 0.0137
vn 0.9999 0.0031 0.0131
vn 0.9999 0.0031 0.0125
vn 0.9993 -0.0363 0.0131
vn 0.9992 -0.0363 0.0136
vn 0.9982 -0.0579 0.0136
vn 0.9982 -0.0579 0.0131
vn 0.9993 -0.0363 0.0126
vn -0.0091 0.6030 0.7977
vn -0.1255 0.6159 0.7777
vn -0.1514 0.6181 0.7714
vn -0.2715 0.6224 0.7341
vn -0.2666 0.6197 -0.7382
vn -0.1214 0.6146 -0.7794
vn -0.1472 0.6165 -0.7735
vn -0.0050 0.6010 -0.7992
vn 0.0046 0.0001 -1.0000
vn -0.0008 -0.0000 -1.0000
vn 0.0039 -0.3645 -0.9312
vn 0.0064 -0.5604 -0.8282
vn -0.0054 -0.6024 -0.7982
vn 0.0029 -0.5975 -0.8019
vn -0.0094 -0.6030 0.7977
vn -0.0020 -0.6085 0.7936
vn -0.0027 -0.6289 0.7775
vn -0.0007 -0.1045 0.9945
vn 0.0045 0.0002 1.0000
vn -0.0058 -0.1055 0.9944
vn -0.0007 -0.0002 1.0000
vn -0.0058 -0.0000 1.0000
vn -0.0007 0.1037 0.9946
vn -0.8014 0.1834 -0.5693
vn -0.7621 -0.0000 -0.6474
vn -0.7755 -0.0000 -0.6313
vn -0.8119 0.1852 0.5536
vn -0.8212 0.1940 0.5367
vn -0.7866 -0.0000 0.6174
vn -0.8212 -0.1940 0.5367
vn -0.8119 -0.1852 0.5536
vn -0.8014 -0.1834 -0.5693
vn -0.0491 0.1062 -0.9931
vn -0.0008 0.1056 -0.9944
vn -0.1167 0.0959 -0.9885
vn -0.0630 -0.0000 -0.9980
vn -0.0490 -0.1062 -0.9931
vn -0.1167 -0.0959 -0.9885
vn -0.0008 -0.1056 -0.9944
vn -0.0054 -0.6027 -0.7979
vn -0.1250 -0.5939 -0.7948
vn -0.1491 -0.6063 -0.7811
vn -0.2589 -0.6568 -0.7083
vn -0.2634 -0.6595 0.7041
vn -0.1294 -0.5952 0.7931
vn -0.1534 -0.6078 0.7791
vn -0.0096 -0.6028 0.7978
vn -0.0596 -0.1009 0.9931
vn -0.1238 -0.0943 0.9878
vn -0.0672 -0.0000 0.9977
vn -0.0596 0.1009 0.9931
vn -0.1236 0.0945 0.9878
vn -0.0058 0.1056 0.9944
vn -0.1894 -0.5896 0.7852
vn -0.0020 -0.5458 0.8379
vn -0.0020 -0.5627 0.8267
vn -0.2837 -0.9578 0.0457
vn -0.2879 -0.9563 0.0502
vn -0.2812 -0.9594 0.0212
vn 0.2810 -0.9593 0.0282
vn 0.2876 -0.9560 0.0578
vn 0.2834 -0.9575 0.0532
vn 0.1849 -0.5877 0.7876
vn -0.5728 0.2405 0.7836
vn -0.6404 0.0239 0.7677
vn -0.9013 0.4331 0.0121
vn -0.9053 0.4228 0.0417
vn -0.9028 0.4285 0.0366
vn -0.9031 -0.4287 0.0252
vn -0.9056 -0.4230 0.0305
vn -0.9013 -0.4331 0.0062
vn -0.6285 -0.2440 0.7386
vn -0.6396 -0.2562 0.7248
vn -0.0022 0.4252 0.9051
vn 0.2826 0.9560 0.0782
vn 0.2824 0.9561 0.0780
vn 0.2808 0.9589 0.0409
vn -0.2808 0.9592 0.0335
vn -0.2874 0.9549 0.0753
vn -0.2833 0.9564 0.0710
vn 0.6476 -0.2735 0.7112
vn 0.6182 0.0337 0.7853
vn 0.9010 -0.4329 0.0298
vn 0.9046 -0.4227 0.0541
vn 0.9023 -0.4284 0.0489
vn 0.9017 0.4281 0.0602
vn 0.9041 0.4224 0.0653
vn 0.9008 0.4328 0.0356
vn 0.5637 0.2382 0.7909
vn -0.2788 -0.9602 0.0184
vn -0.2787 -0.9604 -0.0037
vn 0.2787 -0.9604 0.0036
vn 0.2786 -0.9601 0.0259
vn -0.8999 0.4359 -0.0118
vn -0.8999 0.4361 0.0091
vn -0.8999 -0.4359 -0.0118
vn -0.8999 -0.4361 0.0034
vn 0.2787 0.9604 0.0036
vn -0.2788 0.9604 -0.0037
vn -0.2787 0.9604 -0.0037
vn -0.2787 0.9599 0.0310
vn 0.8996 -0.4358 0.0271
vn 0.8995 0.4357 0.0328
vn -0.6334 -0.0424 0.7726
vn -0.6313 -0.2370 0.7384
vn -0.0730 -0.0256 0.9970
vn -0.6228 -0.2835 0.7292
vn -0.5920 -0.4676 0.6565
vn -0.9990 -0.0434 -0.0136
vn -0.9990 -0.0434 -0.0137
vn -0.9990 -0.0435 -0.0137
vn -0.9996 -0.0272 -0.0126
vn 0.0715 -0.0259 0.9971
vn 0.6070 -0.2850 0.7418
vn 0.6149 -0.2390 0.7515
vn 0.5836 -0.4655 0.6654
vn 0.5823 -0.4648 0.6670
vn 0.0919 0.9516 0.2933
vn 0.0960 0.9885 0.1173
vn -0.0015 0.9891 0.1474
vn 0.0648 0.1400 0.9880
vn -0.0031 0.2606 0.9654
vn -0.0768 0.1347 0.9879
vn -0.0977 0.9886 0.1148
vn -0.0944 0.9510 0.2944
vn -0.0005 1.0000 -0.0000
vn -0.0979 0.9952 -0.0010
vn -0.0981 0.9952 -0.0013
vn 0.0969 0.9953 0.0013
vn 0.0969 0.9953 0.0012
vn 0.9814 0.1918 0.0119
vn 0.5543 0.8323 0.0075
vn 0.5542 0.8324 0.0067
vn 0.5542 0.8324 0.0073
vn 0.5542 0.8324 0.0077
vn 0.5543 0.8323 0.0069
vn 0.9939 0.1098 0.0132
vn 0.9813 0.1918 0.0131
vn -0.6659 0.1113 0.7377
vn -0.6836 0.0694 0.7265
vn -0.4843 0.6770 0.5542
vn -0.4705 0.6634 0.5819
vn -0.4713 0.6642 0.5803
vn -0.0653 0.0331 0.9973
vn 0.0627 0.0358 0.9974
vn 0.4540 0.6838 0.5712
vn 0.4534 0.6832 0.5725
vn 0.4664 0.6966 0.5451
vn 0.7059 0.0832 0.7034
vn 0.6569 0.1324 0.7423
vn 0.0712 -0.0050 -0.9975
vn 0.0423 -0.0028 -0.9991
vn 0.0384 -0.0008 -0.9993
vn 0.6297 -0.0504 -0.7752
vn 0.6303 -0.0511 -0.7747
vn 0.6436 -0.0378 -0.7645
vn 0.6851 -0.0243 -0.7281
vn 0.6805 -0.0262 -0.7323
vn 0.0329 0.0036 -0.9995
vn 0.0672 -0.0032 -0.9977
vn -0.9977 -0.0670 -0.0132
vn -0.9247 -0.3804 -0.0116
vn -0.9247 -0.3804 -0.0120
vn -0.9247 -0.3804 -0.0129
vn -0.7808 -0.6247 -0.0102
vn -0.7808 -0.6247 -0.0099
vn -0.7809 -0.6246 -0.0100
vn -0.6198 -0.0413 -0.7837
vn -0.6145 -0.0267 -0.7884
vn -0.6152 -0.0267 -0.7880
vn -0.0663 -0.0040 -0.9978
vn -0.0611 -0.0021 -0.9981
vn -0.0333 -0.0003 -0.9994
vn -0.0618 -0.0026 -0.9981
vn -0.6880 -0.0212 -0.7254
vn -0.0370 -0.0023 -0.9993
vn 0.0025 0.0021 -1.0000
vn 0.0025 -0.0004 -1.0000
vn 0.0025 0.0078 -1.0000
vn -0.0276 0.0038 -0.9996
vn 0.1477 -0.8839 -0.4438
vn 0.1613 -0.9697 -0.1832
vn 0.0006 -0.9753 -0.2207
vn 0.0379 -0.0941 -0.9948
vn 0.0663 -0.0934 -0.9934
vn 0.0024 -0.1790 -0.9838
vn -0.0613 -0.0932 -0.9938
vn -0.0330 -0.0940 -0.9950
vn -0.1603 -0.9691 -0.1877
vn -0.1453 -0.8827 -0.4470
vn -0.9958 0.0902 -0.0134
vn -0.9999 0.0023 -0.0121
vn -0.9999 0.0023 -0.0129
vn -0.9958 0.0901 -0.0130
vn -0.9999 0.0023 -0.0137
vn -0.9995 -0.0272 -0.0131
vn 0.0460 0.0415 -0.9981
vn 0.0334 -0.0028 -0.9994
vn 0.0025 -0.0127 -0.9999
vn 0.0314 0.1547 -0.9875
vn 0.0026 0.0106 -0.9999
vn -0.0403 0.0369 -0.9985
vn -0.0268 0.1526 -0.9879
vn -0.0280 -0.0035 -0.9996
vn -0.0672 0.0007 -0.9977
vn -0.0225 -0.0005 -0.9997
vn -0.0634 0.0065 -0.9980
vn -0.8237 -0.0013 -0.5670
vn -0.8240 -0.0011 -0.5665
vn -0.6934 0.0632 -0.7178
vn -0.6901 -0.0198 -0.7234
vn 0.8365 -0.0005 -0.5479
vn 0.6913 0.0758 -0.7186
vn 0.8363 -0.0006 -0.5483
vn 0.0689 0.0078 -0.9976
vn 0.0728 0.0007 -0.9973
vn 0.0278 -0.0005 -0.9996
vn 0.9011 0.4335 0.0144
vn 0.9011 0.4334 0.0145
vn 0.9098 0.4100 0.0650
vn 0.9105 0.4072 0.0714
vn 0.9338 0.3527 0.0596
vn 0.9213 -0.3866 -0.0420
vn 0.9038 -0.4277 0.0148
vn 0.9134 -0.3939 0.1027
vn 0.8998 -0.4361 0.0117
vn 0.9011 -0.4335 0.0143
vn 0.0093 0.0009 -1.0000
vn -0.0157 -0.0112 -0.9998
vn 0.0025 -0.0162 -0.9999
vn 0.0025 0.0046 -1.0000
vn -0.0045 0.0010 -1.0000
vn 0.0213 -0.0118 -0.9997
vn -0.0058 -0.0040 -1.0000
vn 0.0559 0.1306 -0.9899
vn 0.0023 0.1706 -0.9853
vn 0.0025 -0.0086 -1.0000
vn 0.0107 -0.0038 -0.9999
vn -0.0509 0.1305 -0.9901
vn -0.0266 -0.0045 -0.9996
vn 0.0070 0.0005 -1.0000
vn 0.0285 -0.0020 -0.9996
vn -0.0028 0.0009 -1.0000
vn 0.0136 0.0866 -0.9962
vn 0.0041 0.0776 -0.9970
vn 0.0030 -0.0002 -1.0000
vn 0.0095 0.0973 -0.9952
vn 0.0130 0.0002 -0.9999
vn 0.0117 -0.0865 -0.9962
vn 0.0092 -0.0975 -0.9952
vn 0.0023 -0.0776 -0.9970
vn -0.2756 0.9611 0.0196
vn -0.2788 0.9602 0.0159
vn -0.2720 0.9613 0.0431
vn -0.0900 0.6284 0.7727
vn -0.2048 0.7548 0.6232
vn 0.1092 0.6740 0.7306
vn 0.2897 0.9005 0.3242
vn 0.2756 0.9321 0.2351
vn 0.2676 0.8027 0.5330
vn 0.2805 0.9597 0.0178
vn 0.2803 0.9597 0.0175
vn -0.8990 -0.4339 0.0592
vn -0.8997 -0.4358 0.0245
vn -0.9000 -0.4352 0.0241
vn -0.0903 -0.3629 0.9274
vn -0.3754 -0.1890 0.9074
vn -0.3259 -0.0221 0.9452
vn -0.1332 -0.0037 0.9911
vn -0.3441 0.2020 0.9170
vn -0.8989 0.4340 0.0605
vn -0.8997 0.4358 0.0241
vn -0.8999 0.4353 0.0245
vn 0.2755 -0.9321 0.2353
vn 0.2787 -0.9602 0.0158
vn 0.2804 -0.9597 0.0177
vn 0.2667 -0.8030 0.5330
vn 0.2906 -0.9002 0.3243
vn 0.1055 -0.6767 0.7287
vn -0.2066 -0.7565 0.6205
vn -0.0975 -0.6374 0.7643
vn -0.2726 -0.9612 0.0417
vn -0.2788 -0.9602 0.0157
vn -0.2758 -0.9610 0.0192
vn 0.0815 -0.0698 -0.9942
vn 0.0297 -0.0727 -0.9969
vn 0.0385 -0.0002 -0.9993
vn 0.0819 0.0697 -0.9942
vn 0.0820 -0.0001 -0.9966
vn 0.0302 0.0727 -0.9969
vn 0.2838 -0.7054 0.6495
vn 0.3370 -0.7048 -0.6243
vn 0.3370 -0.7048 -0.6242
vn 0.1490 -0.7372 -0.6591
vn 0.1768 -0.7340 -0.6557
vn -0.0096 -0.7228 -0.6910
vn -0.0113 -0.4805 0.8769
vn 0.9398 0.3395 0.0404
vn 0.9494 0.3141 0.0042
vn 0.6425 0.1633 -0.7487
vn 0.6425 0.1634 -0.7486
vn 0.6512 -0.0000 -0.7589
vn 0.6425 -0.1634 -0.7487
vn 0.6425 -0.1633 -0.7487
vn 0.9352 -0.3431 -0.0882
vn 0.9429 -0.3097 0.1222
vn -0.0005 0.4778 0.8785
vn -0.0823 0.3626 0.9283
vn 0.0064 0.7238 -0.6900
vn 0.0064 0.7236 -0.6902
vn 0.1554 0.7360 -0.6589
vn 0.3390 0.7038 -0.6243
vn 0.2852 0.7050 0.6493
vn 0.0006 0.3601 0.9329
vn 0.0071 0.3469 0.9379
vn 0.0066 0.5688 0.8224
vn -0.0092 0.6025 0.7981
vn 0.0015 0.5881 0.8088
vn 0.0033 0.6085 -0.7935
vn -0.0052 0.6029 -0.7978
vn 0.0072 0.6290 -0.7774
vn -0.0009 -0.3009 0.9537
vn 0.0054 -0.3378 0.9412
vn 0.0091 0.0002 1.0000
vn 0.0057 0.0001 1.0000
vn 0.0144 0.2960 0.9551
vn -0.0097 -0.7223 -0.6915
vn -0.0076 -0.6748 -0.7379
vn -0.0074 -0.6740 -0.7387
vn 0.0011 -0.6290 -0.7774
vn 0.0043 -0.4998 0.8661
vn 0.0177 0.4854 0.8741
vn 0.0072 0.6748 -0.7380
vn -0.0436 -0.0227 -0.9988
vn 0.0025 -0.0108 -0.9999
vn 0.0025 -0.1054 -0.9944
vn 0.0481 -0.0229 -0.9986
vn 0.7794 -0.6265 0.0106
vn 0.7794 -0.6265 0.0098
vn 0.7794 -0.6265 0.0102
vn 0.9221 -0.3867 0.0116
vn 0.9967 -0.0807 0.0130
vn 0.9966 -0.0807 0.0134
vn -0.0001 -1.0000 -0.0000
vn -0.9870 0.1601 -0.0122
vn -0.5774 0.8164 -0.0077
vn -0.5773 0.8165 -0.0076
vn -0.5773 0.8165 -0.0079
vn -0.5775 0.8164 -0.0071
vn -0.9959 0.0901 -0.0126
vn -0.9870 0.1601 -0.0136
vn 0.9993 -0.0363 0.0129
vn 0.9993 -0.0363 0.0122
vn 0.9999 0.0031 0.0135
vn 0.9992 -0.0363 0.0137
vn 0.9999 0.0030 0.0131
vn 0.9999 0.0030 0.0127
vn 0.9939 0.1095 0.0128
vn 0.9939 0.1095 0.0121
vn 0.9982 -0.0579 0.0137
vn -0.0091 0.6028 0.7979
vn -0.1293 0.5954 0.7929
vn -0.1534 0.6081 0.7789
vn -0.2635 0.6594 0.7041
vn -0.2667 0.6197 -0.7381
vn -0.1214 0.6147 -0.7794
vn -0.1472 0.6166 -0.7734
vn -0.0004 0.0001 1.0000
vn -0.0003 -0.3604 0.9328
vn 0.0011 -0.6289 -0.7775
vn 0.0019 -0.6084 -0.7936
vn 0.0019 -0.6085 -0.7936
vn -0.0055 -0.6029 -0.7978
vn -0.0000 -0.5892 0.8080
vn -0.0092 -0.6015 0.7988
vn 0.0054 -0.5491 0.8358
vn 0.0045 0.1045 -0.9945
vn 0.0103 0.0002 -0.9999
vn -0.0008 0.1055 -0.9944
vn 0.0045 0.0001 -1.0000
vn 0.0041 -0.1036 -0.9946
vn -0.0008 -0.1055 -0.9944
vn -0.8120 -0.1852 0.5535
vn -0.7893 0.0117 0.6139
vn -0.7957 0.0068 0.6056
vn -0.7827 -0.1670 -0.5996
vn -0.7938 -0.0000 -0.6081
vn -0.7827 0.1670 -0.5996
vn -0.7934 0.1686 0.5849
vn -0.0541 -0.1063 0.9929
vn -0.0058 -0.1056 0.9944
vn -0.1219 -0.0961 0.9879
vn -0.0678 -0.0000 0.9977
vn -0.0540 0.1063 0.9929
vn -0.1219 0.0961 0.9879
vn -0.0057 0.1056 0.9944
vn -0.0055 -0.6028 -0.7979
vn -0.1214 -0.6146 -0.7794
vn -0.1471 -0.6165 -0.7735
vn -0.2666 -0.6196 -0.7383
vn -0.2635 -0.6594 0.7041
vn -0.1293 -0.5953 0.7930
vn -0.1533 -0.6079 0.7790
vn -0.0091 -0.6014 0.7989
vn -0.0546 0.1008 -0.9934
vn -0.1184 0.0942 -0.9885
vn -0.0622 -0.0000 -0.9981
vn -0.0546 -0.1008 -0.9934
vn -0.1186 -0.0938 -0.9885
vn 0.1920 -0.5693 -0.7994
vn 0.0003 -0.5625 -0.8268
vn 0.0011 -0.5710 -0.8210
vn 0.2839 -0.9578 -0.0460
vn 0.2879 -0.9563 -0.0503
vn 0.2812 -0.9594 -0.0212
vn -0.2810 -0.9593 -0.0282
vn -0.2876 -0.9560 -0.0578
vn -0.2834 -0.9575 -0.0532
vn -0.1850 -0.5878 -0.7876
vn -0.6298 -0.2539 -0.7341
vn -0.6187 -0.2418 -0.7475
vn -0.6417 0.0371 -0.7660
vn -0.9009 -0.4329 -0.0298
vn -0.9046 -0.4229 -0.0542
vn -0.9022 -0.4285 -0.0490
vn -0.9014 0.4288 -0.0597
vn -0.9008 0.4328 -0.0357
vn -0.5445 0.2130 -0.8113
vn -0.5531 0.2243 -0.8024
vn 0.0022 0.4254 -0.9050
vn -0.2829 0.9559 -0.0784
vn -0.2825 0.9561 -0.0780
vn -0.2809 0.9588 -0.0414
vn 0.2808 0.9592 -0.0336
vn 0.2829 0.9565 -0.0706
vn 0.2832 0.9564 -0.0711
vn 0.5731 0.2406 -0.7834
vn 0.6287 0.0340 -0.7769
vn 0.9013 0.4330 -0.0122
vn 0.9025 0.4291 -0.0361
vn 0.9027 0.4288 -0.0364
vn 0.9031 -0.4287 -0.0253
vn 0.9056 -0.4230 -0.0305
vn 0.9014 -0.4330 -0.0063
vn 0.6576 -0.2763 -0.7009
vn 0.2788 -0.9602 -0.0184
vn 0.2788 -0.9604 0.0037
vn -0.2788 -0.9604 -0.0037
vn -0.2787 -0.9600 -0.0260
vn -0.8996 -0.4358 -0.0272
vn -0.9009 0.4325 -0.0357
vn -0.2808 0.9589 -0.0408
vn 0.2787 0.9604 0.0037
vn 0.2810 0.9591 -0.0334
vn 0.9015 0.4327 -0.0121
vn 0.9000 -0.4359 -0.0035
vn -0.5836 -0.4635 -0.6667
vn -0.6214 -0.2345 -0.7476
vn -0.6131 -0.2806 -0.7385
vn -0.0712 -0.0255 -0.9971
vn -0.6201 -0.0419 -0.7834
vn -0.9990 -0.0434 -0.0135
vn -0.9990 -0.0434 -0.0131
vn -0.9995 -0.0272 -0.0127
vn -0.9977 -0.0670 -0.0129
vn 0.5906 -0.4687 -0.6569
vn 0.5918 -0.4694 -0.6553
vn 0.6217 -0.2882 -0.7283
vn 0.6305 -0.2414 -0.7377
vn 0.0761 -0.0261 -0.9968
vn -0.0929 0.9504 -0.2968
vn -0.0971 0.9883 -0.1172
vn -0.0006 0.9891 -0.1475
vn -0.0636 0.1284 -0.9897
vn 0.0016 0.2817 -0.9595
vn 0.0688 0.1350 -0.9885
vn 0.0966 0.9887 -0.1142
vn 0.0934 0.9520 -0.2915
vn -0.0006 1.0000 -0.0000
vn -0.0005 1.0000 0.0002
vn -0.0981 0.9952 -0.0012
vn 0.9939 0.1096 0.0136
vn 0.9814 0.1917 0.0128
vn 0.5542 0.8324 0.0069
vn 0.5542 0.8324 0.0072
vn 0.5542 0.8324 0.0075
vn -0.0627 0.0334 -0.9975
vn -0.4658 0.6605 -0.5888
vn -0.4652 0.6599 -0.5901
vn -0.4785 0.6728 -0.5642
vn -0.6904 0.0699 -0.7201
vn -0.6257 0.1083 -0.7725
vn 0.6676 0.1338 -0.7324
vn 0.6867 0.0841 -0.7221
vn 0.4652 0.6936 -0.5500
vn 0.0678 0.0359 -0.9971
vn 0.0025 -0.0000 -1.0000
vn -0.9999 -0.0000 -0.0131
vn -0.0025 -0.0000 1.0000
vn -0.0000 1.0000 -0.0000
vn 0.9999 -0.0000 0.0131
vn -0.6480 -0.0000 0.7616
vn 0.6375 -0.0000 0.7704
vn 0.6376 -0.0000 0.7704
vn -0.0018 0.7113 0.7029
vn -0.0017 0.7112 0.7029
vn -0.0018 -0.7112 0.7029
vn -0.0017 -0.7112 0.7030
vn -0.0017 -0.7113 0.7029
vn -0.6481 -0.0000 0.7615
vn -0.0018 -0.7113 0.7029
vn -0.0017 0.7112 0.7030
vn -0.0018 0.7112 0.7029
vn -0.0017 0.7113 0.7029
vn 0.6481 -0.0000 -0.7615
vn 0.6480 -0.0000 -0.7616
vn -0.6375 -0.0000 -0.7704
vn 0.0017 -0.7112 -0.7030
vn 0.0017 -0.7113 -0.7029
vn 0.0017 -0.7112 -0.7029
vn 0.0017 0.7112 -0.7029
vn 0.0017 0.7112 -0.7030
vn -0.6376 -0.0000 -0.7704
vn 0.0017 0.7113 -0.7029
vn -0.0017 -0.7112 0.7029
vn 0.6375 -0.0000 0.7705
vn -0.0018 -0.7112 0.7030
vn -0.0018 0.7112 0.7030
vn 0.0018 -0.7112 -0.7030
vn 0.0663 -0.0031 -0.9978
vn 0.6435 -0.0378 -0.7645
vn 0.0028 0.1614 -0.9869
vn 0.9494 0.3141 0.0045
vn 0.6511 -0.0000 -0.7590
vn 0.1840 0.7328 -0.6551
vn 0.9967 -0.0807 0.0125
vn -0.1192 -0.0000 -0.9929
vn -0.1382 0.4206 -0.8967
vn 0.1430 0.4218 -0.8954
vn 0.6435 -0.0532 -0.7636
vn -0.9990 -0.0434 -0.0127
vn 0.0012 0.9557 -0.2942
vn 0.0614 -0.0032 0.9981
vn 0.6301 -0.0374 0.7756
vn -0.0022 0.1509 0.9885
vn 0.1356 -0.6383 -0.7578
vn 0.6406 -0.0000 0.7679
vn 0.1241 0.5546 -0.8228
vn -0.2666 0.6198 -0.7381
vn -0.1245 -0.0000 0.9922
vn -0.6747 -0.0818 0.7335
vn 0.1381 0.4206 0.8967
vn -0.1429 0.4216 0.8955
vn 0.6329 -0.0526 0.7725
vn 0.9813 0.1918 0.0133
vn 0.9813 0.1919 0.0127
vn -0.7935 0.1686 0.5848
vn -0.2666 -0.6197 -0.7382
vn 0.1920 -0.5694 -0.7994
vn -0.7807 -0.6248 -0.0108
vn -0.9977 -0.0669 -0.0126
vn -0.0013 -0.8974 0.4412
vn -0.2650 0.9626 -0.0572
vn -0.8976 0.4326 -0.0847
vn -0.8981 -0.4323 -0.0814
vn -0.2666 -0.9622 -0.0551
vn 0.9569 -0.2731 -0.0987
vn 0.9569 0.2731 -0.0987
vn 0.1718 0.7239 0.6682
vn 0.1636 -0.9865 0.0026
vn -0.9870 0.1600 -0.0129
vn -0.5773 0.8165 -0.0080
vn 0.9982 -0.0579 0.0127
vn -0.8107 0.1920 -0.5530
vn -0.7732 -0.0000 0.6342
vn -0.8107 -0.1920 -0.5530
vn -0.1335 -0.0000 -0.9911
vn -0.2482 -0.7018 -0.6677
vn -0.2524 -0.7045 0.6633
vn -0.1863 -0.6126 0.7682
vn 0.1819 -0.6108 0.7706
vn -0.5933 -0.4683 0.6547
vn -0.0005 0.9556 0.2947
vn 0.5543 0.8323 0.0073
vn 0.5543 0.8323 0.0070
vn -0.4852 0.6779 0.5523
vn 0.4671 0.6973 0.5437
vn 0.0011 -0.8974 -0.4413
vn -0.2652 0.9629 0.0503
vn -0.8996 -0.4328 0.0581
vn -0.8993 0.4331 0.0615
vn -0.2668 -0.9625 0.0482
vn 0.1373 -0.6042 0.7849
vn 0.9542 -0.2726 0.1229
vn 0.1426 0.6030 0.7849
vn 0.7794 -0.6265 0.0105
vn -0.9870 0.1601 -0.0128
vn -0.5774 0.8164 -0.0075
vn -0.9870 0.1601 -0.0135
vn -0.2526 0.7043 0.6635
vn -0.8211 -0.1939 0.5368
vn -0.1388 -0.0000 0.9903
vn -0.2525 -0.7043 0.6635
vn -0.1820 -0.6108 -0.7706
vn -0.6801 -0.0641 -0.7303
vn -0.5850 -0.4643 -0.6650
vn 0.9814 0.1917 0.0123
vn 0.9814 0.1917 0.0132
vn -0.4794 0.6736 -0.5625
vn -0.6226 0.1081 -0.7750
vt 0.000000 0.000000
vt 0.080000 0.668333
vt 0.000000 0.668333
vt 0.100000 0.668333
vt 0.080000 0.000000
vt 0.100000 0.000000
vt 0.180000 0.000000
vt 0.080000 2.005000
vt 0.000000 2.005000
vt 0.100000 2.005000
vt 0.180000 0.668333
vt 0.000000 4.010000
vt 0.100000 4.010000
vt 0.080000 4.010000
vt 0.180000 4.010000
vt 0.080000 4.412500
vt 0.000000 4.412500
vt 0.100000 4.412500
vt 0.000000 5.217500
vt 0.100000 5.217500
vt 0.080000 5.217500
vt 0.180000 5.217500
vt 0.080000 5.885834
vt 0.000000 5.885834
vt 0.100000 5.885834
vt 0.000000 7.222500
vt 0.100000 7.222500
vt 0.080000 7.222500
vt 0.180000 7.222500
vt 0.000000 9.227501
vt 0.100000 9.227501
vt 0.080000 9.227501
vt 0.180000 9.227501
vt 0.080000 9.630000
vt 0.000000 9.630000
vt 0.100000 9.630000
vt 0.000000 10.435000
vt 0.100000 10.435000
vt 0.080000 10.435000
vt 0.180000 10.435000
vt 0.000000 0.558333
vt 0.050000 0.000000
vt 0.057071 0.558333
vt 0.050000 0.558333
vt 0.064142 0.558333
vt 0.057071 0.000000
vt 0.064142 0.000000
vt 0.084142 0.000000
vt 0.091213 0.558333
vt 0.084142 0.558333
vt 0.000000 0.880833
vt 0.050000 0.880833
vt 0.064142 0.880833
vt 0.057071 0.880833
vt 0.084142 0.880833
vt 0.050000 1.439167
vt 0.000000 1.439167
vt 0.064142 1.439167
vt 0.057071 1.439167
vt 0.084142 1.439167
vt 0.091213 1.439167
vt 0.050000 1.761667
vt 0.000000 1.761667
vt 0.057071 1.761667
vt 0.084142 1.761667
vt 0.064142 1.761667
vt 0.091213 1.761667
vt -0.161250 0.558333
vt -0.161250 0.000000
vt 0.161250 0.000000
vt 0.007071 0.558333
vt 0.027071 0.558333
vt 0.007071 0.000000
vt 0.034142 0.558333
vt 0.027071 0.000000
vt 0.041213 0.558333
vt 0.034142 0.000000
vt 0.041213 0.000000
vt 0.027071 0.880833
vt 0.007071 0.880833
vt 0.034142 0.880833
vt 0.091213 0.880833
vt 0.041213 0.880833
vt 0.007071 1.439167
vt 0.034142 1.439167
vt 0.027071 1.439167
vt 0.041213 1.439167
vt 0.007071 1.761667
vt 0.027071 1.761667
vt 0.041213 1.761667
vt 0.034142 1.761667
vt 0.161250 0.558333
vt 0.091213 0.000000
vt 0.180000 4.412500
vt 0.180000 5.885834
vt 0.180000 2.005000
vt 0.180000 9.630000
s 1
g off
g PuertaIzquierda_Madera2
usemtl Madera2
f 126/1/1 14/1/2 125/1/3
s 2
f 4/1/4 126/1/5 359/1/6
f 359/1/6 128/1/7 52/1/8
s 1
f 125/1/3 51/1/9 128/1/10
f 130/1/11 7/1/12 129/1/13
f 130/1/11 360/1/14 131/1/15
f 131/1/15 360/1/14 132/1/16
f 129/1/13 53/1/17 132/1/16
s 2
f 8/1/18 133/1/19 361/1/20
s 1
f 134/1/21 361/1/22 135/1/23
f 135/1/23 361/1/22 136/1/24
s 2
f 361/1/20 133/1/19 53/1/25
s 1
f 137/1/26 13/1/27 135/1/23
f 137/1/26 362/1/28 125/1/3
f 362/1/28 138/1/29 51/1/9
f 362/1/28 135/1/23 54/1/30
s 4
f 140/1/31 7/1/32 139/1/33
s 1
f 5/1/34 140/1/35 363/1/36
f 363/1/36 142/1/37 1/1/38
s 4
f 139/1/33 3/1/39 142/1/40
s 1
f 8/1/41 143/1/42 364/1/43
f 144/1/44 364/1/43 145/1/45
f 145/1/45 364/1/43 146/1/46
f 364/1/43 143/1/42 11/1/47
f 148/1/48 15/1/49 147/1/50
f 60/1/51 148/1/48 365/1/52
f 365/1/52 150/1/53 57/1/54
f 147/1/50 16/1/55 150/1/53
s 2
f 143/1/56 8/1/18 134/1/57
f 11/1/58 143/1/56 366/1/59
s 1
f 151/1/60 366/1/61 152/1/62
f 366/1/61 134/1/21 13/1/27
f 14/1/2 126/1/1 367/1/63
f 153/1/64 367/1/63 154/1/65
s 2
f 367/1/66 155/1/67 10/1/68
f 126/1/5 4/1/4 155/1/67
s 1
f 47/1/69 156/1/70 368/1/71
f 157/1/72 368/1/71 158/1/73
s 2
f 158/1/74 368/1/75 159/1/76
f 368/1/75 156/1/77 48/1/78
s 1
f 161/1/79 2/1/80 160/1/81
f 14/1/2 161/1/79 369/1/82
f 369/1/82 162/1/83 13/1/27
f 160/1/81 6/1/84 162/1/83
f 164/1/85 12/1/86 163/1/87
f 15/1/49 164/1/85 370/1/88
f 370/1/88 165/1/89 16/1/55
f 163/1/87 9/1/90 165/1/89
f 6/1/84 166/1/91 371/1/92
f 162/1/83 371/1/92 152/1/62
f 152/1/62 371/1/92 164/1/85
f 371/1/92 166/1/91 12/1/86
f 9/1/90 167/1/93 372/1/94
f 165/1/89 372/1/94 153/1/64
f 153/1/64 372/1/94 161/1/79
f 372/1/94 167/1/93 2/1/80
f 169/1/95 21/1/96 168/1/97
f 28/1/98 169/1/95 373/1/99
f 373/1/99 171/1/100 27/1/101
f 168/1/97 23/1/102 171/1/100
s 4
f 159/1/103 48/1/104 172/1/105
f 20/1/106 159/1/103 374/1/107
f 173/1/108 374/1/109 174/1/110
s 2
f 374/1/111 172/1/112 49/1/113
s 8
f 49/1/114 175/1/115 375/1/116
s 4
f 174/1/117 375/1/118 176/1/119
f 375/1/118 177/1/120 17/1/121
s 1
f 175/1/122 50/1/123 177/1/124
s 2
f 50/1/125 178/1/126 376/1/127
s 4
f 177/1/128 376/1/129 179/1/130
f 376/1/131 157/1/132 18/1/133
f 178/1/134 47/1/135 157/1/132
s 1
f 168/1/97 21/1/96 180/1/136
f 168/1/97 377/1/137 181/1/138
f 377/1/137 182/1/139 24/1/140
f 377/1/137 180/1/136 22/1/141
s 4
f 183/1/142 17/1/121 179/1/130
s 2
f 183/1/143 378/1/144 180/1/145
f 378/1/144 184/1/146 22/1/147
s 4
f 179/1/130 18/1/133 184/1/148
s 1
f 18/1/149 158/1/73 379/1/150
s 8
f 22/1/151 184/1/152 379/1/153
f 379/1/153 185/1/154 24/1/155
s 2
f 379/1/156 158/1/74 20/1/157
s 4
f 185/1/158 20/1/106 173/1/108
s 16
f 24/1/159 185/1/160 380/1/161
f 380/1/161 186/1/162 23/1/163
s 4
f 173/1/108 19/1/164 186/1/165
s 16
f 188/1/166 27/1/167 187/1/168
f 37/1/169 188/1/166 381/1/170
s 4
f 381/1/171 190/1/172 35/1/173
f 187/1/174 25/1/175 190/1/172
f 191/1/176 19/1/164 176/1/119
f 191/1/176 382/1/177 192/1/178
f 382/1/177 193/1/179 26/1/180
f 176/1/119 17/1/121 193/1/179
f 193/1/179 17/1/121 183/1/142
f 26/1/180 193/1/179 383/1/181
s 2
f 194/1/182 383/1/183 169/1/184
f 383/1/183 183/1/143 21/1/185
s 16
f 23/1/163 186/1/162 384/1/186
f 27/1/167 171/1/187 384/1/186
s 4
f 384/1/188 191/1/176 25/1/175
f 186/1/165 19/1/164 191/1/176
s 1
f 138/1/29 54/1/30 195/1/189
f 138/1/29 385/1/190 196/1/191
f 385/1/190 141/1/192 1/1/38
f 385/1/190 195/1/189 5/1/34
f 198/1/193 52/1/194 197/1/195
f 55/1/196 198/1/193 386/1/197
f 386/1/197 200/1/198 30/1/199
f 386/1/197 197/1/195 3/1/200
s 4
f 200/1/201 3/1/39 139/1/33
f 200/1/201 387/1/202 201/1/203
f 387/1/202 130/1/204 31/1/205
f 387/1/202 139/1/33 7/1/32
s 1
f 202/1/206 34/1/207 146/1/46
s 4
f 202/1/208 388/1/209 203/1/210
f 203/1/210 388/1/209 204/1/211
s 1
f 146/1/46 11/1/47 204/1/212
f 205/1/213 10/1/214 155/1/215
f 205/1/213 389/1/216 206/1/217
f 206/1/217 389/1/216 207/1/218
f 155/1/215 4/1/219 207/1/218
f 4/1/219 127/1/220 390/1/221
f 29/1/222 207/1/218 390/1/221
f 390/1/221 198/1/193 55/1/196
f 390/1/221 127/1/220 52/1/194
s 16
f 37/1/169 189/1/223 391/1/224
f 209/1/225 391/1/224 210/1/226
s 4
f 210/1/227 391/1/228 211/1/229
f 391/1/228 189/1/230 35/1/173
f 25/1/175 192/1/178 392/1/231
f 190/1/172 392/1/231 212/1/232
f 212/1/232 392/1/231 213/1/233
f 392/1/231 192/1/178 26/1/180
f 213/1/233 26/1/180 194/1/234
f 36/1/235 213/1/233 393/1/236
s 2
f 214/1/237 393/1/238 215/1/238
f 393/1/238 194/1/182 28/1/239
s 1
f 215/1/240 28/1/98 170/1/241
f 38/1/242 215/1/240 394/1/243
f 216/1/244 394/1/243 188/1/245
f 394/1/243 170/1/241 27/1/101
f 39/1/246 217/1/247 395/1/248
s 8
f 41/1/249 210/1/250 395/1/251
f 395/1/251 219/1/252 42/1/253
s 1
f 395/1/248 217/1/247 40/1/254
s 4
f 211/1/255 35/1/256 212/1/232
f 39/1/257 211/1/255 396/1/258
f 396/1/258 220/1/259 40/1/260
f 212/1/232 36/1/261 220/1/259
f 36/1/235 214/1/262 397/1/263
f 220/1/264 397/1/263 219/1/265
s 2
f 219/1/266 397/1/267 221/1/268
f 397/1/267 214/1/237 38/1/269
s 1
f 221/1/270 38/1/242 216/1/244
f 42/1/271 221/1/270 398/1/272
f 398/1/272 209/1/273 41/1/274
f 216/1/244 37/1/275 209/1/273
s 8
f 6/1/276 160/1/277 399/1/278
s 2
f 222/1/279 399/1/280 223/1/281
s 4
f 223/1/282 399/1/283 224/1/284
s 8
f 399/1/278 160/1/277 2/1/285
s 4
f 225/1/286 12/1/286 166/1/287
s 8
f 45/1/288 225/1/289 400/1/290
s 1
f 400/1/291 222/1/292 46/1/293
s 4
f 166/1/287 6/1/294 222/1/295
s 1
f 9/1/90 163/1/87 401/1/296
s 4
f 227/1/297 401/1/298 228/1/299
s 2
f 228/1/300 401/1/301 225/1/302
s 1
f 401/1/296 163/1/87 12/1/86
s 16
f 224/1/303 2/1/303 167/1/304
s 1
f 43/1/305 224/1/306 402/1/307
s 2
f 402/1/308 227/1/309 44/1/310
s 16
f 167/1/304 9/1/311 227/1/311
s 2
f 46/1/312 223/1/281 403/1/313
f 230/1/313 403/1/313 178/1/126
s 4
f 403/1/314 231/1/314 47/1/135
f 403/1/314 223/1/282 43/1/315
s 8
f 232/1/316 45/1/288 226/1/317
f 232/1/316 404/1/316 175/1/115
s 1
f 175/1/122 404/1/318 230/1/318
f 226/1/319 46/1/293 230/1/318
s 4
f 44/1/299 228/1/299 405/1/320
f 48/1/104 233/1/320 405/1/320
s 2
f 172/1/112 405/1/321 232/1/322
f 405/1/321 228/1/300 45/1/323
s 1
f 231/1/70 43/1/305 229/1/324
f 47/1/69 231/1/70 406/1/70
s 2
f 406/1/77 233/1/77 48/1/78
f 229/1/325 44/1/310 233/1/77
f 136/1/326 53/1/25 129/1/327
s 1
f 54/1/30 136/1/24 407/1/328
f 195/1/189 407/1/328 140/1/35
s 2
f 407/1/329 129/1/327 7/1/330
s 1
f 53/1/17 133/1/331 408/1/332
f 132/1/16 408/1/332 234/1/333
f 408/1/332 144/1/44 32/1/334
f 133/1/331 8/1/41 144/1/44
f 51/1/9 196/1/191 409/1/335
s 2
f 128/1/7 409/1/336 197/1/337
f 409/1/336 142/1/338 3/1/339
s 1
f 196/1/191 1/1/38 142/1/37
s 2
f 236/1/340 58/1/341 235/1/342
s 1
f 57/1/54 236/1/343 410/1/344
f 410/1/344 237/1/345 60/1/51
s 2
f 235/1/342 59/1/346 237/1/347
f 59/1/346 235/1/342 411/1/348
f 62/1/349 203/1/350 411/1/348
f 411/1/348 239/1/351 61/1/352
f 411/1/348 235/1/342 58/1/341
s 1
f 240/1/353 10/1/214 205/1/213
s 4
f 58/1/354 240/1/355 412/1/355
s 8
f 412/1/356 241/1/357 61/1/358
s 1
f 205/1/213 33/1/359 241/1/360
s 2
f 204/1/361 11/1/58 151/1/362
s 8
f 59/1/363 204/1/364 413/1/365
s 1
f 237/1/345 413/1/366 148/1/48
f 413/1/366 151/1/60 15/1/49
f 16/1/55 154/1/65 414/1/367
f 150/1/53 414/1/367 236/1/343
s 8
f 414/1/368 240/1/369 58/1/370
s 2
f 154/1/371 10/1/68 240/1/372
s 1
f 243/1/373 113/1/374 242/1/375
s 2
f 114/1/376 243/1/377 415/1/378
f 415/1/378 245/1/379 66/1/380
s 1
f 242/1/375 76/1/381 245/1/382
f 247/1/16 115/1/383 246/1/384
f 247/1/16 416/1/385 248/1/386
f 416/1/385 249/1/387 93/1/388
f 416/1/385 246/1/384 69/1/389
s 2
f 115/1/390 250/1/391 417/1/392
s 1
f 251/1/393 417/1/394 252/1/395
f 252/1/395 417/1/394 253/1/396
s 2
f 417/1/392 250/1/391 70/1/397
s 1
f 116/1/398 252/1/395 418/1/399
f 113/1/374 254/1/400 418/1/399
f 242/1/375 418/1/399 255/1/401
f 252/1/395 75/1/402 255/1/401
s 4
f 257/1/403 65/1/404 256/1/405
s 1
f 63/1/406 257/1/407 419/1/408
f 419/1/408 259/1/409 67/1/410
s 4
f 256/1/405 69/1/411 259/1/412
s 1
f 73/1/413 260/1/414 420/1/415
f 261/1/416 420/1/415 262/1/417
f 262/1/417 420/1/415 263/1/418
f 420/1/415 260/1/414 70/1/41
f 265/1/419 78/1/420 264/1/421
f 119/1/422 265/1/419 421/1/423
f 421/1/423 267/1/424 122/1/425
f 264/1/421 77/1/426 267/1/424
f 75/1/402 253/1/396 422/1/427
f 268/1/428 422/1/427 269/1/429
s 2
f 422/1/430 260/1/431 73/1/432
f 253/1/433 70/1/397 260/1/431
f 270/1/434 66/1/380 245/1/379
f 72/1/435 270/1/434 423/1/436
s 1
f 271/1/437 423/1/438 272/1/439
f 423/1/438 245/1/382 76/1/381
s 2
f 110/1/440 273/1/441 424/1/442
f 274/1/443 424/1/442 275/1/444
s 1
f 275/1/445 424/1/446 276/1/447
f 424/1/446 273/1/448 109/1/449
f 278/1/450 68/1/451 277/1/452
f 75/1/402 278/1/450 425/1/453
f 425/1/453 279/1/454 76/1/381
f 277/1/452 64/1/455 279/1/454
f 281/1/456 71/1/457 280/1/458
f 78/1/420 281/1/456 426/1/459
f 426/1/459 282/1/460 77/1/426
f 280/1/458 74/1/461 282/1/460
f 74/1/461 283/1/462 427/1/463
f 282/1/460 427/1/463 268/1/428
f 268/1/428 427/1/463 278/1/450
f 427/1/463 283/1/462 68/1/451
f 64/1/455 284/1/464 428/1/465
f 279/1/454 428/1/465 272/1/439
f 272/1/439 428/1/465 281/1/456
f 428/1/465 284/1/464 71/1/457
f 286/1/466 85/1/467 285/1/468
f 89/1/469 286/1/466 429/1/470
f 429/1/470 288/1/471 90/1/472
f 285/1/468 83/1/473 288/1/471
s 2
f 111/1/474 289/1/475 430/1/476
s 4
f 290/1/477 430/1/478 291/1/479
f 430/1/480 274/1/481 82/1/482
f 289/1/483 110/1/484 274/1/481
s 1
f 293/1/485 112/1/486 292/1/487
s 4
f 79/1/488 293/1/489 431/1/490
f 294/1/491 431/1/490 290/1/492
s 8
f 431/1/493 292/1/494 111/1/495
s 4
f 276/1/496 109/1/497 295/1/498
f 80/1/499 276/1/496 432/1/500
f 296/1/501 432/1/502 293/1/503
s 2
f 432/1/504 295/1/505 112/1/506
s 1
f 84/1/507 297/1/508 433/1/509
f 86/1/510 298/1/511 433/1/509
f 299/1/512 433/1/509 285/1/468
f 297/1/508 83/1/473 285/1/468
s 4
f 300/1/513 80/1/499 296/1/501
s 2
f 84/1/514 300/1/515 434/1/516
f 297/1/517 434/1/516 301/1/518
s 4
f 296/1/501 79/1/488 301/1/519
s 2
f 82/1/520 275/1/444 435/1/521
s 8
f 86/1/522 302/1/523 435/1/524
f 435/1/524 300/1/525 84/1/526
s 1
f 435/1/527 275/1/445 80/1/528
s 4
f 303/1/529 81/1/530 291/1/479
s 16
f 85/1/531 303/1/532 436/1/533
f 436/1/533 302/1/534 86/1/534
s 4
f 291/1/479 82/1/482 302/1/535
f 305/1/536 87/1/537 304/1/538
f 97/1/539 305/1/536 437/1/540
s 16
f 437/1/541 307/1/541 99/1/542
f 304/1/543 89/1/543 307/1/541
s 4
f 308/1/544 79/1/488 294/1/491
f 88/1/545 308/1/544 438/1/546
f 309/1/547 438/1/546 310/1/548
f 294/1/491 81/1/530 310/1/548
s 2
f 83/1/549 301/1/518 439/1/550
f 288/1/551 439/1/550 311/1/552
s 4
f 439/1/553 308/1/544 88/1/545
f 301/1/519 79/1/488 308/1/544
f 310/1/548 81/1/530 303/1/529
f 87/1/537 310/1/548 440/1/554
s 16
f 440/1/555 286/1/555 89/1/543
f 440/1/555 303/1/532 85/1/531
s 1
f 67/1/410 312/1/556 441/1/557
f 63/1/406 258/1/558 441/1/557
f 313/1/559 441/1/557 254/1/400
f 312/1/556 116/1/398 254/1/400
f 65/1/560 314/1/195 442/1/197
f 92/1/561 315/1/562 442/1/197
f 316/1/563 442/1/197 317/1/564
f 314/1/195 114/1/565 317/1/564
s 4
f 249/1/204 69/1/411 256/1/405
f 249/1/204 443/1/202 318/1/566
f 318/1/566 443/1/202 315/1/201
f 443/1/202 256/1/405 65/1/404
s 1
f 319/1/567 73/1/413 261/1/416
s 4
f 121/1/568 319/1/210 444/1/210
s 2
f 444/1/569 321/1/570 124/1/571
s 1
f 261/1/416 96/1/572 321/1/573
f 322/1/574 66/1/575 270/1/576
f 91/1/577 322/1/574 445/1/578
f 323/1/579 445/1/578 324/1/580
f 270/1/576 72/1/581 324/1/580
f 114/1/565 244/1/220 446/1/582
f 317/1/564 446/1/582 325/1/582
f 446/1/582 322/1/574 91/1/577
f 446/1/582 244/1/220 66/1/575
s 4
f 97/1/539 306/1/583 447/1/584
f 326/1/585 447/1/584 327/1/586
s 16
f 327/1/587 447/1/588 328/1/589
f 447/1/588 306/1/542 99/1/542
s 4
f 88/1/545 309/1/547 448/1/590
f 329/1/591 448/1/590 330/1/244
f 330/1/244 448/1/590 305/1/536
f 448/1/590 309/1/547 87/1/537
s 2
f 90/1/592 311/1/552 449/1/593
f 331/1/594 449/1/593 332/1/595
s 4
f 449/1/596 329/1/591 98/1/597
f 311/1/598 88/1/545 329/1/591
s 1
f 307/1/599 89/1/469 287/1/600
f 99/1/601 307/1/599 450/1/602
f 450/1/602 331/1/603 100/1/604
f 287/1/600 90/1/472 331/1/603
f 102/1/605 334/1/606 451/1/607
s 8
f 104/1/608 335/1/608 451/1/609
f 451/1/609 327/1/610 103/1/610
s 1
f 451/1/607 334/1/606 101/1/611
s 4
f 337/1/612 98/1/613 330/1/244
f 102/1/614 337/1/612 452/1/615
f 452/1/615 326/1/616 101/1/617
f 330/1/244 97/1/618 326/1/616
s 2
f 100/1/619 332/1/595 453/1/620
f 338/1/621 453/1/620 335/1/622
s 4
f 335/1/623 453/1/624 337/1/625
f 453/1/624 332/1/626 98/1/597
s 1
f 328/1/627 99/1/601 333/1/232
f 103/1/628 328/1/627 454/1/629
f 454/1/629 338/1/630 104/1/631
f 333/1/232 100/1/604 338/1/630
s 8
f 64/1/632 277/1/633 455/1/634
s 4
f 339/1/635 455/1/636 340/1/637
s 2
f 340/1/638 455/1/639 341/1/640
s 8
f 455/1/634 277/1/633 68/1/641
s 4
f 341/1/642 68/1/643 283/1/644
s 1
f 108/1/645 341/1/646 456/1/647
s 8
f 456/1/648 343/1/648 107/1/649
s 4
f 283/1/644 74/1/650 343/1/651
s 1
f 74/1/461 280/1/458 457/1/652
s 2
f 343/1/653 457/1/654 344/1/655
s 4
f 344/1/656 457/1/657 345/1/658
s 1
f 457/1/652 280/1/458 71/1/457
s 16
f 345/1/659 71/1/659 284/1/660
s 2
f 106/1/661 345/1/662 458/1/663
s 1
f 458/1/664 339/1/665 105/1/666
s 16
f 284/1/660 64/1/667 339/1/667
s 4
f 105/1/668 340/1/637 459/1/669
f 109/1/497 347/1/314 459/1/669
s 2
f 459/1/313 348/1/670 112/1/506
f 340/1/638 108/1/671 348/1/670
s 1
f 348/1/318 108/1/645 342/1/672
f 348/1/318 460/1/318 292/1/487
s 8
f 292/1/494 460/1/316 349/1/316
f 342/1/673 107/1/649 349/1/316
s 2
f 349/1/321 107/1/674 344/1/655
f 111/1/474 349/1/321 461/1/322
s 4
f 461/1/675 350/1/320 110/1/484
f 461/1/675 344/1/656 106/1/676
s 2
f 106/1/661 346/1/677 462/1/77
f 110/1/440 350/1/77 462/1/77
s 1
f 462/1/70 347/1/70 109/1/449
f 462/1/70 346/1/678 105/1/666
s 2
f 69/1/679 246/1/680 463/1/681
s 1
f 259/1/409 463/1/682 312/1/556
f 463/1/682 251/1/393 116/1/398
s 2
f 246/1/680 115/1/390 251/1/683
s 1
f 70/1/41 250/1/684 464/1/685
f 94/1/686 263/1/418 464/1/685
f 464/1/685 247/1/16 118/1/687
f 464/1/685 250/1/684 115/1/383
f 257/1/407 63/1/406 313/1/559
s 2
f 65/1/688 257/1/689 465/1/690
f 314/1/691 465/1/690 243/1/377
s 1
f 465/1/692 313/1/559 113/1/374
s 8
f 353/1/693 121/1/694 352/1/695
s 1
f 122/1/425 353/1/696 466/1/697
f 466/1/697 354/1/698 119/1/422
s 8
f 352/1/695 120/1/699 354/1/700
f 355/1/351 120/1/699 352/1/695
f 355/1/351 467/1/701 356/1/702
f 467/1/701 320/1/350 124/1/703
f 467/1/701 352/1/695 121/1/694
s 1
f 95/1/704 324/1/580 468/1/705
s 4
f 123/1/706 357/1/706 468/1/707
f 468/1/707 358/1/708 120/1/708
s 1
f 468/1/705 324/1/580 72/1/581
f 77/1/426 269/1/429 469/1/709
f 267/1/424 469/1/709 353/1/696
s 16
f 469/1/710 319/1/711 121/1/712
s 2
f 269/1/713 73/1/432 319/1/714
f 358/1/715 72/1/435 271/1/716
s 16
f 120/1/717 358/1/717 470/1/717
s 1
f 354/1/698 470/1/718 265/1/419
f 470/1/718 271/1/437 78/1/420
f 474/2/719 566/3/719 524/1/719
s 2
f 475/4/720 474/2/720 471/5/720
s 1
f 475/4/721 472/6/721 473/7/721
f 476/8/719 609/9/719 566/3/719
s 2
f 477/10/720 476/8/720 474/2/720
s 1
f 477/10/721 475/4/721 540/11/721
f 615/12/719 609/9/719 476/8/719
s 2
f 479/13/720 478/14/720 476/8/720
s 1
f 588/15/721 479/13/721 477/10/721
f 481/16/719 480/17/719 615/12/719
s 4
f 482/18/722 481/16/722 478/14/722
s 1
f 482/18/721 479/13/721 588/15/721
f 484/19/719 480/17/719 481/16/719
s 4
f 486/20/722 485/21/722 481/16/722
s 1
f 722/22/721 486/20/721 482/18/721
f 487/23/719 706/24/719 484/19/719
s 2
f 488/25/723 487/23/723 485/21/723
s 1
f 488/25/721 486/20/721 722/22/721
f 662/26/719 706/24/719 487/23/719
s 2
f 490/27/723 489/28/723 487/23/723
s 1
f 491/29/721 490/27/721 488/25/721
f 668/30/719 662/26/719 489/28/719
s 2
f 493/31/723 492/32/723 489/28/723
s 1
f 494/33/721 493/31/721 490/27/721
f 496/34/719 495/35/719 668/30/719
s 4
f 497/36/203 496/34/203 492/32/203
s 1
f 497/36/721 493/31/721 494/33/721
f 524/37/719 495/35/719 496/34/719
s 4
f 472/38/203 471/39/203 496/34/203
s 1
f 473/40/721 472/38/721 497/36/721
f 540/41/721 473/1/721 499/42/721
s 2
f 505/43/724 504/44/724 499/42/724
s 1
f 506/45/725 505/43/725 500/46/725
s 2
f 506/45/721 501/47/721 502/48/721
s 1
f 508/49/726 507/50/726 502/48/726
f 631/51/721 540/41/721 504/44/721
s 4
f 509/52/727 504/44/728 505/43/728
s 8
f 511/53/729 510/54/729 505/43/730
s 2
f 512/55/721 511/53/721 506/45/721
s 4
f 512/55/729 507/50/731 508/49/731
s 1
f 514/56/721 498/57/721 631/51/721
s 2
f 514/56/726 509/52/726 510/54/726
s 1
f 516/58/724 515/59/724 510/54/724
s 2
f 517/60/721 516/58/721 511/53/721
s 1
f 518/61/732 517/60/732 512/55/732
f 499/62/721 473/63/721 498/57/721
s 4
f 500/64/731 499/62/731 514/56/733
s 8
f 500/64/734 515/59/735 516/58/735
s 2
f 502/65/721 501/66/721 516/58/721
s 4
f 503/67/736 502/65/736 517/60/735
s 2
f 508/68/721 503/69/721 518/70/721
s 1
f 526/71/737 525/41/737 519/1/737
s 2
f 527/72/719 526/71/719 520/73/719
s 1
f 528/74/738 527/72/738 521/75/738
s 2
f 529/76/739 528/74/739 522/77/739
s 1
f 566/49/719 529/76/719 523/78/719
s 4
f 530/51/740 525/41/741 526/71/741
s 2
f 532/79/719 531/80/719 526/71/719
s 4
f 533/81/741 532/79/741 527/72/742
s 8
f 533/81/743 528/74/744 529/76/744
s 1
f 695/82/719 534/83/719 529/76/719
f 536/84/739 535/57/739 530/51/739
s 2
f 536/84/719 531/80/719 532/79/719
s 1
f 538/85/745 537/86/745 532/79/745
s 2
f 539/87/738 538/85/738 533/81/738
s 1
f 539/87/719 534/83/719 695/82/719
s 4
f 520/88/746 519/63/746 535/57/744
s 2
f 521/89/719 520/88/719 536/84/719
s 4
f 521/89/743 537/86/746 538/85/746
s 8
f 523/90/740 522/91/740 538/85/741
s 1
f 524/67/719 523/90/719 539/87/719
s 2
f 530/92/719 535/70/719 519/69/719
s 1
f 546/44/721 582/41/721 540/1/721
s 2
f 547/43/724 546/44/724 541/42/724
s 1
f 548/45/725 547/43/725 542/46/725
s 2
f 549/50/721 548/45/721 543/47/721
s 1
f 550/49/726 549/50/726 544/48/726
f 551/52/721 674/51/721 582/41/721
s 4
f 551/52/727 546/44/728 547/43/736
s 8
f 553/53/729 552/54/729 547/43/730
s 2
f 554/55/721 553/53/721 548/45/721
s 4
f 554/55/729 549/50/731 550/49/731
s 1
f 631/57/721 674/51/721 551/52/721
s 2
f 557/59/726 556/56/726 551/52/726
s 1
f 558/58/724 557/59/724 552/54/724
s 2
f 559/60/721 558/58/721 553/53/721
s 1
f 559/60/732 554/55/732 555/82/732
f 541/62/721 540/63/721 631/57/721
s 4
f 542/64/731 541/62/731 556/56/733
s 8
f 542/64/734 557/59/735 558/58/735
s 2
f 544/65/721 543/66/721 558/58/721
s 4
f 545/67/736 544/65/736 559/60/735
s 2
f 550/68/721 545/69/721 560/70/721
s 1
f 568/71/737 567/41/737 561/1/737
s 2
f 569/72/719 568/71/719 562/73/719
s 1
f 570/74/738 569/72/738 563/75/738
s 2
f 570/74/739 564/77/739 565/78/739
s 1
f 571/76/719 565/78/719 566/93/719
s 4
f 572/51/740 567/41/741 568/71/741
s 2
f 574/79/719 573/80/719 568/71/719
s 4
f 575/81/741 574/79/741 569/72/742
s 8
f 575/81/743 570/74/744 571/76/744
s 1
f 739/82/719 576/83/719 571/76/719
f 577/57/739 572/51/739 573/80/739
s 2
f 578/84/719 573/80/719 574/79/719
s 1
f 580/85/745 579/86/745 574/79/745
s 2
f 581/87/738 580/85/738 575/81/738
s 1
f 695/61/719 581/87/719 576/83/719
s 4
f 562/88/746 561/63/746 577/57/744
s 2
f 563/89/719 562/88/719 578/84/719
s 4
f 563/89/743 579/86/746 580/85/746
s 8
f 565/90/740 564/91/740 580/85/742
s 1
f 566/67/719 565/90/719 581/87/719
s 2
f 572/92/719 577/70/719 561/69/719
s 1
f 589/44/721 588/41/721 582/1/721
s 2
f 590/43/724 589/44/724 583/42/724
s 1
f 591/45/725 590/43/725 584/46/725
s 2
f 592/50/721 591/45/721 585/47/721
s 1
f 593/49/726 592/50/726 586/48/726
f 594/52/721 483/51/721 588/41/721
s 4
f 594/52/727 589/44/728 590/43/728
s 8
f 596/53/729 595/54/729 590/43/730
s 2
f 597/55/721 596/53/721 591/45/721
s 4
f 597/55/729 592/50/731 593/49/731
s 1
f 674/57/721 483/51/721 594/52/721
s 2
f 600/59/726 599/56/726 594/52/726
s 1
f 601/58/724 600/59/724 595/54/724
s 2
f 602/60/721 601/58/721 596/53/721
s 1
f 603/61/732 602/60/732 597/55/732
f 583/62/721 582/63/721 674/57/721
s 4
f 584/64/747 583/62/747 599/56/733
s 8
f 584/64/734 600/59/735 601/58/735
s 2
f 586/65/721 585/66/721 601/58/721
s 4
f 587/67/736 586/65/736 602/60/727
s 2
f 593/68/721 587/69/721 603/70/721
s 1
f 611/71/737 610/41/737 604/1/737
s 2
f 612/72/719 611/71/719 605/73/719
s 1
f 613/74/738 612/72/738 606/75/738
s 2
f 613/74/739 607/77/739 608/78/739
s 1
f 615/49/719 614/76/719 608/78/719
s 4
f 616/51/740 610/41/740 611/71/740
s 2
f 618/79/719 617/80/719 611/71/719
s 4
f 619/81/741 618/79/741 612/72/742
s 8
f 619/81/743 613/74/744 614/76/744
s 1
f 480/82/719 620/83/719 614/76/719
f 622/84/739 621/57/739 616/51/739
s 2
f 623/86/719 622/84/719 617/80/719
s 1
f 624/85/745 623/86/745 618/79/745
s 2
f 625/87/738 624/85/738 619/81/738
s 1
f 739/61/719 625/87/719 620/83/719
s 4
f 605/88/746 604/63/746 621/57/744
s 2
f 606/89/719 605/88/719 622/84/719
s 4
f 606/89/743 623/86/746 624/85/746
s 8
f 608/90/740 607/91/740 624/85/742
s 1
f 609/67/719 608/90/719 625/87/719
s 2
f 616/92/719 621/70/719 604/69/719
s 1
f 631/41/721 498/1/721 626/42/721
s 2
f 633/43/732 632/44/732 626/42/732
s 1
f 633/43/748 627/46/748 628/47/748
s 2
f 635/50/721 634/45/721 628/47/721
s 1
f 636/49/726 635/50/726 629/48/726
f 491/51/721 631/41/721 632/44/721
s 4
f 638/54/736 637/52/736 632/44/735
s 8
f 638/54/747 633/43/749 634/45/749
s 2
f 640/55/721 639/53/721 634/45/721
s 4
f 641/82/747 640/55/747 635/50/733
s 1
f 642/56/721 494/57/721 491/51/721
s 2
f 643/59/726 642/56/726 637/52/726
s 1
f 644/58/732 643/59/732 638/54/732
s 2
f 645/60/721 644/58/721 639/53/721
s 1
f 646/61/724 645/60/724 640/55/724
f 626/62/721 498/63/721 494/57/721
s 4
f 626/62/729 642/56/731 643/59/731
s 8
f 628/66/750 627/64/750 643/59/728
s 2
f 628/66/721 644/58/721 645/60/721
s 4
f 629/65/727 645/60/728 646/61/728
s 2
f 636/68/721 630/69/721 646/70/721
s 1
f 653/71/738 652/41/738 647/1/738
s 2
f 654/72/719 653/71/719 648/73/719
s 1
f 655/74/737 654/72/737 649/75/737
s 2
f 655/74/739 650/77/739 651/78/739
s 1
f 695/49/719 656/76/719 651/78/719
s 4
f 658/80/740 657/51/740 652/41/742
s 2
f 658/80/719 653/71/719 654/72/719
s 4
f 659/79/741 654/72/741 655/74/741
s 8
f 661/83/743 660/81/743 655/74/744
s 1
f 661/83/719 656/76/719 695/49/719
f 664/84/739 663/57/739 657/51/739
s 2
f 664/84/719 658/80/719 659/79/719
s 1
f 666/85/745 665/86/745 659/79/745
s 2
f 667/87/737 666/85/737 660/81/737
s 1
f 667/87/719 661/83/719 662/82/719
s 4
f 647/63/743 663/57/744 664/84/744
s 2
f 649/89/719 648/88/719 664/84/719
s 4
f 650/91/746 649/89/746 665/86/746
s 8
f 650/91/751 666/85/742 667/87/742
s 1
f 651/90/719 667/87/719 668/61/719
s 2
f 657/92/719 663/70/719 647/69/719
s 1
f 675/44/721 674/41/721 631/1/721
s 2
f 676/43/732 675/44/732 669/42/732
s 1
f 677/45/748 676/43/748 670/46/748
s 2
f 678/50/721 677/45/721 671/47/721
s 1
f 679/49/726 678/50/726 672/48/726
f 680/52/721 728/51/721 674/41/721
s 4
f 681/54/736 680/52/736 675/44/727
s 8
f 681/54/747 676/43/749 677/45/749
s 2
f 683/55/721 682/53/721 677/45/721
s 4
f 684/82/747 683/55/747 678/50/733
s 1
f 685/56/721 491/57/721 728/51/721
s 2
f 686/59/726 685/56/726 680/52/726
s 1
f 687/58/732 686/59/732 681/54/732
s 2
f 688/60/721 687/58/721 682/53/721
s 1
f 689/61/724 688/60/724 683/55/724
f 631/63/721 491/57/721 685/56/721
s 4
f 669/62/733 685/56/731 686/59/731
s 8
f 671/66/750 670/64/750 686/59/728
s 2
f 671/66/721 687/58/721 688/60/721
s 4
f 672/65/727 688/60/728 689/61/728
s 2
f 679/68/721 673/69/721 689/70/721
s 1
f 697/71/738 696/41/738 690/1/738
s 2
f 698/72/719 697/71/719 691/73/719
s 1
f 699/74/737 698/72/737 692/75/737
s 2
f 700/76/739 699/74/739 693/77/739
s 1
f 739/49/719 700/76/719 694/78/719
s 4
f 702/80/740 701/51/740 696/41/742
s 2
f 702/80/719 697/71/719 698/72/719
s 4
f 703/79/741 698/72/741 699/74/741
s 8
f 705/83/746 704/81/746 699/74/744
s 1
f 705/83/719 700/76/719 739/49/719
f 708/84/739 707/57/739 701/51/739
s 2
f 709/86/719 708/84/719 702/80/719
s 1
f 710/85/745 709/86/745 703/79/745
s 2
f 711/87/737 710/85/737 704/81/737
s 1
f 662/61/719 711/87/719 705/83/719
s 4
f 690/63/743 707/57/744 708/84/744
s 2
f 692/89/719 691/88/719 708/84/719
s 4
f 693/91/746 692/89/746 709/86/746
s 8
f 693/91/740 710/85/741 711/87/741
s 1
f 695/67/719 694/90/719 711/87/719
s 2
f 701/92/719 707/70/719 690/69/719
s 1
f 717/44/721 483/41/721 674/1/721
s 2
f 718/43/732 717/44/732 712/42/732
s 1
f 719/45/748 718/43/748 713/46/748
s 2
f 720/50/721 719/45/721 714/47/721
s 1
f 721/49/726 720/50/726 715/48/726
f 722/51/721 483/41/721 717/44/721
s 4
f 724/54/736 723/52/736 717/44/735
s 8
f 724/54/747 718/43/749 719/45/749
s 2
f 726/55/721 725/53/721 719/45/721
s 4
f 727/82/747 726/55/747 720/50/733
s 1
f 729/56/721 728/57/721 722/51/721
s 2
f 730/59/726 729/56/726 723/52/726
s 1
f 730/59/732 724/54/732 725/53/732
s 2
f 732/60/721 731/58/721 725/53/721
s 1
f 733/61/724 732/60/724 726/55/724
f 674/63/721 728/57/721 729/56/721
s 4
f 712/62/729 729/56/731 730/59/731
s 8
f 714/66/750 713/64/750 730/59/728
s 2
f 714/66/721 731/58/721 732/60/721
s 4
f 715/65/727 732/60/728 733/61/728
s 2
f 721/68/721 716/69/721 733/70/721
s 1
f 741/71/738 740/41/738 734/1/738
s 2
f 742/72/719 741/71/719 735/73/719
s 1
f 743/74/737 742/72/737 736/75/737
s 2
f 744/76/739 743/74/739 737/77/739
s 1
f 480/49/719 744/76/719 738/78/719
s 4
f 746/80/740 745/51/740 740/41/742
s 2
f 746/80/719 741/71/719 742/72/719
s 4
f 747/79/741 742/72/741 743/74/741
s 8
f 749/83/743 748/81/743 743/74/744
s 1
f 484/82/719 749/83/719 744/76/719
f 751/84/739 750/57/739 745/51/739
s 2
f 752/86/719 751/84/719 746/80/719
s 1
f 753/85/745 752/86/745 747/79/745
s 2
f 754/87/737 753/85/737 748/81/737
s 1
f 706/61/719 754/87/719 749/83/719
s 4
f 734/63/746 750/57/744 751/84/744
s 2
f 736/89/719 735/88/719 751/84/719
s 4
f 737/91/743 736/89/743 752/86/746
s 8
f 737/91/740 753/85/741 754/87/741
s 1
f 739/67/719 738/90/719 754/87/719
s 2
f 745/92/719 750/70/719 734/69/719
s 1
f 243/1/373 242/1/375 415/1/752
s 2
f 114/1/376 415/1/378 244/1/753
f 415/1/378 66/1/380 244/1/753
s 1
f 242/1/375 245/1/382 415/1/752
s 2
f 115/1/390 417/1/392 251/1/683
s 1
f 251/1/393 252/1/395 116/1/398
f 252/1/395 253/1/396 75/1/402
f 116/1/398 418/1/399 254/1/400
f 113/1/374 418/1/399 242/1/375
f 242/1/375 255/1/401 76/1/381
f 252/1/395 255/1/401 418/1/399
f 63/1/406 419/1/408 258/1/558
f 419/1/408 67/1/410 258/1/558
f 265/1/419 264/1/421 421/1/423
f 119/1/422 421/1/423 266/1/754
f 421/1/423 122/1/425 266/1/754
f 264/1/421 267/1/424 421/1/423
f 75/1/402 422/1/427 268/1/428
f 268/1/428 269/1/429 77/1/426
f 271/1/437 272/1/439 78/1/420
f 423/1/438 76/1/381 272/1/439
s 2
f 110/1/440 424/1/442 274/1/443
f 274/1/443 275/1/444 82/1/520
s 1
f 75/1/402 425/1/453 255/1/401
f 425/1/453 76/1/381 255/1/401
f 277/1/452 279/1/454 425/1/453
f 281/1/456 280/1/458 426/1/459
f 78/1/420 426/1/459 264/1/421
f 426/1/459 77/1/426 264/1/421
f 280/1/458 282/1/460 426/1/459
f 74/1/461 427/1/463 282/1/460
f 282/1/460 268/1/428 77/1/426
f 268/1/428 278/1/450 75/1/402
f 64/1/455 428/1/465 279/1/454
f 279/1/454 272/1/439 76/1/381
f 272/1/439 281/1/456 78/1/420
f 428/1/465 71/1/457 281/1/456
f 286/1/466 285/1/468 429/1/470
f 89/1/469 429/1/470 287/1/600
f 429/1/470 90/1/472 287/1/600
f 285/1/468 288/1/471 429/1/470
s 4
f 289/1/483 274/1/481 430/1/480
s 1
f 84/1/507 433/1/509 298/1/511
f 86/1/510 433/1/509 299/1/512
f 299/1/512 285/1/468 85/1/467
f 297/1/508 285/1/468 433/1/509
s 2
f 82/1/520 435/1/521 302/1/755
s 8
f 86/1/522 435/1/524 298/1/756
f 435/1/524 84/1/526 298/1/756
s 16
f 85/1/531 436/1/533 299/1/757
f 436/1/533 86/1/534 299/1/757
f 437/1/541 99/1/542 306/1/542
f 304/1/543 307/1/541 437/1/541
s 2
f 83/1/549 439/1/550 288/1/551
s 4
f 439/1/553 88/1/545 311/1/598
s 16
f 440/1/555 89/1/543 304/1/543
f 440/1/555 85/1/531 286/1/555
s 1
f 67/1/410 441/1/557 258/1/558
f 63/1/406 441/1/557 313/1/559
f 313/1/559 254/1/400 113/1/374
f 312/1/556 254/1/400 441/1/557
f 316/1/563 317/1/564 117/1/758
f 314/1/195 317/1/564 442/1/197
f 114/1/565 446/1/582 317/1/564
s 16
f 447/1/588 99/1/542 328/1/589
s 2
f 90/1/592 449/1/593 331/1/594
f 331/1/594 332/1/595 100/1/619
s 4
f 449/1/596 98/1/597 332/1/626
s 1
f 307/1/599 287/1/600 450/1/602
f 99/1/601 450/1/602 333/1/232
f 450/1/602 100/1/604 333/1/232
f 287/1/600 331/1/603 450/1/602
s 2
f 100/1/619 453/1/620 338/1/621
s 1
f 328/1/627 333/1/232 454/1/629
f 103/1/628 454/1/629 336/1/759
f 454/1/629 104/1/631 336/1/759
f 333/1/232 338/1/630 454/1/629
f 74/1/461 457/1/652 343/1/760
s 2
f 343/1/653 344/1/655 107/1/674
s 4
f 344/1/656 345/1/658 106/1/676
s 1
f 457/1/652 71/1/457 345/1/761
s 16
f 345/1/659 284/1/660 458/1/762
s 2
f 106/1/661 458/1/663 346/1/677
s 16
f 284/1/660 339/1/667 458/1/762
s 2
f 349/1/321 344/1/655 461/1/322
f 111/1/474 461/1/322 289/1/475
s 4
f 461/1/675 110/1/484 289/1/483
f 461/1/675 106/1/676 350/1/320
s 2
f 106/1/661 462/1/77 350/1/77
f 110/1/440 462/1/77 273/1/441
s 1
f 462/1/70 109/1/449 273/1/448
f 462/1/70 105/1/666 347/1/70
f 259/1/409 312/1/556 67/1/410
f 463/1/682 116/1/398 312/1/556
f 464/1/685 118/1/687 351/1/763
f 464/1/685 115/1/383 247/1/16
f 257/1/407 313/1/559 465/1/692
f 465/1/692 113/1/374 243/1/373
f 122/1/425 466/1/697 266/1/754
s 8
f 352/1/695 354/1/700 466/1/764
f 355/1/351 352/1/695 467/1/701
f 467/1/701 124/1/703 356/1/702
s 1
f 77/1/426 469/1/709 267/1/424
f 267/1/424 353/1/696 122/1/425
s 2
f 358/1/715 271/1/716 470/1/715
s 16
f 120/1/717 470/1/717 354/1/717
s 1
f 470/1/718 78/1/420 265/1/419
f 474/2/719 524/1/719 471/5/719
s 2
f 475/4/720 471/5/720 472/6/720
s 1
f 476/8/719 566/3/719 474/2/719
s 2
f 477/10/720 474/2/720 475/4/720
s 1
f 615/12/719 476/8/719 478/14/719
s 2
f 479/13/720 476/8/720 477/10/720
s 1
f 481/16/719 615/12/719 478/14/719
s 4
f 482/18/722 478/14/722 479/13/722
s 1
f 482/18/721 588/15/721 483/94/721
f 484/19/719 481/16/719 485/21/719
s 4
f 486/20/722 481/16/722 482/18/722
s 1
f 722/22/721 482/18/721 483/94/721
f 487/23/719 484/19/719 485/21/719
s 2
f 488/25/723 485/21/723 486/20/723
s 1
f 488/25/721 722/22/721 728/95/721
f 662/26/719 487/23/719 489/28/719
s 2
f 490/27/723 487/23/723 488/25/723
s 1
f 491/29/721 488/25/721 728/95/721
f 668/30/719 489/28/719 492/32/719
s 2
f 493/31/723 489/28/723 490/27/723
s 1
f 494/33/721 490/27/721 491/29/721
f 496/34/719 668/30/719 492/32/719
s 4
f 497/36/203 492/32/203 493/31/203
s 1
f 524/37/719 496/34/719 471/39/719
s 4
f 472/38/203 496/34/203 497/36/203
s 1
f 526/71/737 519/1/737 520/73/737
s 2
f 527/72/719 520/73/719 521/75/719
s 1
f 528/74/738 521/75/738 522/77/738
s 2
f 529/76/739 522/77/739 523/78/739
s 1
f 566/49/719 523/78/719 524/93/719
s 4
f 530/51/740 526/71/741 531/80/740
s 2
f 532/79/719 526/71/719 527/72/719
s 4
f 533/81/741 527/72/742 528/74/742
s 8
f 533/81/743 529/76/744 534/83/743
s 1
f 695/82/719 529/76/719 566/49/719
f 536/84/739 530/51/739 531/80/739
s 2
f 536/84/719 532/79/719 537/86/719
s 1
f 538/85/745 532/79/745 533/81/745
s 2
f 539/87/738 533/81/738 534/83/738
s 1
f 539/87/719 695/82/719 495/61/719
s 4
f 520/88/746 535/57/744 536/84/744
s 2
f 521/89/719 536/84/719 537/86/719
s 4
f 521/89/743 538/85/746 522/91/743
s 8
f 523/90/740 538/85/741 539/87/741
s 1
f 524/67/719 539/87/719 495/61/719
s 2
f 530/92/719 519/69/719 525/68/719
s 1
f 568/71/737 561/1/737 562/73/737
s 2
f 569/72/719 562/73/719 563/75/719
s 1
f 570/74/738 563/75/738 564/77/738
s 2
f 570/74/739 565/78/739 571/76/739
s 1
f 571/76/719 566/93/719 609/49/719
s 4
f 572/51/740 568/71/741 573/80/740
s 2
f 574/79/719 568/71/719 569/72/719
s 4
f 575/81/741 569/72/742 570/74/742
s 8
f 575/81/743 571/76/744 576/83/743
s 1
f 739/82/719 571/76/719 609/49/719
f 577/57/739 573/80/739 578/84/739
s 2
f 578/84/719 574/79/719 579/86/719
s 1
f 580/85/745 574/79/745 575/81/745
s 2
f 581/87/738 575/81/738 576/83/738
s 1
f 695/61/719 576/83/719 739/82/719
s 4
f 562/88/746 577/57/744 578/84/744
s 2
f 563/89/719 578/84/719 579/86/719
s 4
f 563/89/743 580/85/746 564/91/743
s 8
f 565/90/740 580/85/742 581/87/742
s 1
f 566/67/719 581/87/719 695/61/719
s 2
f 572/92/719 561/69/719 567/68/719
s 1
f 611/71/737 604/1/737 605/73/737
s 2
f 612/72/719 605/73/719 606/75/719
s 1
f 613/74/738 606/75/738 607/77/738
s 2
f 613/74/739 608/78/739 614/76/739
s 1
f 615/49/719 608/78/719 609/93/719
s 4
f 616/51/740 611/71/740 617/80/740
s 2
f 618/79/719 611/71/719 612/72/719
s 4
f 619/81/741 612/72/742 613/74/742
s 8
f 619/81/743 614/76/744 620/83/743
s 1
f 480/82/719 614/76/719 615/49/719
f 622/84/739 616/51/739 617/80/739
s 2
f 623/86/719 617/80/719 618/79/719
s 1
f 624/85/745 618/79/745 619/81/745
s 2
f 625/87/738 619/81/738 620/83/738
s 1
f 739/61/719 620/83/719 480/82/719
s 4
f 605/88/746 621/57/744 622/84/744
s 2
f 606/89/719 622/84/719 623/86/719
s 4
f 606/89/743 624/85/746 607/91/743
s 8
f 608/90/740 624/85/742 625/87/742
s 1
f 609/67/719 625/87/719 739/61/719
s 2
f 616/92/719 604/69/719 610/68/719
s 1
f 653/71/738 647/1/738 648/73/738
s 2
f 654/72/719 648/73/719 649/75/719
s 1
f 655/74/737 649/75/737 650/77/737
s 2
f 655/74/739 651/78/739 656/76/739
s 1
f 695/49/719 651/78/719 495/93/719
s 4
f 658/80/740 652/41/742 653/71/742
s 2
f 658/80/719 654/72/719 659/79/719
s 4
f 659/79/741 655/74/741 660/81/741
s 8
f 661/83/743 655/74/744 656/76/744
s 1
f 661/83/719 695/49/719 662/82/719
f 664/84/739 657/51/739 658/80/739
s 2
f 664/84/719 659/79/719 665/86/719
s 1
f 666/85/745 659/79/745 660/81/745
s 2
f 667/87/737 660/81/737 661/83/737
s 1
f 667/87/719 662/82/719 668/61/719
s 4
f 647/63/743 664/84/744 648/88/743
s 2
f 649/89/719 664/84/719 665/86/719
s 4
f 650/91/746 665/86/746 666/85/746
s 8
f 650/91/751 667/87/742 651/90/751
s 1
f 651/90/719 668/61/719 495/67/719
s 2
f 657/92/719 647/69/719 652/68/719
s 1
f 697/71/738 690/1/738 691/73/738
s 2
f 698/72/719 691/73/719 692/75/719
s 1
f 699/74/737 692/75/737 693/77/737
s 2
f 700/76/739 693/77/739 694/78/739
s 1
f 739/49/719 694/78/719 695/93/719
s 4
f 702/80/740 696/41/742 697/71/742
s 2
f 702/80/719 698/72/719 703/79/719
s 4
f 703/79/741 699/74/741 704/81/741
s 8
f 705/83/746 699/74/744 700/76/744
s 1
f 705/83/719 739/49/719 706/82/719
f 708/84/739 701/51/739 702/80/739
s 2
f 709/86/719 702/80/719 703/79/719
s 1
f 710/85/745 703/79/745 704/81/745
s 2
f 711/87/737 704/81/737 705/83/737
s 1
f 662/61/719 705/83/719 706/82/719
s 4
f 690/63/743 708/84/744 691/88/743
s 2
f 692/89/719 708/84/719 709/86/719
s 4
f 693/91/746 709/86/746 710/85/746
s 8
f 693/91/740 711/87/741 694/90/740
s 1
f 695/67/719 711/87/719 662/61/719
s 2
f 701/92/719 690/69/719 696/68/719
s 1
f 741/71/738 734/1/738 735/73/738
s 2
f 742/72/719 735/73/719 736/75/719
s 1
f 743/74/737 736/75/737 737/77/737
s 2
f 744/76/739 737/77/739 738/78/739
s 1
f 480/49/719 738/78/719 739/93/719
s 4
f 746/80/740 740/41/742 741/71/742
s 2
f 746/80/719 742/72/719 747/79/719
s 4
f 747/79/741 743/74/741 748/81/741
s 8
f 749/83/743 743/74/744 744/76/744
s 1
f 484/82/719 744/76/719 480/49/719
f 751/84/739 745/51/739 746/80/739
s 2
f 752/86/719 746/80/719 747/79/719
s 1
f 753/85/745 747/79/745 748/81/745
s 2
f 754/87/737 748/81/737 749/83/737
s 1
f 706/61/719 749/83/719 484/82/719
s 4
f 734/63/746 751/84/744 735/88/746
s 2
f 736/89/719 751/84/719 752/86/719
s 4
f 737/91/743 752/86/746 753/85/746
s 8
f 737/91/740 754/87/741 738/90/740
s 1
f 739/67/719 754/87/719 706/61/719
s 2
f 745/92/719 734/69/719 740/68/719
s 1
f 126/1/1 125/1/3 359/1/765
s 2
f 4/1/4 359/1/6 127/1/766
s 1
f 125/1/3 128/1/10 359/1/765
f 134/1/21 135/1/23 13/1/27
f 135/1/23 136/1/24 54/1/30
f 137/1/26 135/1/23 362/1/28
f 137/1/26 125/1/3 14/1/2
f 362/1/28 51/1/9 125/1/3
f 362/1/28 54/1/30 138/1/29
f 5/1/34 363/1/36 141/1/192
f 148/1/48 147/1/50 365/1/52
f 60/1/51 365/1/52 149/1/767
f 365/1/52 57/1/54 149/1/767
f 147/1/50 150/1/53 365/1/52
f 151/1/60 152/1/62 15/1/49
f 14/1/2 367/1/63 153/1/64
f 153/1/64 154/1/65 16/1/55
s 2
f 367/1/66 10/1/68 154/1/371
s 1
f 161/1/79 160/1/81 369/1/82
f 14/1/2 369/1/82 137/1/26
f 369/1/82 13/1/27 137/1/26
f 164/1/85 163/1/87 370/1/88
f 15/1/49 370/1/88 147/1/50
f 370/1/88 16/1/55 147/1/50
f 163/1/87 165/1/89 370/1/88
f 162/1/83 152/1/62 13/1/27
f 152/1/62 164/1/85 15/1/49
f 371/1/92 12/1/86 164/1/85
f 9/1/90 372/1/94 165/1/89
f 165/1/89 153/1/64 16/1/55
f 153/1/64 161/1/79 14/1/2
f 372/1/94 2/1/80 161/1/79
f 169/1/95 168/1/97 373/1/99
f 28/1/98 373/1/99 170/1/241
f 373/1/99 27/1/101 170/1/241
f 168/1/97 171/1/100 373/1/99
s 4
f 159/1/103 172/1/105 374/1/107
s 1
f 168/1/97 180/1/136 377/1/137
f 168/1/97 181/1/138 23/1/102
f 377/1/137 24/1/140 181/1/138
f 377/1/137 22/1/141 182/1/139
s 4
f 179/1/130 184/1/148 378/1/768
s 8
f 22/1/151 379/1/153 182/1/769
f 379/1/153 24/1/155 182/1/769
s 4
f 173/1/108 186/1/165 380/1/770
s 16
f 188/1/166 187/1/168 381/1/170
f 37/1/169 381/1/170 189/1/223
s 4
f 381/1/171 35/1/173 189/1/230
f 187/1/174 190/1/172 381/1/171
s 2
f 194/1/182 169/1/184 28/1/239
f 383/1/183 21/1/185 169/1/184
s 16
f 23/1/163 384/1/186 171/1/187
f 27/1/167 384/1/186 187/1/168
s 4
f 384/1/188 25/1/175 187/1/174
f 186/1/165 191/1/176 384/1/188
s 1
f 138/1/29 195/1/189 385/1/190
f 138/1/29 196/1/191 51/1/9
f 385/1/190 1/1/38 196/1/191
f 385/1/190 5/1/34 141/1/192
f 155/1/215 207/1/218 389/1/216
s 16
f 37/1/169 391/1/224 209/1/225
f 209/1/225 210/1/226 41/1/226
s 4
f 210/1/227 211/1/229 39/1/771
f 391/1/228 35/1/173 211/1/229
f 25/1/175 392/1/231 190/1/172
f 190/1/172 212/1/232 35/1/256
s 2
f 214/1/237 215/1/238 38/1/269
f 393/1/238 28/1/239 215/1/238
s 1
f 215/1/240 170/1/241 394/1/243
f 38/1/242 394/1/243 216/1/244
f 216/1/244 188/1/245 37/1/275
f 394/1/243 27/1/101 188/1/245
s 2
f 397/1/267 38/1/269 221/1/268
s 1
f 221/1/270 216/1/244 398/1/272
f 42/1/271 398/1/272 218/1/772
f 398/1/272 41/1/274 218/1/772
f 216/1/244 209/1/273 398/1/272
s 4
f 225/1/286 166/1/287 400/1/773
s 1
f 9/1/90 401/1/296 227/1/774
s 4
f 227/1/297 228/1/299 44/1/299
s 1
f 401/1/296 12/1/86 225/1/775
s 16
f 224/1/303 167/1/304 402/1/776
f 167/1/304 227/1/311 402/1/776
s 4
f 44/1/299 405/1/320 233/1/320
f 48/1/104 405/1/320 172/1/105
s 2
f 172/1/112 232/1/322 49/1/113
f 405/1/321 45/1/323 232/1/322
s 1
f 231/1/70 229/1/324 406/1/70
s 2
f 406/1/77 48/1/78 156/1/77
f 229/1/325 233/1/77 406/1/77
s 1
f 54/1/30 407/1/328 195/1/189
f 51/1/9 409/1/335 128/1/10
s 2
f 128/1/7 197/1/337 52/1/8
s 1
f 196/1/191 142/1/37 409/1/335
s 2
f 59/1/346 411/1/348 203/1/350
s 1
f 205/1/213 241/1/777 412/1/778
s 2
f 204/1/361 151/1/362 413/1/361
s 1
f 413/1/366 15/1/49 148/1/48
f 16/1/55 414/1/367 150/1/53
f 150/1/53 236/1/343 57/1/54
s 2
f 154/1/371 240/1/372 414/1/372
s 1
f 278/1/450 277/1/452 425/1/453
s 2
f 84/1/514 434/1/516 297/1/517
s 4
f 305/1/536 304/1/538 437/1/540
f 88/1/545 438/1/546 309/1/547
s 2
f 288/1/551 311/1/552 90/1/592
s 16
f 327/1/587 328/1/589 103/1/587
s 8
f 104/1/608 451/1/609 336/1/609
s 1
f 451/1/607 101/1/611 327/1/779
s 2
f 338/1/621 335/1/622 104/1/780
s 8
f 64/1/632 455/1/634 339/1/781
s 1
f 354/1/698 265/1/419 119/1/422
f 475/4/721 473/7/721 540/11/721
f 477/10/721 540/11/721 582/96/721
f 588/15/721 477/10/721 582/96/721
f 497/36/721 494/33/721 498/97/721
f 473/40/721 497/36/721 498/97/721
f 540/41/721 499/42/721 504/44/721
s 2
f 505/43/724 499/42/724 500/46/724
s 1
f 506/45/725 500/46/725 501/47/725
s 2
f 506/45/721 502/48/721 507/50/721
s 1
f 508/49/726 502/48/726 503/93/726
f 631/51/721 504/44/721 509/52/721
s 4
f 509/52/727 505/43/728 510/54/727
s 8
f 511/53/729 505/43/730 506/45/730
s 2
f 512/55/721 506/45/721 507/50/721
s 4
f 512/55/729 508/49/731 513/82/729
s 1
f 514/56/721 631/51/721 509/52/721
s 2
f 514/56/726 510/54/726 515/59/726
s 1
f 516/58/724 510/54/724 511/53/724
s 2
f 517/60/721 511/53/721 512/55/721
s 1
f 518/61/732 512/55/732 513/82/732
f 499/62/721 498/57/721 514/56/721
s 4
f 500/64/731 514/56/733 515/59/733
s 8
f 500/64/734 516/58/735 501/66/734
s 2
f 502/65/721 516/58/721 517/60/721
s 4
f 503/67/736 517/60/735 518/61/735
s 2
f 508/68/721 518/70/721 513/92/721
s 1
f 546/44/721 540/1/721 541/42/721
s 2
f 547/43/724 541/42/724 542/46/724
s 1
f 548/45/725 542/46/725 543/47/725
s 2
f 549/50/721 543/47/721 544/48/721
s 1
f 550/49/726 544/48/726 545/93/726
f 551/52/721 582/41/721 546/44/721
s 4
f 551/52/727 547/43/736 552/54/727
s 8
f 553/53/729 547/43/730 548/45/730
s 2
f 554/55/721 548/45/721 549/50/721
s 4
f 554/55/729 550/49/731 555/82/729
s 1
f 631/57/721 551/52/721 556/56/721
s 2
f 557/59/726 551/52/726 552/54/726
s 1
f 558/58/724 552/54/724 553/53/724
s 2
f 559/60/721 553/53/721 554/55/721
s 1
f 559/60/732 555/82/732 560/61/732
f 541/62/721 631/57/721 556/56/721
s 4
f 542/64/731 556/56/733 557/59/733
s 8
f 542/64/734 558/58/735 543/66/734
s 2
f 544/65/721 558/58/721 559/60/721
s 4
f 545/67/736 559/60/735 560/61/735
s 2
f 550/68/721 560/70/721 555/92/721
s 1
f 589/44/721 582/1/721 583/42/721
s 2
f 590/43/724 583/42/724 584/46/724
s 1
f 591/45/725 584/46/725 585/47/725
s 2
f 592/50/721 585/47/721 586/48/721
s 1
f 593/49/726 586/48/726 587/93/726
f 594/52/721 588/41/721 589/44/721
s 4
f 594/52/727 590/43/728 595/54/727
s 8
f 596/53/729 590/43/730 591/45/730
s 2
f 597/55/721 591/45/721 592/50/721
s 4
f 597/55/729 593/49/731 598/82/729
s 1
f 674/57/721 594/52/721 599/56/721
s 2
f 600/59/726 594/52/726 595/54/726
s 1
f 601/58/724 595/54/724 596/53/724
s 2
f 602/60/721 596/53/721 597/55/721
s 1
f 603/61/732 597/55/732 598/82/732
f 583/62/721 674/57/721 599/56/721
s 4
f 584/64/747 599/56/733 600/59/733
s 8
f 584/64/734 601/58/735 585/66/734
s 2
f 586/65/721 601/58/721 602/60/721
s 4
f 587/67/736 602/60/727 603/61/727
s 2
f 593/68/721 603/70/721 598/92/721
s 1
f 631/41/721 626/42/721 632/44/721
s 2
f 633/43/732 626/42/732 627/46/732
s 1
f 633/43/748 628/47/748 634/45/748
s 2
f 635/50/721 628/47/721 629/48/721
s 1
f 636/49/726 629/48/726 630/93/726
f 491/51/721 632/44/721 637/52/721
s 4
f 638/54/736 632/44/735 633/43/735
s 8
f 638/54/747 634/45/749 639/53/747
s 2
f 640/55/721 634/45/721 635/50/721
s 4
f 641/82/747 635/50/733 636/49/733
s 1
f 642/56/721 491/51/721 637/52/721
s 2
f 643/59/726 637/52/726 638/54/726
s 1
f 644/58/732 638/54/732 639/53/732
s 2
f 645/60/721 639/53/721 640/55/721
s 1
f 646/61/724 640/55/724 641/82/724
f 626/62/721 494/57/721 642/56/721
s 4
f 626/62/729 643/59/731 627/64/729
s 8
f 628/66/750 643/59/728 644/58/728
s 2
f 628/66/721 645/60/721 629/65/721
s 4
f 629/65/727 646/61/728 630/67/727
s 2
f 636/68/721 646/70/721 641/92/721
s 1
f 675/44/721 631/1/721 669/42/721
s 2
f 676/43/732 669/42/732 670/46/732
s 1
f 677/45/748 670/46/748 671/47/748
s 2
f 678/50/721 671/47/721 672/48/721
s 1
f 679/49/726 672/48/726 673/93/726
f 680/52/721 674/41/721 675/44/721
s 4
f 681/54/736 675/44/727 676/43/727
s 8
f 681/54/747 677/45/749 682/53/747
s 2
f 683/55/721 677/45/721 678/50/721
s 4
f 684/82/747 678/50/733 679/49/733
s 1
f 685/56/721 728/51/721 680/52/721
s 2
f 686/59/726 680/52/726 681/54/726
s 1
f 687/58/732 681/54/732 682/53/732
s 2
f 688/60/721 682/53/721 683/55/721
s 1
f 689/61/724 683/55/724 684/82/724
f 631/63/721 685/56/721 669/62/721
s 4
f 669/62/733 686/59/731 670/64/733
s 8
f 671/66/750 686/59/728 687/58/728
s 2
f 671/66/721 688/60/721 672/65/721
s 4
f 672/65/727 689/61/728 673/67/727
s 2
f 679/68/721 689/70/721 684/92/721
s 1
f 717/44/721 674/1/721 712/42/721
s 2
f 718/43/732 712/42/732 713/46/732
s 1
f 719/45/748 713/46/748 714/47/748
s 2
f 720/50/721 714/47/721 715/48/721
s 1
f 721/49/726 715/48/726 716/93/726
f 722/51/721 717/44/721 723/52/721
s 4
f 724/54/736 717/44/735 718/43/735
s 8
f 724/54/747 719/45/749 725/53/747
s 2
f 726/55/721 719/45/721 720/50/721
s 4
f 727/82/747 720/50/733 721/49/733
s 1
f 729/56/721 722/51/721 723/52/721
s 2
f 730/59/726 723/52/726 724/54/726
s 1
f 730/59/732 725/53/732 731/58/732
s 2
f 732/60/721 725/53/721 726/55/721
s 1
f 733/61/724 726/55/724 727/82/724
f 674/63/721 729/56/721 712/62/721
s 4
f 712/62/729 730/59/731 713/64/729
s 8
f 714/66/750 730/59/728 731/58/728
s 2
f 714/66/721 732/60/721 715/65/721
s 4
f 715/65/727 733/61/728 716/67/727
s 2
f 721/68/721 733/70/721 727/92/721
s 4
f 309/1/547 310/1/548 87/1/537
f 330/1/244 305/1/536 97/1/618
f 448/1/590 87/1/537 305/1/536
f 311/1/598 329/1/591 449/1/596
s 8
f 451/1/609 103/1/610 336/1/609
f 456/1/648 107/1/649 342/1/673
f 342/1/673 349/1/316 460/1/316
s 1
f 466/1/697 119/1/422 266/1/754
s 2
f 359/1/6 52/1/8 127/1/766
s 1
f 130/1/11 129/1/13 360/1/14
f 130/1/11 131/1/15 31/1/782
f 131/1/15 132/1/16 56/1/783
f 129/1/13 132/1/16 360/1/14
s 2
f 8/1/18 361/1/20 134/1/57
f 361/1/20 53/1/25 136/1/326
s 4
f 140/1/31 139/1/33 363/1/784
s 1
f 363/1/36 1/1/38 141/1/192
s 4
f 139/1/33 142/1/40 363/1/784
s 1
f 8/1/41 364/1/43 144/1/44
f 144/1/44 145/1/45 32/1/334
f 145/1/45 146/1/46 34/1/207
f 364/1/43 11/1/47 146/1/46
s 2
f 143/1/56 134/1/57 366/1/59
f 11/1/58 366/1/59 151/1/362
s 1
f 366/1/61 13/1/27 152/1/62
s 2
f 126/1/5 155/1/67 367/1/66
s 1
f 47/1/69 368/1/71 157/1/72
f 157/1/72 158/1/73 18/1/149
s 2
f 158/1/74 159/1/76 20/1/157
f 368/1/75 48/1/78 159/1/76
s 1
f 160/1/81 162/1/83 369/1/82
f 6/1/84 371/1/92 162/1/83
s 4
f 20/1/106 374/1/107 173/1/108
f 173/1/108 174/1/110 19/1/164
s 2
f 374/1/111 49/1/113 174/1/785
s 8
f 49/1/114 375/1/116 174/1/786
s 4
f 174/1/117 176/1/119 19/1/164
f 375/1/118 17/1/121 176/1/119
s 1
f 175/1/122 177/1/124 375/1/787
s 2
f 50/1/125 376/1/127 177/1/788
s 4
f 177/1/128 179/1/130 17/1/121
f 376/1/131 18/1/133 179/1/130
f 178/1/134 157/1/132 376/1/131
f 183/1/142 179/1/130 378/1/768
s 2
f 183/1/143 180/1/145 21/1/185
f 378/1/144 22/1/147 180/1/145
s 1
f 18/1/149 379/1/150 184/1/789
s 2
f 379/1/156 20/1/157 185/1/790
s 4
f 185/1/158 173/1/108 380/1/770
s 16
f 24/1/159 380/1/161 181/1/791
f 380/1/161 23/1/163 181/1/791
s 4
f 191/1/176 176/1/119 382/1/177
f 191/1/176 192/1/178 25/1/175
f 382/1/177 26/1/180 192/1/178
f 176/1/119 193/1/179 382/1/177
f 193/1/179 183/1/142 383/1/181
f 26/1/180 383/1/181 194/1/234
s 1
f 198/1/193 197/1/195 386/1/197
f 55/1/196 386/1/197 199/1/563
f 386/1/197 30/1/199 199/1/563
f 386/1/197 3/1/200 200/1/198
s 4
f 200/1/201 139/1/33 387/1/202
f 200/1/201 201/1/203 30/1/792
f 387/1/202 31/1/205 201/1/203
f 387/1/202 7/1/32 130/1/204
s 1
f 202/1/206 146/1/46 388/1/793
s 8
f 202/1/208 203/1/794 62/1/794
s 4
f 203/1/210 204/1/211 59/1/210
s 1
f 146/1/46 204/1/212 388/1/793
f 205/1/213 155/1/215 389/1/216
f 205/1/213 206/1/217 33/1/359
f 206/1/217 207/1/218 29/1/222
f 4/1/219 390/1/221 207/1/218
f 29/1/222 390/1/221 208/1/795
f 390/1/221 55/1/196 208/1/795
f 390/1/221 52/1/194 198/1/193
s 4
f 212/1/232 213/1/233 36/1/261
f 392/1/231 26/1/180 213/1/233
f 213/1/233 194/1/234 393/1/236
f 36/1/235 393/1/236 214/1/262
s 1
f 39/1/246 395/1/248 210/1/796
s 8
f 41/1/249 395/1/251 218/1/797
f 395/1/251 42/1/253 218/1/797
s 1
f 395/1/248 40/1/254 219/1/798
s 4
f 211/1/255 212/1/232 396/1/258
f 39/1/257 396/1/258 217/1/799
f 396/1/258 40/1/260 217/1/799
f 212/1/232 220/1/259 396/1/258
f 36/1/235 397/1/263 220/1/264
f 220/1/264 219/1/265 40/1/800
s 2
f 219/1/266 221/1/268 42/1/801
s 8
f 6/1/276 399/1/278 222/1/802
s 2
f 222/1/279 223/1/281 46/1/312
s 4
f 223/1/282 224/1/284 43/1/315
s 8
f 399/1/278 2/1/285 224/1/803
f 45/1/288 400/1/290 226/1/317
s 1
f 400/1/291 46/1/293 226/1/319
s 4
f 166/1/287 222/1/295 400/1/773
s 2
f 228/1/300 225/1/302 45/1/323
s 1
f 43/1/305 402/1/307 229/1/324
s 2
f 402/1/308 44/1/310 229/1/325
f 46/1/312 403/1/313 230/1/313
f 230/1/313 178/1/126 50/1/125
s 4
f 403/1/314 47/1/135 178/1/134
f 403/1/314 43/1/315 231/1/314
s 8
f 232/1/316 226/1/317 404/1/316
f 232/1/316 175/1/115 49/1/114
s 1
f 175/1/122 230/1/318 50/1/123
f 226/1/319 230/1/318 404/1/318
f 47/1/69 406/1/70 156/1/70
s 2
f 136/1/326 129/1/327 407/1/329
s 1
f 195/1/189 140/1/35 5/1/34
s 2
f 407/1/329 7/1/330 140/1/804
s 1
f 53/1/17 408/1/332 132/1/16
f 132/1/16 234/1/333 56/1/783
f 408/1/332 32/1/334 234/1/333
f 133/1/331 144/1/44 408/1/332
s 2
f 409/1/336 3/1/339 197/1/337
f 236/1/340 235/1/342 410/1/805
s 1
f 57/1/54 410/1/344 149/1/767
f 410/1/344 60/1/51 149/1/767
s 2
f 235/1/342 237/1/347 410/1/805
f 62/1/703 411/1/348 238/1/348
f 411/1/348 61/1/352 238/1/348
f 411/1/348 58/1/341 239/1/351
s 1
f 240/1/353 205/1/213 412/1/778
s 4
f 58/1/354 412/1/355 239/1/806
f 412/1/355 61/1/807 239/1/806
s 8
f 59/1/363 413/1/365 237/1/808
s 1
f 237/1/345 148/1/48 60/1/51
s 8
f 414/1/368 58/1/370 236/1/809
s 1
f 247/1/16 246/1/384 416/1/385
f 247/1/16 248/1/386 118/1/687
f 416/1/385 93/1/388 248/1/386
f 416/1/385 69/1/389 249/1/387
s 2
f 417/1/392 70/1/397 253/1/433
s 4
f 257/1/403 256/1/405 419/1/810
f 256/1/405 259/1/412 419/1/810
s 1
f 73/1/413 420/1/415 261/1/416
f 261/1/416 262/1/417 96/1/572
f 262/1/417 263/1/418 94/1/686
f 420/1/415 70/1/41 263/1/418
s 2
f 422/1/430 73/1/432 269/1/713
f 253/1/433 260/1/431 422/1/430
f 270/1/434 245/1/379 423/1/436
f 72/1/435 423/1/436 271/1/716
s 1
f 275/1/445 276/1/447 80/1/528
f 424/1/446 109/1/449 276/1/447
f 427/1/463 68/1/451 278/1/450
s 2
f 111/1/474 430/1/476 290/1/811
s 4
f 290/1/477 291/1/479 81/1/530
f 430/1/480 82/1/482 291/1/479
s 1
f 293/1/485 292/1/487 431/1/812
s 4
f 79/1/488 431/1/490 294/1/491
f 294/1/491 290/1/492 81/1/530
s 8
f 431/1/493 111/1/495 290/1/813
s 4
f 276/1/496 295/1/498 432/1/500
f 80/1/499 432/1/500 296/1/501
f 296/1/501 293/1/503 79/1/488
s 2
f 432/1/504 112/1/506 293/1/814
s 4
f 300/1/513 296/1/501 434/1/815
s 2
f 297/1/517 301/1/518 83/1/549
s 4
f 296/1/501 301/1/519 434/1/815
s 1
f 435/1/527 80/1/528 300/1/816
s 4
f 303/1/529 291/1/479 436/1/817
f 291/1/479 302/1/535 436/1/817
f 97/1/539 437/1/540 306/1/583
f 308/1/544 294/1/491 438/1/546
f 294/1/491 310/1/548 438/1/546
f 301/1/519 308/1/544 439/1/553
f 310/1/548 303/1/529 440/1/554
f 87/1/537 440/1/554 304/1/538
s 1
f 65/1/560 442/1/197 315/1/562
f 92/1/818 442/1/197 316/1/563
s 4
f 249/1/204 256/1/405 443/1/202
f 249/1/204 318/1/566 93/1/204
f 318/1/566 315/1/201 92/1/201
f 443/1/202 65/1/404 315/1/201
s 1
f 319/1/567 261/1/416 444/1/819
s 4
f 121/1/568 444/1/210 320/1/820
f 444/1/210 124/1/208 320/1/820
s 1
f 261/1/416 321/1/821 444/1/819
f 322/1/574 270/1/576 445/1/578
f 91/1/577 445/1/578 323/1/579
f 323/1/579 324/1/580 95/1/704
f 270/1/576 324/1/580 445/1/578
f 317/1/564 325/1/582 117/1/758
f 446/1/582 91/1/577 325/1/582
f 446/1/582 66/1/575 322/1/574
s 4
f 97/1/539 447/1/584 326/1/585
f 326/1/585 327/1/586 101/1/822
f 88/1/545 448/1/590 329/1/591
f 329/1/591 330/1/244 98/1/613
s 1
f 102/1/605 451/1/607 335/1/823
s 4
f 337/1/612 330/1/244 452/1/615
f 102/1/614 452/1/615 334/1/824
f 452/1/615 101/1/617 334/1/824
f 330/1/244 326/1/616 452/1/615
f 335/1/623 337/1/625 102/1/825
f 453/1/624 98/1/597 337/1/625
f 339/1/635 340/1/637 105/1/668
s 2
f 340/1/638 341/1/640 108/1/671
s 8
f 455/1/634 68/1/641 341/1/826
s 4
f 341/1/642 283/1/644 456/1/827
s 1
f 108/1/645 456/1/647 342/1/672
s 4
f 283/1/644 343/1/651 456/1/827
s 1
f 458/1/664 105/1/666 346/1/678
s 4
f 105/1/668 459/1/669 347/1/314
f 109/1/497 459/1/669 295/1/498
s 2
f 459/1/313 112/1/506 295/1/505
f 340/1/638 348/1/670 459/1/313
s 1
f 348/1/318 342/1/672 460/1/318
f 348/1/318 292/1/487 112/1/486
s 8
f 292/1/494 349/1/316 111/1/495
s 2
f 69/1/679 463/1/681 259/1/828
f 246/1/680 251/1/683 463/1/681
s 1
f 70/1/41 464/1/685 263/1/418
f 94/1/686 464/1/685 351/1/763
s 2
f 65/1/688 465/1/690 314/1/691
f 314/1/691 243/1/377 114/1/376
s 8
f 353/1/693 352/1/695 466/1/764
f 355/1/351 356/1/702 123/1/352
f 467/1/701 121/1/694 320/1/350
s 1
f 95/1/704 468/1/705 357/1/829
s 4
f 123/1/706 468/1/707 355/1/707
f 468/1/707 120/1/708 355/1/707
s 1
f 468/1/705 72/1/581 358/1/830
s 16
f 469/1/710 121/1/712 353/1/831
s 2
f 269/1/713 319/1/714 469/1/832
